<svg width="30" height="30" viewBox="0 0 30 30" fill="none" xmlns="http://www.w3.org/2000/svg">
<rect width="30" height="30" rx="5" fill="#35373F"/>
<path d="M6 9.695V20.0684C6 20.6712 6.31563 21.2404 6.84375 21.4513C9.5625 22.5396 12.2812 21.7962 15 21.0529C17.4937 20.3731 19.9875 19.6901 22.4781 20.42C23.1969 20.631 24 20.1019 24 19.3016V8.93156C24 8.32884 23.6844 7.75961 23.1562 7.54866C20.4375 6.46042 17.7188 7.20377 15 7.94712C12.5062 8.62686 10.0125 9.30659 7.52188 8.57663C6.8 8.36568 6 8.89473 6 9.695ZM15 17.7145C13.6188 17.7145 12.5 16.2747 12.5 14.5C12.5 12.7253 13.6188 11.2855 15 11.2855C16.3813 11.2855 17.5 12.7253 17.5 14.5C17.5 16.2747 16.3813 17.7145 15 17.7145ZM8 17.7145C9.10313 17.7145 10 18.6755 10 19.8575H8V17.7145ZM10 10.7498C10 11.9318 9.10313 12.8928 8 12.8928V10.7498H10ZM22 16.1072V18.2502H20C20 17.0682 20.8969 16.1072 22 16.1072ZM20 9.14251H22V11.2855C20.8969 11.2855 20 10.3245 20 9.14251Z" fill="white"/>
</svg>
