<svg width="121" height="39" viewBox="0 0 121 39" fill="none" xmlns="http://www.w3.org/2000/svg">
<path d="M32 14.0432V8.60307H33.2148V11.0128L35.6626 8.60307H37.2907L35.0273 10.7216L37.4081 14.0432H35.8414L34.191 11.489L33.215 12.3982V14.0431H32.0001L32 14.0432ZM38.0336 14.0432V8.60307H39.2485V10.7456H41.611V8.60307H42.8259V14.0432H41.611V11.665H39.2485V14.0432H38.0336ZM44.0839 8.60307H45.2987V11.5511C45.2987 12.0196 45.3141 12.3223 45.3434 12.4602C45.3951 12.6832 45.5166 12.863 45.7092 12.9972C45.9033 13.1326 46.1673 13.1998 46.5023 13.1998C46.8417 13.1998 47.0986 13.1365 47.2718 13.0086C47.4449 12.8807 47.5482 12.7249 47.5831 12.5388C47.618 12.3527 47.6362 12.0449 47.6362 11.6144V8.60307H48.851V11.4637C48.851 12.1171 48.8188 12.5793 48.7533 12.8491C48.6876 13.1188 48.5675 13.3467 48.3916 13.5328C48.217 13.719 47.9824 13.8659 47.6892 13.976C47.3945 14.0862 47.0119 14.1419 46.5386 14.1419C45.9674 14.1419 45.5346 14.0823 45.24 13.9621C44.9454 13.8419 44.7122 13.6861 44.5404 13.4936C44.3687 13.3011 44.2571 13.101 44.2026 12.8895C44.123 12.578 44.0839 12.1171 44.0839 11.508V8.60295V8.60307ZM52.462 14.0432V8.60307H53.6377L56.1064 12.2488V8.60307H57.2291V14.0432H56.0157L53.5846 10.4671V14.0432H52.462ZM58.5123 14.0432V8.60307H59.727V10.7456H62.0897V8.60307H63.3046V14.0432H62.0897V11.665H59.727V14.0432H58.5123ZM69.9665 14.0432H68.6581L68.14 12.8047H65.7341L65.2357 14.0432H63.951L66.2801 8.60307H67.5633L69.9665 14.0432ZM67.7463 11.8854L66.9126 9.87202L66.1028 11.8854H67.7463ZM67.5619 8.10922H66.8414L65.7104 7H66.9923L67.5619 8.10922ZM74.2895 14.0432V9.52245H72.5134V8.60307H77.272V9.52245H75.5043V14.0432H74.2895ZM78.0581 14.0432V8.60307H80.6093C81.2501 8.60307 81.7165 8.65244 82.007 8.75002C82.2988 8.84749 82.5306 9.02105 82.7052 9.27048C82.8798 9.52118 82.9678 9.80615 82.9678 10.1278C82.9678 10.5369 82.8364 10.8737 82.5726 11.1396C82.3087 11.4055 81.9149 11.5727 81.3899 11.6424C81.651 11.7804 81.8661 11.9323 82.035 12.0982C82.2053 12.2641 82.4343 12.5592 82.722 12.9821L83.4536 14.0433H82.0056L81.137 12.8556C80.8255 12.4339 80.612 12.1679 80.4961 12.0578C80.3816 11.949 80.2601 11.873 80.1317 11.8324C80.0019 11.7919 79.798 11.7717 79.5187 11.7717H79.273V14.0434H78.0583L78.0581 14.0432ZM79.2729 10.9053H80.1693C80.7502 10.9053 81.1118 10.8825 81.257 10.8381C81.4008 10.7938 81.5154 10.7166 81.5963 10.6076C81.6788 10.4988 81.7192 10.3619 81.7192 10.1986C81.7192 10.0149 81.6647 9.86807 81.5572 9.75411C81.4497 9.64142 81.2974 9.57044 81.102 9.54139C81.0028 9.52873 80.7082 9.52245 80.2181 9.52245H79.2727V10.9053H79.2729ZM83.857 11.3561C83.857 10.8015 83.9493 10.3354 84.132 9.9581C84.2675 9.6808 84.4546 9.43138 84.6905 9.211C84.9265 8.99073 85.1849 8.82728 85.4655 8.7197C85.8398 8.57658 86.2712 8.50444 86.7599 8.50444C87.6452 8.50444 88.3517 8.75386 88.8838 9.25154C89.4144 9.7505 89.6797 10.4431 89.6797 11.3308C89.6797 12.2109 89.4157 12.8998 88.8894 13.3961C88.363 13.8938 87.6578 14.1419 86.7767 14.1419C85.8844 14.1419 85.1737 13.895 84.6473 13.3998C84.1209 12.906 83.857 12.2247 83.857 11.356V11.3561ZM85.1054 11.3194C85.1054 11.9361 85.2631 12.4034 85.5774 12.7225C85.8916 13.0404 86.2909 13.1999 86.7741 13.1999C87.2586 13.1999 87.6552 13.0416 87.9666 12.7263C88.2767 12.4097 88.4316 11.9361 88.4316 11.3042C88.4316 10.6799 88.2808 10.2139 87.9778 9.90745C87.6762 9.59971 87.2754 9.44648 86.7741 9.44648C86.2743 9.44648 85.8707 9.60227 85.5648 9.91245C85.259 10.2239 85.1055 10.6925 85.1055 11.3193L85.1054 11.3194ZM86.1527 15.5324V14.4915H87.3004V15.5324H86.1527Z" fill="white"/>
<path d="M25.7469 25.6234C25.7469 27.1138 25.2629 28.3404 24.2951 29.3034L26.8529 31.7614H23.1938L21.9656 30.5232C21.6061 30.5965 21.2305 30.6332 20.8389 30.6332C19.931 30.6332 19.1038 30.4292 18.3595 30.0188C17.6152 29.6083 17.0345 29.0328 16.6198 28.2923C16.2073 27.5517 16 26.7125 16 25.7771C16 24.7958 16.2097 23.9153 16.6267 23.1311C17.0462 22.347 17.6336 21.7416 18.3895 21.3152C19.1454 20.8864 20.0048 20.6733 20.968 20.6733C21.8943 20.6733 22.7238 20.8774 23.4542 21.2877C24.187 21.6981 24.7515 22.2828 25.1502 23.0418C25.5487 23.7984 25.747 24.6605 25.747 25.6235L25.7469 25.6234ZM22.65 25.706C22.65 24.915 22.4978 24.2912 22.1914 23.835C21.885 23.3787 21.4678 23.1495 20.9378 23.1495C20.3572 23.1495 19.9055 23.3695 19.5829 23.8075C19.258 24.2455 19.0968 24.8645 19.0968 25.6671C19.0968 26.4489 19.258 27.0611 19.5783 27.499C19.9009 27.937 20.3364 28.1571 20.8895 28.1571C21.4172 28.1571 21.8411 27.9346 22.1637 27.4921C22.4886 27.0496 22.65 26.4534 22.65 25.706ZM35.5513 26.0683C35.5513 27.6114 35.1964 28.76 34.4891 29.5098C33.7794 30.2596 32.6872 30.6333 31.2125 30.6333C29.8345 30.6333 28.7908 30.2596 28.0765 29.5098C27.3645 28.76 27.0074 27.6297 27.0074 26.1211V20.8383H29.9384V26.2311C29.9384 26.8478 30.0536 27.3224 30.2863 27.6572C30.5191 27.9897 30.8508 28.1571 31.2841 28.1571C31.7196 28.1571 32.0514 28.0012 32.2796 27.6871C32.5076 27.3729 32.6206 26.9098 32.6206 26.2976V20.8383H35.5516V26.0683H35.5513ZM43.4203 30.4682L42.9941 28.6936H40.1046L39.646 30.4682H36.4938L39.8281 20.8382H43.4481L46.5864 30.4682H43.4203ZM41.5793 22.9293H41.5125C41.5032 23.0371 41.4732 23.2137 41.4179 23.459C41.365 23.7065 41.0909 24.7636 40.6 26.63H42.4526L41.7775 24.0116C41.6831 23.6264 41.6163 23.2641 41.5793 22.9293ZM54.4807 30.4682L51.0635 25.8206C50.7939 25.4539 50.5727 25.1236 50.4021 24.8278H50.3746C50.4021 25.3024 50.416 25.8343 50.416 26.4259V30.4682H47.72V20.8382H50.4759L53.7502 25.2565C53.7894 25.3139 53.8401 25.3826 53.8977 25.4651C53.9554 25.5454 54.0153 25.6279 54.0728 25.7127C54.1327 25.7975 54.188 25.8801 54.2388 25.9603C54.2894 26.0406 54.331 26.1139 54.3563 26.1759H54.3838C54.3563 25.9787 54.3424 25.6393 54.3424 25.1556V20.8381H57.0384V30.4681H54.4807V30.4682ZM67.4213 29.8331C67.0572 30.0394 66.5134 30.2252 65.7876 30.388C65.064 30.5508 64.3728 30.6333 63.716 30.6333C62.0224 30.6333 60.7113 30.2115 59.7896 29.3677C58.868 28.524 58.4071 27.3409 58.4071 25.8184C58.4071 24.7981 58.6398 23.8902 59.1053 23.0969C59.5708 22.3058 60.2274 21.7028 61.073 21.2901C61.9187 20.8797 62.9165 20.6734 64.064 20.6734C64.9051 20.6734 65.8037 20.7926 66.7576 21.0287V23.5624C66.3129 23.3606 65.8844 23.2207 65.4742 23.1427C65.064 23.0648 64.617 23.0259 64.1308 23.0259C63.3289 23.0259 62.6906 23.2666 62.216 23.7458C61.7414 24.225 61.504 24.883 61.504 25.7199C61.504 26.5224 61.7022 27.1506 62.1009 27.6024C62.4995 28.0541 63.0548 28.2811 63.7691 28.2811C64.1009 28.2811 64.3475 28.2627 64.5042 28.226V26.8503H62.6516V24.6492H67.4214V29.8332L67.4213 29.8331ZM79.1014 30.4682V26.8777H75.7557V30.4682H72.8385V20.8382H75.7557V24.4012H79.1014V20.8382H82.0187V30.4682H79.1014ZM83.9288 30.4682V20.8382H86.846V30.4682H83.9288ZM88.7493 30.4682V20.8382H94.775V23.1081H91.6665V24.5114H94.5837V26.7813H91.6665V28.1982H94.9984V30.4681H88.7493V30.4682ZM95.2197 18.9604H93.5882L94.9916 17H97.4041L95.2197 18.9604ZM92.6896 20.1504L91.6896 19.1232L90.6988 20.1504H88.9291L90.6574 17.995H92.7981L94.5262 20.1504H92.6897H92.6896ZM104.812 26.0682C104.812 27.6113 104.457 28.7599 103.75 29.5097C103.04 30.2595 101.948 30.6332 100.473 30.6332C99.0953 30.6332 98.0514 30.2595 97.3372 29.5097C96.6252 28.7599 96.2681 27.6296 96.2681 26.1209V20.8382H99.1991V26.231C99.1991 26.8477 99.3143 27.3223 99.5469 27.6571C99.7797 27.9896 100.112 28.157 100.545 28.157C100.98 28.157 101.312 28.0011 101.54 27.687C101.768 27.3728 101.881 26.9096 101.881 26.2975V20.8382H104.812V26.0682H104.812Z" fill="white"/>
<path fill-rule="evenodd" clip-rule="evenodd" d="M0.422548 21.5521C-0.498933 22.5385 0.143436 24.3172 1.79861 24.4431C2.18342 24.4723 2.59144 24.3998 2.9157 24.2342C3.00934 24.1864 3.14299 24.0918 3.2129 24.0695C3.25933 23.9987 3.37875 23.9162 3.44891 23.8522C3.52395 23.784 3.62336 23.6725 3.70532 23.6308C3.76574 23.5331 4.27342 23.1022 4.40157 22.9856C4.57075 22.8319 6.4182 21.1406 6.50966 21.0838L6.51043 38.7057C8.04106 38.6892 9.57912 38.7052 11.1068 38.7052H60.4998V35.1296L11.9831 35.1287C11.7274 35.1287 10.6126 35.1581 10.4537 35.1178L10.4551 17.5545C10.4661 17.505 10.4494 17.5331 10.4793 17.5064L20.628 8.29879C20.6564 8.23513 20.6456 8.25464 20.7008 8.20504L20.9445 7.98536C21.0382 7.9002 21.861 7.13253 21.9313 7.10547C21.9791 7.02043 22.3847 6.67691 22.4911 6.58037C22.6914 6.39856 24.1244 5.08035 24.2119 5.03539L28.1037 8.56703L30.7437 5.96267H30.8088C28.727 4.0837 27.0191 2.51967 26.7768 2.29987L24.3916 0.136735C24.3608 0.108854 24.3454 0.0941001 24.315 0.0656378C24.2582 0.0121984 24.2777 0.0146377 24.1921 0C24.1609 0.0530909 22.8878 1.19158 22.7268 1.33761L0.616233 21.3894C0.582242 21.4203 0.54979 21.4451 0.520032 21.4773C0.467313 21.534 0.496559 21.5516 0.42242 21.5521H0.422548Z" fill="white"/>
<path fill-rule="evenodd" clip-rule="evenodd" d="M120.077 21.5521C120.999 22.5385 120.357 24.3172 118.701 24.4431C118.316 24.4723 117.908 24.3998 117.584 24.2342C117.49 24.1864 117.357 24.0918 117.287 24.0695C117.24 23.9987 117.121 23.9162 117.051 23.8522C116.976 23.784 116.876 23.6725 116.794 23.6308C116.734 23.5331 116.226 23.1022 116.098 22.9856C115.929 22.8319 114.082 21.1406 113.99 21.0838L113.989 38.7057C112.459 38.6892 110.921 38.7052 109.393 38.7052H60V35.1296L108.517 35.1287C108.772 35.1287 109.887 35.1581 110.046 35.1178L110.045 17.5545C110.034 17.505 110.05 17.5331 110.02 17.5064L99.8719 8.29879C99.8434 8.23513 99.8543 8.25464 99.7992 8.20504L99.5554 7.98536C99.4617 7.9002 98.639 7.13253 98.5687 7.10547C98.5208 7.02043 98.1153 6.67691 98.0088 6.58037C97.8086 6.39856 96.3755 5.08035 96.2881 5.03539L92.3963 8.56703L89.7563 5.96267H89.6911C91.7729 4.0837 93.4808 2.51967 93.7231 2.29987L96.1084 0.136735C96.1392 0.108854 96.1544 0.0941001 96.1848 0.0656378C96.2416 0.0121984 96.2221 0.0146377 96.3078 0C96.339 0.0530909 97.6122 1.19158 97.7732 1.33761L119.884 21.3894C119.918 21.4203 119.95 21.4451 119.98 21.4773C120.033 21.534 120.003 21.5516 120.078 21.5521H120.077Z" fill="white"/>
</svg>
