<svg width="158" height="51" viewBox="0 0 158 51" fill="none" xmlns="http://www.w3.org/2000/svg">
<path d="M41.3394 18.1381V11.0344H42.9257V14.1811L46.122 11.0344H48.2479L45.2924 13.8008L48.4012 18.1381H46.3554L44.2003 14.8029L42.9259 15.99V18.1379H41.3396L41.3394 18.1381ZM49.218 18.1381V11.0344H50.8043V13.8322H53.8894V11.0344H55.4757V18.1381H53.8894V15.0327H50.8043V18.1381H49.218ZM57.1184 11.0344H58.7047V14.8839C58.7047 15.4957 58.7248 15.891 58.763 16.071C58.8305 16.3622 58.9891 16.597 59.2407 16.7722C59.4941 16.9491 59.8388 17.0367 60.2763 17.0367C60.7195 17.0367 61.055 16.9541 61.2811 16.7871C61.5072 16.62 61.642 16.4166 61.6876 16.1736C61.7331 15.9306 61.7569 15.5287 61.7569 14.9665V11.0344H63.3432V14.7698C63.3432 15.6229 63.3012 16.2265 63.2156 16.5788C63.1298 16.931 62.9731 17.2286 62.7433 17.4717C62.5153 17.7147 62.209 17.9066 61.8261 18.0504C61.4414 18.1942 60.9417 18.267 60.3237 18.267C59.5779 18.267 59.0127 18.1892 58.628 18.0322C58.2433 17.8752 57.9388 17.6717 57.7145 17.4204C57.4903 17.169 57.3445 16.9078 57.2733 16.6316C57.1695 16.2249 57.1184 15.6229 57.1184 14.8276V11.0343V11.0344ZM68.0584 18.1381V11.0344H69.5937L72.8172 15.795V11.0344H74.2832V18.1381H72.6988L69.5243 13.4684V18.1381H68.0584ZM75.9588 18.1381V11.0344H77.545V13.8322H80.6302V11.0344H82.2165V18.1381H80.6302V15.0327H77.545V18.1381H75.9588ZM90.9155 18.1381H89.207L88.5305 16.5208H85.3889L84.738 18.1381H83.0606L86.1019 11.0344H87.7775L90.9155 18.1381ZM88.0163 15.3205L86.9278 12.6914L85.8703 15.3205H88.0163ZM87.7757 10.3896H86.8349L85.3579 8.94116H87.0318L87.7757 10.3896ZM96.5604 18.1381V12.2349H94.2412V11.0344H100.455V12.2349H98.1467V18.1381H96.5604ZM101.481 18.1381V11.0344H104.813C105.649 11.0344 106.258 11.0989 106.638 11.2263C107.019 11.3536 107.322 11.5802 107.549 11.9059C107.777 12.2333 107.892 12.6054 107.892 13.0254C107.892 13.5596 107.721 13.9993 107.376 14.3466C107.032 14.6938 106.518 14.9121 105.832 15.0031C106.173 15.1833 106.454 15.3817 106.674 15.5984C106.897 15.815 107.196 16.2003 107.571 16.7525L108.527 18.1382H106.636L105.502 16.5873C105.095 16.0366 104.816 15.6894 104.665 15.5456C104.515 15.4034 104.357 15.3042 104.189 15.2513C104.02 15.1983 103.753 15.1719 103.389 15.1719H103.068V18.1384H101.482L101.481 18.1381ZM103.068 14.0406H104.238C104.997 14.0406 105.469 14.0109 105.659 13.9529C105.846 13.8951 105.996 13.7942 106.102 13.6519C106.209 13.5098 106.262 13.3311 106.262 13.1178C106.262 12.878 106.191 12.6862 106.05 12.5374C105.91 12.3903 105.711 12.2976 105.456 12.2597C105.327 12.2431 104.942 12.2349 104.302 12.2349H103.067V14.0406H103.068ZM109.054 14.6293C109.054 13.9051 109.174 13.2965 109.413 12.8038C109.59 12.4417 109.834 12.116 110.142 11.8283C110.45 11.5406 110.787 11.3272 111.154 11.1867C111.643 10.9998 112.206 10.9056 112.844 10.9056C114 10.9056 114.923 11.2313 115.617 11.8812C116.31 12.5327 116.657 13.4371 116.657 14.5963C116.657 15.7455 116.312 16.6451 115.625 17.2931C114.937 17.943 114.016 18.267 112.866 18.267C111.701 18.267 110.773 17.9445 110.085 17.298C109.398 16.6531 109.054 15.7636 109.054 14.6292V14.6293ZM110.684 14.5814C110.684 15.3866 110.89 15.9969 111.3 16.4136C111.71 16.8286 112.232 17.0369 112.863 17.0369C113.495 17.0369 114.013 16.8301 114.42 16.4184C114.825 16.0051 115.027 15.3866 115.027 14.5615C115.027 13.7463 114.83 13.1378 114.434 12.7377C114.041 12.3358 113.517 12.1357 112.863 12.1357C112.21 12.1357 111.683 12.3392 111.284 12.7442C110.884 13.1509 110.684 13.7628 110.684 14.5812L110.684 14.5814ZM112.051 20.0827V18.7235H113.55V20.0827H112.051Z" fill="#354B9C"/>
<path d="M33.7411 32.9333C33.7411 34.8794 33.1092 36.4812 31.8454 37.7386L35.1854 40.9482H30.4074L28.8036 39.3314C28.3342 39.4271 27.8437 39.4751 27.3324 39.4751C26.1469 39.4751 25.0667 39.2087 24.0948 38.6728C23.1228 38.1368 22.3646 37.3853 21.8231 36.4184C21.2845 35.4513 21.0138 34.3555 21.0138 33.134C21.0138 31.8526 21.2876 30.7029 21.8322 29.679C22.3799 28.655 23.147 27.8645 24.134 27.3078C25.121 26.7479 26.2432 26.4695 27.5009 26.4695C28.7105 26.4695 29.7937 26.7361 30.7474 27.2718C31.7043 27.8078 32.4414 28.5713 32.9619 29.5623C33.4823 30.5503 33.7413 31.676 33.7413 32.9335L33.7411 32.9333ZM29.6972 33.0412C29.6972 32.0083 29.4986 31.1938 29.0984 30.5981C28.6983 30.0022 28.1536 29.7029 27.4615 29.7029C26.7033 29.7029 26.1136 29.9902 25.6923 30.5621C25.2681 31.134 25.0575 31.9424 25.0575 32.9903C25.0575 34.0113 25.2681 34.8107 25.6863 35.3825C26.1075 35.9543 26.6762 36.2418 27.3984 36.2418C28.0874 36.2418 28.641 35.9513 29.0622 35.3735C29.4865 34.7957 29.6972 34.0172 29.6972 33.0412ZM46.5436 33.5143C46.5436 35.5293 46.0802 37.0291 45.1566 38.0082C44.2299 38.9872 42.8037 39.4752 40.8781 39.4752C39.0787 39.4752 37.7158 38.9872 36.7831 38.0082C35.8533 37.0291 35.387 35.5531 35.387 33.5832V26.6851H39.2144V33.7268C39.2144 34.5322 39.3648 35.1519 39.6686 35.5891C39.9726 36.0232 40.4058 36.2418 40.9715 36.2418C41.5402 36.2418 41.9735 36.0382 42.2714 35.628C42.5692 35.2179 42.7168 34.613 42.7168 33.8138V26.6851H46.544V33.5143H46.5436ZM56.8189 39.2597L56.2623 36.9423H52.4892L51.8904 39.2597H47.7744L52.1281 26.6849H56.8551L60.9531 39.2597H56.8189ZM54.4149 29.4155H54.3276C54.3156 29.5562 54.2764 29.7868 54.2042 30.1071C54.135 30.4303 53.7771 31.8106 53.1361 34.2478H55.5552L54.6736 30.8287C54.5504 30.3256 54.4631 29.8527 54.4149 29.4155ZM71.2613 39.2597L66.7992 33.1909C66.4471 32.712 66.1583 32.2807 65.9356 31.8945H65.8996C65.9356 32.5142 65.9537 33.2088 65.9537 33.9812V39.2597H62.4333V26.6849H66.0319L70.3074 32.4543C70.3587 32.5292 70.4248 32.6188 70.5 32.7267C70.5754 32.8315 70.6536 32.9392 70.7287 33.05C70.8069 33.1607 70.8791 33.2686 70.9454 33.3732C71.0116 33.4781 71.0658 33.5738 71.0988 33.6548H71.1348C71.0988 33.3974 71.0807 32.9541 71.0807 32.3224V26.6848H74.6011V39.2595H71.2613V39.2597ZM88.159 38.4303C87.6835 38.6997 86.9735 38.9423 86.0256 39.1548C85.0808 39.3675 84.1782 39.4752 83.3207 39.4752C81.1091 39.4752 79.3972 38.9244 78.1936 37.8226C76.9902 36.7209 76.3884 35.176 76.3884 33.188C76.3884 31.8557 76.6922 30.6702 77.3 29.6342C77.9078 28.6013 78.7652 27.8139 79.8695 27.275C80.9738 26.7391 82.2767 26.4697 83.7751 26.4697C84.8733 26.4697 86.0467 26.6253 87.2924 26.9337V30.2421C86.7117 29.9786 86.1521 29.7959 85.6165 29.6941C85.0808 29.5924 84.4971 29.5415 83.8623 29.5415C82.8152 29.5415 81.9817 29.8558 81.362 30.4816C80.7423 31.1073 80.4323 31.9665 80.4323 33.0594C80.4323 34.1073 80.691 34.9275 81.2116 35.5175C81.7322 36.1073 82.4572 36.4037 83.39 36.4037C83.8233 36.4037 84.1452 36.3797 84.3499 36.3318V34.5354H81.9308V31.6612H88.1591V38.4305L88.159 38.4303ZM103.411 39.2597V34.5712H99.0419V39.2597H95.2326V26.6849H99.0419V31.3375H103.411V26.6849H107.22V39.2597H103.411ZM109.714 39.2597V26.6849H113.523V39.2597H109.714ZM116.009 39.2597V26.6849H123.877V29.6489H119.818V31.4813H123.627V34.4453H119.818V36.2955H124.169V39.2595H116.009V39.2597ZM124.458 24.2329H122.327L124.16 21.673H127.31L124.458 24.2329ZM121.154 25.7867L119.848 24.4454L118.554 25.7867H116.244L118.5 22.9723H121.296L123.552 25.7867H121.154H121.154ZM136.983 33.5142C136.983 35.5291 136.52 37.029 135.596 38.008C134.67 38.9871 133.243 39.4751 131.318 39.4751C129.518 39.4751 128.155 38.9871 127.223 38.008C126.293 37.029 125.827 35.553 125.827 33.583V26.6849H129.654V33.7267C129.654 34.532 129.804 35.1517 130.108 35.5889C130.412 36.0231 130.845 36.2417 131.411 36.2417C131.98 36.2417 132.413 36.0381 132.711 35.6279C133.009 35.2177 133.156 34.6129 133.156 33.8136V26.6849H136.984V33.5142H136.983Z" fill="#ED3237"/>
<path fill-rule="evenodd" clip-rule="evenodd" d="M0.551757 28.1424C-0.651499 29.4305 0.187297 31.7531 2.3486 31.9174C2.85108 31.9556 3.38386 31.861 3.80728 31.6446C3.92955 31.5823 4.10407 31.4587 4.19536 31.4295C4.25599 31.3372 4.41192 31.2294 4.50354 31.1459C4.60152 31.0568 4.73133 30.9112 4.83836 30.8567C4.91724 30.7292 5.58017 30.1665 5.7475 30.0142C5.96842 29.8135 8.38079 27.6051 8.50021 27.5309L8.50122 50.5413C10.4999 50.5198 12.5083 50.5407 14.5031 50.5407H78.9997V45.8716L15.6474 45.8706C15.3134 45.8706 13.8578 45.909 13.6502 45.8563L13.6521 22.9224C13.6665 22.8578 13.6447 22.8945 13.6837 22.8596L26.9358 10.8364C26.9728 10.7533 26.9587 10.7788 27.0308 10.714L27.349 10.4272C27.4714 10.316 28.5457 9.31356 28.6375 9.27821C28.7 9.16717 29.2296 8.7186 29.3686 8.59254C29.6301 8.35514 31.5013 6.63384 31.6155 6.57513L36.6973 11.1867L40.1446 7.78597H40.2297C37.5113 5.33243 35.2812 3.29014 34.9648 3.00313L31.8501 0.178547C31.8099 0.14214 31.7899 0.122875 31.7502 0.0857089C31.676 0.0159285 31.7014 0.0191138 31.5897 0C31.549 0.0693253 29.8865 1.55595 29.6763 1.74663L0.804668 27.9299C0.760283 27.9703 0.717908 28.0027 0.67905 28.0447C0.610211 28.1188 0.648399 28.1418 0.551589 28.1424H0.551757Z" fill="#354B9C"/>
<path fill-rule="evenodd" clip-rule="evenodd" d="M157.448 28.1424C158.652 29.4305 157.813 31.7531 155.651 31.9174C155.149 31.9556 154.616 31.861 154.193 31.6446C154.07 31.5823 153.896 31.4587 153.805 31.4295C153.744 31.3372 153.588 31.2294 153.496 31.1459C153.398 31.0568 153.269 30.9112 153.162 30.8567C153.083 30.7292 152.42 30.1665 152.252 30.0142C152.031 29.8135 149.619 27.6051 149.5 27.5309L149.498 50.5413C147.5 50.5198 145.491 50.5407 143.497 50.5407H79.0001V45.8716L142.352 45.8706C142.686 45.8706 144.142 45.909 144.35 45.8563L144.348 22.9224C144.333 22.8578 144.355 22.8945 144.316 22.8596L131.064 10.8364C131.027 10.7533 131.041 10.7788 130.969 10.714L130.651 10.4272C130.529 10.316 129.454 9.31356 129.363 9.27821C129.3 9.16717 128.77 8.7186 128.631 8.59254C128.37 8.35514 126.499 6.63384 126.385 6.57513L121.303 11.1867L117.855 7.78597H117.77C120.489 5.33243 122.719 3.29014 123.035 3.00313L126.15 0.178547C126.19 0.14214 126.21 0.122875 126.25 0.0857089C126.324 0.0159285 126.298 0.0191138 126.41 0C126.451 0.0693253 128.114 1.55595 128.324 1.74663L157.195 27.9299C157.24 27.9703 157.282 28.0027 157.321 28.0447C157.39 28.1188 157.352 28.1418 157.448 28.1424H157.448Z" fill="#ED3237"/>
</svg>
