<svg xmlns="http://www.w3.org/2000/svg" version="1.1" width="3300" height="2000"><g id="Notes"><style>
    text {
      font-family: monospace;
      text-anchor: middle;
    }
    text.emphasis {
      font-weight:bold;
    }
    text.lanchor {
      text-anchor: start;
    }
  </style><rect height="2200" id="artboard" fill="white" width="3300" x="0" y="0"/><line id="" style="fill:none;stroke:black;stroke-width:0.5;" x1="263" x2="3036" y1="292" y2="292"/><text class="lanchor emphasis" transform="matrix(1 0 0 1 263 322)">Weight/Scale Variations</text><text transform="matrix(1 0 0 1 559.711 322)">Ultralight</text><text transform="matrix(1 0 0 1 856.422 322)">Thin</text><text transform="matrix(1 0 0 1 1153.13 322)">Light</text><text transform="matrix(1 0 0 1 1449.84 322)">Regular</text><text transform="matrix(1 0 0 1 1746.56 322)">Medium</text><text transform="matrix(1 0 0 1 2043.27 322)">Semibold</text><text transform="matrix(1 0 0 1 2339.98 322)">Bold</text><text transform="matrix(1 0 0 1 2636.69 322)">Heavy</text><text transform="matrix(1 0 0 1 2933.4 322)">Black</text><text id="template-version" style="text-anchor: end;" transform="matrix(1 0 0 1 3036 1933)">Template v.1.0</text><text class="lanchor" transform="matrix(1 0 0 1 263 726)">Small</text><text class="lanchor" transform="matrix(1 0 0 1 263 1156)">Medium</text><text class="lanchor" transform="matrix(1 0 0 1 263 1586)">Large</text></g><g id="Guides"><g id="H-reference" style="fill:#27AAE1;stroke:none;" transform="matrix(1 0 0 1 339 696)"><path d="M 54.9316 0 L 57.666 0 L 30.5664 -70.459 L 28.0762 -70.459 L 0.976562 0 L 3.66211 0 L 12.9395 -24.4629 L 45.7031 -24.4629 Z M 29.1992 -67.0898 L 29.4434 -67.0898 L 44.8242 -26.709 L 13.8184 -26.709 Z"/></g><line id="Baseline-S" style="fill:none;stroke:#27AAE1;opacity:1;stroke-width:0.577;" x1="263" x2="3036" y1="696" y2="696"/><line id="Capline-S" style="fill:none;stroke:#27AAE1;opacity:1;stroke-width:0.577;" x1="263" x2="3036" y1="625.541" y2="625.541"/><g id="H-reference" style="fill:#27AAE1;stroke:none;" transform="matrix(1 0 0 1 339 1126)"><path d="M 54.9316 0 L 57.666 0 L 30.5664 -70.459 L 28.0762 -70.459 L 0.976562 0 L 3.66211 0 L 12.9395 -24.4629 L 45.7031 -24.4629 Z M 29.1992 -67.0898 L 29.4434 -67.0898 L 44.8242 -26.709 L 13.8184 -26.709 Z"/></g><line id="Baseline-M" style="fill:none;stroke:#27AAE1;opacity:1;stroke-width:0.577;" x1="263" x2="3036" y1="1126" y2="1126"/><line id="Capline-M" style="fill:none;stroke:#27AAE1;opacity:1;stroke-width:0.577;" x1="263" x2="3036" y1="1055.54" y2="1055.54"/><g id="H-reference" style="fill:#27AAE1;stroke:none;" transform="matrix(1 0 0 1 339 1556)"><path d="M 54.9316 0 L 57.666 0 L 30.5664 -70.459 L 28.0762 -70.459 L 0.976562 0 L 3.66211 0 L 12.9395 -24.4629 L 45.7031 -24.4629 Z M 29.1992 -67.0898 L 29.4434 -67.0898 L 44.8242 -26.709 L 13.8184 -26.709 Z"/></g><line id="Baseline-L" style="fill:none;stroke:#27AAE1;opacity:1;stroke-width:0.577;" x1="263" x2="3036" y1="1556" y2="1556"/><line id="Capline-L" style="fill:none;stroke:#27AAE1;opacity:1;stroke-width:0.577;" x1="263" x2="3036" y1="1485.54" y2="1485.54"/><rect height="119.336" id="left-margin" style="fill:darkred;stroke:none;opacity:0.4;" width="12.4512" x="1394.06" y="1030.79"/><rect height="119.336" id="right-margin" style="fill:darkgreen;stroke:none;opacity:0.4;" width="12.4512" x="1502.5112" y="1030.79"/><rect x="1406.5112" y="1045" width="96" height="96" fill="none" stroke="blue" stroke-dasharray="5"/><rect x="1394.06" y="1030.79" width="120.9024" height="119.336" fill="none" stroke="blue"/></g><g id="Symbols"><g id="Bold-L" transform="matrix(1 0 0 1 2266 1556)"><path d="M38.7 20.401250000000033 Q26.28375 20.401250000000033 17.57625 11.693750000000023 Q8.86875 2.9862500000000125 8.86875 -9.429999999999978 V-61.02999999999999 Q8.86875 -73.44624999999999 17.57625 -82.23437499999999 Q26.28375 -91.02249999999998 38.7 -91.02249999999998 H116.10000000000001 Q128.51625 -91.02249999999998 137.304375 -82.23437499999999 Q146.0925 -73.44624999999999 146.0925 -61.02999999999999 V-9.429999999999978 Q146.0925 2.9862500000000125 137.304375 11.693750000000023 Q128.51625 20.401250000000033 116.10000000000001 20.401250000000033 H38.7 Z M42.73125 -61.02999999999999 H112.875 Q117.87375 -61.02999999999999 122.469375 -59.41749999999999 Q127.065 -57.80499999999998 130.77375 -55.063749999999985 V-61.02999999999999 Q130.77375 -67.15749999999998 126.500625 -71.43062499999999 Q122.2275 -75.70374999999999 116.10000000000001 -75.70374999999999 H38.7 Q32.5725 -75.70374999999999 28.299375 -71.43062499999999 Q24.02625 -67.15749999999998 24.02625 -61.02999999999999 V-54.74124999999998 Q27.896250000000002 -57.64374999999998 32.653125 -59.33687499999998 Q37.410000000000004 -61.02999999999999 42.73125 -61.02999999999999 Z M27.4125 -34.423749999999984  98.3625 -17.331249999999983 Q100.13625 -16.847499999999982 101.91 -17.250624999999985 Q103.68375 -17.653749999999988 105.135 -18.782499999999985 L127.065 -37.32624999999999 Q125.13000000000001 -41.19624999999998 121.26 -43.453749999999985 Q117.39 -45.71124999999998 112.875 -45.71124999999998 H42.73125 Q37.24875 -45.71124999999998 33.05625 -42.486249999999984 Q28.86375 -39.26124999999999 27.4125 -34.423749999999984 Z"/></g><g id="Semibold-L" transform="matrix(1 0 0 1 1970.27 1556)"><path d="M38.7 18.648623750000013 Q27.0548475 18.648623750000013 18.838192499999998 10.43180750000002 Q10.62137625 2.2151525000000163 10.62137625 -9.429999999999978 V-61.02999999999999 Q10.62137625 -72.6751525 18.838192499999998 -80.93744124999998 Q27.0548475 -89.19972999999999 38.7 -89.19972999999999 H116.10000000000001 Q127.7451525 -89.19972999999999 136.00744125 -80.93744124999998 Q144.26973 -72.6751525 144.26973 -61.02999999999999 V-9.429999999999978 Q144.26973 2.2151525000000163 136.00744125 10.43180750000002 Q127.7451525 18.648623750000013 116.10000000000001 18.648623750000013 H38.7 Z M40.978623750000004 -60.328884999999985 H114.27706875000001 Q119.1356925 -60.328884999999985 123.52088624999999 -58.78652874999999 Q127.90624125000001 -57.244172499999976 131.40472125 -54.50292249999998 V-61.02999999999999 Q131.40472125 -67.43791374999998 126.95631750000001 -71.88631749999999 Q122.50791375000001 -76.33472124999999 116.10000000000001 -76.33472124999999 H38.7 Q32.29208625 -76.33472124999999 27.843682500000003 -71.88631749999999 Q23.39527875 -67.43791374999998 23.39527875 -61.02999999999999 V-54.320548749999986 Q26.984865000000003 -57.15306624999998 31.461326250000003 -58.741056249999986 Q35.9377875 -60.328884999999985 40.978623750000004 -60.328884999999985 Z M25.5197475 -35.75567499999998  99.063615 -18.03236499999997 Q100.55695125000001 -17.618597499999993 102.08527875 -17.951739999999972 Q103.61360625000002 -18.28472124999999 104.78444250000001 -19.273183749999987 L128.396925 -39.14901999999998 Q126.39194250000001 -42.948876249999984 122.591925 -45.20637624999999 Q118.79206875000001 -47.463876249999984 114.27706875000001 -47.463876249999984 H40.978623750000004 Q35.42598 -47.463876249999984 31.163497500000002 -44.133741249999986 Q26.90085375 -40.80360624999999 25.5197475 -35.75567499999998 Z"/></g><g id="Medium-L" transform="matrix(1 0 0 1 1674.31 1556)"><path d="M38.7 17.33395250000001 Q27.633412500000002 17.33395250000001 19.78473 9.485270000000014 Q11.9360475 1.6365875000000187 11.9360475 -9.429999999999978 V-61.02999999999999 Q11.9360475 -72.09658749999998 19.78473 -79.96461999999998 Q27.633412500000002 -87.83265249999998 38.7 -87.83265249999998 H116.10000000000001 Q127.1665875 -87.83265249999998 135.03462 -79.96461999999998 Q142.9026525 -72.09658749999998 142.9026525 -61.02999999999999 V-9.429999999999978 Q142.9026525 1.6365875000000187 135.03462 9.485270000000014 Q127.1665875 17.33395250000001 116.10000000000001 17.33395250000001 H38.7 Z M39.6639525 -59.80304874999999 H115.32874125000001 Q120.08223000000001 -59.80304874999999 124.30972125000001 -58.313259999999985 Q128.5372125 -56.82347124999998 131.87798999999998 -54.08222124999999 V-61.02999999999999 Q131.87798999999998 -67.64818374999999 127.2981675 -72.22816749999998 Q122.71818375000001 -76.80798999999999 116.10000000000001 -76.80798999999999 H38.7 Q32.08181625 -76.80798999999999 27.501832500000003 -72.22816749999998 Q22.92201 -67.64818374999999 22.92201 -61.02999999999999 V-54.00514374999999 Q26.301326250000002 -56.78493249999998 30.56735625 -58.29407124999999 Q34.8335475 -59.80304874999999 39.6639525 -59.80304874999999 Z M24.09994125 -36.75477999999998  99.58945125000001 -18.558201249999982 Q100.87235625000001 -18.197162499999976 102.21669750000001 -18.477576249999984 Q103.56103875000001 -18.757989999999978 104.52160500000001 -19.641317499999985 L129.39603 -40.51609749999999 Q127.33848 -44.26354749999999 123.59103 -46.52104749999998 Q119.84374125000001 -48.77854749999999 115.32874125000001 -48.77854749999999 H39.6639525 Q34.0589025 -48.77854749999999 29.74369125 -45.369399999999985 Q25.42848 -41.96041374999999 24.09994125 -36.75477999999998 Z"/></g><g id="Regular-L" transform="matrix(1 0 0 1 1378.56 1556)"><path d="M38.7 16.370000000000033 Q28.0575 16.370000000000033 20.47875 8.79125000000002 Q12.9 1.2125000000000057 12.9 -9.429999999999978 V-61.02999999999999 Q12.9 -71.67249999999999 20.47875 -79.25124999999998 Q28.0575 -86.82999999999998 38.7 -86.82999999999998 H116.10000000000001 Q126.7425 -86.82999999999998 134.32125 -79.25124999999998 Q141.9 -71.67249999999999 141.9 -61.02999999999999 V-9.429999999999978 Q141.9 1.2125000000000057 134.32125 8.79125000000002 Q126.7425 16.370000000000033 116.10000000000001 16.370000000000033 H38.7 Z M38.7 -59.41749999999999 H116.10000000000001 Q120.77625 -59.41749999999999 124.888125 -57.96624999999999 Q129.0 -56.514999999999986 132.225 -53.77374999999998 V-61.02999999999999 Q132.225 -67.80249999999998 127.54875 -72.47874999999999 Q122.8725 -77.15499999999999 116.10000000000001 -77.15499999999999 H38.7 Q31.927500000000002 -77.15499999999999 27.251250000000002 -72.47874999999999 Q22.575 -67.80249999999998 22.575 -61.02999999999999 V-53.77374999999998 Q25.8 -56.514999999999986 29.911875000000002 -57.96624999999999 Q34.02375 -59.41749999999999 38.7 -59.41749999999999 Z M23.05875 -37.48749999999998  99.97500000000001 -18.94374999999998 Q101.10375 -18.62124999999999 102.313125 -18.863124999999982 Q103.52250000000001 -19.104999999999976 104.32875 -19.91124999999998 L130.12875 -41.51874999999998 Q128.0325 -45.22749999999998 124.32375 -47.484999999999985 Q120.61500000000001 -49.74249999999998 116.10000000000001 -49.74249999999998 H38.7 Q33.05625 -49.74249999999998 28.7025 -46.27562499999998 Q24.34875 -42.80874999999999 23.05875 -37.48749999999998 Z"/></g><g id="Light-L" transform="matrix(1 0 0 1 1082.77 1556)"><path d="M38.7 13.14483875000002 Q29.360077500000003 13.14483875000002 22.742538749999998 6.527461250000016 Q16.12516125 -0.09007749999997827 16.12516125 -9.429999999999978 V-61.02999999999999 Q16.12516125 -70.36992249999999 22.742538749999998 -76.98746125 Q29.360077500000003 -83.60483874999998 38.7 -83.60483874999998 H116.10000000000001 Q125.43992250000001 -83.60483874999998 132.05746125000002 -76.98746125 Q138.67483875000002 -70.36992249999999 138.67483875000002 -61.02999999999999 V-9.429999999999978 Q138.67483875000002 -0.09007749999997827 132.05746125000002 6.527461250000016 Q125.43992250000001 13.14483875000002 116.10000000000001 13.14483875000002 H38.7 Z M38.7 -58.23908499999999 H116.10000000000001 Q120.5901675 -58.23908499999999 124.485 -56.69479374999999 Q128.3798325 -55.15050249999999 131.35666875 -52.34717124999999 V-61.02999999999999 Q131.35666875 -67.43033499999999 126.9285825 -71.85858249999998 Q122.500335 -76.28666874999999 116.10000000000001 -76.28666874999999 H38.7 Q32.299665 -76.28666874999999 27.8714175 -71.85858249999998 Q23.44333125 -67.43033499999999 23.44333125 -61.02999999999999 V-52.34717124999999 Q26.4201675 -55.15050249999999 30.315 -56.69479374999999 Q34.2098325 -58.23908499999999 38.7 -58.23908499999999 Z M23.6789175 -38.231829999999974  99.91291875 -19.812081249999977 Q100.97974875 -19.551662499999978 102.15800250000001 -19.762416249999987 Q103.33641750000001 -19.973331249999987 104.08058625000001 -20.77958124999998 L129.81866625 -42.38708124999998 Q127.97041875000001 -46.21983249999998 124.29279 -48.57037374999999 Q120.61500000000001 -50.92091499999998 116.10000000000001 -50.92091499999998 H38.7 Q33.05625 -50.92091499999998 28.826501250000003 -47.29907874999998 Q24.59691375 -43.677081249999986 23.6789175 -38.231829999999974 Z"/></g><g id="Thin-L" transform="matrix(1 0 0 1 787.282 1556)"><path d="M38.7 9.920000000000016 Q30.6623325 9.920000000000016 25.00616625 4.263833750000032 Q19.35 -1.3923324999999807 19.35 -9.429999999999978 V-61.02999999999999 Q19.35 -69.06766749999998 25.00616625 -74.72383374999998 Q30.6623325 -80.37999999999998 38.7 -80.37999999999998 H116.10000000000001 Q124.1376675 -80.37999999999998 129.79383375 -74.72383374999998 Q135.45000000000002 -69.06766749999998 135.45000000000002 -61.02999999999999 V-9.429999999999978 Q135.45000000000002 -1.3923324999999807 129.79383375 4.263833750000032 Q124.1376675 9.920000000000016 116.10000000000001 9.920000000000016 H38.7 Z M38.7 -57.06083124999998 H116.10000000000001 Q120.40408500000001 -57.06083124999998 124.081875 -55.42349874999998 Q127.759665 -53.78616624999998 130.48849875 -50.92091499999998 V-61.02999999999999 Q130.48849875 -67.05833124999998 126.308415 -71.23841499999997 Q122.12833125 -75.41849874999998 116.10000000000001 -75.41849874999998 H38.7 Q32.67166875 -75.41849874999998 28.491585 -71.23841499999997 Q24.311501250000003 -67.05833124999998 24.311501250000003 -61.02999999999999 V-50.92091499999998 Q27.040335000000002 -53.78616624999998 30.718125 -55.42349874999998 Q34.395915 -57.06083124999998 38.7 -57.06083124999998 Z M24.299085 -38.97599874999999  99.85099875 -20.680251249999984 Q100.8557475 -20.481752499999985 102.00304125 -20.661707499999977 Q103.150335 -20.84150124999998 103.83258375 -21.647751249999985 L129.50858250000002 -43.255251249999986 Q127.90849875 -47.212164999999985 124.26166875 -49.655586249999985 Q120.61500000000001 -52.09916874999999 116.10000000000001 -52.09916874999999 H38.7 Q33.05625 -52.09916874999999 28.950502500000002 -48.322209999999984 Q24.84491625 -44.54525124999998 24.299085 -38.97599874999999 Z"/></g><g id="Ultralight-L" transform="matrix(1 0 0 1 491.205 1556)"><path d="M38.7 7.985000000000014 Q31.44375 7.985000000000014 26.364375 2.905625000000015 Q21.285 -2.173749999999984 21.285 -9.429999999999978 V-61.02999999999999 Q21.285 -68.28624999999998 26.364375 -73.365625 Q31.44375 -78.445 38.7 -78.445 H116.10000000000001 Q123.35625 -78.445 128.43562500000002 -73.365625 Q133.51500000000001 -68.28624999999998 133.51500000000001 -61.02999999999999 V-9.429999999999978 Q133.51500000000001 -2.173749999999984 128.43562500000002 2.905625000000015 Q123.35625 7.985000000000014 116.10000000000001 7.985000000000014 H38.7 Z M38.7 -56.35374999999998 H116.10000000000001 Q120.2925 -56.35374999999998 123.84 -54.66062499999998 Q127.3875 -52.96749999999999 129.9675 -50.06499999999998 V-61.02999999999999 Q129.9675 -66.83499999999998 125.93625 -70.86624999999998 Q121.905 -74.89749999999998 116.10000000000001 -74.89749999999998 H38.7 Q32.895 -74.89749999999998 28.86375 -70.86624999999998 Q24.8325 -66.83499999999998 24.8325 -61.02999999999999 V-50.06499999999998 Q27.4125 -52.96749999999999 30.96 -54.66062499999998 Q34.5075 -56.35374999999998 38.7 -56.35374999999998 Z M24.67125 -39.422499999999985  99.81375 -21.201249999999987 Q100.78125 -21.039999999999978 101.91 -21.201249999999987 Q103.03875000000001 -21.362499999999983 103.68375 -22.16874999999999 L129.3225 -43.776249999999976 Q127.87125 -47.807499999999976 124.243125 -50.30687499999998 Q120.61500000000001 -52.80624999999998 116.10000000000001 -52.80624999999998 H38.7 Q33.05625 -52.80624999999998 29.025000000000002 -48.93624999999999 Q24.993750000000002 -45.06624999999998 24.67125 -39.422499999999985 Z"/></g><g id="Bold-M" transform="matrix(1 0 0 1 2281.8 1126)"><path d="M30.0 9.02000000000001 Q19.875 9.02000000000001 12.8125 1.9575000000000102 Q5.75 -5.10499999999999 5.75 -15.22999999999999 V-55.22999999999999 Q5.75 -65.35499999999999 12.8125 -72.41749999999999 Q19.875 -79.47999999999999 30.0 -79.47999999999999 H90.0 Q100.125 -79.47999999999999 107.1875 -72.41749999999999 Q114.25 -65.35499999999999 114.25 -55.22999999999999 V-15.22999999999999 Q114.25 -5.10499999999999 107.1875 1.9575000000000102 Q100.125 9.02000000000001 90.0 9.02000000000001 H30.0 Z M34.125 -56.85499999999999 H86.625 Q89.875 -56.85499999999999 92.875 -56.10499999999999 Q95.875 -55.35499999999999 98.5 -53.97999999999999 V-55.22999999999999 Q98.5 -58.85499999999999 96.0625 -61.29249999999999 Q93.625 -63.72999999999999 90.0 -63.72999999999999 H30.0 Q26.375 -63.72999999999999 23.9375 -61.29249999999999 Q21.5 -58.85499999999999 21.5 -55.22999999999999 V-53.60499999999999 Q24.375 -55.22999999999999 27.5 -56.04249999999999 Q30.625 -56.85499999999999 34.125 -56.85499999999999 Z M25.25 -35.72999999999999  74.625 -23.72999999999999 Q76.5 -23.22999999999999 78.3125 -23.66749999999999 Q80.125 -24.10499999999999 81.5 -25.35499999999999 L95.0 -36.60499999999999 Q93.625 -38.72999999999999 91.4375 -39.91749999999999 Q89.25 -41.10499999999999 86.625 -41.10499999999999 H34.125 Q31.25 -41.10499999999999 28.875 -39.66749999999999 Q26.5 -38.22999999999999 25.25 -35.72999999999999 Z"/></g><g id="Semibold-M" transform="matrix(1 0 0 1 1985.97 1126)"><path d="M30.0 7.172250000000005 Q20.690125 7.172250000000005 14.143875 0.626125000000016 Q7.59775 -5.9201249999999845 7.59775 -15.22999999999999 V-55.22999999999999 Q7.59775 -64.539875 14.143875 -71.08612499999998 Q20.690125 -77.63224999999998 30.0 -77.63224999999998 H90.0 Q99.309875 -77.63224999999998 105.856125 -71.08612499999998 Q112.40225 -64.539875 112.40225 -55.22999999999999 V-15.22999999999999 Q112.40225 -5.9201249999999845 105.856125 0.626125000000016 Q99.309875 7.172250000000005 90.0 7.172250000000005 H30.0 Z M32.331625 -56.14849999999999 H88.09225 Q91.124875 -56.14849999999999 93.9075 -55.45287499999999 Q96.690125 -54.75724999999999 99.152125 -53.38224999999999 V-55.22999999999999 Q99.152125 -59.07237499999999 96.49725 -61.72724999999999 Q93.842375 -64.38212499999999 90.0 -64.38212499999999 H30.0 Q26.157625 -64.38212499999999 23.50275 -61.72724999999999 Q20.847875 -59.07237499999999 20.847875 -55.22999999999999 V-53.17024999999999 Q23.451125 -54.68649999999999 26.304375 -55.41749999999999 Q29.15775 -56.14849999999999 32.331625 -56.14849999999999 Z M23.293625 -37.14299999999999  75.385875 -24.49087499999999 Q76.93475 -24.099499999999992 78.448375 -24.455499999999986 Q79.962 -24.811499999999995 81.173875 -25.84412499999999 L96.358625 -38.50699999999999 Q94.983625 -40.52337499999999 92.82325 -41.71087499999999 Q90.663 -42.89837499999999 88.09225 -42.89837499999999 H32.331625 Q29.293625 -42.89837499999999 26.8915 -41.35212499999999 Q24.48925 -39.80599999999998 23.293625 -37.14299999999999 Z"/></g><g id="Medium-M" transform="matrix(1 0 0 1 1689.91 1126)"><path d="M30.0 5.786375000000007 Q21.301625 5.786375000000007 15.142625 -0.3726249999999851 Q8.983625 -6.531624999999991 8.983625 -15.22999999999999 V-55.22999999999999 Q8.983625 -63.92837499999999 15.142625 -70.08737499999998 Q21.301625 -76.24637499999999 30.0 -76.24637499999999 H90.0 Q98.698375 -76.24637499999999 104.857375 -70.08737499999998 Q111.016375 -63.92837499999999 111.016375 -55.22999999999999 V-15.22999999999999 Q111.016375 -6.531624999999991 104.857375 -0.3726249999999851 Q98.698375 5.786375000000007 90.0 5.786375000000007 H30.0 Z M30.986375 -55.61862499999999 H89.192875 Q92.0625 -55.61862499999999 94.682 -54.96374999999999 Q97.301625 -54.30874999999999 99.64125 -52.93374999999999 V-55.22999999999999 Q99.64125 -59.23537499999999 96.823375 -62.05337499999999 Q94.005375 -64.87124999999999 90.0 -64.87124999999999 H30.0 Q25.994625 -64.87124999999999 23.176625 -62.05337499999999 Q20.35875 -59.23537499999999 20.35875 -55.22999999999999 V-52.84412499999999 Q22.758125 -54.27887499999999 25.407625 -54.94874999999999 Q28.057125 -55.61862499999999 30.986375 -55.61862499999999 Z M21.826125 -38.202749999999995  75.9565 -25.061499999999995 Q77.260875 -24.751749999999987 78.55025 -25.04662499999999 Q79.839625 -25.341374999999985 80.929375 -26.210999999999984 L97.37775 -39.93374999999999 Q96.00275 -41.868624999999994 93.86275 -43.056124999999994 Q91.72275 -44.24362499999999 89.192875 -44.24362499999999 H30.986375 Q27.826125 -44.24362499999999 25.4035 -42.61587499999999 Q22.981 -40.988125 21.826125 -38.202749999999995 Z"/></g><g id="Regular-M" transform="matrix(1 0 0 1 1394.06 1126)"><path d="M30.0 4.77000000000001 Q21.75 4.77000000000001 15.875 -1.1049999999999898 Q10.0 -6.97999999999999 10.0 -15.22999999999999 V-55.22999999999999 Q10.0 -63.47999999999999 15.875 -69.35499999999999 Q21.75 -75.22999999999999 30.0 -75.22999999999999 H90.0 Q98.25 -75.22999999999999 104.125 -69.35499999999999 Q110.0 -63.47999999999999 110.0 -55.22999999999999 V-15.22999999999999 Q110.0 -6.97999999999999 104.125 -1.1049999999999898 Q98.25 4.77000000000001 90.0 4.77000000000001 H30.0 Z M30.0 -55.22999999999999 H90.0 Q92.75 -55.22999999999999 95.25 -54.60499999999999 Q97.75 -53.97999999999999 100.0 -52.60499999999999 V-55.22999999999999 Q100.0 -59.35499999999999 97.0625 -62.29249999999999 Q94.125 -65.22999999999999 90.0 -65.22999999999999 H30.0 Q25.875 -65.22999999999999 22.9375 -62.29249999999999 Q20.0 -59.35499999999999 20.0 -55.22999999999999 V-52.60499999999999 Q22.25 -53.97999999999999 24.75 -54.60499999999999 Q27.25 -55.22999999999999 30.0 -55.22999999999999 Z M20.75 -38.97999999999999  76.375 -25.47999999999999 Q77.5 -25.22999999999999 78.625 -25.47999999999999 Q79.75 -25.72999999999999 80.75 -26.47999999999999 L98.125 -40.97999999999999 Q96.75 -42.85499999999999 94.625 -44.04249999999999 Q92.5 -45.22999999999999 90.0 -45.22999999999999 H30.0 Q26.75 -45.22999999999999 24.3125 -43.54249999999999 Q21.875 -41.85499999999999 20.75 -38.97999999999999 Z"/></g><g id="Light-M" transform="matrix(1 0 0 1 1098.18 1126)"><path d="M30.0 2.269875000000013 Q22.75975 2.269875000000013 17.629875 -2.859874999999988 Q12.500125 -7.989749999999987 12.500125 -15.22999999999999 V-55.22999999999999 Q12.500125 -62.47024999999999 17.629875 -67.60012499999999 Q22.75975 -72.72987499999999 30.0 -72.72987499999999 H90.0 Q97.24025 -72.72987499999999 102.370125 -67.60012499999999 Q107.499875 -62.47024999999999 107.499875 -55.22999999999999 V-15.22999999999999 Q107.499875 -7.989749999999987 102.370125 -2.859874999999988 Q97.24025 2.269875000000013 90.0 2.269875000000013 H30.0 Z M30.0 -53.97987499999999 H90.0 Q92.846125 -53.97987499999999 95.37025 -53.16262499999999 Q97.89425 -52.34524999999999 100.0 -50.68174999999999 V-55.22999999999999 Q100.0 -59.35499999999999 97.0625 -62.29249999999999 Q94.125 -65.22999999999999 90.0 -65.22999999999999 H30.0 Q25.875 -65.22999999999999 22.9375 -62.29249999999999 Q20.0 -59.35499999999999 20.0 -55.22999999999999 V-50.68174999999999 Q22.10575 -52.34524999999999 24.62975 -53.16262499999999 Q27.153875 -53.97987499999999 30.0 -53.97987499999999 Z M20.4615 -39.02812499999999  76.615375 -25.38387499999999 Q77.64425 -25.13387499999999 78.697125 -25.35974999999999 Q79.75 -25.58574999999999 80.60575 -26.28762499999999 L98.60575 -41.41274999999999 Q97.375 -43.67237499999999 95.08175 -45.07624999999999 Q92.7885 -46.48012499999999 90.0 -46.48012499999999 H30.0 Q26.4615 -46.48012499999999 23.85575 -44.40799999999999 Q21.25 -42.33574999999999 20.4615 -39.02812499999999 Z"/></g><g id="Thin-M" transform="matrix(1 0 0 1 802.565 1126)"><path d="M30.0 -0.22999999999998977 Q23.76925 -0.22999999999998977 19.384625 -4.6146249999999895 Q15.0 -8.99924999999999 15.0 -15.22999999999999 V-55.22999999999999 Q15.0 -61.46074999999999 19.384625 -65.84537499999999 Q23.76925 -70.22999999999999 30.0 -70.22999999999999 H90.0 Q96.23075 -70.22999999999999 100.615375 -65.84537499999999 Q105.0 -61.46074999999999 105.0 -55.22999999999999 V-15.22999999999999 Q105.0 -8.99924999999999 100.615375 -4.6146249999999895 Q96.23075 -0.22999999999998977 90.0 -0.22999999999998977 H30.0 Z M30.0 -52.72999999999999 H90.0 Q92.94225 -52.72999999999999 95.490375 -51.72037499999999 Q98.0385 -50.71074999999999 100.0 -48.75887499999999 V-55.22999999999999 Q100.0 -59.35499999999999 97.0625 -62.29249999999999 Q94.125 -65.22999999999999 90.0 -65.22999999999999 H30.0 Q25.875 -65.22999999999999 22.9375 -62.29249999999999 Q20.0 -59.35499999999999 20.0 -55.22999999999999 V-48.75887499999999 Q21.9615 -50.71074999999999 24.509625 -51.72037499999999 Q27.05775 -52.72999999999999 30.0 -52.72999999999999 Z M20.173125 -39.07612499999999  76.85575 -25.28774999999999 Q77.7885 -25.03774999999999 78.76925 -25.23962499999999 Q79.75 -25.44149999999999 80.4615 -26.09537499999999 L99.0865 -41.84537499999999 Q98.0 -44.48962499999999 95.5385 -46.10974999999999 Q93.076875 -47.72999999999999 90.0 -47.72999999999999 H30.0 Q26.173125 -47.72999999999999 23.399 -45.27324999999999 Q20.625 -42.81649999999999 20.173125 -39.07612499999999 Z"/></g><g id="Ultralight-M" transform="matrix(1 0 0 1 506.415 1126)"><path d="M30.0 -1.7299999999999898 Q24.375 -1.7299999999999898 20.4375 -5.66749999999999 Q16.5 -9.60499999999999 16.5 -15.22999999999999 V-55.22999999999999 Q16.5 -60.85499999999999 20.4375 -64.79249999999999 Q24.375 -68.72999999999999 30.0 -68.72999999999999 H90.0 Q95.625 -68.72999999999999 99.5625 -64.79249999999999 Q103.5 -60.85499999999999 103.5 -55.22999999999999 V-15.22999999999999 Q103.5 -9.60499999999999 99.5625 -5.66749999999999 Q95.625 -1.7299999999999898 90.0 -1.7299999999999898 H30.0 Z M30.0 -51.97999999999999 H90.0 Q93.0 -51.97999999999999 95.5625 -50.85499999999999 Q98.125 -49.72999999999999 100.0 -47.60499999999999 V-55.22999999999999 Q100.0 -59.35499999999999 97.0625 -62.29249999999999 Q94.125 -65.22999999999999 90.0 -65.22999999999999 H30.0 Q25.875 -65.22999999999999 22.9375 -62.29249999999999 Q20.0 -59.35499999999999 20.0 -55.22999999999999 V-47.60499999999999 Q21.875 -49.72999999999999 24.4375 -50.85499999999999 Q27.0 -51.97999999999999 30.0 -51.97999999999999 Z M20.0 -39.10499999999999  77.0 -25.22999999999999 Q77.875 -24.97999999999999 78.8125 -25.16749999999999 Q79.75 -25.35499999999999 80.375 -25.97999999999999 L99.375 -42.10499999999999 Q98.375 -44.97999999999999 95.8125 -46.72999999999999 Q93.25 -48.47999999999999 90.0 -48.47999999999999 H30.0 Q26.0 -48.47999999999999 23.125 -45.79249999999999 Q20.25 -43.10499999999999 20.0 -39.10499999999999 Z"/></g><g id="Bold-S" transform="matrix(1 0 0 1 2294.23 696)"><path d="M23.67 -3.4727499999999907 Q16.273125 -3.4727499999999907 11.1939375 -8.551937499999994 Q6.11475 -13.631124999999997 6.11475 -21.02799999999999 V-49.431999999999995 Q6.11475 -56.828875 11.1939375 -61.9080625 Q16.273125 -66.98724999999999 23.67 -66.98724999999999 H71.01 Q78.406875 -66.98724999999999 83.4860625 -61.9080625 Q88.56525 -56.828875 88.56525 -49.431999999999995 V-21.02799999999999 Q88.56525 -13.631124999999997 83.4860625 -8.551937499999994 Q78.406875 -3.4727499999999907 71.01 -3.4727499999999907 H23.67 Z M26.924625000000002 -50.714124999999996 H68.347125 Q70.6155 -50.714124999999996 72.78525 -50.07306249999999 Q74.955 -49.431999999999995 76.92750000000001 -48.544374999999995 V-49.431999999999995 Q76.92750000000001 -51.996249999999996 75.25087500000001 -53.672875 Q73.57425 -55.34949999999999 71.01 -55.34949999999999 H23.67 Q21.10575 -55.34949999999999 19.429125 -53.672875 Q17.7525 -51.996249999999996 17.7525 -49.431999999999995 V-48.24849999999999 Q19.922250000000002 -49.431999999999995 22.190625 -50.07306249999999 Q24.459 -50.714124999999996 26.924625000000002 -50.714124999999996 Z M21.007125000000002 -36.01899999999999  58.484625 -26.846874999999997 Q59.865375 -26.45237499999999 61.1968125 -26.797562499999998 Q62.52825 -27.142749999999992 63.514500000000005 -28.030374999999992 L73.7715 -36.512125 Q72.686625 -37.79424999999999 71.305875 -38.435312499999995 Q69.92512500000001 -39.07637499999999 68.347125 -39.07637499999999 H26.924625000000002 Q25.248 -39.07637499999999 23.5220625 -38.18874999999999 Q21.796125 -37.30112499999999 21.007125000000002 -36.01899999999999 Z"/></g><g id="Semibold-S" transform="matrix(1 0 0 1 1998.1 696)"><path d="M23.67 -4.930624749999993 Q16.916258625 -4.930624749999993 12.244392375 -9.602392374999994 Q7.57262475 -14.274258624999987 7.57262475 -21.02799999999999 V-49.431999999999995 Q7.57262475 -56.18574137499999 12.244392375 -60.85760762499999 Q16.916258625 -65.52937525 23.67 -65.52937525 H71.01 Q77.76374137500001 -65.52937525 82.435607625 -60.85760762499999 Q87.10737525 -56.18574137499999 87.10737525 -49.431999999999995 V-21.02799999999999 Q87.10737525 -14.274258624999987 82.435607625 -9.602392374999994 Q77.76374137500001 -4.930624749999993 71.01 -4.930624749999993 H23.67 Z M25.509652125000002 -50.156696499999995 H69.50478525000001 Q71.601651375 -50.156696499999995 73.5998925 -49.558535875 Q75.598133625 -48.96037525 77.442026625 -48.07275025 V-49.431999999999995 Q77.442026625 -52.16775887499999 75.59389275 -54.01589275 Q73.745758875 -55.864026624999994 71.01 -55.864026624999994 H23.67 Q20.934241125 -55.864026624999994 19.08610725 -54.01589275 Q17.237973375 -52.16775887499999 17.237973375 -49.431999999999995 V-47.90548224999999 Q19.193312625 -49.00317849999999 21.247276875 -49.57993749999999 Q23.30133975 -50.156696499999995 25.509652125000002 -50.156696499999995 Z M19.463545125 -37.13385699999999  59.084955375 -27.447205374999996 Q60.208392749999994 -27.138410499999992 61.304017875 -27.419294499999992 Q62.399643000000005 -27.700178499999993 63.257187375 -28.416294624999992 L74.843455125 -38.012803 Q73.75858012500001 -39.209222874999995 72.39923175 -39.85028537499999 Q71.039982 -40.491347874999995 69.50478525000001 -40.491347874999995 H25.509652125000002 Q23.704420125 -40.491347874999995 21.957081000000002 -39.51791912499999 Q20.20964325 -38.54458899999999 19.463545125 -37.13385699999999 Z"/></g><g id="Medium-S" transform="matrix(1 0 0 1 1701.85 696)"><path d="M23.67 -6.024080124999998 Q17.398732125000002 -6.024080124999998 13.032406125 -10.390406124999984 Q8.666080125 -14.756732125 8.666080125 -21.02799999999999 V-49.431999999999995 Q8.666080125 -55.703267874999995 13.032406125 -60.069593874999995 Q17.398732125000002 -64.435919875 23.67 -64.435919875 H71.01 Q77.281267875 -64.435919875 81.64759387500001 -60.069593874999995 Q86.013919875 -55.703267874999995 86.013919875 -49.431999999999995 V-21.02799999999999 Q86.013919875 -14.756732125 81.64759387500001 -10.390406124999984 Q77.281267875 -6.024080124999998 71.01 -6.024080124999998 H23.67 Z M24.448249875000002 -49.73862512499999 H70.37317837500001 Q72.3414375 -49.73862512499999 74.21097300000001 -49.17261625 Q76.080607125 -48.606508749999996 77.82794625 -47.718883749999996 V-49.431999999999995 Q77.82794625 -52.29636587499999 75.851205375 -54.273205374999996 Q73.87436587500001 -56.249946249999994 71.01 -56.249946249999994 H23.67 Q20.805634125 -56.249946249999994 18.828794625 -54.273205374999996 Q16.85205375 -52.29636587499999 16.85205375 -49.431999999999995 V-47.648169624999994 Q18.646535625000002 -48.681562375 20.539741125 -49.21009374999999 Q22.432946625 -49.73862512499999 24.448249875000002 -49.73862512499999 Z M18.305687625 -37.96999975  59.53517850000001 -27.897428500000004 Q60.465705375 -27.653035749999987 61.384397250000006 -27.88569212499999 Q62.303089125 -28.11824987499999 63.064276875 -28.705758999999986 L75.64754475000001 -39.13850874999999 Q74.56266975000001 -40.270625124999995 73.21939725000001 -40.911687625 Q71.87612475 -41.552750124999996 70.37317837500001 -41.552750124999996 H24.448249875000002 Q22.546562625000004 -41.552750124999996 20.783049000000002 -40.51501787499999 Q19.019634000000003 -39.477285625 18.305687625 -37.96999975 Z"/></g><g id="Regular-S" transform="matrix(1 0 0 1 1405.73 696)"><path d="M23.67 -6.825999999999993 Q17.7525 -6.825999999999993 13.61025 -10.968249999999998 Q9.468 -15.110499999999988 9.468 -21.02799999999999 V-49.431999999999995 Q9.468 -55.34949999999999 13.61025 -59.491749999999996 Q17.7525 -63.634 23.67 -63.634 H71.01 Q76.92750000000001 -63.634 81.06975 -59.491749999999996 Q85.212 -55.34949999999999 85.212 -49.431999999999995 V-21.02799999999999 Q85.212 -15.110499999999988 81.06975 -10.968249999999998 Q76.92750000000001 -6.825999999999993 71.01 -6.825999999999993 H23.67 Z M23.67 -49.431999999999995 H71.01 Q72.883875 -49.431999999999995 74.659125 -48.8895625 Q76.434375 -48.34712499999999 78.111 -47.45949999999999 V-49.431999999999995 Q78.111 -52.39075 76.03987500000001 -54.46187499999999 Q73.96875 -56.532999999999994 71.01 -56.532999999999994 H23.67 Q20.71125 -56.532999999999994 18.640125 -54.46187499999999 Q16.569 -52.39075 16.569 -49.431999999999995 V-47.45949999999999 Q18.245625 -48.44575 20.020875 -48.938874999999996 Q21.796125 -49.431999999999995 23.67 -49.431999999999995 Z M17.456625000000003 -38.58324999999999  59.865375 -28.227624999999996 Q60.654375 -28.030374999999992 61.443375 -28.227624999999996 Q62.232375000000005 -28.424874999999993 62.92275 -28.917999999999992 L76.237125 -39.96399999999999 Q75.15225000000001 -41.048874999999995 73.8208125 -41.68993749999999 Q72.48937500000001 -42.330999999999996 71.01 -42.330999999999996 H23.67 Q21.6975 -42.330999999999996 19.922250000000002 -41.24612499999999 Q18.147000000000002 -40.161249999999995 17.456625000000003 -38.58324999999999 Z"/></g><g id="Light-S" transform="matrix(1 0 0 1 1109.75 696)"><path d="M23.67 -8.798598624999997 Q18.54919275 -8.798598624999997 14.994846375 -12.352846374999999 Q11.440598625000002 -15.907192749999993 11.440598625000002 -21.02799999999999 V-49.431999999999995 Q11.440598625000002 -54.55280725 14.994846375 -58.107153624999995 Q18.54919275 -61.661401375 23.67 -61.661401375 H71.01 Q76.13080725 -61.661401375 79.685153625 -58.107153624999995 Q83.239401375 -54.55280725 83.239401375 -49.431999999999995 V-21.02799999999999 Q83.239401375 -15.907192749999993 79.685153625 -12.352846374999999 Q76.13080725 -8.798598624999997 71.01 -8.798598624999997 H23.67 Z M23.67 -48.445651375 H71.01 Q72.95971762500001 -48.445651375 74.75400225 -47.751528625 Q76.54818825000001 -47.057307249999994 78.111 -45.942055749999994 V-49.431999999999995 Q78.111 -52.39075 76.03987500000001 -54.46187499999999 Q73.96875 -56.532999999999994 71.01 -56.532999999999994 H23.67 Q20.71125 -56.532999999999994 18.640125 -54.46187499999999 Q16.569 -52.39075 16.569 -49.431999999999995 V-45.942055749999994 Q18.13181175 -47.15593225 19.92599775 -47.800841125 Q21.720282375 -48.445651375 23.67 -48.445651375 Z M17.228998500000003 -38.62122062499999  60.055030875 -28.151782374999996 Q60.76818825 -27.954532375 61.500281625 -28.132747749999993 Q62.232375000000005 -28.311061749999993 62.80893675 -28.766216124999993 L76.61643675 -40.30543974999999 Q75.645375 -41.693783874999994 74.18118825 -42.505566249999994 Q72.71700150000001 -43.317348624999994 71.01 -43.317348624999994 H23.67 Q21.469873500000002 -43.317348624999994 19.561874250000002 -41.92900449999999 Q17.653875 -40.540561749999995 17.228998500000003 -38.62122062499999 Z"/></g><g id="Thin-S" transform="matrix(1 0 0 1 814.015 696)"><path d="M23.67 -10.770999999999987 Q19.345688250000002 -10.770999999999987 16.379344125 -13.737344124999993 Q13.413 -16.70368825 13.413 -21.02799999999999 V-49.431999999999995 Q13.413 -53.756311749999995 16.379344125 -56.722655874999994 Q19.345688250000002 -59.68899999999999 23.67 -59.68899999999999 H71.01 Q75.33431175 -59.68899999999999 78.300655875 -56.722655874999994 Q81.26700000000001 -53.756311749999995 81.26700000000001 -49.431999999999995 V-21.02799999999999 Q81.26700000000001 -16.70368825 78.300655875 -13.737344124999993 Q75.33431175 -10.770999999999987 71.01 -10.770999999999987 H23.67 Z M23.67 -47.45949999999999 H71.01 Q73.03556025 -47.45949999999999 74.848780875 -46.613593374999994 Q76.6620015 -45.767686749999996 78.111 -44.424907375 V-49.431999999999995 Q78.111 -52.39075 76.03987500000001 -54.46187499999999 Q73.96875 -56.532999999999994 71.01 -56.532999999999994 H23.67 Q20.71125 -56.532999999999994 18.640125 -54.46187499999999 Q16.569 -52.39075 16.569 -49.431999999999995 V-44.424907375 Q18.0179985 -45.866311749999994 19.831219125 -46.66290587499999 Q21.64443975 -47.45949999999999 23.67 -47.45949999999999 Z M17.001470625 -38.65909262499999  60.24468675 -28.075939749999996 Q60.8820015 -27.878689749999992 61.55718825 -28.03796912499999 Q62.232375000000005 -28.197248499999993 62.6951235 -28.614530874999993 L76.9957485 -40.646780875 Q76.13850000000001 -42.33859412499999 74.54156400000001 -43.32099775 Q72.944529375 -44.30349999999999 71.01 -44.30349999999999 H23.67 Q21.242345625 -44.30349999999999 19.201498500000003 -42.61168675 Q17.16075 -40.919873499999994 17.001470625 -38.65909262499999 Z"/></g><g id="Ultralight-S" transform="matrix(1 0 0 1 517.792 696)"><path d="M23.67 -11.954499999999996 Q19.823625 -11.954499999999996 17.2100625 -14.568062499999996 Q14.5965 -17.181624999999997 14.5965 -21.02799999999999 V-49.431999999999995 Q14.5965 -53.278375 17.2100625 -55.8919375 Q19.823625 -58.5055 23.67 -58.5055 H71.01 Q74.856375 -58.5055 77.4699375 -55.8919375 Q80.0835 -53.278375 80.0835 -49.431999999999995 V-21.02799999999999 Q80.0835 -17.181624999999997 77.4699375 -14.568062499999996 Q74.856375 -11.954499999999996 71.01 -11.954499999999996 H23.67 Z M23.67 -46.867749999999994 H71.01 Q73.081125 -46.867749999999994 74.9056875 -45.930812499999995 Q76.73025 -44.993874999999996 78.111 -43.51449999999999 V-49.431999999999995 Q78.111 -52.39075 76.03987500000001 -54.46187499999999 Q73.96875 -56.532999999999994 71.01 -56.532999999999994 H23.67 Q20.71125 -56.532999999999994 18.640125 -54.46187499999999 Q16.569 -52.39075 16.569 -49.431999999999995 V-43.51449999999999 Q17.94975 -45.092499999999994 19.7743125 -45.980124999999994 Q21.598875 -46.867749999999994 23.67 -46.867749999999994 Z M16.864875 -38.68187499999999  60.3585 -28.030374999999992 Q60.950250000000004 -27.833124999999995 61.5913125 -27.981062499999993 Q62.232375000000005 -28.12899999999999 62.626875000000005 -28.52349999999999 L77.223375 -40.85162499999999 Q76.434375 -42.7255 74.75775 -43.81037499999999 Q73.081125 -44.89525 71.01 -44.89525 H23.67 Q21.10575 -44.89525 18.9853125 -43.02137499999999 Q16.864875 -41.147499999999994 16.864875 -38.68187499999999 Z"/></g></g></svg>