<svg xmlns="http://www.w3.org/2000/svg" version="1.1" width="3300" height="2000"><g id="Notes"><style>
    text {
      font-family: monospace;
      text-anchor: middle;
    }
    text.emphasis {
      font-weight:bold;
    }
    text.lanchor {
      text-anchor: start;
    }
  </style><rect height="2200" id="artboard" fill="white" width="3300" x="0" y="0"/><line id="" style="fill:none;stroke:black;stroke-width:0.5;" x1="263" x2="3036" y1="292" y2="292"/><text class="lanchor emphasis" transform="matrix(1 0 0 1 263 322)">Weight/Scale Variations</text><text transform="matrix(1 0 0 1 559.711 322)">Ultralight</text><text transform="matrix(1 0 0 1 856.422 322)">Thin</text><text transform="matrix(1 0 0 1 1153.13 322)">Light</text><text transform="matrix(1 0 0 1 1449.84 322)">Regular</text><text transform="matrix(1 0 0 1 1746.56 322)">Medium</text><text transform="matrix(1 0 0 1 2043.27 322)">Semibold</text><text transform="matrix(1 0 0 1 2339.98 322)">Bold</text><text transform="matrix(1 0 0 1 2636.69 322)">Heavy</text><text transform="matrix(1 0 0 1 2933.4 322)">Black</text><text id="template-version" style="text-anchor: end;" transform="matrix(1 0 0 1 3036 1933)">Template v.1.0</text><text class="lanchor" transform="matrix(1 0 0 1 263 726)">Small</text><text class="lanchor" transform="matrix(1 0 0 1 263 1156)">Medium</text><text class="lanchor" transform="matrix(1 0 0 1 263 1586)">Large</text></g><g id="Guides"><g id="H-reference" style="fill:#27AAE1;stroke:none;" transform="matrix(1 0 0 1 339 696)"><path d="M 54.9316 0 L 57.666 0 L 30.5664 -70.459 L 28.0762 -70.459 L 0.976562 0 L 3.66211 0 L 12.9395 -24.4629 L 45.7031 -24.4629 Z M 29.1992 -67.0898 L 29.4434 -67.0898 L 44.8242 -26.709 L 13.8184 -26.709 Z"/></g><line id="Baseline-S" style="fill:none;stroke:#27AAE1;opacity:1;stroke-width:0.577;" x1="263" x2="3036" y1="696" y2="696"/><line id="Capline-S" style="fill:none;stroke:#27AAE1;opacity:1;stroke-width:0.577;" x1="263" x2="3036" y1="625.541" y2="625.541"/><g id="H-reference" style="fill:#27AAE1;stroke:none;" transform="matrix(1 0 0 1 339 1126)"><path d="M 54.9316 0 L 57.666 0 L 30.5664 -70.459 L 28.0762 -70.459 L 0.976562 0 L 3.66211 0 L 12.9395 -24.4629 L 45.7031 -24.4629 Z M 29.1992 -67.0898 L 29.4434 -67.0898 L 44.8242 -26.709 L 13.8184 -26.709 Z"/></g><line id="Baseline-M" style="fill:none;stroke:#27AAE1;opacity:1;stroke-width:0.577;" x1="263" x2="3036" y1="1126" y2="1126"/><line id="Capline-M" style="fill:none;stroke:#27AAE1;opacity:1;stroke-width:0.577;" x1="263" x2="3036" y1="1055.54" y2="1055.54"/><g id="H-reference" style="fill:#27AAE1;stroke:none;" transform="matrix(1 0 0 1 339 1556)"><path d="M 54.9316 0 L 57.666 0 L 30.5664 -70.459 L 28.0762 -70.459 L 0.976562 0 L 3.66211 0 L 12.9395 -24.4629 L 45.7031 -24.4629 Z M 29.1992 -67.0898 L 29.4434 -67.0898 L 44.8242 -26.709 L 13.8184 -26.709 Z"/></g><line id="Baseline-L" style="fill:none;stroke:#27AAE1;opacity:1;stroke-width:0.577;" x1="263" x2="3036" y1="1556" y2="1556"/><line id="Capline-L" style="fill:none;stroke:#27AAE1;opacity:1;stroke-width:0.577;" x1="263" x2="3036" y1="1485.54" y2="1485.54"/><rect height="119.336" id="left-margin" style="fill:darkred;stroke:none;opacity:0.4;" width="12.4512" x="1394.06" y="1030.79"/><rect height="119.336" id="right-margin" style="fill:darkgreen;stroke:none;opacity:0.4;" width="12.4512" x="1502.5112" y="1030.79"/><rect x="1406.5112" y="1045" width="96" height="96" fill="none" stroke="blue" stroke-dasharray="5"/><rect x="1394.06" y="1030.79" width="120.9024" height="119.336" fill="none" stroke="blue"/></g><g id="Symbols"><g id="Bold-L" transform="matrix(1 0 0 1 2266 1556)"><path d="M88.84875 -29.263749999999987 Q80.78625 -29.263749999999987 75.1425 -34.907499999999985 Q69.49875 -40.55124999999998 69.49875 -48.61374999999998 Q69.49875 -56.67624999999998 75.1425 -62.31999999999998 Q80.78625 -67.96374999999998 88.84875 -67.96374999999998 Q96.91125000000001 -67.96374999999998 102.555 -62.31999999999998 Q108.19875 -56.67624999999998 108.19875 -48.61374999999998 Q108.19875 -40.55124999999998 102.555 -34.907499999999985 Q96.91125000000001 -29.263749999999987 88.84875 -29.263749999999987 Z M41.11875 -2.9799999999999756 Q34.71309375 -2.9799999999999756 30.256466250000003 -7.436627499999986 Q25.8 -11.893093749999977 25.8 -18.298749999999984 V-78.92874999999998 Q25.8 -85.24781499999997 30.256466250000003 -89.74765749999997 Q34.71309375 -94.24749999999997 41.11875 -94.24749999999997 H136.90125 Q143.15371875 -94.24749999999997 147.60615375 -89.74765749999997 Q152.05875 -85.24781499999997 152.05875 -78.92874999999998 V-18.298749999999984 Q152.05875 -11.893093749999977 147.60615375 -7.436627499999986 Q143.15371875 -2.9799999999999756 136.90125 -2.9799999999999756 H41.11875 Z M55.30875 -16.363749999999982 H122.55 Q122.55 -23.136249999999976 127.22625000000001 -27.812499999999986 Q131.9025 -32.48874999999998 138.675 -32.48874999999998 V-64.73874999999998 Q131.9025 -64.73874999999998 127.22625000000001 -69.49562499999999 Q122.55 -74.25249999999998 122.55 -80.86374999999998 H55.30875 Q55.30875 -74.25249999999998 50.6325 -69.49562499999999 Q45.956250000000004 -64.73874999999998 39.18375 -64.73874999999998 V-32.48874999999998 Q45.956250000000004 -32.48874999999998 50.6325 -27.812499999999986 Q55.30875 -23.136249999999976 55.30875 -16.363749999999982 Z M129.0 20.078750000000014 H17.89875 Q11.64628125 20.078750000000014 7.193685 15.626315000000034 Q2.74125 11.173718750000006 2.74125 4.921250000000015 V-67.47999999999999 H17.89875 V4.921250000000015 Q17.89875 4.921250000000015 17.89875 4.921250000000015 Q17.89875 4.921250000000015 17.89875 4.921250000000015 H129.0 V20.078750000000014 Z"/></g><g id="Semibold-L" transform="matrix(1 0 0 1 1970.27 1556)"><path d="M88.0776525 -27.65141124999998 Q80.0151525 -27.65141124999998 74.3714025 -33.29516124999998 Q68.7276525 -38.938911249999975 68.7276525 -47.001411249999975 Q68.7276525 -55.063911249999975 74.3714025 -60.70766124999997 Q80.0151525 -66.35141124999998 88.0776525 -66.35141124999998 Q96.1401525 -66.35141124999998 101.7839025 -60.70766124999997 Q107.4276525 -55.063911249999975 107.4276525 -47.001411249999975 Q107.4276525 -38.938911249999975 101.7839025 -33.29516124999998 Q96.1401525 -27.65141124999998 88.0776525 -27.65141124999998 Z M38.665169999999996 -2.9799999999999756 Q33.309251249999996 -2.9799999999999756 29.55470625 -6.734706249999974 Q25.8 -10.489251249999981 25.8 -15.845169999999982 V-78.15765249999998 Q25.8 -83.46438999999998 29.55470625 -87.24360624999998 Q33.309251249999996 -91.02266124999998 38.665169999999996 -91.02266124999998 H137.6723475 Q142.941675 -91.02266124999998 146.6939625 -87.24360624999998 Q150.44641125 -83.46438999999998 150.44641125 -78.15765249999998 V-15.845169999999982 Q150.44641125 -10.489251249999981 146.6939625 -6.734706249999974 Q142.941675 -2.9799999999999756 137.6723475 -2.9799999999999756 H38.665169999999996 Z M53.69641125 -14.751411249999975 H122.55 Q122.55 -21.523911249999983 127.22625000000001 -26.20016124999998 Q131.9025 -30.876411249999975 138.675 -30.876411249999975 V-63.126411249999975 Q131.9025 -63.126411249999975 127.22625000000001 -67.84813374999999 Q122.55 -72.57001749999998 122.55 -79.25141124999999 H53.69641125 Q53.69641125 -72.57001749999998 49.02016125 -67.84813374999999 Q44.34391125 -63.126411249999975 37.571411250000004 -63.126411249999975 V-30.876411249999975 Q44.34391125 -30.876411249999975 49.02016125 -26.20016124999998 Q53.69641125 -21.523911249999983 53.69641125 -14.751411249999975 Z M129.0 18.46641125000002 H17.1276525 Q11.858325 18.46641125000002 8.106037500000001 14.713962500000008 Q4.35358875 10.961675000000014 4.35358875 5.692347500000011 V-67.47999999999999 H17.1276525 V5.692347500000011 Q17.1276525 5.692347500000011 17.1276525 5.692347500000011 Q17.1276525 5.692347500000011 17.1276525 5.692347500000011 H129.0 V18.46641125000002 Z"/></g><g id="Medium-L" transform="matrix(1 0 0 1 1674.31 1556)"><path d="M87.4990875 -26.441874999999982 Q79.4365875 -26.441874999999982 73.7928375 -32.08562499999998 Q68.14908750000001 -37.729374999999976 68.14908750000001 -45.791874999999976 Q68.14908750000001 -53.854374999999976 73.7928375 -59.49812499999999 Q79.4365875 -65.14187499999998 87.4990875 -65.14187499999998 Q95.5615875 -65.14187499999998 101.2053375 -59.49812499999999 Q106.8490875 -53.854374999999976 106.8490875 -45.791874999999976 Q106.8490875 -37.729374999999976 101.2053375 -32.08562499999998 Q95.5615875 -26.441874999999982 87.4990875 -26.441874999999982 Z M36.8246625 -2.9799999999999756 Q32.256288749999996 -2.9799999999999756 29.02806375 -6.20806374999998 Q25.8 -9.436288749999974 25.8 -14.00466249999998 V-77.57908749999999 Q25.8 -82.12682124999998 29.02806375 -85.36536624999998 Q32.256288749999996 -88.60374999999999 36.8246625 -88.60374999999999 H138.2509125 Q142.78252125 -88.60374999999999 146.00977875 -85.36536624999998 Q149.236875 -82.12682124999998 149.236875 -77.57908749999999 V-14.00466249999998 Q149.236875 -9.436288749999974 146.00977875 -6.20806374999998 Q142.78252125 -2.9799999999999756 138.2509125 -2.9799999999999756 H36.8246625 Z M52.486875000000005 -13.541874999999976 H122.55 Q122.55 -20.314374999999984 127.22625000000001 -24.99062499999998 Q131.9025 -29.666874999999976 138.675 -29.666874999999976 V-61.91687499999999 Q131.9025 -61.91687499999999 127.22625000000001 -66.61247499999999 Q122.55 -71.30791374999998 122.55 -78.04187499999998 H52.486875000000005 Q52.486875000000005 -71.30791374999998 47.810625 -66.61247499999999 Q43.134375 -61.91687499999999 36.361875 -61.91687499999999 V-29.666874999999976 Q43.134375 -29.666874999999976 47.810625 -24.99062499999998 Q52.486875000000005 -20.314374999999984 52.486875000000005 -13.541874999999976 Z M129.0 17.256875000000008 H16.5490875 Q12.01747875 17.256875000000008 8.79022125 14.02977875000002 Q5.563125 10.802521250000012 5.563125 6.2709125000000085 V-67.47999999999999 H16.5490875 V6.2709125000000085 Q16.5490875 6.2709125000000085 16.5490875 6.2709125000000085 Q16.5490875 6.2709125000000085 16.5490875 6.2709125000000085 H129.0 V17.256875000000008 Z"/></g><g id="Regular-L" transform="matrix(1 0 0 1 1378.56 1556)"><path d="M87.075 -25.55499999999998 Q79.0125 -25.55499999999998 73.36875 -31.198749999999976 Q67.72500000000001 -36.84249999999999 67.72500000000001 -44.90499999999999 Q67.72500000000001 -52.96749999999999 73.36875 -58.611249999999984 Q79.0125 -64.25499999999998 87.075 -64.25499999999998 Q95.1375 -64.25499999999998 100.78125 -58.611249999999984 Q106.425 -52.96749999999999 106.425 -44.90499999999999 Q106.425 -36.84249999999999 100.78125 -31.198749999999976 Q95.1375 -25.55499999999998 87.075 -25.55499999999998 Z M35.475 -2.9799999999999756 Q31.4840625 -2.9799999999999756 28.642031250000002 -5.822031249999981 Q25.8 -8.664062499999986 25.8 -12.654999999999987 V-77.15499999999999 Q25.8 -81.14593749999997 28.642031250000002 -83.98796875 Q31.4840625 -86.82999999999998 35.475 -86.82999999999998 H138.675 Q142.6659375 -86.82999999999998 145.50796875 -83.98796875 Q148.35 -81.14593749999997 148.35 -77.15499999999999 V-12.654999999999987 Q148.35 -8.664062499999986 145.50796875 -5.822031249999981 Q142.6659375 -2.9799999999999756 138.675 -2.9799999999999756 H35.475 Z M51.6 -12.654999999999987 H122.55 Q122.55 -19.42749999999998 127.22625000000001 -24.103749999999977 Q131.9025 -28.779999999999987 138.675 -28.779999999999987 V-61.02999999999999 Q131.9025 -61.02999999999999 127.22625000000001 -65.70624999999998 Q122.55 -70.3825 122.55 -77.15499999999999 H51.6 Q51.6 -70.3825 46.92375 -65.70624999999998 Q42.2475 -61.02999999999999 35.475 -61.02999999999999 V-28.779999999999987 Q42.2475 -28.779999999999987 46.92375 -24.103749999999977 Q51.6 -19.42749999999998 51.6 -12.654999999999987 Z M129.0 16.370000000000033 H16.125 Q12.1340625 16.370000000000033 9.29203125 13.527968750000014 Q6.45 10.685937500000023 6.45 6.695000000000022 V-67.47999999999999 H16.125 V6.695000000000022 Q16.125 6.695000000000022 16.125 6.695000000000022 Q16.125 6.695000000000022 16.125 6.695000000000022 H129.0 V16.370000000000033 Z"/></g><g id="Light-L" transform="matrix(1 0 0 1 1082.77 1556)"><path d="M86.33067 -28.283994999999976 Q79.5707475 -28.283994999999976 74.88837 -32.96637249999998 Q70.20599250000001 -37.64874999999998 70.20599250000001 -44.408833749999985 Q70.20599250000001 -51.16875624999999 74.88837 -55.851133749999974 Q79.5707475 -60.533511249999975 86.33067 -60.533511249999975 Q93.09075375 -60.533511249999975 97.77313125 -55.851133749999974 Q102.45550875 -51.16875624999999 102.45550875 -44.408833749999985 Q102.45550875 -37.64874999999998 97.77313125 -32.96637249999998 Q93.09075375 -28.283994999999976 86.33067 -28.283994999999976 Z M39.07232625 -5.9571587499999765 Q35.28295125 -5.9571587499999765 32.52622125 -8.713888749999981 Q29.769491249999998 -11.470618749999971 29.769491249999998 -15.259993749999978 V-73.55767374999998 Q29.769491249999998 -77.34704874999997 32.52622125 -80.10377874999998 Q35.28295125 -82.86050874999998 39.07232625 -82.86050874999998 H133.58901375 Q137.37838875 -82.86050874999998 140.13511875 -80.10377874999998 Q142.89184875 -77.34704874999997 142.89184875 -73.55767374999998 V-15.259993749999978 Q142.89184875 -11.470618749999971 140.13511875 -8.713888749999981 Q137.37838875 -5.9571587499999765 133.58901375 -5.9571587499999765 H39.07232625 Z M51.10383375 -13.27516749999998 H121.55766750000001 Q121.55766750000001 -19.117416249999977 125.65245 -23.204458749999986 Q129.7472325 -27.291501249999982 135.57384000000002 -27.291501249999982 V-61.52616624999999 Q129.73159125 -61.52616624999999 125.64471 -65.62094874999998 Q121.55766750000001 -69.71573124999998 121.55766750000001 -75.54233874999998 H51.10383375 Q51.10383375 -69.70025124999998 47.00905125 -65.61320874999998 Q42.91426875 -61.52616624999999 37.087661250000004 -61.52616624999999 V-27.291501249999982 Q42.92974875 -27.291501249999982 47.016791250000004 -23.196718749999988 Q51.10383375 -19.10193624999998 51.10383375 -13.27516749999998 Z M123.66601125000001 11.904342500000013 H21.21098625 Q17.42161125 11.904342500000013 14.664881249999999 9.147612500000037 Q11.908151250000001 6.390721250000041 11.908151250000001 2.601507500000025 V-63.63450999999998 H19.22616 V2.601507500000025 Q19.22616 3.345676250000025 19.84648875 3.966005000000024 Q20.46665625 4.586172500000032 21.21098625 4.586172500000032 H123.66601125000001 V11.904342500000013 Z M39.07232625 -13.27516749999998 H37.087661250000004 Q37.087661250000004 -13.27516749999998 37.087661250000004 -13.864536249999972 Q37.087661250000004 -14.453743749999973 37.087661250000004 -15.259993749999978 V-73.55767374999998 Q37.087661250000004 -74.36392374999997 37.087661250000004 -74.95313124999998 Q37.087661250000004 -75.54233874999998 37.087661250000004 -75.54233874999998 H39.07232625 Q38.26607625 -75.54233874999998 37.676868750000004 -74.95313124999998 Q37.087661250000004 -74.36392374999997 37.087661250000004 -73.55767374999998 V-15.259993749999978 Q37.087661250000004 -14.453743749999973 37.676868750000004 -13.864536249999972 Q38.26607625 -13.27516749999998 39.07232625 -13.27516749999998 Z"/></g><g id="Thin-L" transform="matrix(1 0 0 1 787.282 1556)"><path d="M85.58650125 -31.012667499999978 Q80.12883375 -31.012667499999978 76.4076675 -34.73383374999999 Q72.68650125 -38.454999999999984 72.68650125 -43.91266749999998 Q72.68650125 -49.37033499999998 76.4076675 -53.09150124999998 Q80.12883375 -56.81266749999999 85.58650125 -56.81266749999999 Q91.04433 -56.81266749999999 94.76549625 -53.09150124999998 Q98.4866625 -49.37033499999998 98.4866625 -43.91266749999998 Q98.4866625 -38.454999999999984 94.76549625 -34.73383374999999 Q91.04433 -31.012667499999978 85.58650125 -31.012667499999978 Z M42.669168750000004 -8.933833749999977 Q39.081356250000006 -8.933833749999977 36.4099275 -11.60526249999998 Q33.7383375 -14.276691249999985 33.7383375 -17.864503749999983 V-69.96083124999998 Q33.7383375 -73.54864374999998 36.4099275 -76.22007249999999 Q39.081356250000006 -78.89166249999998 42.669168750000004 -78.89166249999998 H128.50383375 Q132.09164625 -78.89166249999998 134.76323625 -76.22007249999999 Q137.434665 -73.54864374999998 137.434665 -69.96083124999998 V-17.864503749999983 Q137.434665 -14.276691249999985 134.76323625 -11.60526249999998 Q132.09164625 -8.933833749999977 128.50383375 -8.933833749999977 H42.669168750000004 Z M50.607667500000005 -13.895334999999989 H120.565335 Q120.565335 -18.807332499999987 124.07881125 -22.305167499999982 Q127.59212625 -25.80316374999998 132.47316375 -25.80316374999998 V-62.022332499999976 Q127.56116625 -62.022332499999976 124.06333125 -65.53564749999998 Q120.565335 -69.04912374999998 120.565335 -73.92999999999998 H50.607667500000005 Q50.607667500000005 -69.01816374999999 47.0943525 -65.52016749999999 Q43.58087625 -62.022332499999976 38.7 -62.022332499999976 V-25.80316374999998 Q43.61183625 -25.80316374999998 47.1098325 -22.289687499999985 Q50.607667500000005 -18.77637249999998 50.607667500000005 -13.895334999999989 Z M118.33282875 7.439330000000012 H26.29616625 Q22.70835375 7.439330000000012 20.036763750000002 4.767740000000032 Q17.365334999999998 2.0963112500000136 17.365334999999998 -1.4915012499999847 V-59.789664999999985 H22.326836250000003 V-1.4915012499999847 Q22.326836250000003 -0.003002499999979591 23.5673325 1.237332500000008 Q24.8076675 2.477667500000024 26.29616625 2.477667500000024 H118.33282875 V7.439330000000012 Z M42.669168750000004 -13.895334999999989 H38.7 Q38.7 -13.895334999999989 38.7 -15.073749999999976 Q38.7 -16.252164999999977 38.7 -17.864503749999983 V-69.96083124999998 Q38.7 -71.57333124999998 38.7 -72.75174624999998 Q38.7 -73.92999999999998 38.7 -73.92999999999998 H42.669168750000004 Q41.05666875 -73.92999999999998 39.878415 -72.75174624999998 Q38.7 -71.57333124999998 38.7 -69.96083124999998 V-17.864503749999983 Q38.7 -16.252164999999977 39.878415 -15.073749999999976 Q41.05666875 -13.895334999999989 42.669168750000004 -13.895334999999989 Z"/></g><g id="Ultralight-L" transform="matrix(1 0 0 1 491.205 1556)"><path d="M85.14 -32.64999999999998 Q80.46375 -32.64999999999998 77.31937500000001 -35.79437499999999 Q74.175 -38.938749999999985 74.175 -43.61499999999998 Q74.175 -48.29124999999998 77.31937500000001 -51.43562499999999 Q80.46375 -54.579999999999984 85.14 -54.579999999999984 Q89.81625 -54.579999999999984 92.96062500000001 -51.43562499999999 Q96.105 -48.29124999999998 96.105 -43.61499999999998 Q96.105 -38.938749999999985 92.96062500000001 -35.79437499999999 Q89.81625 -32.64999999999998 85.14 -32.64999999999998 Z M44.8275 -10.719999999999985 Q41.360625 -10.719999999999985 38.7403125 -13.340312499999982 Q36.120000000000005 -15.960624999999979 36.120000000000005 -19.42749999999998 V-67.80249999999998 Q36.120000000000005 -71.26937499999998 38.7403125 -73.88968749999998 Q41.360625 -76.50999999999999 44.8275 -76.50999999999999 H125.4525 Q128.919375 -76.50999999999999 131.5396875 -73.88968749999998 Q134.16 -71.26937499999998 134.16 -67.80249999999998 V-19.42749999999998 Q134.16 -15.960624999999979 131.5396875 -13.340312499999982 Q128.919375 -10.719999999999985 125.4525 -10.719999999999985 H44.8275 Z M50.31 -14.267499999999984 H119.97 Q119.97 -18.62124999999999 123.13453125000001 -21.765624999999986 Q126.2990625 -24.909999999999982 130.6125 -24.909999999999982 V-62.31999999999998 Q126.25875 -62.31999999999998 123.11437500000001 -65.48453124999997 Q119.97 -68.64906249999999 119.97 -72.96249999999998 H50.31 Q50.31 -68.60874999999999 47.14546875 -65.46437499999999 Q43.9809375 -62.31999999999998 39.667500000000004 -62.31999999999998 V-24.909999999999982 Q44.02125 -24.909999999999982 47.165625 -21.745468749999986 Q50.31 -18.580937499999976 50.31 -14.267499999999984 Z M115.13250000000001 4.760000000000019 H29.3475 Q25.880625000000002 4.760000000000019 23.2603125 2.139687500000008 Q20.64 -0.480624999999975 20.64 -3.9474999999999767 V-57.48249999999999 H24.1875 V-3.9474999999999767 Q24.1875 -2.0124999999999886 25.8 -0.39999999999997726 Q27.4125 1.2125000000000057 29.3475 1.2125000000000057 H115.13250000000001 V4.760000000000019 Z M44.8275 -14.267499999999984 H39.667500000000004 Q39.667500000000004 -14.267499999999984 39.667500000000004 -15.799374999999984 Q39.667500000000004 -17.331249999999983 39.667500000000004 -19.42749999999998 V-67.80249999999998 Q39.667500000000004 -69.89874999999998 39.667500000000004 -71.43062499999999 Q39.667500000000004 -72.96249999999998 39.667500000000004 -72.96249999999998 H44.8275 Q42.73125 -72.96249999999998 41.199375 -71.43062499999999 Q39.667500000000004 -69.89874999999998 39.667500000000004 -67.80249999999998 V-19.42749999999998 Q39.667500000000004 -17.331249999999983 41.199375 -15.799374999999984 Q42.73125 -14.267499999999984 44.8275 -14.267499999999984 Z"/></g><g id="Bold-M" transform="matrix(1 0 0 1 2281.8 1126)"><path d="M71.875 -34.10499999999999 Q65.625 -34.10499999999999 61.25 -38.47999999999999 Q56.875 -42.85499999999999 56.875 -49.10499999999999 Q56.875 -55.35499999999999 61.25 -59.72999999999999 Q65.625 -64.10499999999999 71.875 -64.10499999999999 Q78.125 -64.10499999999999 82.5 -59.72999999999999 Q86.875 -55.35499999999999 86.875 -49.10499999999999 Q86.875 -42.85499999999999 82.5 -38.47999999999999 Q78.125 -34.10499999999999 71.875 -34.10499999999999 Z M40.75 -15.22999999999999 Q34.253125 -15.22999999999999 29.6265 -19.856624999999994 Q25.0 -24.483124999999987 25.0 -30.97999999999999 V-67.10499999999999 Q25.0 -73.60187499999999 29.6265 -78.22837499999999 Q34.253125 -82.85499999999999 40.75 -82.85499999999999 H103.125 Q109.621875 -82.85499999999999 114.248375 -78.22837499999999 Q118.875 -73.60187499999999 118.875 -67.10499999999999 V-30.97999999999999 Q118.875 -24.483124999999987 114.248375 -19.856624999999994 Q109.621875 -15.22999999999999 103.125 -15.22999999999999 H40.75 Z M48.875 -29.10499999999999 H95.0 Q95.0 -33.22999999999999 97.9375 -36.16749999999999 Q100.875 -39.10499999999999 105.0 -39.10499999999999 V-59.10499999999999 Q100.875 -59.10499999999999 97.9375 -62.04249999999999 Q95.0 -64.97999999999999 95.0 -69.10499999999999 H48.875 Q48.875 -64.97999999999999 45.9375 -62.04249999999999 Q43.0 -59.10499999999999 38.875 -59.10499999999999 V-39.10499999999999 Q43.0 -39.10499999999999 45.9375 -36.16749999999999 Q48.875 -33.22999999999999 48.875 -29.10499999999999 Z M100.0 8.64500000000001 H16.875 Q10.378125 8.64500000000001 5.751625 4.018375000000006 Q1.125 -0.6081249999999869 1.125 -7.10499999999999 V-60.22999999999999 H16.875 V-7.10499999999999 Q16.875 -7.10499999999999 16.875 -7.10499999999999 Q16.875 -7.10499999999999 16.875 -7.10499999999999 H100.0 V8.64500000000001 Z"/></g><g id="Semibold-M" transform="matrix(1 0 0 1 1985.97 1126)"><path d="M71.059875 -32.42037499999999 Q64.809875 -32.42037499999999 60.434875 -36.79537499999999 Q56.059875 -41.17037499999999 56.059875 -47.42037499999999 Q56.059875 -53.67037499999999 60.434875 -58.04537499999999 Q64.809875 -62.42037499999999 71.059875 -62.42037499999999 Q77.309875 -62.42037499999999 81.684875 -58.04537499999999 Q86.059875 -53.67037499999999 86.059875 -47.42037499999999 Q86.059875 -41.17037499999999 81.684875 -36.79537499999999 Q77.309875 -32.42037499999999 71.059875 -32.42037499999999 Z M38.250125 -15.22999999999999 Q32.7845 -15.22999999999999 28.89225 -19.122249999999994 Q25.0 -23.014499999999984 25.0 -28.480124999999987 V-66.289875 Q25.0 -71.75549999999998 28.89225 -75.64774999999999 Q32.7845 -79.53999999999999 38.250125 -79.53999999999999 H103.940125 Q109.405875 -79.53999999999999 113.298125 -75.64774999999999 Q117.190375 -71.75549999999998 117.190375 -66.289875 V-28.480124999999987 Q117.190375 -23.014499999999984 113.298125 -19.122249999999994 Q109.405875 -15.22999999999999 103.940125 -15.22999999999999 H38.250125 Z M47.190375 -27.420374999999993 H95.0 Q95.0 -31.545374999999993 97.9375 -34.48287499999999 Q100.875 -37.42037499999999 105.0 -37.42037499999999 V-57.42037499999999 Q100.875 -57.42037499999999 97.9375 -60.35787499999999 Q95.0 -63.29537499999999 95.0 -67.42037499999999 H47.190375 Q47.190375 -63.29537499999999 44.252875 -60.35787499999999 Q41.315375 -57.42037499999999 37.190375 -57.42037499999999 V-37.42037499999999 Q41.315375 -37.42037499999999 44.252875 -34.48287499999999 Q47.190375 -31.545374999999993 47.190375 -27.420374999999993 Z M100.0 6.960375000000013 H16.059875 Q10.594125 6.960375000000013 6.701875 3.068125000000009 Q2.809625 -0.8241249999999951 2.809625 -6.289874999999995 V-60.22999999999999 H16.059875 V-6.289874999999995 Q16.059875 -6.289874999999995 16.059875 -6.289874999999995 Q16.059875 -6.289874999999995 16.059875 -6.289874999999995 H100.0 V6.960375000000013 Z"/></g><g id="Medium-M" transform="matrix(1 0 0 1 1689.91 1126)"><path d="M70.448375 -31.15662499999999 Q64.198375 -31.15662499999999 59.823375 -35.53162499999999 Q55.448375 -39.90662499999999 55.448375 -46.15662499999999 Q55.448375 -52.40662499999999 59.823375 -56.78162499999999 Q64.198375 -61.15662499999999 70.448375 -61.15662499999999 Q76.698375 -61.15662499999999 81.073375 -56.78162499999999 Q85.448375 -52.40662499999999 85.448375 -46.15662499999999 Q85.448375 -39.90662499999999 81.073375 -35.53162499999999 Q76.698375 -31.15662499999999 70.448375 -31.15662499999999 Z M36.375 -15.22999999999999 Q31.682875 -15.22999999999999 28.341375 -18.57137499999999 Q25.0 -21.912874999999985 25.0 -26.60499999999999 V-65.67837499999999 Q25.0 -70.37062499999999 28.341375 -73.71199999999999 Q31.682875 -77.05337499999999 36.375 -77.05337499999999 H104.551625 Q109.243875 -77.05337499999999 112.58525 -73.71199999999999 Q115.926625 -70.37062499999999 115.926625 -65.67837499999999 V-26.60499999999999 Q115.926625 -21.912874999999985 112.58525 -18.57137499999999 Q109.243875 -15.22999999999999 104.551625 -15.22999999999999 H36.375 Z M45.926625 -26.15662499999999 H95.0 Q95.0 -30.28162499999999 97.9375 -33.21912499999999 Q100.875 -36.15662499999999 105.0 -36.15662499999999 V-56.15662499999999 Q100.875 -56.15662499999999 97.9375 -59.09412499999999 Q95.0 -62.03162499999999 95.0 -66.15662499999999 H45.926625 Q45.926625 -62.03162499999999 42.989125 -59.09412499999999 Q40.051625 -56.15662499999999 35.926625 -56.15662499999999 V-36.15662499999999 Q40.051625 -36.15662499999999 42.989125 -33.21912499999999 Q45.926625 -30.28162499999999 45.926625 -26.15662499999999 Z M100.0 5.696625000000012 H15.448375 Q10.756125 5.696625000000012 7.41475 2.3552500000000123 Q4.073375 -0.986124999999987 4.073375 -5.678374999999988 V-60.22999999999999 H15.448375 V-5.678374999999988 Q15.448375 -5.678374999999988 15.448375 -5.678374999999988 Q15.448375 -5.678374999999988 15.448375 -5.678374999999988 H100.0 V5.696625000000012 Z"/></g><g id="Regular-M" transform="matrix(1 0 0 1 1394.06 1126)"><path d="M70.0 -30.22999999999999 Q63.75 -30.22999999999999 59.375 -34.60499999999999 Q55.0 -38.97999999999999 55.0 -45.22999999999999 Q55.0 -51.47999999999999 59.375 -55.85499999999999 Q63.75 -60.22999999999999 70.0 -60.22999999999999 Q76.25 -60.22999999999999 80.625 -55.85499999999999 Q85.0 -51.47999999999999 85.0 -45.22999999999999 Q85.0 -38.97999999999999 80.625 -34.60499999999999 Q76.25 -30.22999999999999 70.0 -30.22999999999999 Z M35.0 -15.22999999999999 Q30.875 -15.22999999999999 27.9375 -18.16749999999999 Q25.0 -21.10499999999999 25.0 -25.22999999999999 V-65.22999999999999 Q25.0 -69.35499999999999 27.9375 -72.29249999999999 Q30.875 -75.22999999999999 35.0 -75.22999999999999 H105.0 Q109.125 -75.22999999999999 112.0625 -72.29249999999999 Q115.0 -69.35499999999999 115.0 -65.22999999999999 V-25.22999999999999 Q115.0 -21.10499999999999 112.0625 -18.16749999999999 Q109.125 -15.22999999999999 105.0 -15.22999999999999 H35.0 Z M45.0 -25.22999999999999 H95.0 Q95.0 -29.35499999999999 97.9375 -32.29249999999999 Q100.875 -35.22999999999999 105.0 -35.22999999999999 V-55.22999999999999 Q100.875 -55.22999999999999 97.9375 -58.16749999999999 Q95.0 -61.10499999999999 95.0 -65.22999999999999 H45.0 Q45.0 -61.10499999999999 42.0625 -58.16749999999999 Q39.125 -55.22999999999999 35.0 -55.22999999999999 V-35.22999999999999 Q39.125 -35.22999999999999 42.0625 -32.29249999999999 Q45.0 -29.35499999999999 45.0 -25.22999999999999 Z M100.0 4.77000000000001 H15.0 Q10.875 4.77000000000001 7.9375 1.8325000000000102 Q5.0 -1.1049999999999898 5.0 -5.22999999999999 V-60.22999999999999 H15.0 V-5.22999999999999 Q15.0 -5.22999999999999 15.0 -5.22999999999999 Q15.0 -5.22999999999999 15.0 -5.22999999999999 H100.0 V4.77000000000001 Z"/></g><g id="Light-M" transform="matrix(1 0 0 1 1098.18 1126)"><path d="M68.749875 -31.672374999999988 Q63.509625 -31.672374999999988 59.879875 -35.30212499999999 Q56.250125 -38.93187499999999 56.250125 -44.17224999999999 Q56.250125 -49.41249999999999 59.879875 -53.04224999999999 Q63.509625 -56.67199999999999 68.749875 -56.67199999999999 Q73.99025 -56.67199999999999 77.62 -53.04224999999999 Q81.24975 -49.41249999999999 81.24975 -44.17224999999999 Q81.24975 -38.93187499999999 77.62 -35.30212499999999 Q73.99025 -31.672374999999988 68.749875 -31.672374999999988 Z M35.76925 -16.191624999999988 Q32.041 -16.191624999999988 29.385875 -18.84662499999999 Q26.730875 -21.50162499999999 26.730875 -25.22999999999999 V-63.11449999999999 Q26.730875 -66.84275 29.385875 -69.497875 Q32.041 -72.152875 35.76925 -72.152875 H101.7305 Q105.458875 -72.152875 108.113875 -69.497875 Q110.768875 -66.84275 110.768875 -63.11449999999999 V-25.22999999999999 Q110.768875 -21.50162499999999 108.113875 -18.84662499999999 Q105.458875 -16.191624999999988 101.7305 -16.191624999999988 H35.76925 Z M43.269125 -23.691374999999994 H94.23075 Q94.23075 -27.431749999999994 96.88575 -30.080749999999995 Q99.54075 -32.72987499999999 103.269125 -32.72987499999999 V-55.61462499999999 Q99.52875 -55.61462499999999 96.87975 -58.26962499999999 Q94.23075 -60.92474999999999 94.23075 -64.65299999999999 H43.269125 Q43.269125 -60.91262499999999 40.614125 -58.26362499999999 Q37.959 -55.61462499999999 34.23075 -55.61462499999999 V-32.72987499999999 Q37.971125 -32.72987499999999 40.620125 -30.074749999999995 Q43.269125 -27.419749999999993 43.269125 -23.691374999999994 Z M95.865125 1.3082500000000152 H18.2695 Q14.541125 1.3082500000000152 11.886125 -1.346874999999983 Q9.231125 -4.001874999999984 9.231125 -7.730124999999987 V-57.24899999999999 H16.730875 V-7.730124999999987 Q16.730875 -7.153249999999986 17.21175 -6.672374999999988 Q17.6925 -6.191624999999988 18.2695 -6.191624999999988 H95.865125 V1.3082500000000152 Z M35.76925 -23.691374999999994 H34.23075 Q34.23075 -23.691374999999994 34.23075 -24.14824999999999 Q34.23075 -24.60499999999999 34.23075 -25.22999999999999 V-63.11449999999999 Q34.23075 -63.73949999999999 34.23075 -64.19624999999999 Q34.23075 -64.65299999999999 34.23075 -64.65299999999999 H35.76925 Q35.14425 -64.65299999999999 34.6875 -64.19624999999999 Q34.23075 -63.73949999999999 34.23075 -63.11449999999999 V-25.22999999999999 Q34.23075 -24.60499999999999 34.6875 -24.14824999999999 Q35.14425 -23.691374999999994 35.76925 -23.691374999999994 Z"/></g><g id="Thin-M" transform="matrix(1 0 0 1 802.565 1126)"><path d="M67.5 -33.11462499999999 Q63.26925 -33.11462499999999 60.384625 -35.99924999999999 Q57.5 -38.88387499999999 57.5 -43.11462499999999 Q57.5 -47.34537499999999 60.384625 -50.22999999999999 Q63.26925 -53.11462499999999 67.5 -53.11462499999999 Q71.73075 -53.11462499999999 74.615375 -50.22999999999999 Q77.5 -47.34537499999999 77.5 -43.11462499999999 Q77.5 -38.88387499999999 74.615375 -35.99924999999999 Q71.73075 -33.11462499999999 67.5 -33.11462499999999 Z M36.5385 -17.15312499999999 Q33.20675 -17.15312499999999 30.834125 -19.52562499999999 Q28.4615 -21.89824999999999 28.4615 -25.22999999999999 V-60.99924999999999 Q28.4615 -64.33099999999999 30.834125 -66.70362499999999 Q33.20675 -69.07624999999999 36.5385 -69.07624999999999 H98.461625 Q101.79325 -69.07624999999999 104.165875 -66.70362499999999 Q106.5385 -64.33099999999999 106.5385 -60.99924999999999 V-25.22999999999999 Q106.5385 -21.89824999999999 104.165875 -19.52562499999999 Q101.79325 -17.15312499999999 98.461625 -17.15312499999999 H36.5385 Z M41.5385 -22.15312499999999 H93.4615 Q93.4615 -25.50887499999999 95.834125 -27.869499999999988 Q98.20675 -30.22999999999999 101.5385 -30.22999999999999 V-55.99924999999999 Q98.18275 -55.99924999999999 95.822125 -58.37187499999999 Q93.4615 -60.74437499999999 93.4615 -64.07612499999999 H41.5385 Q41.5385 -60.72037499999999 39.165875 -58.35974999999999 Q36.79325 -55.99924999999999 33.4615 -55.99924999999999 V-30.22999999999999 Q36.817375 -30.22999999999999 39.177875 -27.85737499999999 Q41.5385 -25.484874999999988 41.5385 -22.15312499999999 Z M91.730875 -2.1529999999999916 H21.538375 Q18.206625 -2.1529999999999916 15.834125 -4.525624999999991 Q13.4615 -6.89824999999999 13.4615 -10.22999999999999 V-54.26849999999999 H18.4615 V-10.22999999999999 Q18.4615 -9.07612499999999 19.423 -8.11462499999999 Q20.384625 -7.153124999999989 21.538375 -7.153124999999989 H91.730875 V-2.1529999999999916 Z M36.5385 -22.15312499999999 H33.4615 Q33.4615 -22.15312499999999 33.4615 -23.06649999999999 Q33.4615 -23.97999999999999 33.4615 -25.22999999999999 V-60.99924999999999 Q33.4615 -62.24924999999999 33.4615 -63.16274999999999 Q33.4615 -64.07612499999999 33.4615 -64.07612499999999 H36.5385 Q35.2885 -64.07612499999999 34.375 -63.16274999999999 Q33.4615 -62.24924999999999 33.4615 -60.99924999999999 V-25.22999999999999 Q33.4615 -23.97999999999999 34.375 -23.06649999999999 Q35.2885 -22.15312499999999 36.5385 -22.15312499999999 Z"/></g><g id="Ultralight-M" transform="matrix(1 0 0 1 506.415 1126)"><path d="M66.75 -33.97999999999999 Q63.125 -33.97999999999999 60.6875 -36.41749999999999 Q58.25 -38.85499999999999 58.25 -42.47999999999999 Q58.25 -46.10499999999999 60.6875 -48.54249999999999 Q63.125 -50.97999999999999 66.75 -50.97999999999999 Q70.375 -50.97999999999999 72.8125 -48.54249999999999 Q75.25 -46.10499999999999 75.25 -42.47999999999999 Q75.25 -38.85499999999999 72.8125 -36.41749999999999 Q70.375 -33.97999999999999 66.75 -33.97999999999999 Z M37.0 -17.72999999999999 Q33.90625 -17.72999999999999 31.703125 -19.93312499999999 Q29.5 -22.13624999999999 29.5 -25.22999999999999 V-59.72999999999999 Q29.5 -62.82374999999999 31.703125 -65.02687499999999 Q33.90625 -67.22999999999999 37.0 -67.22999999999999 H96.5 Q99.59375 -67.22999999999999 101.796875 -65.02687499999999 Q104.0 -62.82374999999999 104.0 -59.72999999999999 V-25.22999999999999 Q104.0 -22.13624999999999 101.796875 -19.93312499999999 Q99.59375 -17.72999999999999 96.5 -17.72999999999999 H37.0 Z M40.5 -21.22999999999999 H93.0 Q93.0 -24.35499999999999 95.203125 -26.54249999999999 Q97.40625 -28.72999999999999 100.5 -28.72999999999999 V-56.22999999999999 Q97.375 -56.22999999999999 95.1875 -58.43312499999999 Q93.0 -60.63624999999999 93.0 -63.72999999999999 H40.5 Q40.5 -60.60499999999999 38.296875 -58.41749999999999 Q36.09375 -56.22999999999999 33.0 -56.22999999999999 V-28.72999999999999 Q36.125 -28.72999999999999 38.3125 -26.52687499999999 Q40.5 -24.32374999999999 40.5 -21.22999999999999 Z M89.25 -4.22999999999999 H23.5 Q20.40625 -4.22999999999999 18.203125 -6.43312499999999 Q16.0 -8.63624999999999 16.0 -11.72999999999999 V-52.47999999999999 H19.5 V-11.72999999999999 Q19.5 -10.22999999999999 20.75 -8.97999999999999 Q22.0 -7.72999999999999 23.5 -7.72999999999999 H89.25 V-4.22999999999999 Z M37.0 -21.22999999999999 H33.0 Q33.0 -21.22999999999999 33.0 -22.41749999999999 Q33.0 -23.60499999999999 33.0 -25.22999999999999 V-59.72999999999999 Q33.0 -61.35499999999999 33.0 -62.54249999999999 Q33.0 -63.72999999999999 33.0 -63.72999999999999 H37.0 Q35.375 -63.72999999999999 34.1875 -62.54249999999999 Q33.0 -61.35499999999999 33.0 -59.72999999999999 V-25.22999999999999 Q33.0 -23.60499999999999 34.1875 -22.41749999999999 Q35.375 -21.22999999999999 37.0 -21.22999999999999 Z"/></g><g id="Bold-S" transform="matrix(1 0 0 1 2294.23 696)"><path d="M55.920375 -33.553374999999996 Q50.989125 -33.553374999999996 47.53725 -37.00525 Q44.085375 -40.457125 44.085375 -45.388374999999996 Q44.085375 -50.319624999999995 47.53725 -53.771499999999996 Q50.989125 -57.223375 55.920375 -57.223375 Q60.851625000000006 -57.223375 64.3035 -53.771499999999996 Q67.755375 -50.319624999999995 67.755375 -45.388374999999996 Q67.755375 -40.457125 64.3035 -37.00525 Q60.851625000000006 -33.553374999999996 55.920375 -33.553374999999996 Z M30.57375 -21.02799999999999 Q25.773178125 -21.02799999999999 22.354638375 -24.448216374999987 Q18.936 -27.868432749999982 18.936 -32.67117437499999 V-58.039694125 Q18.936 -62.842534375 22.354638375 -66.246280375 Q25.773178125 -69.650125 30.57375 -69.650125 H81.36562500000001 Q86.166196875 -69.650125 89.58483525 -66.229908625 Q93.003375 -62.80969225 93.003375 -58.006950624999995 V-32.63843087499999 Q93.003375 -27.835590624999995 89.58483525 -24.431844624999997 Q86.166196875 -21.02799999999999 81.36562500000001 -21.02799999999999 H30.57375 Z M36.195375 -31.18637499999999 H75.744 Q75.744 -34.14512499999999 77.82991875 -36.227690499999994 Q79.9158375 -38.31025599999999 82.845 -38.31025599999999 V-52.489374999999995 Q79.9158375 -52.489374999999995 77.82991875 -54.57529374999999 Q75.744 -56.6612125 75.744 -59.590374999999995 H36.195375 Q36.195375 -56.63162499999999 34.10945625 -54.5490595 Q32.0235375 -52.46649399999999 29.094375000000003 -52.46649399999999 V-38.287375 Q32.0235375 -38.287375 34.10945625 -36.20145625 Q36.195375 -34.1155375 36.195375 -31.18637499999999 Z M78.111 -3.768624999999986 H13.314375 Q8.513803125 -3.768624999999986 5.095263375 -7.187164749999994 Q1.676625 -10.605803124999994 1.676625 -15.406374999999997 V-54.166 H13.314375 V-15.406374999999997 Q13.314375 -15.406374999999997 13.314375 -15.406374999999997 Q13.314375 -15.406374999999997 13.314375 -15.406374999999997 H78.111 V-3.768624999999986 Z"/></g><g id="Semibold-S" transform="matrix(1 0 0 1 1998.1 696)"><path d="M55.27724137500001 -32.224205874999996 Q50.345991375000004 -32.224205874999996 46.894116375 -35.676080875 Q43.442241375 -39.127955875 43.442241375 -44.059205874999996 Q43.442241375 -48.990455874999995 46.894116375 -52.442330874999996 Q50.345991375000004 -55.894205875 55.27724137500001 -55.894205875 Q60.20849137500001 -55.894205875 63.66036637500001 -52.442330874999996 Q67.11224137500001 -48.990455874999995 67.11224137500001 -44.059205874999996 Q67.11224137500001 -39.127955875 63.66036637500001 -35.676080875 Q60.20849137500001 -32.224205874999996 55.27724137500001 -32.224205874999996 Z M28.601348625 -21.02799999999999 Q24.614433000000002 -21.02799999999999 21.775216500000003 -23.868794499999993 Q18.936 -26.709588999999994 18.936 -30.698871624999995 V-57.39656049999999 Q18.936 -61.3857445 21.775216500000003 -64.21016725 Q24.614433000000002 -67.03459 28.601348625 -67.03459 H82.008758625 Q85.995772875 -67.03459 88.834989375 -64.1937955 Q91.67420587500001 -61.35300099999999 91.67420587500001 -57.363718375 V-30.6660295 Q91.67420587500001 -26.676845499999985 88.834989375 -23.852422750000002 Q85.995772875 -21.02799999999999 82.008758625 -21.02799999999999 H28.601348625 Z M34.866205875000006 -29.857205875 H75.744 Q75.744 -32.81595587499999 77.82991875 -34.898521374999994 Q79.9158375 -36.981086874999995 82.845 -36.981086874999995 V-51.160205874999996 Q79.9158375 -51.160205874999996 77.82991875 -53.24612462499999 Q75.744 -55.33204337499999 75.744 -58.261205874999995 H34.866205875000006 Q34.866205875000006 -55.302455875 32.780287125 -53.21989037499999 Q30.694368375000003 -51.137324875 27.765205875000003 -51.137324875 V-36.958205875 Q30.694368375000003 -36.958205875 32.780287125 -34.872287125 Q34.866205875000006 -32.78636837499999 34.866205875000006 -29.857205875 Z M78.111 -5.097794124999993 H12.671241375000001 Q8.684227125 -5.097794124999993 5.8450106250000005 -7.937010624999985 Q3.005794125 -10.776227124999991 3.005794125 -14.763241374999993 V-54.166 H12.671241375000001 V-14.763241374999993 Q12.671241375000001 -14.763241374999993 12.671241375000001 -14.763241374999993 Q12.671241375000001 -14.763241374999993 12.671241375000001 -14.763241374999993 H78.111 V-5.097794124999993 Z"/></g><g id="Medium-S" transform="matrix(1 0 0 1 1701.85 696)"><path d="M54.794767875 -31.227107124999996 Q49.863517875 -31.227107124999996 46.411642875 -34.678982125 Q42.959767875000004 -38.130857125 42.959767875000004 -43.062107125 Q42.959767875000004 -47.993357124999996 46.411642875 -51.445232125 Q49.863517875 -54.897107125 54.794767875 -54.897107125 Q59.726017875000004 -54.897107125 63.177892875000005 -51.445232125 Q66.629767875 -47.993357124999996 66.629767875 -43.062107125 Q66.629767875 -38.130857125 63.177892875000005 -34.678982125 Q59.726017875000004 -31.227107124999996 54.794767875 -31.227107124999996 Z M27.121875000000003 -21.02799999999999 Q23.745250875 -21.02799999999999 21.340576125000002 -23.43425275 Q18.936 -25.840406874999985 18.936 -29.219397999999998 V-56.914086999999995 Q18.936 -60.293078124999994 21.340576125000002 -62.68286049999999 Q23.745250875 -65.072642875 27.121875000000003 -65.072642875 H82.49123212500001 Q85.867954875 -65.072642875 88.272531 -62.66648875 Q90.677107125 -60.26023599999999 90.677107125 -56.88134349999999 V-29.18655587499999 Q90.677107125 -25.80766337499999 88.272531 -23.417782374999987 Q85.867954875 -21.02799999999999 82.49123212500001 -21.02799999999999 H27.121875000000003 Z M33.869107125 -28.860107124999992 H75.744 Q75.744 -31.818857124999994 77.82991875 -33.901422624999995 Q79.9158375 -35.98398812499999 82.845 -35.98398812499999 V-50.163107124999996 Q79.9158375 -50.163107124999996 77.82991875 -52.249025874999994 Q75.744 -54.334944625 75.744 -57.264107124999995 H33.869107125 Q33.869107125 -54.30535712499999 31.783188374999998 -52.222791625 Q29.697269625 -50.14022612499999 26.768107125000004 -50.14022612499999 V-35.961107125 Q29.697269625 -35.961107125 31.783188374999998 -33.875188375 Q33.869107125 -31.789269625000003 33.869107125 -28.860107124999992 Z M78.111 -6.094892874999985 H12.188767875000002 Q8.812045125000001 -6.094892874999985 6.407469000000001 -8.49946899999999 Q4.002892875000001 -10.904045124999996 4.002892875000001 -14.280767874999995 V-54.166 H12.188767875000002 V-14.280767874999995 Q12.188767875000002 -14.280767874999995 12.188767875000002 -14.280767874999995 Q12.188767875000002 -14.280767874999995 12.188767875000002 -14.280767874999995 H78.111 V-6.094892874999985 Z"/></g><g id="Regular-S" transform="matrix(1 0 0 1 1405.73 696)"><path d="M54.441 -30.495999999999995 Q49.509750000000004 -30.495999999999995 46.057875 -33.947874999999996 Q42.606 -37.39975 42.606 -42.330999999999996 Q42.606 -47.262249999999995 46.057875 -50.714124999999996 Q49.509750000000004 -54.166 54.441 -54.166 Q59.37225 -54.166 62.824125 -50.714124999999996 Q66.276 -47.262249999999995 66.276 -42.330999999999996 Q66.276 -37.39975 62.824125 -33.947874999999996 Q59.37225 -30.495999999999995 54.441 -30.495999999999995 Z M26.037000000000003 -21.02799999999999 Q23.107837500000002 -21.02799999999999 21.02191875 -23.115496750000005 Q18.936 -25.203092124999998 18.936 -28.134424374999988 V-56.56031912499999 Q18.936 -59.491749999999996 21.02191875 -61.56287499999999 Q23.107837500000002 -63.634 26.037000000000003 -63.634 H82.845 Q85.7741625 -63.634 87.86008125000001 -61.54650325 Q89.946 -59.458907874999994 89.946 -56.527575625 V-28.101680874999992 Q89.946 -25.170249999999996 87.86008125000001 -23.099124999999987 Q85.7741625 -21.02799999999999 82.845 -21.02799999999999 H26.037000000000003 Z M33.138 -28.12899999999999 H75.744 Q75.744 -31.087749999999993 77.82991875 -33.170315499999994 Q79.9158375 -35.25288099999999 82.845 -35.25288099999999 V-49.431999999999995 Q79.9158375 -49.431999999999995 77.82991875 -51.51791874999999 Q75.744 -53.6038375 75.744 -56.532999999999994 H33.138 Q33.138 -53.57424999999999 31.052081250000004 -51.4916845 Q28.9661625 -49.40911899999999 26.037000000000003 -49.40911899999999 V-35.23 Q28.9661625 -35.23 31.052081250000004 -33.14408125 Q33.138 -31.0581625 33.138 -28.12899999999999 Z M78.111 -6.825999999999993 H11.835 Q8.9058375 -6.825999999999993 6.819918750000001 -8.911918749999984 Q4.734 -10.997837499999989 4.734 -13.926999999999992 V-54.166 H11.835 V-13.926999999999992 Q11.835 -13.926999999999992 11.835 -13.926999999999992 Q11.835 -13.926999999999992 11.835 -13.926999999999992 H78.111 V-6.825999999999993 Z"/></g><g id="Light-S" transform="matrix(1 0 0 1 1109.75 696)"><path d="M53.454651375000005 -31.634033874999993 Q49.320094125000004 -31.634033874999993 46.456221375 -34.49790662499999 Q43.592348625 -37.361779375 43.592348625 -41.49643525 Q43.592348625 -45.63099249999999 46.456221375 -48.49486525 Q49.320094125000004 -51.358737999999995 53.454651375000005 -51.358737999999995 Q57.589307250000005 -51.358737999999995 60.45318 -48.49486525 Q63.31705275000001 -45.63099249999999 63.31705275000001 -41.49643525 Q63.31705275000001 -37.361779375 60.45318 -34.49790662499999 Q57.589307250000005 -31.634033874999993 53.454651375000005 -31.634033874999993 Z M26.64393825 -21.786722124999997 Q24.0278115 -21.786722124999997 22.164686625 -23.651326374999996 Q20.301660375 -25.51602924999999 20.301660375 -28.134424374999988 V-54.891189624999996 Q20.301660375 -57.509584749999995 22.164686625 -59.35791587499999 Q24.0278115 -61.206148375 26.64393825 -61.206148375 H80.2653645 Q82.881589875 -61.206148375 84.74461612500001 -59.34144549999999 Q86.607642375 -57.47684124999999 86.607642375 -54.858347499999994 V-28.101680874999992 Q86.607642375 -25.483187125 84.74461612500001 -23.634954624999992 Q82.881589875 -21.786722124999997 80.2653645 -21.786722124999997 H26.64393825 Z M31.772339625000004 -26.915024875 H75.13706175 Q75.13706175 -29.570305749999996 77.000088 -31.425244749999997 Q78.86311425 -33.28018375 81.47933962500001 -33.28018375 V-49.735469124999995 Q78.85364625 -49.735469124999995 76.995354 -51.59849537499999 Q75.13706175 -53.461620249999996 75.13706175 -56.077746999999995 H31.772339625000004 Q31.772339625000004 -53.422466125 29.909313375 -51.567527125 Q28.046188500000003 -49.712588124999996 25.43006175 -49.712588124999996 V-33.25740137499999 Q28.055755125 -33.25740137499999 29.914047375 -31.39427649999999 Q31.772339625000004 -29.531250249999992 31.772339625000004 -26.915024875 Z M74.848583625 -9.557320749999988 H14.414635500000001 Q11.798410125 -9.557320749999988 9.935383875000001 -11.420445625 Q8.072357625 -13.28347187499999 8.072357625 -15.899598624999996 V-51.813990999999994 H13.200660375000002 V-15.899598624999996 Q13.200660375000002 -15.44444424999999 13.580070749999999 -15.065033874999997 Q13.9593825 -14.685722124999998 14.414635500000001 -14.685722124999998 H74.848583625 V-9.557320749999988 Z M26.64393825 -26.915024875 H25.43006175 Q25.43006175 -26.915024875 25.43006175 -27.275499249999996 Q25.43006175 -27.635875 25.43006175 -28.12899999999999 V-54.8638705 Q25.43006175 -55.3569955 25.43006175 -55.71737125 Q25.43006175 -56.077746999999995 25.43006175 -56.077746999999995 H26.64393825 Q26.150813250000002 -56.077746999999995 25.7904375 -55.71737125 Q25.43006175 -55.3569955 25.43006175 -54.8638705 V-28.12899999999999 Q25.43006175 -27.635875 25.7904375 -27.275499249999996 Q26.150813250000002 -26.915024875 26.64393825 -26.915024875 Z"/></g><g id="Thin-S" transform="matrix(1 0 0 1 814.015 696)"><path d="M52.4685 -32.77196912499999 Q49.130438250000005 -32.77196912499999 46.854469125 -35.047938249999994 Q44.578500000000005 -37.32390737499999 44.578500000000005 -40.66196912499999 Q44.578500000000005 -44.00003087499999 46.854469125 -46.275999999999996 Q49.130438250000005 -48.55196912499999 52.4685 -48.55196912499999 Q55.80656175 -48.55196912499999 58.082530875 -46.275999999999996 Q60.3585 -44.00003087499999 60.3585 -40.66196912499999 Q60.3585 -37.32390737499999 58.082530875 -35.047938249999994 Q55.80656175 -32.77196912499999 52.4685 -32.77196912499999 Z M27.2508765 -22.545345624999996 Q24.947588250000003 -22.545345624999996 23.307355875000002 -24.187156 Q21.667123500000002 -25.828966374999993 21.667123500000002 -28.134424374999988 V-53.22225737499999 Q21.667123500000002 -55.52781399999999 23.307355875000002 -57.15325262499999 Q24.947588250000003 -58.778691249999994 27.2508765 -58.778691249999994 H77.686222125 Q79.98951037500001 -58.778691249999994 81.629644125 -57.136782249999996 Q83.26987650000001 -55.494971875 83.26987650000001 -53.189513874999996 V-28.101680874999992 Q83.26987650000001 -25.79612424999999 81.629644125 -24.17068562499999 Q79.98951037500001 -22.545345624999996 77.686222125 -22.545345624999996 H27.2508765 Z M30.4068765 -25.701345624999988 H74.5301235 Q74.5301235 -28.05315737499999 76.170355875 -29.680568499999993 Q77.81058825 -31.307880999999988 80.1138765 -31.307880999999988 V-50.038938249999994 Q77.79165225 -50.038938249999994 76.160887875 -51.679170625 Q74.5301235 -53.319304374999994 74.5301235 -55.622592624999996 H30.4068765 Q30.4068765 -53.27078087499999 28.766644125000003 -51.64336975 Q27.12641175 -50.016057249999996 24.8231235 -50.016057249999996 V-31.284999999999997 Q27.145446375 -31.284999999999997 28.776112125000004 -29.644767625 Q30.4068765 -28.004633874999996 30.4068765 -25.701345624999988 Z M71.58666037500001 -12.288246999999998 H16.993777875 Q14.690489625000001 -12.288246999999998 13.050355875000001 -13.928479374999995 Q11.4101235 -15.568711749999991 11.4101235 -17.872 V-49.46237649999999 H14.566123500000002 V-17.872 Q14.566123500000002 -16.961592624999994 15.324746999999999 -16.202969124999996 Q16.083469125 -15.444345624999997 16.993777875 -15.444345624999997 H71.58666037500001 V-12.288246999999998 Z M27.2508765 -25.701345624999988 H24.8231235 Q24.8231235 -25.701345624999988 24.8231235 -26.4219985 Q24.8231235 -27.142749999999992 24.8231235 -28.12899999999999 V-53.19493824999999 Q24.8231235 -54.18118825 24.8231235 -54.90193975 Q24.8231235 -55.622592624999996 24.8231235 -55.622592624999996 H27.2508765 Q26.264626500000002 -55.622592624999996 25.543875 -54.90193975 Q24.8231235 -54.18118825 24.8231235 -53.19493824999999 V-28.12899999999999 Q24.8231235 -27.142749999999992 25.543875 -26.4219985 Q26.264626500000002 -25.701345624999988 27.2508765 -25.701345624999988 Z"/></g><g id="Ultralight-S" transform="matrix(1 0 0 1 517.792 696)"><path d="M51.87675 -33.45475 Q49.016625000000005 -33.45475 47.0934375 -35.377937499999994 Q45.17025 -37.30112499999999 45.17025 -40.161249999999995 Q45.17025 -43.02137499999999 47.0934375 -44.944562499999996 Q49.016625000000005 -46.867749999999994 51.87675 -46.867749999999994 Q54.736875000000005 -46.867749999999994 56.6600625 -44.944562499999996 Q58.58325 -43.02137499999999 58.58325 -40.161249999999995 Q58.58325 -37.30112499999999 56.6600625 -35.377937499999994 Q54.736875000000005 -33.45475 51.87675 -33.45475 Z M27.615000000000002 -23.000499999999988 Q25.499493750000003 -23.000499999999988 23.992996875000003 -24.508574874999994 Q22.4865 -26.01674837499999 22.4865 -28.134424374999988 V-52.22081912499999 Q22.4865 -54.338593749999994 23.992996875000003 -55.830296874999995 Q25.499493750000003 -57.321999999999996 27.615000000000002 -57.321999999999996 H76.13850000000001 Q78.25400625 -57.321999999999996 79.760503125 -55.813925125 Q81.26700000000001 -54.30575162499999 81.26700000000001 -52.188075624999996 V-28.101680874999992 Q81.26700000000001 -25.98390624999999 79.760503125 -24.49220312499999 Q78.25400625 -23.000499999999988 76.13850000000001 -23.000499999999988 H27.615000000000002 Z M29.587500000000002 -24.973 H74.166 Q74.166 -27.142749999999992 75.67249687500001 -28.633565499999996 Q77.17899375 -30.124380999999993 79.2945 -30.124380999999993 V-50.221 Q77.1543375 -50.221 75.66016875 -51.72749687499999 Q74.166 -53.233993749999996 74.166 -55.34949999999999 H29.587500000000002 Q29.587500000000002 -53.17975 28.081003125000002 -51.688934499999995 Q26.57450625 -50.19811899999999 24.459 -50.19811899999999 V-30.101499999999994 Q26.5991625 -30.101499999999994 28.093331250000002 -28.595003124999998 Q29.587500000000002 -27.088506249999995 29.587500000000002 -24.973 Z M69.62925 -13.926999999999992 H18.5415 Q16.425993750000004 -13.926999999999992 14.919496875000002 -15.433496874999989 Q13.413 -16.939993749999985 13.413 -19.055499999999995 V-48.051249999999996 H15.3855 V-19.055499999999995 Q15.3855 -17.872 16.371750000000002 -16.885749999999987 Q17.358 -15.899499999999989 18.5415 -15.899499999999989 H69.62925 V-13.926999999999992 Z M27.615000000000002 -24.973 H24.459 Q24.459 -24.973 24.459 -25.909937499999998 Q24.459 -26.846874999999997 24.459 -28.12899999999999 V-52.19349999999999 Q24.459 -53.475624999999994 24.459 -54.41256249999999 Q24.459 -55.34949999999999 24.459 -55.34949999999999 H27.615000000000002 Q26.332875 -55.34949999999999 25.395937500000002 -54.41256249999999 Q24.459 -53.475624999999994 24.459 -52.19349999999999 V-28.12899999999999 Q24.459 -26.846874999999997 25.395937500000002 -25.909937499999998 Q26.332875 -24.973 27.615000000000002 -24.973 Z"/></g></g></svg>