<svg xmlns="http://www.w3.org/2000/svg" version="1.1" width="3300" height="2000"><g id="Notes"><style>
    text {
      font-family: monospace;
      text-anchor: middle;
    }
    text.emphasis {
      font-weight:bold;
    }
    text.lanchor {
      text-anchor: start;
    }
  </style><rect height="2200" id="artboard" fill="white" width="3300" x="0" y="0"/><line id="" style="fill:none;stroke:black;stroke-width:0.5;" x1="263" x2="3036" y1="292" y2="292"/><text class="lanchor emphasis" transform="matrix(1 0 0 1 263 322)">Weight/Scale Variations</text><text transform="matrix(1 0 0 1 559.711 322)">Ultralight</text><text transform="matrix(1 0 0 1 856.422 322)">Thin</text><text transform="matrix(1 0 0 1 1153.13 322)">Light</text><text transform="matrix(1 0 0 1 1449.84 322)">Regular</text><text transform="matrix(1 0 0 1 1746.56 322)">Medium</text><text transform="matrix(1 0 0 1 2043.27 322)">Semibold</text><text transform="matrix(1 0 0 1 2339.98 322)">Bold</text><text transform="matrix(1 0 0 1 2636.69 322)">Heavy</text><text transform="matrix(1 0 0 1 2933.4 322)">Black</text><text id="template-version" style="text-anchor: end;" transform="matrix(1 0 0 1 3036 1933)">Template v.1.0</text><text class="lanchor" transform="matrix(1 0 0 1 263 726)">Small</text><text class="lanchor" transform="matrix(1 0 0 1 263 1156)">Medium</text><text class="lanchor" transform="matrix(1 0 0 1 263 1586)">Large</text></g><g id="Guides"><g id="H-reference" style="fill:#27AAE1;stroke:none;" transform="matrix(1 0 0 1 339 696)"><path d="M 54.9316 0 L 57.666 0 L 30.5664 -70.459 L 28.0762 -70.459 L 0.976562 0 L 3.66211 0 L 12.9395 -24.4629 L 45.7031 -24.4629 Z M 29.1992 -67.0898 L 29.4434 -67.0898 L 44.8242 -26.709 L 13.8184 -26.709 Z"/></g><line id="Baseline-S" style="fill:none;stroke:#27AAE1;opacity:1;stroke-width:0.577;" x1="263" x2="3036" y1="696" y2="696"/><line id="Capline-S" style="fill:none;stroke:#27AAE1;opacity:1;stroke-width:0.577;" x1="263" x2="3036" y1="625.541" y2="625.541"/><g id="H-reference" style="fill:#27AAE1;stroke:none;" transform="matrix(1 0 0 1 339 1126)"><path d="M 54.9316 0 L 57.666 0 L 30.5664 -70.459 L 28.0762 -70.459 L 0.976562 0 L 3.66211 0 L 12.9395 -24.4629 L 45.7031 -24.4629 Z M 29.1992 -67.0898 L 29.4434 -67.0898 L 44.8242 -26.709 L 13.8184 -26.709 Z"/></g><line id="Baseline-M" style="fill:none;stroke:#27AAE1;opacity:1;stroke-width:0.577;" x1="263" x2="3036" y1="1126" y2="1126"/><line id="Capline-M" style="fill:none;stroke:#27AAE1;opacity:1;stroke-width:0.577;" x1="263" x2="3036" y1="1055.54" y2="1055.54"/><g id="H-reference" style="fill:#27AAE1;stroke:none;" transform="matrix(1 0 0 1 339 1556)"><path d="M 54.9316 0 L 57.666 0 L 30.5664 -70.459 L 28.0762 -70.459 L 0.976562 0 L 3.66211 0 L 12.9395 -24.4629 L 45.7031 -24.4629 Z M 29.1992 -67.0898 L 29.4434 -67.0898 L 44.8242 -26.709 L 13.8184 -26.709 Z"/></g><line id="Baseline-L" style="fill:none;stroke:#27AAE1;opacity:1;stroke-width:0.577;" x1="263" x2="3036" y1="1556" y2="1556"/><line id="Capline-L" style="fill:none;stroke:#27AAE1;opacity:1;stroke-width:0.577;" x1="263" x2="3036" y1="1485.54" y2="1485.54"/><rect height="119.336" id="left-margin" style="fill:darkred;stroke:none;opacity:0.4;" width="12.4512" x="1394.06" y="1030.79"/><rect height="119.336" id="right-margin" style="fill:darkgreen;stroke:none;opacity:0.4;" width="12.4512" x="1502.5112" y="1030.79"/><rect x="1406.5112" y="1045" width="96" height="96" fill="none" stroke="blue" stroke-dasharray="5"/><rect x="1394.06" y="1030.79" width="120.9024" height="119.336" fill="none" stroke="blue"/></g><g id="Symbols"><g id="Bold-L" transform="matrix(1 0 0 1 2266 1556)"><path d="M76.11 -7.817499999999981  103.845 -47.807499999999976 H82.72125 L94.33125 -88.11999999999998 H56.115 V-29.102499999999978 H76.11 V-7.817499999999981 Z M60.9525 40.880000000000024 V-13.944999999999979 H40.9575 V-103.43874999999998 H114.4875 L102.8775 -63.126249999999985 H133.03125 L60.9525 40.880000000000024 Z"/></g><g id="Semibold-L" transform="matrix(1 0 0 1 1970.27 1556)"><path d="M75.26875875 -5.153488749999994  103.9852875 -46.54555749999997 H83.21193375 L95.452905 -88.96124124999999 H55.5541725 V-30.36444249999998 H75.26875875 V-5.153488749999994 Z M62.49485625 35.83287500000003 V-17.59037874999997 H42.780269999999994 V-101.82641124999998 H112.38431625 L100.21348875000001 -59.41072749999999 H128.47448625 L62.49485625 35.83287500000003 Z"/></g><g id="Medium-L" transform="matrix(1 0 0 1 1674.31 1556)"><path d="M74.6377875 -3.1552787499999795  104.09042250000002 -45.59901999999998 H83.58006750000001 L96.2943075 -89.59221249999999 H55.13347125000001 V-31.310979999999986 H74.6377875 V-3.1552787499999795 Z M63.65166375 32.0464025 V-20.324856249999996 H44.147347499999995 V-100.616875 H110.8068075 L98.21527875 -56.62368249999999 H125.05647 L63.65166375 32.0464025 Z"/></g><g id="Regular-L" transform="matrix(1 0 0 1 1378.56 1556)"><path d="M74.175 -1.6899999999999835  104.1675 -44.90499999999999 H83.85000000000001 L96.91125000000001 -90.05499999999998 H54.825 V-32.00499999999998 H74.175 V-1.6899999999999835 Z M64.5 29.27000000000001 V-22.329999999999984 H45.15 V-99.72999999999999 H109.65 L96.75 -54.579999999999984 H122.55 L64.5 29.27000000000001 Z"/></g><g id="Light-L" transform="matrix(1 0 0 1 1082.77 1556)"><path d="M75.04333125 -4.481076249999973  105.0979125 -47.94423999999998 H83.78791875 L95.73283500000001 -89.18666875 H56.9338275 V-32.87333124999998 H75.04333125 V-4.481076249999973 Z M67.72516125 19.09802750000003 V-25.555161249999983 H49.615657500000005 V-96.50483874999998 H105.37042500000001 L93.52483875 -55.26224874999998 H119.01459375000002 L67.72516125 19.09802750000003 Z"/></g><g id="Thin-L" transform="matrix(1 0 0 1 787.282 1556)"><path d="M75.91150125 -7.271668749999989  106.0280025 -50.98283499999998 H83.72599875 L94.55458125 -88.31849874999997 H59.0423325 V-33.741501249999985 H75.91150125 V-7.271668749999989 Z M70.95 8.927828750000003 V-28.779999999999987 H54.080670000000005 V-93.27999999999999 H101.09133375 L90.3 -55.94433624999999 H115.4798325 L70.95 8.927828750000003 Z"/></g><g id="Ultralight-L" transform="matrix(1 0 0 1 491.205 1556)"><path d="M76.4325 -8.946249999999978  106.58625 -52.80624999999998 H83.68875 L93.8475 -87.79749999999999 H60.307500000000005 V-34.26249999999999 H76.4325 V-8.946249999999978 Z M72.885 2.825000000000017 V-30.71499999999999 H56.760000000000005 V-91.34499999999998 H98.52375 L88.36500000000001 -56.35374999999998 H113.35875 L72.885 2.825000000000017 Z"/></g><g id="Bold-M" transform="matrix(1 0 0 1 2281.8 1126)"><path d="M62.0 -23.60499999999999  75.625 -43.22999999999999 H60.5 L69.125 -73.22999999999999 H46.375 V-32.22999999999999 H62.0 V-23.60499999999999 Z M46.25 26.77000000000001 V-16.47999999999999 H30.625 V-88.97999999999999 H90.0 L81.375 -58.97999999999999 H105.75 L46.25 26.77000000000001 Z"/></g><g id="Semibold-M" transform="matrix(1 0 0 1 1985.97 1126)"><path d="M61.1305 -20.833499999999987  75.788 -41.925749999999994 H61.0435 L70.26625 -74.09949999999999 H45.77725 V-33.534249999999986 H61.1305 V-20.833499999999987 Z M47.880375 21.55250000000001 V-20.28412499999999 H32.527 V-87.34962499999999 H87.82625 L78.6035 -55.17587499999999 H101.076375 L47.880375 21.55250000000001 Z"/></g><g id="Medium-M" transform="matrix(1 0 0 1 1689.91 1126)"><path d="M60.47825 -18.754499999999993  75.910375 -40.947374999999994 H61.451125 L71.12225 -74.75174999999999 H45.32875 V-34.512624999999986 H60.47825 V-18.754499999999993 Z M49.10325 17.63962500000001 V-23.13749999999999 H33.95375 V-86.12674999999999 H86.195625 L76.5245 -52.32249999999999 H97.57075 L49.10325 17.63962500000001 Z"/></g><g id="Regular-M" transform="matrix(1 0 0 1 1394.06 1126)"><path d="M60.0 -17.22999999999999  76.0 -40.22999999999999 H61.75 L71.75 -75.22999999999999 H45.0 V-35.22999999999999 H60.0 V-17.22999999999999 Z M50.0 14.77000000000001 V-25.22999999999999 H35.0 V-85.22999999999999 H85.0 L75.0 -50.22999999999999 H95.0 L50.0 14.77000000000001 Z"/></g><g id="Light-M" transform="matrix(1 0 0 1 1098.18 1126)"><path d="M60.0 -17.22999999999999  78.019375 -43.25912499999999 H62.567375 L71.75 -75.22999999999999 H45.961625 V-35.22999999999999 H60.0 V-17.22999999999999 Z M52.500125 6.884750000000011 V-27.730124999999987 H38.46175 V-82.72987499999999 H81.6825 L72.499875 -50.75887499999999 H92.259375 L52.500125 6.884750000000011 Z"/></g><g id="Thin-M" transform="matrix(1 0 0 1 802.565 1126)"><path d="M60.0 -17.22999999999999  80.038375 -46.28762499999999 H63.384625 L71.75 -75.22999999999999 H46.923125 V-35.22999999999999 H60.0 V-17.22999999999999 Z M55.0 -0.9991249999999923 V-30.22999999999999 H41.923 V-80.22999999999999 H78.365375 L70.0 -51.28762499999999 H89.51925 L55.0 -0.9991249999999923 Z"/></g><g id="Ultralight-M" transform="matrix(1 0 0 1 506.415 1126)"><path d="M60.0 -17.22999999999999  81.25 -48.10499999999999 H63.875 L71.75 -75.22999999999999 H47.5 V-35.22999999999999 H60.0 V-17.22999999999999 Z M56.5 -5.72999999999999 V-31.72999999999999 H44.0 V-78.72999999999999 H76.375 L68.5 -51.60499999999999 H87.875 L56.5 -5.72999999999999 Z"/></g><g id="Bold-S" transform="matrix(1 0 0 1 2294.23 696)"><path d="M48.918 -25.860625  59.865375 -42.330999999999996 H48.918 L54.934125 -64.423 H36.589875 V-32.86299999999999 H48.918 V-25.860625 Z M37.28025 12.110000000000014 V-21.22524999999999 H24.952125000000002 V-76.06075 H70.221 L64.204875 -53.96874999999999 H81.85875 L37.28025 12.110000000000014 Z"/></g><g id="Semibold-S" transform="matrix(1 0 0 1 1998.1 696)"><path d="M48.231964500000004 -23.67391149999999  59.993982 -41.30194675 H49.346821500000004 L55.83457125 -65.1090355 H36.11825025 V-33.89205324999999 H48.231964500000004 V-23.67391149999999 Z M38.566615875000004 7.993392500000013 V-24.226704624999996 H26.452803000000003 V-74.774384125 H68.50591125000001 L62.0181615 -50.967295375 H78.171259875 L38.566615875000004 7.993392500000013 Z"/></g><g id="Medium-S" transform="matrix(1 0 0 1 1701.85 696)"><path d="M47.71733925 -22.0335805  60.09053587500001 -40.530008875 H49.668437625 L56.50995525 -65.62366075 H35.76438375 V-34.66399112499999 H47.71733925 V-22.0335805 Z M39.531464250000006 4.906134125000008 V-26.478017499999993 H27.57850875 V-73.80953575 H67.21934812500001 L60.3778305 -48.715982499999996 H75.40532175000001 L39.531464250000006 4.906134125000008 Z"/></g><g id="Regular-S" transform="matrix(1 0 0 1 1405.73 696)"><path d="M47.34 -20.830749999999995  60.16125 -39.96399999999999 H49.904250000000005 L57.005250000000004 -66.00099999999999 H35.505 V-35.23 H47.34 V-20.830749999999995 Z M40.239000000000004 2.64200000000001 V-28.12899999999999 H28.404 V-73.102 H66.276 L59.175000000000004 -47.065 H73.37700000000001 L40.239000000000004 2.64200000000001 Z"/></g><g id="Light-S" transform="matrix(1 0 0 1 1109.75 696)"><path d="M47.34 -20.830749999999995  61.754536875 -42.353979624999994 H50.549158875 L57.005250000000004 -66.00099999999999 H36.263722125 V-35.23 H47.34 V-20.830749999999995 Z M42.211598625 -3.5794622499999917 V-30.101598624999994 H31.13532075 V-71.129401375 H63.65849250000001 L57.20240137500001 -47.482282375 H71.21464687500001 L42.211598625 -3.5794622499999917 Z"/></g><g id="Thin-S" transform="matrix(1 0 0 1 814.015 696)"><path d="M47.34 -20.830749999999995  63.347527875000004 -44.743466125 H51.193969125 L57.005250000000004 -66.00099999999999 H37.022345625 V-35.23 H47.34 V-20.830749999999995 Z M44.184000000000005 -9.79983962499999 V-32.07399999999999 H33.866247 V-69.157 H61.041280875000005 L55.230000000000004 -47.899466125 H69.05268825 L44.184000000000005 -9.79983962499999 Z"/></g><g id="Ultralight-S" transform="matrix(1 0 0 1 517.792 696)"><path d="M47.34 -20.830749999999995  64.3035 -46.177375 H51.580875 L57.005250000000004 -66.00099999999999 H37.4775 V-35.23 H47.34 V-20.830749999999995 Z M45.3675 -13.532499999999999 V-33.25749999999999 H35.505 V-67.9735 H59.470875 L54.0465 -48.149874999999994 H67.755375 L45.3675 -13.532499999999999 Z"/></g></g></svg>