<svg width="59" height="58" viewBox="0 0 59 58" fill="none" xmlns="http://www.w3.org/2000/svg">
<rect width="59" height="58" rx="11" fill="url(#paint0_linear_179_118)"/>
<path d="M41.1875 20.8182H20.5625C19.4776 20.8182 18.4588 20.3055 17.8125 19.4559C18.4409 18.6282 19.4405 18.0909 20.5625 18.0909H43.9375C46.649 18.0445 46.6476 14.045 43.9375 14H20.5625C16.3935 14 13 17.3641 13 21.5V36.5C13 40.6359 16.3935 44 20.5625 44H41.1875C43.8413 44 46 41.8591 46 39.2273V25.5909C46 22.9591 43.8413 20.8182 41.1875 20.8182ZM41.875 39.2273C41.875 39.6036 41.5656 39.9091 41.1875 39.9091H20.5625C18.6664 39.9091 17.125 38.3791 17.125 36.5V24.0855C18.1741 24.6173 19.3498 24.9091 20.5625 24.9091H41.1875C41.5656 24.9091 41.875 25.2145 41.875 25.5909V39.2273ZM39.125 32.4091C39.0783 35.0982 35.0454 35.0968 35 32.4091C35.0468 29.72 39.0796 29.7214 39.125 32.4091Z" fill="white"/>
<defs>
<linearGradient id="paint0_linear_179_118" x1="29.5" y1="1.84662e-08" x2="29" y2="58" gradientUnits="userSpaceOnUse">
<stop stop-color="#6C84DD"/>
<stop offset="1" stop-color="#0329B7"/>
<stop offset="1" stop-color="#89A2FF"/>
</linearGradient>
</defs>
</svg>
