<svg width="67" height="66" viewBox="0 0 67 66" fill="none" xmlns="http://www.w3.org/2000/svg">
<rect width="67" height="66" rx="11" fill="url(#paint0_linear_963_1029)"/>
<path d="M54 19.25C54 20.6562 52.8828 21.9531 51 23C48.7266 24.2578 45.3359 25.1484 41.4453 25.4141C41.1562 25.2734 40.8672 25.1406 40.5625 25.0234C37.4844 23.7344 33.3906 23 29 23C28.3516 23 27.7188 23.0156 27.0859 23.0469L27 23C25.1172 21.9531 24 20.6562 24 19.25C24 15.7969 30.7188 13 39 13C47.2812 13 54 15.7969 54 19.25ZM26.5547 25.5859C27.3516 25.5313 28.1719 25.5 29 25.5C33.8594 25.5 38.1719 26.4609 40.9141 27.9531C42.8516 29.0078 44 30.3203 44 31.75C44 32.0625 43.9453 32.3672 43.8359 32.6641C43.4766 33.6953 42.5078 34.6406 41.1016 35.4375C41.0938 35.4453 41.0781 35.4453 41.0703 35.4531C41.0469 35.4688 41.0234 35.4766 41 35.4922C38.2656 37.0078 33.9062 37.9922 29 37.9922C24.3438 37.9922 20.1797 37.1094 17.4219 35.7188C17.2734 35.6484 17.1328 35.5703 16.9922 35.4922C15.1172 34.4531 14 33.1562 14 31.75C14 29.0312 18.1719 26.7109 24 25.8594C24.8203 25.7422 25.6719 25.6484 26.5547 25.5859ZM46.5 31.75C46.5 30.0391 45.6719 28.6328 44.6172 27.5781C46.8281 27.2344 48.8516 26.6875 50.5703 25.9766C51.8438 25.4453 53.0312 24.7891 54 23.9844V26.75C54 28.2578 52.7109 29.6484 50.5781 30.7266C49.4375 31.3047 48.0469 31.7969 46.4844 32.1719C46.4922 32.0312 46.5 31.8984 46.5 31.7578V31.75ZM44 39.25C44 40.6562 42.8828 41.9531 41 43C40.8594 43.0781 40.7188 43.1484 40.5703 43.2266C37.8203 44.6172 33.6562 45.5 29 45.5C24.0938 45.5 19.7344 44.5156 17 43C15.1172 41.9531 14 40.6562 14 39.25V36.4844C14.9766 37.2891 16.1563 37.9453 17.4297 38.4766C20.5156 39.7656 24.6094 40.5 29 40.5C33.3906 40.5 37.4844 39.7656 40.5703 38.4766C41.1797 38.2266 41.7656 37.9375 42.3203 37.625C42.7969 37.3594 43.2422 37.0625 43.6641 36.75C43.7812 36.6641 43.8906 36.5703 44 36.4844V36.75V37.1953V39.25ZM46.5 39.25V36.75V34.7266C47.9844 34.3984 49.3516 33.9844 50.5703 33.4766C51.8438 32.9453 53.0312 32.2891 54 31.4844V34.25C54 35.0703 53.6094 35.8906 52.8359 36.6641C51.5625 37.9375 49.3203 38.9844 46.4844 39.6641C46.4922 39.5312 46.5 39.3906 46.5 39.25ZM29 48C33.3906 48 37.4844 47.2656 40.5703 45.9766C41.8438 45.4453 43.0312 44.7891 44 43.9844V46.75C44 50.2031 37.2812 53 29 53C20.7188 53 14 50.2031 14 46.75V43.9844C14.9766 44.7891 16.1563 45.4453 17.4297 45.9766C20.5156 47.2656 24.6094 48 29 48Z" fill="white"/>
<defs>
<linearGradient id="paint0_linear_963_1029" x1="33.5" y1="2.10132e-08" x2="32.9299" y2="66" gradientUnits="userSpaceOnUse">
<stop stop-color="#6C84DD"/>
<stop offset="1" stop-color="#0329B7"/>
<stop offset="1" stop-color="#89A2FF"/>
</linearGradient>
</defs>
</svg>
