<svg width="22" height="21" viewBox="0 0 22 21" fill="none" xmlns="http://www.w3.org/2000/svg">
<path d="M4.72331 16.4796L9.9343 16.4626L21.308 5.64616C21.7544 5.21758 22 4.64842 22 4.04297C22 3.43752 21.7544 2.86836 21.308 2.43978L19.4352 0.641586C18.5425 -0.215563 16.985 -0.211027 16.0994 0.638185L4.72331 11.4569V16.4796ZM17.7656 2.24477L19.6419 4.03957L17.7561 5.83323L15.8833 4.03617L17.7656 2.24477ZM7.08497 12.4024L14.2054 5.63028L16.0781 7.42848L8.95894 14.1984L7.08497 14.204V12.4024Z" fill="#A8A8A8"/>
<path d="M2.36166 21H18.8932C20.1957 21 21.2549 19.983 21.2549 18.7324V8.90468L18.8932 11.1723V18.7324H6.09071C6.06001 18.7324 6.02813 18.7437 5.99742 18.7437C5.95846 18.7437 5.91949 18.7335 5.87934 18.7324H2.36166V2.85929H10.4468L12.8084 0.591699H2.36166C1.0592 0.591699 0 1.60871 0 2.85929V18.7324C0 19.983 1.0592 21 2.36166 21Z" fill="#A8A8A8"/>
</svg>
