<svg width="59" height="58" viewBox="0 0 59 58" fill="none" xmlns="http://www.w3.org/2000/svg">
<rect width="59" height="58" rx="11" fill="url(#paint0_linear_179_119)"/>
<path d="M31.4836 18.7787C32.9359 17.8507 35.4545 15.844 35.4545 13.0667V12H24.5455V13.0667C24.5455 15.844 27.0641 17.8507 28.5164 18.7787C21.2018 19.8773 15 28.84 15 36C15 40.412 18.6695 44 23.1818 44H36.8182C41.3305 44 45 40.412 45 36C45 28.84 38.7982 19.8773 31.4836 18.7787ZM28.1495 30.3467L32.2977 31.0227C34.1264 31.32 35.4545 32.8533 35.4545 34.6667C35.4545 36.872 33.6191 38.6667 31.3636 38.6667V40H28.6364V38.6667C26.3809 38.6667 24.5455 36.872 24.5455 34.6667H27.2727C27.2727 35.4013 27.885 36 28.6364 36H31.3636C32.115 36 32.7273 35.4013 32.7273 34.6667C32.7273 34.1627 32.3577 33.736 31.8491 33.6533L27.7009 32.9773C25.8723 32.68 24.5441 31.1467 24.5441 29.3333C24.5441 27.128 26.3795 25.3333 28.635 25.3333V24H31.3623V25.3333C33.6177 25.3333 35.4532 27.128 35.4532 29.3333H32.7259C32.7259 28.5987 32.1136 28 31.3623 28H28.635C27.8836 28 27.2714 28.5987 27.2714 29.3333C27.2714 29.8373 27.6409 30.264 28.1495 30.3467Z" fill="white"/>
<defs>
<linearGradient id="paint0_linear_179_119" x1="29.5" y1="1.84662e-08" x2="29" y2="58" gradientUnits="userSpaceOnUse">
<stop stop-color="#6C84DD"/>
<stop offset="1" stop-color="#0329B7"/>
<stop offset="1" stop-color="#89A2FF"/>
</linearGradient>
</defs>
</svg>
