<svg width="30" height="30" viewBox="0 0 30 30" fill="none" xmlns="http://www.w3.org/2000/svg">
<rect width="30" height="30" rx="5" fill="#35373F"/>
<path d="M6 11.7279C6.00015 14.8421 7.76171 17.6458 10.5 19.201V22.6379C10.5001 23.2404 11.0037 23.7289 11.625 23.7289H18.375C18.9963 23.7289 19.4999 23.2404 19.5 22.6379V19.201C22.2383 17.6458 23.9998 14.8421 24 11.7279C24 6.92048 19.9571 3 14.9396 3C9.96865 3.06391 5.99956 6.96526 6 11.7279ZM21.75 11.7279C21.7499 14.2588 20.2516 16.5565 17.8938 17.6411C17.5006 17.8217 17.2499 18.2057 17.25 18.6277V21.5469H12.75V18.6277C12.7501 18.2057 12.4994 17.8216 12.1062 17.6411C9.74839 16.5565 8.25013 14.2588 8.25 11.7279C8.24967 8.13423 11.2047 5.22992 14.955 5.1818C18.7411 5.1818 21.75 8.09976 21.75 11.7279ZM10.4978 24.818V27H19.5V24.818H10.4978Z" fill="white"/>
<path d="M13.6701 10.8164L16.5416 11.2613C17.8079 11.457 18.7276 12.4663 18.7276 13.6598C18.7276 15.1113 17.4566 16.2925 15.8948 16.2925V17.1701H14.0063V16.2925C12.4445 16.2925 11.1735 15.1113 11.1735 13.6598H13.062C13.062 14.1433 13.4851 14.5373 14.0063 14.5373H15.8948C16.4161 14.5373 16.8391 14.1433 16.8391 13.6598C16.8391 13.328 16.5832 13.0472 16.231 12.9928L13.3595 12.5479C12.0932 12.3522 11.1735 11.343 11.1735 10.1495C11.1735 8.69795 12.4445 7.51674 14.0063 7.51674V6.63916H15.8948V7.51674C17.4566 7.51674 18.7276 8.69795 18.7276 10.1495H16.8391C16.8391 9.66592 16.4161 9.27188 15.8948 9.27188H14.0063C13.4851 9.27188 13.062 9.66592 13.062 10.1495C13.062 10.4812 13.3179 10.762 13.6701 10.8164Z" fill="white"/>
</svg>
