<svg width="59" height="58" viewBox="0 0 59 58" fill="none" xmlns="http://www.w3.org/2000/svg">
<rect width="59" height="58" rx="11" fill="url(#paint0_linear_179_114)"/>
<path d="M42.0337 21.2192C42.4751 21.2192 42.8985 21.0486 43.2106 20.7449C43.5228 20.4412 43.6981 20.0293 43.6981 19.5998C43.6981 19.1703 43.5228 18.7584 43.2106 18.4547C42.8985 18.151 42.4751 17.9804 42.0337 17.9804C41.5923 17.9804 41.1689 18.151 40.8568 18.4547C40.5446 18.7584 40.3693 19.1703 40.3693 19.5998C40.3693 20.0293 40.5446 20.4412 40.8568 20.7449C41.1689 21.0486 41.5923 21.2192 42.0337 21.2192ZM42.0337 26.4013C42.4751 26.4013 42.8985 26.2306 43.2106 25.927C43.5228 25.6233 43.6981 25.2114 43.6981 24.7819C43.6981 24.3524 43.5228 23.9405 43.2106 23.6368C42.8985 23.3331 42.4751 23.1625 42.0337 23.1625C41.5923 23.1625 41.1689 23.3331 40.8568 23.6368C40.5446 23.9405 40.3693 24.3524 40.3693 24.7819C40.3693 25.2114 40.5446 25.6233 40.8568 25.927C41.1689 26.2306 41.5923 26.4013 42.0337 26.4013ZM15.7358 21.8669C15.7358 21.1798 16.0164 20.5207 16.5158 20.0348C17.0153 19.5489 17.6926 19.2759 18.3989 19.2759H35.7089C36.4152 19.2759 37.0925 19.5489 37.592 20.0348C38.0914 20.5207 38.372 21.1798 38.372 21.8669V33.5266C38.372 34.2138 38.0914 34.8728 37.592 35.3588C37.0925 35.8447 36.4152 36.1176 35.7089 36.1176H18.3989C17.6926 36.1176 17.0153 35.8447 16.5158 35.3588C16.0164 34.8728 15.7358 34.2138 15.7358 33.5266V21.8669Z" fill="#F8F8F8"/>
<path d="M34.3607 10.3759C34.2347 10.2567 34.085 10.1622 33.9202 10.0977C33.7555 10.0332 33.5789 10 33.4005 10C33.2222 10 33.0456 10.0332 32.8808 10.0977C32.7161 10.1622 32.5664 10.2567 32.4404 10.3759L28.3689 14.2205H26.8489L22.7775 10.3759C22.523 10.1354 22.1778 10.0002 21.8178 10.0001C21.4578 9.99999 21.1125 10.1349 20.8578 10.3752C20.6032 10.6155 20.46 10.9415 20.4599 11.2815C20.4598 11.6214 20.6027 11.9475 20.8571 12.188L23.0096 14.2205H15.4286C13.9888 14.2205 12.608 14.7606 11.59 15.722C10.5719 16.6833 10 17.9872 10 19.3468V36.007C10 37.3665 10.5719 38.6704 11.59 39.6318C12.608 40.5931 13.9888 41.1332 15.4286 41.1332H16.3487L15.4041 44.464C15.2635 44.9563 15.3261 45.4806 15.5792 45.931C15.8323 46.3815 16.257 46.7243 16.7676 46.8904C17.2781 47.0564 17.8364 47.0332 18.3295 46.8254C18.8226 46.6176 19.2138 46.2408 19.424 45.7711L21.5086 41.1332H36.4914L38.5774 45.7711C38.7875 46.2408 39.1787 46.6176 39.6719 46.8254C40.165 47.0332 40.7232 47.0564 41.2338 46.8904C41.7443 46.7243 42.1691 46.3815 42.4222 45.931C42.6753 45.4806 42.7378 44.9563 42.5972 44.464L41.6486 41.1332H42.5714C44.0112 41.1332 45.392 40.5931 46.41 39.6318C47.4281 38.6704 48 37.3665 48 36.007V19.3468C48 17.9872 47.4281 16.6833 46.41 15.722C45.392 14.7606 44.0112 14.2205 42.5714 14.2205H32.2083L34.3607 12.188C34.6151 11.9477 34.7581 11.6217 34.7581 11.2819C34.7581 10.9421 34.6151 10.6162 34.3607 10.3759ZM15.4286 16.7836H42.5714C43.2913 16.7836 43.9817 17.0537 44.4907 17.5344C44.9997 18.015 45.2857 18.667 45.2857 19.3468V36.007C45.2857 36.6868 44.9997 37.3387 44.4907 37.8194C43.9817 38.3 43.2913 38.5701 42.5714 38.5701H15.4286C14.7087 38.5701 14.0183 38.3 13.5093 37.8194C13.0003 37.3387 12.7143 36.6868 12.7143 36.007V19.3468C12.7143 18.667 13.0003 18.015 13.5093 17.5344C14.0183 17.0537 14.7087 16.7836 15.4286 16.7836Z" fill="#F8F8F8"/>
<defs>
<linearGradient id="paint0_linear_179_114" x1="29.5" y1="1.84662e-08" x2="29" y2="58" gradientUnits="userSpaceOnUse">
<stop stop-color="#6C84DD"/>
<stop offset="1" stop-color="#0329B7"/>
<stop offset="1" stop-color="#89A2FF"/>
</linearGradient>
</defs>
</svg>
