<svg width="59" height="58" viewBox="0 0 59 58" fill="none" xmlns="http://www.w3.org/2000/svg">
<rect width="59" height="58" rx="11" fill="url(#paint0_linear_179_117)"/>
<path fill-rule="evenodd" clip-rule="evenodd" d="M20 12.95C19.4696 12.95 18.9609 13.1554 18.5858 13.5211C18.2107 13.8868 18 14.3828 18 14.9V42.2C18 42.7172 18.2107 43.2132 18.5858 43.5789C18.9609 43.9446 19.4696 44.15 20 44.15H31V46.1H20C18.9391 46.1 17.9217 45.6891 17.1716 44.9577C16.4214 44.2263 16 43.2343 16 42.2V14.9C16 13.8657 16.4214 12.8737 17.1716 12.1423C17.9217 11.4109 18.9391 11 20 11H40C41.0609 11 42.0783 11.4109 42.8284 12.1423C43.5786 12.8737 44 13.8657 44 14.9V42.2C44 43.2343 43.5786 44.2263 42.8284 44.9577C42.0783 45.6891 41.0609 46.1 40 46.1H37V44.15H40C40.5304 44.15 41.0391 43.9446 41.4142 43.5789C41.7893 43.2132 42 42.7172 42 42.2V14.9C42 14.3828 41.7893 13.8868 41.4142 13.5211C41.0391 13.1554 40.5304 12.95 40 12.95H20Z" fill="white"/>
<path fill-rule="evenodd" clip-rule="evenodd" d="M24 17.825C24 17.5664 24.1054 17.3184 24.2929 17.1356C24.4804 16.9527 24.7348 16.85 25 16.85H35C35.2652 16.85 35.5196 16.9527 35.7071 17.1356C35.8946 17.3184 36 17.5664 36 17.825C36 18.0836 35.8946 18.3316 35.7071 18.5144C35.5196 18.6973 35.2652 18.8 35 18.8H25C24.7348 18.8 24.4804 18.6973 24.2929 18.5144C24.1054 18.3316 24 18.0836 24 17.825ZM20 23.675C20 23.4164 20.1054 23.1684 20.2929 22.9856C20.4804 22.8027 20.7348 22.7 21 22.7H39C39.2652 22.7 39.5196 22.8027 39.7071 22.9856C39.8946 23.1684 40 23.4164 40 23.675C40 23.9336 39.8946 24.1816 39.7071 24.3644C39.5196 24.5473 39.2652 24.65 39 24.65H21C20.7348 24.65 20.4804 24.5473 20.2929 24.3644C20.1054 24.1816 20 23.9336 20 23.675ZM20 27.575C20 27.3164 20.1054 27.0684 20.2929 26.8856C20.4804 26.7027 20.7348 26.6 21 26.6H39C39.2652 26.6 39.5196 26.7027 39.7071 26.8856C39.8946 27.0684 40 27.3164 40 27.575C40 27.8336 39.8946 28.0816 39.7071 28.2644C39.5196 28.4473 39.2652 28.55 39 28.55H21C20.7348 28.55 20.4804 28.4473 20.2929 28.2644C20.1054 28.0816 20 27.8336 20 27.575ZM20 31.475C20 31.2164 20.1054 30.9684 20.2929 30.7856C20.4804 30.6027 20.7348 30.5 21 30.5H39C39.2652 30.5 39.5196 30.6027 39.7071 30.7856C39.8946 30.9684 40 31.2164 40 31.475C40 31.7336 39.8946 31.9816 39.7071 32.1644C39.5196 32.3473 39.2652 32.45 39 32.45H21C20.7348 32.45 20.4804 32.3473 20.2929 32.1644C20.1054 31.9816 20 31.7336 20 31.475ZM34 41.225C34.5304 41.225 35.0391 41.0196 35.4142 40.6539C35.7893 40.2882 36 39.7922 36 39.275C36 38.7578 35.7893 38.2618 35.4142 37.8961C35.0391 37.5304 34.5304 37.325 34 37.325C33.4696 37.325 32.9609 37.5304 32.5858 37.8961C32.2107 38.2618 32 38.7578 32 39.275C32 39.7922 32.2107 40.2882 32.5858 40.6539C32.9609 41.0196 33.4696 41.225 34 41.225ZM34 43.175C35.0609 43.175 36.0783 42.7641 36.8284 42.0327C37.5786 41.3013 38 40.3093 38 39.275C38 38.2407 37.5786 37.2487 36.8284 36.5173C36.0783 35.7859 35.0609 35.375 34 35.375C32.9391 35.375 31.9217 35.7859 31.1716 36.5173C30.4214 37.2487 30 38.2407 30 39.275C30 40.3093 30.4214 41.3013 31.1716 42.0327C31.9217 42.7641 32.9391 43.175 34 43.175Z" fill="white"/>
<path fill-rule="evenodd" clip-rule="evenodd" d="M33 41.225H31V50L34 48.5375L37 50V41.225H35V46.8449L34 46.3574L33 46.8449V41.225Z" fill="white"/>
<defs>
<linearGradient id="paint0_linear_179_117" x1="29.5" y1="1.84662e-08" x2="29" y2="58" gradientUnits="userSpaceOnUse">
<stop stop-color="#6C84DD"/>
<stop offset="1" stop-color="#0329B7"/>
<stop offset="1" stop-color="#89A2FF"/>
</linearGradient>
</defs>
</svg>
