<svg xmlns="http://www.w3.org/2000/svg" version="1.1" width="3300" height="2000"><g id="Notes"><style>
    text {
      font-family: monospace;
      text-anchor: middle;
    }
    text.emphasis {
      font-weight:bold;
    }
    text.lanchor {
      text-anchor: start;
    }
  </style><rect height="2200" id="artboard" fill="white" width="3300" x="0" y="0"/><line id="" style="fill:none;stroke:black;stroke-width:0.5;" x1="263" x2="3036" y1="292" y2="292"/><text class="lanchor emphasis" transform="matrix(1 0 0 1 263 322)">Weight/Scale Variations</text><text transform="matrix(1 0 0 1 559.711 322)">Ultralight</text><text transform="matrix(1 0 0 1 856.422 322)">Thin</text><text transform="matrix(1 0 0 1 1153.13 322)">Light</text><text transform="matrix(1 0 0 1 1449.84 322)">Regular</text><text transform="matrix(1 0 0 1 1746.56 322)">Medium</text><text transform="matrix(1 0 0 1 2043.27 322)">Semibold</text><text transform="matrix(1 0 0 1 2339.98 322)">Bold</text><text transform="matrix(1 0 0 1 2636.69 322)">Heavy</text><text transform="matrix(1 0 0 1 2933.4 322)">Black</text><text id="template-version" style="text-anchor: end;" transform="matrix(1 0 0 1 3036 1933)">Template v.1.0</text><text class="lanchor" transform="matrix(1 0 0 1 263 726)">Small</text><text class="lanchor" transform="matrix(1 0 0 1 263 1156)">Medium</text><text class="lanchor" transform="matrix(1 0 0 1 263 1586)">Large</text></g><g id="Guides"><g id="H-reference" style="fill:#27AAE1;stroke:none;" transform="matrix(1 0 0 1 339 696)"><path d="M 54.9316 0 L 57.666 0 L 30.5664 -70.459 L 28.0762 -70.459 L 0.976562 0 L 3.66211 0 L 12.9395 -24.4629 L 45.7031 -24.4629 Z M 29.1992 -67.0898 L 29.4434 -67.0898 L 44.8242 -26.709 L 13.8184 -26.709 Z"/></g><line id="Baseline-S" style="fill:none;stroke:#27AAE1;opacity:1;stroke-width:0.577;" x1="263" x2="3036" y1="696" y2="696"/><line id="Capline-S" style="fill:none;stroke:#27AAE1;opacity:1;stroke-width:0.577;" x1="263" x2="3036" y1="625.541" y2="625.541"/><g id="H-reference" style="fill:#27AAE1;stroke:none;" transform="matrix(1 0 0 1 339 1126)"><path d="M 54.9316 0 L 57.666 0 L 30.5664 -70.459 L 28.0762 -70.459 L 0.976562 0 L 3.66211 0 L 12.9395 -24.4629 L 45.7031 -24.4629 Z M 29.1992 -67.0898 L 29.4434 -67.0898 L 44.8242 -26.709 L 13.8184 -26.709 Z"/></g><line id="Baseline-M" style="fill:none;stroke:#27AAE1;opacity:1;stroke-width:0.577;" x1="263" x2="3036" y1="1126" y2="1126"/><line id="Capline-M" style="fill:none;stroke:#27AAE1;opacity:1;stroke-width:0.577;" x1="263" x2="3036" y1="1055.54" y2="1055.54"/><g id="H-reference" style="fill:#27AAE1;stroke:none;" transform="matrix(1 0 0 1 339 1556)"><path d="M 54.9316 0 L 57.666 0 L 30.5664 -70.459 L 28.0762 -70.459 L 0.976562 0 L 3.66211 0 L 12.9395 -24.4629 L 45.7031 -24.4629 Z M 29.1992 -67.0898 L 29.4434 -67.0898 L 44.8242 -26.709 L 13.8184 -26.709 Z"/></g><line id="Baseline-L" style="fill:none;stroke:#27AAE1;opacity:1;stroke-width:0.577;" x1="263" x2="3036" y1="1556" y2="1556"/><line id="Capline-L" style="fill:none;stroke:#27AAE1;opacity:1;stroke-width:0.577;" x1="263" x2="3036" y1="1485.54" y2="1485.54"/><rect height="119.336" id="left-margin" style="fill:darkred;stroke:none;opacity:0.4;" width="12.4512" x="1394.06" y="1030.79"/><rect height="119.336" id="right-margin" style="fill:darkgreen;stroke:none;opacity:0.4;" width="12.4512" x="1502.5112" y="1030.79"/><rect x="1406.5112" y="1045" width="96" height="96" fill="none" stroke="blue" stroke-dasharray="5"/><rect x="1394.06" y="1030.79" width="120.9024" height="119.336" fill="none" stroke="blue"/></g><g id="Symbols"><g id="Bold-L" transform="matrix(1 0 0 1 2266 1556)"><path d="M53.481303749999995 -64.89999999999998 Q56.276250000000005 -64.89999999999998 58.21125 -66.75243999999998 Q60.14625 -68.60487999999998 60.14625 -71.53946874999998 Q60.14625 -74.47421874999998 58.18303125 -76.29843999999999 Q56.21965125 -78.12249999999997 53.424704999999996 -78.12249999999997 Q50.6295975 -78.12249999999997 48.696048749999996 -76.22345874999999 Q46.7625 -74.32425624999999 46.7625 -71.51689374999998 Q46.7625 -68.70953124999998 48.69411375 -66.80468499999998 Q50.6257275 -64.89999999999998 53.481303749999995 -64.89999999999998 Z M74.65584750000001 -64.89999999999998 Q77.4990075 -64.89999999999998 79.46512875 -66.79904124999999 Q81.43125 -68.69824374999999 81.43125 -71.50560624999997 Q81.43125 -74.31296874999998 79.46706375000001 -76.21781499999997 Q77.5028775 -78.12249999999997 74.59941 -78.12249999999997 Q71.75625000000001 -78.12249999999997 69.82125 -76.27005999999999 Q67.88625 -74.41761999999999 67.88625 -71.48303124999998 Q67.88625 -68.54828124999997 69.84946875 -66.72405999999998 Q71.81284875 -64.89999999999998 74.65584750000001 -64.89999999999998 Z M77.43757125 3.9537500000000136 Q87.32703375 3.9537500000000136 94.2960975 -2.6581449999999904 Q101.265 -9.269878749999975 101.265 -19.113707499999975 Q101.265 -23.619999999999976 99.49125000000001 -27.812499999999986 Q97.7175 -32.00499999999998 94.33125 -35.391249999999985 L77.3880675 -51.999999999999986 L61.05473250000001 -35.924664999999976 Q57.7275 -32.64999999999998 55.63125 -28.320598749999974 Q53.535000000000004 -23.991197499999984 53.588696250000005 -19.164662499999977 Q53.5140375 -9.299226249999975 60.57275625 -2.6728187499999905 Q67.63147500000001 3.9537500000000136 77.43757125 3.9537500000000136 Z M77.4190275 -8.784999999999982 Q73.05963375 -8.784999999999982 69.9892725 -11.790054999999981 Q66.91875 -14.795271249999985 66.91875 -19.088391249999987 Q66.91875 -21.186092499999972 67.9601025 -23.199943749999974 Q69.00161625 -25.21379499999999 70.60057125 -26.68745874999999 L77.23875 -33.13374999999998 L84.495 -26.03874999999998 Q85.94625 -24.426249999999982 86.91375000000001 -22.733124999999987 Q87.88125000000001 -21.039999999999978 87.88125000000001 -19.12160874999998 Q87.88125000000001 -14.881862499999968 84.829755 -11.833431249999975 Q81.77826 -8.784999999999982 77.4190275 -8.784999999999982 Z M36.92625 33.30125000000001 Q30.508499999999998 33.30125000000001 26.138625 28.931375000000003 Q21.76875 24.561500000000024 21.76875 18.14375000000001 V-88.60374999999999 Q21.76875 -95.08809624999998 26.138625 -99.50521749999999 Q30.508499999999998 -103.92249999999999 36.92625 -103.92249999999999 H117.87375 Q124.35809625 -103.92249999999999 128.7752175 -99.50521749999999 Q133.1925 -95.08809624999998 133.1925 -88.60374999999999 V18.14375000000001 Q133.1925 24.561500000000024 128.7752175 28.931375000000003 Q124.35809625 33.30125000000001 117.87375 33.30125000000001 H36.92625 Z M36.92625 18.14375000000001 H117.87375 Q117.87375 18.14375000000001 117.87375 18.14375000000001 Q117.87375 18.14375000000001 117.87375 18.14375000000001 V-88.60374999999999 Q117.87375 -88.60374999999999 117.87375 -88.60374999999999 Q117.87375 -88.60374999999999 117.87375 -88.60374999999999 H36.92625 Q36.92625 -88.60374999999999 36.92625 -88.60374999999999 Q36.92625 -88.60374999999999 36.92625 -88.60374999999999 V18.14375000000001 Q36.92625 18.14375000000001 36.92625 18.14375000000001 Q36.92625 18.14375000000001 36.92625 18.14375000000001 Z"/></g><g id="Semibold-L" transform="matrix(1 0 0 1 1970.27 1556)"><path d="M52.67569875 -66.72276999999998 Q55.154595 -66.72276999999998 56.8441725 -68.37800124999998 Q58.533911249999996 -70.03323249999998 58.533911249999996 -72.59114124999999 Q58.533911249999996 -75.14904999999999 56.81595375 -76.77590124999998 Q55.09799625 -78.40291374999998 52.6191 -78.40291374999998 Q50.140203750000005 -78.40291374999998 48.451271250000005 -76.72123749999999 Q46.7625 -75.03956124999998 46.7625 -72.55373124999997 Q46.7625 -70.06773999999999 48.46255875 -68.39525499999999 Q50.1626175 -66.72276999999998 52.67569875 -66.72276999999998 Z M73.05705375000001 -66.72276999999998 Q75.56320125 -66.72276999999998 77.27035500000001 -68.40428499999999 Q78.97767 -70.08596124999998 78.97767 -72.57195249999998 Q78.97767 -75.05778249999999 77.25922875 -76.73042874999999 Q75.54078750000001 -78.40291374999998 73.000455 -78.40291374999998 Q70.4943075 -78.40291374999998 68.80473 -76.74768249999998 Q67.11515250000001 -75.09245124999998 67.11515250000001 -72.53454249999999 Q67.11515250000001 -69.97663374999999 68.83311 -68.34962124999998 Q70.55090625 -66.72276999999998 73.05705375000001 -66.72276999999998 Z M77.42838 3.042365000000018 Q87.14740125 3.042365000000018 93.99584999999999 -3.5050299999999766 Q100.84429875 -10.052424999999985 100.84429875 -19.668407499999986 Q100.84429875 -24.11068374999998 99.10570125000001 -28.233201249999993 Q97.36694250000001 -32.355557499999975 94.05083625 -35.67166374999999 L77.39322750000001 -52.140287499999985 L61.34675625 -36.239586249999974 Q58.0780575 -33.000557499999985 55.981807499999995 -28.730657499999978 Q53.8855575 -24.460757499999985 53.986016250000006 -19.699528749999985 Q54.074865 -10.070323749999986 60.94846875 -3.5140599999999864 Q67.8220725 3.042365000000018 77.42838 3.042365000000018 Z M77.4190275 -8.15402874999998 Q72.563145 -8.15402874999998 69.14512875 -11.511092499999975 Q65.72695125 -14.867994999999993 65.72695125 -19.663731249999984 Q65.72695125 -22.033944999999974 66.8765025 -24.29386374999997 Q68.0258925 -26.553782499999983 69.841245 -28.228041249999976 L77.30889375 -35.517347499999985 L85.40638500000001 -27.58110624999999 Q86.99776125 -25.89846249999998 88.03540500000001 -23.924923749999977 Q89.07304875 -21.951384999999988 89.07304875 -19.68243624999998 Q89.07304875 -14.917014999999992 85.67389875 -11.535441249999991 Q82.27474875 -8.15402874999998 77.4190275 -8.15402874999998 Z M36.29527875 31.54862375000002 Q30.932587500000004 31.54862375000002 27.2270625 27.842937500000005 Q23.52137625 24.13741250000001 23.52137625 18.774721250000027 V-89.23472124999998 Q23.52137625 -94.63498374999998 27.2270625 -98.3674375 Q30.932587500000004 -102.09972999999998 36.29527875 -102.09972999999998 H118.50472125 Q123.90498375000001 -102.09972999999998 127.63743749999999 -98.3674375 Q131.36973 -94.63498374999998 131.36973 -89.23472124999998 V18.774721250000027 Q131.36973 24.13741250000001 127.63743749999999 27.842937500000005 Q123.90498375000001 31.54862375000002 118.50472125 31.54862375000002 H36.29527875 Z M36.29527875 18.774721250000027 H118.50472125 Q118.50472125 18.774721250000027 118.50472125 18.774721250000027 Q118.50472125 18.774721250000027 118.50472125 18.774721250000027 V-89.23472124999998 Q118.50472125 -89.23472124999998 118.50472125 -89.23472124999998 Q118.50472125 -89.23472124999998 118.50472125 -89.23472124999998 H36.29527875 Q36.29527875 -89.23472124999998 36.29527875 -89.23472124999998 Q36.29527875 -89.23472124999998 36.29527875 -89.23472124999998 V18.774721250000027 Q36.29527875 18.774721250000027 36.29527875 18.774721250000027 Q36.29527875 18.774721250000027 36.29527875 18.774721250000027 Z"/></g><g id="Medium-L" transform="matrix(1 0 0 1 1674.31 1556)"><path d="M52.07133375 -68.08984749999999 Q54.31319250000001 -68.08984749999999 55.81878375 -69.59721249999998 Q57.324375 -71.10473874999998 57.324375 -73.37981499999998 Q57.324375 -75.65505249999998 55.790565 -77.13419874999998 Q54.25659375000001 -78.61318374999999 52.01489625 -78.61318374999999 Q49.7730375 -78.61318374999999 48.267768749999995 -77.09469249999998 Q46.7625 -75.57620124999998 46.7625 -73.33143999999999 Q46.7625 -71.08667874999999 48.2888925 -69.58834374999998 Q49.81512375 -68.08984749999999 52.07133375 -68.08984749999999 Z M71.85767625000001 -68.08984749999999 Q74.111145 -68.08984749999999 75.62415375 -69.60849999999999 Q77.1371625 -71.12699124999999 77.1371625 -73.37175249999999 Q77.1371625 -75.61651374999998 75.60303 -77.11484874999998 Q74.0688975 -78.61318374999999 71.80123875 -78.61318374999999 Q69.54777 -78.61318374999999 68.04217875 -77.10581874999998 Q66.5365875 -75.59845374999998 66.5365875 -73.32337749999999 Q66.5365875 -71.04813999999999 68.07055875 -69.56899374999998 Q69.60436874999999 -68.08984749999999 71.85767625000001 -68.08984749999999 Z M77.42160750000001 2.358826250000021 Q87.01259625000002 2.358826250000021 93.770745 -4.140354999999985 Q100.52889375 -10.639374999999987 100.52889375 -20.084432499999977 Q100.52889375 -24.47881749999999 98.81641875000001 -28.54860624999999 Q97.104105 -32.61839499999998 93.84056625 -35.88193374999999 L77.3970975 -52.245422499999975 L61.565895 -36.47581749999998 Q58.340894999999996 -33.263394999999974 56.244645 -29.038161249999987 Q54.148395 -24.812927499999986 54.28400625 -20.10071874999997 Q54.49556625 -10.648888749999983 61.23033375000001 -4.145031249999988 Q67.96510125 2.358826250000021 77.42160750000001 2.358826250000021 Z M77.4190275 -7.680759999999992 Q72.1906575 -7.680759999999992 68.5119 -11.301628749999978 Q64.83298125 -14.922497499999977 64.83298125 -20.09523624999997 Q64.83298125 -22.669914999999975 66.06364125 -25.11446499999998 Q67.29414 -27.55917624999998 69.27154875000001 -29.383719999999983 L77.36146125 -37.30512624999999 L86.08992375 -28.73791374999999 Q87.78659625 -27.00270249999997 88.8768075 -24.818893749999972 Q89.96701875 -22.63492374999997 89.96701875 -20.10313749999999 Q89.96701875 -14.943298749999983 86.3071275 -11.31210999999999 Q82.64723625 -7.680759999999992 77.4190275 -7.680759999999992 Z M35.82201 30.233952500000015 Q31.250733750000002 30.233952500000015 28.04331 27.026690000000002 Q24.8360475 23.819266250000027 24.8360475 19.247990000000016 V-89.70799 Q24.8360475 -94.29506874999998 28.04331 -97.51377999999998 Q31.250733750000002 -100.73265249999999 35.82201 -100.73265249999999 H118.97798999999999 Q123.56506875 -100.73265249999999 126.78378 -97.51377999999998 Q130.0026525 -94.29506874999998 130.0026525 -89.70799 V19.247990000000016 Q130.0026525 23.819266250000027 126.78378 27.026690000000002 Q123.56506875 30.233952500000015 118.97798999999999 30.233952500000015 H35.82201 Z M35.82201 19.247990000000016 H118.97798999999999 Q118.97798999999999 19.247990000000016 118.97798999999999 19.247990000000016 Q118.97798999999999 19.247990000000016 118.97798999999999 19.247990000000016 V-89.70799 Q118.97798999999999 -89.70799 118.97798999999999 -89.70799 Q118.97798999999999 -89.70799 118.97798999999999 -89.70799 H35.82201 Q35.82201 -89.70799 35.82201 -89.70799 Q35.82201 -89.70799 35.82201 -89.70799 V19.247990000000016 Q35.82201 19.247990000000016 35.82201 19.247990000000016 Q35.82201 19.247990000000016 35.82201 19.247990000000016 Z"/></g><g id="Regular-L" transform="matrix(1 0 0 1 1378.56 1556)"><path d="M51.62821875 -69.09249999999999 Q53.69625 -69.09249999999999 55.066875 -70.49134374999998 Q56.4375 -71.89034874999999 56.4375 -73.95821874999999 Q56.4375 -76.02624999999998 55.03865625 -77.396875 Q53.63965125 -78.76749999999998 51.57178125 -78.76749999999998 Q49.503750000000004 -78.76749999999998 48.133125 -77.36865624999999 Q46.7625 -75.96965124999998 46.7625 -73.90178124999998 Q46.7625 -71.83374999999998 48.16134375 -70.46312499999999 Q49.56034875 -69.09249999999999 51.62821875 -69.09249999999999 Z M70.97821875000001 -69.09249999999999 Q73.04625 -69.09249999999999 74.416875 -70.49134374999998 Q75.78750000000001 -71.89034874999999 75.78750000000001 -73.95821874999999 Q75.78750000000001 -76.02624999999998 74.38865625 -77.396875 Q72.98965125000001 -78.76749999999998 70.92178125 -78.76749999999998 Q68.85375 -78.76749999999998 67.483125 -77.36865624999999 Q66.1125 -75.96965124999998 66.1125 -73.90178124999998 Q66.1125 -71.83374999999998 67.51134375000001 -70.46312499999999 Q68.91034875 -69.09249999999999 70.97821875000001 -69.09249999999999 Z M77.4164475 1.857500000000016 Q86.91375000000001 1.857500000000016 93.605625 -4.606206249999985 Q100.2975 -11.069751249999982 100.2975 -20.389517499999982 Q100.2975 -24.748749999999987 98.604375 -28.779999999999987 Q96.91125000000001 -32.81124999999999 93.68625 -36.03624999999998 L77.4 -52.32249999999998 L61.7265 -36.64899999999997 Q58.533750000000005 -33.45624999999998 56.4375 -29.263749999999987 Q54.34125 -25.071249999999978 54.502500000000005 -20.394999999999982 Q54.8040375 -11.072976249999982 61.43705625 -4.607818749999993 Q68.070075 1.857500000000016 77.4164475 1.857500000000016 Z M77.4190275 -7.333749999999981 Q71.9175 -7.333749999999981 68.0475 -11.14811874999998 Q64.1775 -14.96248749999998 64.1775 -20.41160874999997 Q64.1775 -23.136249999999976 65.4675 -25.716249999999988 Q66.75750000000001 -28.296249999999986 68.85375 -30.23124999999999 L77.4 -38.61624999999998 L86.59125 -29.58624999999998 Q88.36500000000001 -27.812499999999986 89.49375 -25.47437499999998 Q90.6225 -23.136249999999976 90.6225 -20.41160874999997 Q90.6225 -14.96248749999998 86.7715275 -11.14811874999998 Q82.92039375 -7.333749999999981 77.4190275 -7.333749999999981 Z M35.475 29.27000000000001 Q31.4840625 29.27000000000001 28.642031250000002 26.42796875000002 Q25.8 23.58593750000003 25.8 19.595000000000027 V-90.05499999999998 Q25.8 -94.04593749999998 28.642031250000002 -96.88796874999998 Q31.4840625 -99.72999999999999 35.475 -99.72999999999999 H119.325 Q123.3159375 -99.72999999999999 126.15796875000001 -96.88796874999998 Q129.0 -94.04593749999998 129.0 -90.05499999999998 V19.595000000000027 Q129.0 23.58593750000003 126.15796875000001 26.42796875000002 Q123.3159375 29.27000000000001 119.325 29.27000000000001 H35.475 Z M35.475 19.595000000000027 H119.325 Q119.325 19.595000000000027 119.325 19.595000000000027 Q119.325 19.595000000000027 119.325 19.595000000000027 V-90.05499999999998 Q119.325 -90.05499999999998 119.325 -90.05499999999998 Q119.325 -90.05499999999998 119.325 -90.05499999999998 H35.475 Q35.475 -90.05499999999998 35.475 -90.05499999999998 Q35.475 -90.05499999999998 35.475 -90.05499999999998 V19.595000000000027 Q35.475 19.595000000000027 35.475 19.595000000000027 Q35.475 19.595000000000027 35.475 19.595000000000027 Z"/></g><g id="Light-L" transform="matrix(1 0 0 1 1082.77 1556)"><path d="M51.6293475 -69.40258374999999 Q53.5101675 -69.40258374999999 54.81871125000001 -70.74063625 Q56.12741625 -72.07852749999998 56.12741625 -73.95934749999998 Q56.12741625 -75.84016749999998 54.78936375 -77.14871124999999 Q53.45147250000001 -78.45741624999998 51.5706525 -78.45741624999998 Q49.6898325 -78.45741624999998 48.381288749999996 -77.11936374999999 Q47.07258375 -75.78147249999998 47.07258375 -73.90065249999998 Q47.07258375 -72.01983249999998 48.41063625 -70.71128874999998 Q49.748527499999994 -69.40258374999999 51.6293475 -69.40258374999999 Z M70.9793475 -69.40258374999999 Q72.8601675 -69.40258374999999 74.16871125 -70.74063625 Q75.47741625 -72.07852749999998 75.47741625 -73.95934749999998 Q75.47741625 -75.84016749999998 74.13936375 -77.14871124999999 Q72.8014725 -78.45741624999998 70.9206525 -78.45741624999998 Q69.0398325 -78.45741624999998 67.73128875 -77.11936374999999 Q66.42258375 -75.78147249999998 66.42258375 -73.90065249999998 Q66.42258375 -72.01983249999998 67.76063625 -70.71128874999998 Q69.0985275 -69.40258374999999 70.9793475 -69.40258374999999 Z M77.40080625 0.6790850000000148 Q86.41758375 0.6790850000000148 92.76825375 -5.440029999999979 Q99.119085 -11.558983749999982 99.119085 -20.370328749999985 Q99.119085 -24.500586249999984 97.58092125 -28.376874999999984 Q96.04291875 -32.25300249999998 93.00400125 -35.22999999999999 L77.4 -50.834001249999986 L62.3466675 -35.780668749999975 Q59.34 -32.71191999999998 57.4298325 -28.73662374999998 Q55.519665 -24.761166249999988 55.680915 -20.394999999999982 Q55.92037125 -11.56914249999997 62.22911625 -5.445028749999992 Q68.5380225 0.6790850000000148 77.40080625 0.6790850000000148 Z M77.422575 -6.15533499999998 Q71.42133375 -6.15533499999998 67.21012875000001 -10.299137499999986 Q62.999085 -14.442778749999974 62.999085 -20.424508749999987 Q62.999085 -23.322332499999987 64.22700375000001 -25.995373749999985 Q65.45492250000001 -28.66841499999998 67.61325375 -30.727416249999976 L77.4 -40.41499374999998 L87.8938275 -30.02049624999998 Q89.79157875 -28.18466499999998 90.7963275 -25.700769999999977 Q91.800915 -23.21703624999998 91.800915 -20.41160874999997 Q91.800915 -14.435361249999985 87.61244624999999 -10.29526749999998 Q83.42397749999999 -6.15533499999998 77.422575 -6.15533499999998 Z M38.328157499999996 26.044838750000025 Q34.5233025 26.044838750000025 31.774151250000003 23.295848750000033 Q29.02516125 20.546697500000022 29.02516125 16.74184250000002 V-87.20184249999998 Q29.02516125 -91.00669749999997 31.774151250000003 -93.75584874999998 Q34.5233025 -96.50483874999998 38.328157499999996 -96.50483874999998 H116.47184250000001 Q120.27669750000001 -96.50483874999998 123.02584875000001 -93.75584874999998 Q125.77483875 -91.00669749999997 125.77483875 -87.20184249999998 V16.74184250000002 Q125.77483875 20.546697500000022 123.02584875000001 23.295848750000033 Q120.27669750000001 26.044838750000025 116.47184250000001 26.044838750000025 H38.328157499999996 Z M38.328157499999996 18.726668750000016 H116.47184250000001 Q117.34017375 18.726668750000016 117.89842125000001 18.168421250000023 Q118.45666875 17.61017375000003 118.45666875 16.74184250000002 V-87.20184249999998 Q118.45666875 -88.07017374999998 117.89842125000001 -88.62842124999997 Q117.34017375 -89.18666875 116.47184250000001 -89.18666875 H38.328157499999996 Q37.45982625 -89.18666875 36.901578750000006 -88.62842124999997 Q36.34333125 -88.07017374999998 36.34333125 -87.20184249999998 V16.74184250000002 Q36.34333125 17.61017375000003 36.901578750000006 18.168421250000023 Q37.45982625 18.726668750000016 38.328157499999996 18.726668750000016 Z"/></g><g id="Thin-L" transform="matrix(1 0 0 1 787.282 1556)"><path d="M51.63047625000001 -69.71266749999998 Q53.324085000000004 -69.71266749999998 54.57070875 -70.98976749999999 Q55.8173325 -72.26686749999999 55.8173325 -73.96047624999999 Q55.8173325 -75.65408499999998 54.5402325 -76.90070874999998 Q53.263132500000005 -78.14733249999998 51.569523749999995 -78.14733249999998 Q49.875915 -78.14733249999998 48.62929125 -76.87023249999999 Q47.382667500000004 -75.5931325 47.382667500000004 -73.89952374999999 Q47.382667500000004 -72.20591499999998 48.6597675 -70.95929124999998 Q49.9368675 -69.71266749999998 51.63047625000001 -69.71266749999998 Z M70.98047625000001 -69.71266749999998 Q72.674085 -69.71266749999998 73.92070875 -70.98976749999999 Q75.1673325 -72.26686749999999 75.1673325 -73.96047624999999 Q75.1673325 -75.65408499999998 73.8902325 -76.90070874999998 Q72.6131325 -78.14733249999998 70.91952375 -78.14733249999998 Q69.225915 -78.14733249999998 67.97929125 -76.87023249999999 Q66.7326675 -75.5931325 66.7326675 -73.89952374999999 Q66.7326675 -72.20591499999998 68.00976750000001 -70.95929124999998 Q69.2868675 -69.71266749999998 70.98047625000001 -69.71266749999998 Z M77.38500375 -0.4991687499999813 Q85.9214175 -0.4991687499999813 91.93104375 -6.273692499999996 Q97.94083125 -12.048054999999977 97.94083125 -20.35097874999998 Q97.94083125 -24.252583749999985 96.55779 -27.97374999999998 Q95.17474875 -31.694916249999977 92.32191375000001 -34.423749999999984 L77.4 -49.345663749999986 L62.966835 -34.91249874999997 Q60.14625 -31.967751249999978 58.422165 -28.209497499999983 Q56.69791875 -24.451082499999984 56.85916875 -20.394999999999982 Q57.036705000000005 -12.065308749999971 63.02117625 -6.2822387499999905 Q69.00580875 -0.4991687499999813 77.38500375 -0.4991687499999813 Z M77.42628375000001 -4.9770812499999835 Q70.9251675 -4.9770812499999835 66.37291875 -9.450156249999978 Q61.82083125 -13.923231249999986 61.82083125 -20.43740874999999 Q61.82083125 -23.508414999999985 62.98666875 -26.27449749999998 Q64.1526675 -29.040418749999986 66.37291875 -31.223582499999978 L77.4 -42.21341499999998 L89.1960825 -30.454581249999976 Q91.21783500000001 -28.556668749999986 92.0985825 -25.92732624999998 Q92.97916875 -23.29782249999998 92.97916875 -20.41160874999997 Q92.97916875 -13.90823499999999 88.45320375 -9.442577499999985 Q83.9274 -4.9770812499999835 77.42628375000001 -4.9770812499999835 Z M41.18067 22.82000000000002 Q37.5618975 22.82000000000002 34.90594875 20.16405125000003 Q32.25 17.508102500000007 32.25 13.88933000000003 V-84.34932999999998 Q32.25 -87.96810249999999 34.90594875 -90.62405124999998 Q37.5618975 -93.27999999999999 41.18067 -93.27999999999999 H113.61933 Q117.2381025 -93.27999999999999 119.89405125 -90.62405124999998 Q122.55 -87.96810249999999 122.55 -84.34932999999998 V13.88933000000003 Q122.55 17.508102500000007 119.89405125 20.16405125000003 Q117.2381025 22.82000000000002 113.61933 22.82000000000002 H41.18067 Z M41.18067 17.858498750000024 H113.61933 Q115.35583125000001 17.858498750000024 116.472165 16.74216500000003 Q117.58849875 15.625831250000005 117.58849875 13.88933000000003 V-84.34932999999998 Q117.58849875 -86.08583124999998 116.472165 -87.20216499999998 Q115.35583125000001 -88.31849874999997 113.61933 -88.31849874999997 H41.18067 Q39.44416875 -88.31849874999997 38.327835 -87.20216499999998 Q37.211501250000005 -86.08583124999998 37.211501250000005 -84.34932999999998 V13.88933000000003 Q37.211501250000005 15.625831250000005 38.327835 16.74216500000003 Q39.44416875 17.858498750000024 41.18067 17.858498750000024 Z"/></g><g id="Ultralight-L" transform="matrix(1 0 0 1 491.205 1556)"><path d="M51.63112125 -69.89874999999998 Q53.2125 -69.89874999999998 54.421875 -71.13924624999999 Q55.63125 -72.37974249999999 55.63125 -73.96112124999999 Q55.63125 -75.54249999999999 54.39075375 -76.75187499999998 Q53.150257499999995 -77.96124999999998 51.56887875 -77.96124999999998 Q49.987500000000004 -77.96124999999998 48.778125 -76.72075374999999 Q47.56875 -75.48025749999998 47.56875 -73.89887875 Q47.56875 -72.31749999999998 48.80924625 -71.10812499999999 Q50.04974250000001 -69.89874999999998 51.63112125 -69.89874999999998 Z M70.98112125 -69.89874999999998 Q72.5625 -69.89874999999998 73.77187500000001 -71.13924624999999 Q74.98125 -72.37974249999999 74.98125 -73.96112124999999 Q74.98125 -75.54249999999999 73.74075375000001 -76.75187499999998 Q72.5002575 -77.96124999999998 70.91887875 -77.96124999999998 Q69.3375 -77.96124999999998 68.128125 -76.72075374999999 Q66.91875 -75.48025749999998 66.91875 -73.89887875 Q66.91875 -72.31749999999998 68.15924625 -71.10812499999999 Q69.3997425 -69.89874999999998 70.98112125 -69.89874999999998 Z M77.37565125 -1.206249999999983 Q85.62375 -1.206249999999983 91.42875000000001 -6.77388999999998 Q97.23375 -12.341691249999982 97.23375 -20.339368749999977 Q97.23375 -24.103749999999977 95.94375000000001 -27.731874999999988 Q94.65375 -31.359999999999985 91.91250000000001 -33.93999999999998 L77.4 -48.452499999999986 L63.339000000000006 -34.39149999999998 Q60.63 -31.52124999999998 59.0175 -27.893124999999984 Q57.405 -24.264999999999986 57.566250000000004 -20.394999999999982 Q57.7065375 -12.362976249999974 63.49654125 -6.784693749999988 Q69.286545 -1.206249999999983 77.37565125 -1.206249999999983 Z M77.42838 -4.269999999999982 Q70.6275 -4.269999999999982 65.870625 -8.940767499999978 Q61.11375 -13.611373749999984 61.11375 -20.444987499999968 Q61.11375 -23.619999999999976 62.2425 -26.441874999999982 Q63.37125 -29.263749999999987 65.62875 -31.52124999999998 L77.4 -43.29249999999999 L89.9775 -30.71499999999999 Q92.07375 -28.779999999999987 92.88 -26.06309874999998 Q93.68625 -23.346197499999988 93.68625 -20.41160874999997 Q93.68625 -13.591862499999976 88.95791625000001 -8.930931249999972 Q84.22942125 -4.269999999999982 77.42838 -4.269999999999982 Z M42.8925 20.88500000000002 Q39.3853125 20.88500000000002 36.78515625 18.28484375000002 Q34.185 15.684687500000024 34.185 12.177500000000009 V-82.63749999999999 Q34.185 -86.14468749999997 36.78515625 -88.74484374999999 Q39.3853125 -91.34499999999998 42.8925 -91.34499999999998 H111.9075 Q115.4146875 -91.34499999999998 118.01484375 -88.74484374999999 Q120.61500000000001 -86.14468749999997 120.61500000000001 -82.63749999999999 V12.177500000000009 Q120.61500000000001 15.684687500000024 118.01484375 18.28484375000002 Q115.4146875 20.88500000000002 111.9075 20.88500000000002 H42.8925 Z M42.8925 17.337500000000006 H111.9075 Q114.165 17.337500000000006 115.61625000000001 15.886250000000018 Q117.06750000000001 14.43500000000003 117.06750000000001 12.177500000000009 V-82.63749999999999 Q117.06750000000001 -84.89499999999998 115.61625000000001 -86.34624999999998 Q114.165 -87.79749999999999 111.9075 -87.79749999999999 H42.8925 Q40.635 -87.79749999999999 39.18375 -86.34624999999998 Q37.7325 -84.89499999999998 37.7325 -82.63749999999999 V12.177500000000009 Q37.7325 14.43500000000003 39.18375 15.886250000000018 Q40.635 17.337500000000006 42.8925 17.337500000000006 Z"/></g><g id="Bold-M" transform="matrix(1 0 0 1 2281.8 1126)"><path d="M41.875 -55.85499999999999 Q44.75 -55.85499999999999 46.8125 -57.83149999999999 Q48.875 -59.80812499999999 48.875 -62.72999999999999 Q48.875 -65.65187499999999 46.8125 -67.62849999999999 Q44.75 -69.60499999999999 41.875 -69.60499999999999 Q39.0 -69.60499999999999 37.0 -67.62849999999999 Q35.0 -65.65187499999999 35.0 -62.72999999999999 Q35.0 -59.80812499999999 36.9765 -57.83149999999999 Q38.953125 -55.85499999999999 41.875 -55.85499999999999 Z M58.875 -55.85499999999999 Q61.75 -55.85499999999999 63.75 -57.83149999999999 Q65.75 -59.80812499999999 65.75 -62.72999999999999 Q65.75 -65.65187499999999 63.7735 -67.62849999999999 Q61.796875 -69.60499999999999 58.875 -69.60499999999999 Q56.0 -69.60499999999999 53.9375 -67.62849999999999 Q51.875 -65.65187499999999 51.875 -62.72999999999999 Q51.875 -59.80812499999999 53.9375 -57.83149999999999 Q56.0 -55.85499999999999 58.875 -55.85499999999999 Z M60.0 -2.9799999999999898 Q68.2895 -2.9799999999999898 74.14475 -8.54249999999999 Q80.0 -14.10499999999999 80.0 -22.365999999999985 Q80.0 -26.22999999999999 78.6875 -29.79249999999999 Q77.375 -33.35499999999999 74.625 -36.10499999999999 L60.0 -50.35499999999999 L45.876875 -36.543499999999995 Q43.0 -33.72999999999999 41.5 -30.04249999999999 Q40.0 -26.35499999999999 40.041625 -22.40124999999999 Q40.125 -14.22999999999999 45.955 -8.60499999999999 Q51.785 -2.9799999999999898 60.0 -2.9799999999999898 Z M60.0 -16.22999999999999 Q57.447875 -16.22999999999999 55.6615 -18.016499999999994 Q53.875 -19.802874999999986 53.875 -22.35499999999999 Q53.875 -23.593249999999983 54.3125 -24.707624999999993 Q54.75 -25.82199999999999 55.625 -26.72999999999999 L59.875 -30.97999999999999 L64.0 -26.72999999999999 Q65.0 -25.72999999999999 65.5625 -24.66749999999999 Q66.125 -23.60499999999999 66.125 -22.35499999999999 Q66.125 -19.85499999999999 64.3385 -18.04249999999999 Q62.552125 -16.22999999999999 60.0 -16.22999999999999 Z M31.5 19.02000000000001 Q24.875 19.02000000000001 20.3125 14.45750000000001 Q15.75 9.89500000000001 15.75 3.2700000000000102 V-73.72999999999999 Q15.75 -80.35499999999999 20.3125 -84.91749999999999 Q24.875 -89.47999999999999 31.5 -89.47999999999999 H88.5 Q95.125 -89.47999999999999 99.6875 -84.91749999999999 Q104.25 -80.35499999999999 104.25 -73.72999999999999 V3.2700000000000102 Q104.25 9.89500000000001 99.6875 14.45750000000001 Q95.125 19.02000000000001 88.5 19.02000000000001 H31.5 Z M31.5 3.2700000000000102 H88.5 Q88.5 3.2700000000000102 88.5 3.2700000000000102 Q88.5 3.2700000000000102 88.5 3.2700000000000102 V-73.72999999999999 Q88.5 -73.72999999999999 88.5 -73.72999999999999 Q88.5 -73.72999999999999 88.5 -73.72999999999999 H31.5 Q31.5 -73.72999999999999 31.5 -73.72999999999999 Q31.5 -73.72999999999999 31.5 -73.72999999999999 V3.2700000000000102 Q31.5 3.2700000000000102 31.5 3.2700000000000102 Q31.5 3.2700000000000102 31.5 3.2700000000000102 Z"/></g><g id="Semibold-M" transform="matrix(1 0 0 1 1985.97 1126)"><path d="M41.059875 -57.75699999999999 Q43.60875 -57.75699999999999 45.3995 -59.49924999999999 Q47.190375 -61.24149999999999 47.190375 -63.81687499999999 Q47.190375 -66.39237499999999 45.3995 -68.13449999999999 Q43.60875 -69.87674999999999 41.059875 -69.87674999999999 Q38.510875 -69.87674999999999 36.7555 -68.13449999999999 Q35.0 -66.39237499999999 35.0 -63.81687499999999 Q35.0 -61.24149999999999 36.74225 -59.49924999999999 Q38.484375 -57.75699999999999 41.059875 -57.75699999999999 Z M57.190375 -57.75699999999999 Q59.73925 -57.75699999999999 61.49475 -59.49924999999999 Q63.250125 -61.24149999999999 63.250125 -63.81687499999999 Q63.250125 -66.39237499999999 61.508 -68.13449999999999 Q59.76575 -69.87674999999999 57.190375 -69.87674999999999 Q54.641375 -69.87674999999999 52.850625 -68.13449999999999 Q51.059875 -66.39237499999999 51.059875 -63.81687499999999 Q51.059875 -61.24149999999999 52.850625 -59.49924999999999 Q54.641375 -57.75699999999999 57.190375 -57.75699999999999 Z M60.0 -3.9582499999999925 Q68.10925 -3.9582499999999925 73.83725 -9.43912499999999 Q79.56525 -14.920124999999985 79.56525 -22.95899999999999 Q79.56525 -26.71912499999999 78.279875 -30.227249999999984 Q76.994625 -33.73537499999999 74.35325 -36.37674999999999 L60.0 -50.51799999999999 L46.14775 -36.841999999999985 Q43.326125 -34.056124999999994 41.85325 -30.450124999999986 Q40.380375 -26.84412499999999 40.45825 -22.978874999999988 Q40.614125 -14.990874999999988 46.300625 -9.474499999999992 Q51.987125 -3.9582499999999925 60.0 -3.9582499999999925 Z M60.0 -15.577874999999992 Q56.927125 -15.577874999999992 54.776125 -17.728874999999988 Q52.625125 -19.879874999999984 52.625125 -22.952749999999995 Q52.625125 -24.467874999999992 53.17125 -25.831374999999994 Q53.7175 -27.194874999999996 54.809875 -28.305999999999983 L59.929375 -33.425499999999985 L64.923875 -28.36037499999999 Q66.086875 -27.197249999999997 66.730875 -25.835874999999987 Q67.374875 -24.474499999999992 67.374875 -22.952749999999995 Q67.374875 -19.909374999999983 65.223875 -17.743624999999994 Q63.072875 -15.577874999999992 60.0 -15.577874999999992 Z M30.847875 17.172250000000005 Q25.30975 17.172250000000005 21.45375 13.31625000000001 Q17.59775 9.460250000000016 17.59775 3.9221250000000083 V-74.38212499999999 Q17.59775 -79.92024999999998 21.45375 -83.77624999999999 Q25.30975 -87.63224999999998 30.847875 -87.63224999999998 H89.152125 Q94.69025 -87.63224999999998 98.54625 -83.77624999999999 Q102.40225 -79.92024999999998 102.40225 -74.38212499999999 V3.9221250000000083 Q102.40225 9.460250000000016 98.54625 13.31625000000001 Q94.69025 17.172250000000005 89.152125 17.172250000000005 H30.847875 Z M30.847875 3.9221250000000083 H89.152125 Q89.152125 3.9221250000000083 89.152125 3.9221250000000083 Q89.152125 3.9221250000000083 89.152125 3.9221250000000083 V-74.38212499999999 Q89.152125 -74.38212499999999 89.152125 -74.38212499999999 Q89.152125 -74.38212499999999 89.152125 -74.38212499999999 H30.847875 Q30.847875 -74.38212499999999 30.847875 -74.38212499999999 Q30.847875 -74.38212499999999 30.847875 -74.38212499999999 V3.9221250000000083 Q30.847875 3.9221250000000083 30.847875 3.9221250000000083 Q30.847875 3.9221250000000083 30.847875 3.9221250000000083 Z"/></g><g id="Medium-M" transform="matrix(1 0 0 1 1689.91 1126)"><path d="M40.448375 -59.18374999999999 Q42.75275 -59.18374999999999 44.33975 -60.75012499999999 Q45.926625 -62.31662499999999 45.926625 -64.63212499999999 Q45.926625 -66.94774999999998 44.33975 -68.51412499999999 Q42.75275 -70.08049999999999 40.448375 -70.08049999999999 Q38.144 -70.08049999999999 36.572 -68.51412499999999 Q35.0 -66.94774999999998 35.0 -64.63212499999999 Q35.0 -62.31662499999999 36.566375 -60.75012499999999 Q38.132875 -59.18374999999999 40.448375 -59.18374999999999 Z M55.926625 -59.18374999999999 Q58.231 -59.18374999999999 59.803 -60.75012499999999 Q61.375 -62.31662499999999 61.375 -64.63212499999999 Q61.375 -66.94774999999998 59.808625 -68.51412499999999 Q58.24225 -70.08049999999999 55.926625 -70.08049999999999 Q53.62225 -70.08049999999999 52.035375 -68.51412499999999 Q50.448375 -66.94774999999998 50.448375 -64.63212499999999 Q50.448375 -62.31662499999999 52.035375 -60.75012499999999 Q53.62225 -59.18374999999999 55.926625 -59.18374999999999 Z M60.0 -4.691999999999993 Q67.974125 -4.691999999999993 73.606625 -10.111749999999986 Q79.239125 -15.531624999999991 79.239125 -23.403874999999985 Q79.239125 -27.085999999999984 77.97425 -30.55337499999999 Q76.70925 -34.02074999999999 74.1495 -36.58049999999999 L60.0 -50.64037499999999 L46.351 -37.06587499999999 Q43.570625 -34.300625 42.11825 -30.755749999999992 Q40.66575 -27.210999999999984 40.770875 -23.412249999999986 Q40.981 -15.561499999999995 46.559875 -10.126749999999987 Q52.13875 -4.691999999999993 60.0 -4.691999999999993 Z M60.0 -15.08874999999999 Q56.5365 -15.08874999999999 54.112 -17.513124999999988 Q51.6875 -19.937624999999983 51.6875 -23.40124999999999 Q51.6875 -25.123874999999984 52.31525 -26.674374999999984 Q52.943 -28.224749999999986 54.198375 -29.488124999999997 L59.970125 -35.259874999999994 L65.616875 -29.583249999999992 Q66.902125 -28.29787499999999 67.607375 -26.712374999999994 Q68.3125 -25.126749999999987 68.3125 -23.40124999999999 Q68.3125 -19.950124999999986 65.888 -17.519374999999997 Q63.4635 -15.08874999999999 60.0 -15.08874999999999 Z M30.35875 15.786375000000007 Q25.635875 15.786375000000007 22.30975 12.460250000000016 Q18.983625 9.134125000000012 18.983625 4.41125000000001 V-74.87124999999999 Q18.983625 -79.59412499999999 22.30975 -82.92024999999998 Q25.635875 -86.24637499999999 30.35875 -86.24637499999999 H89.64125 Q94.364125 -86.24637499999999 97.69025 -82.92024999999998 Q101.016375 -79.59412499999999 101.016375 -74.87124999999999 V4.41125000000001 Q101.016375 9.134125000000012 97.69025 12.460250000000016 Q94.364125 15.786375000000007 89.64125 15.786375000000007 H30.35875 Z M30.35875 4.41125000000001 H89.64125 Q89.64125 4.41125000000001 89.64125 4.41125000000001 Q89.64125 4.41125000000001 89.64125 4.41125000000001 V-74.87124999999999 Q89.64125 -74.87124999999999 89.64125 -74.87124999999999 Q89.64125 -74.87124999999999 89.64125 -74.87124999999999 H30.35875 Q30.35875 -74.87124999999999 30.35875 -74.87124999999999 Q30.35875 -74.87124999999999 30.35875 -74.87124999999999 V4.41125000000001 Q30.35875 4.41125000000001 30.35875 4.41125000000001 Q30.35875 4.41125000000001 30.35875 4.41125000000001 Z"/></g><g id="Regular-M" transform="matrix(1 0 0 1 1394.06 1126)"><path d="M40.0 -60.22999999999999 Q42.125 -60.22999999999999 43.5625 -61.66749999999999 Q45.0 -63.10499999999999 45.0 -65.22999999999999 Q45.0 -67.35499999999999 43.5625 -68.79249999999999 Q42.125 -70.22999999999999 40.0 -70.22999999999999 Q37.875 -70.22999999999999 36.4375 -68.79249999999999 Q35.0 -67.35499999999999 35.0 -65.22999999999999 Q35.0 -63.10499999999999 36.4375 -61.66749999999999 Q37.875 -60.22999999999999 40.0 -60.22999999999999 Z M55.0 -60.22999999999999 Q57.125 -60.22999999999999 58.5625 -61.66749999999999 Q60.0 -63.10499999999999 60.0 -65.22999999999999 Q60.0 -67.35499999999999 58.5625 -68.79249999999999 Q57.125 -70.22999999999999 55.0 -70.22999999999999 Q52.875 -70.22999999999999 51.4375 -68.79249999999999 Q50.0 -67.35499999999999 50.0 -65.22999999999999 Q50.0 -63.10499999999999 51.4375 -61.66749999999999 Q52.875 -60.22999999999999 55.0 -60.22999999999999 Z M60.0 -5.22999999999999 Q67.875 -5.22999999999999 73.4375 -10.60499999999999 Q79.0 -15.97999999999999 79.0 -23.72999999999999 Q79.0 -27.35499999999999 77.75 -30.79249999999999 Q76.5 -34.22999999999999 74.0 -36.72999999999999 L60.0 -50.72999999999999 L46.5 -37.22999999999999 Q43.75 -34.47999999999999 42.3125 -30.97999999999999 Q40.875 -27.47999999999999 41.0 -23.72999999999999 Q41.25 -15.97999999999999 46.75 -10.60499999999999 Q52.25 -5.22999999999999 60.0 -5.22999999999999 Z M60.0 -14.72999999999999 Q56.25 -14.72999999999999 53.625 -17.35499999999999 Q51.0 -19.97999999999999 51.0 -23.72999999999999 Q51.0 -25.60499999999999 51.6875 -27.29249999999999 Q52.375 -28.97999999999999 53.75 -30.35499999999999 L60.0 -36.60499999999999 L66.125 -30.47999999999999 Q67.5 -29.10499999999999 68.25 -27.35499999999999 Q69.0 -25.60499999999999 69.0 -23.72999999999999 Q69.0 -19.97999999999999 66.375 -17.35499999999999 Q63.75 -14.72999999999999 60.0 -14.72999999999999 Z M30.0 14.77000000000001 Q25.875 14.77000000000001 22.9375 11.83250000000001 Q20.0 8.89500000000001 20.0 4.77000000000001 V-75.22999999999999 Q20.0 -79.35499999999999 22.9375 -82.29249999999999 Q25.875 -85.22999999999999 30.0 -85.22999999999999 H90.0 Q94.125 -85.22999999999999 97.0625 -82.29249999999999 Q100.0 -79.35499999999999 100.0 -75.22999999999999 V4.77000000000001 Q100.0 8.89500000000001 97.0625 11.83250000000001 Q94.125 14.77000000000001 90.0 14.77000000000001 H30.0 Z M30.0 4.77000000000001 H90.0 Q90.0 4.77000000000001 90.0 4.77000000000001 Q90.0 4.77000000000001 90.0 4.77000000000001 V-75.22999999999999 Q90.0 -75.22999999999999 90.0 -75.22999999999999 Q90.0 -75.22999999999999 90.0 -75.22999999999999 H30.0 Q30.0 -75.22999999999999 30.0 -75.22999999999999 Q30.0 -75.22999999999999 30.0 -75.22999999999999 V4.77000000000001 Q30.0 4.77000000000001 30.0 4.77000000000001 Q30.0 4.77000000000001 30.0 4.77000000000001 Z"/></g><g id="Light-M" transform="matrix(1 0 0 1 1098.18 1126)"><path d="M40.0 -60.80699999999999 Q41.8365 -60.80699999999999 43.12975 -62.10024999999999 Q44.423 -63.39349999999999 44.423 -65.22999999999999 Q44.423 -67.06649999999999 43.12975 -68.35974999999999 Q41.8365 -69.65299999999999 40.0 -69.65299999999999 Q38.1635 -69.65299999999999 36.87025 -68.35974999999999 Q35.577 -67.06649999999999 35.577 -65.22999999999999 Q35.577 -63.39349999999999 36.87025 -62.10024999999999 Q38.1635 -60.80699999999999 40.0 -60.80699999999999 Z M55.0 -60.80699999999999 Q56.8365 -60.80699999999999 58.12975 -62.10024999999999 Q59.423 -63.39349999999999 59.423 -65.22999999999999 Q59.423 -67.06649999999999 58.12975 -68.35974999999999 Q56.8365 -69.65299999999999 55.0 -69.65299999999999 Q53.1635 -69.65299999999999 51.87025 -68.35974999999999 Q50.577 -67.06649999999999 50.577 -65.22999999999999 Q50.577 -63.39349999999999 51.87025 -62.10024999999999 Q53.1635 -60.80699999999999 55.0 -60.80699999999999 Z M60.0 -6.480124999999987 Q67.346125 -6.480124999999987 72.548 -11.494499999999988 Q77.749875 -16.50887499999999 77.749875 -23.72999999999999 Q77.749875 -27.11462499999999 76.596125 -30.31174999999999 Q75.44225 -33.50874999999999 73.0865 -35.86449999999999 L60.0 -48.950999999999986 L47.3655 -36.31649999999999 Q44.80775 -33.75874999999999 43.466375 -30.49924999999999 Q42.125125 -27.23962499999999 42.250125 -23.72999999999999 Q42.500125 -16.50887499999999 47.6395 -11.494499999999988 Q52.778875 -6.480124999999987 60.0 -6.480124999999987 Z M60.0 -13.527999999999992 Q55.721125 -13.527999999999992 52.7355 -16.489499999999992 Q49.749875 -19.45112499999999 49.749875 -23.72999999999999 Q49.749875 -25.797374999999988 50.4615 -27.65312499999999 Q51.173 -29.50887499999999 52.69225 -31.02812499999999 L60.0 -38.33587499999999 L67.423125 -30.91274999999999 Q68.84625 -29.48962499999999 69.548125 -27.59537499999999 Q70.250125 -25.70112499999999 70.250125 -23.72999999999999 Q70.250125 -19.45112499999999 67.2645 -16.489499999999992 Q64.278875 -13.527999999999992 60.0 -13.527999999999992 Z M31.538625 12.269875000000013 Q27.79825 12.269875000000013 25.14925 9.620750000000015 Q22.500125 6.971750000000014 22.500125 3.231375000000014 V-73.691375 Q22.500125 -77.43175 25.14925 -80.08075 Q27.79825 -82.72987499999999 31.538625 -82.72987499999999 H88.461375 Q92.20175 -82.72987499999999 94.85075 -80.08075 Q97.499875 -77.43175 97.499875 -73.691375 V3.231375000000014 Q97.499875 6.971750000000014 94.85075 9.620750000000015 Q92.20175 12.269875000000013 88.461375 12.269875000000013 H31.538625 Z M31.538625 4.77000000000001 H88.461375 Q89.1345 4.77000000000001 89.56725 4.337250000000012 Q90.0 3.904500000000013 90.0 3.231375000000014 V-73.691375 Q90.0 -74.36449999999999 89.56725 -74.79724999999999 Q89.1345 -75.22999999999999 88.461375 -75.22999999999999 H31.538625 Q30.8655 -75.22999999999999 30.43275 -74.79724999999999 Q30.0 -74.36449999999999 30.0 -73.691375 V3.231375000000014 Q30.0 3.904500000000013 30.43275 4.337250000000012 Q30.8655 4.77000000000001 31.538625 4.77000000000001 Z"/></g><g id="Thin-M" transform="matrix(1 0 0 1 802.565 1126)"><path d="M40.0 -61.38387499999999 Q41.548125 -61.38387499999999 42.697125 -62.53287499999999 Q43.846125 -63.68187499999999 43.846125 -65.22999999999999 Q43.846125 -66.77812499999999 42.697125 -67.92712499999999 Q41.548125 -69.07612499999999 40.0 -69.07612499999999 Q38.451875 -69.07612499999999 37.302875 -67.92712499999999 Q36.153875 -66.77812499999999 36.153875 -65.22999999999999 Q36.153875 -63.68187499999999 37.302875 -62.53287499999999 Q38.451875 -61.38387499999999 40.0 -61.38387499999999 Z M55.0 -61.38387499999999 Q56.548125 -61.38387499999999 57.697125 -62.53287499999999 Q58.846125 -63.68187499999999 58.846125 -65.22999999999999 Q58.846125 -66.77812499999999 57.697125 -67.92712499999999 Q56.548125 -69.07612499999999 55.0 -69.07612499999999 Q53.451875 -69.07612499999999 52.302875 -67.92712499999999 Q51.153875 -66.77812499999999 51.153875 -65.22999999999999 Q51.153875 -63.68187499999999 52.302875 -62.53287499999999 Q53.451875 -61.38387499999999 55.0 -61.38387499999999 Z M60.0 -7.72999999999999 Q66.817375 -7.72999999999999 71.658625 -12.383874999999989 Q76.5 -17.03762499999999 76.5 -23.72999999999999 Q76.5 -26.87424999999999 75.442375 -29.83099999999999 Q74.384625 -32.78774999999999 72.173125 -34.99924999999999 L60.0 -47.17237499999999 L48.23075 -35.40312499999999 Q45.865375 -33.03774999999999 44.620125 -30.01849999999999 Q43.375 -26.99924999999999 43.5 -23.72999999999999 Q43.75 -17.03762499999999 48.528875 -12.383874999999989 Q53.307625 -7.72999999999999 60.0 -7.72999999999999 Z M60.0 -12.32612499999999 Q55.192375 -12.32612499999999 51.846125 -15.62424999999999 Q48.5 -18.922374999999988 48.5 -23.72999999999999 Q48.5 -25.98962499999999 49.235625 -28.01362499999999 Q49.971125 -30.03762499999999 51.634625 -31.70112499999999 L60.0 -40.06649999999999 L68.721125 -31.34537499999999 Q70.19225 -29.87424999999999 70.846125 -27.83574999999999 Q71.5 -25.79724999999999 71.5 -23.72999999999999 Q71.5 -18.922374999999988 68.153875 -15.62424999999999 Q64.807625 -12.32612499999999 60.0 -12.32612499999999 Z M33.076875 9.77000000000001 Q29.721125 9.77000000000001 27.3605 7.409500000000008 Q25.0 5.0488750000000095 25.0 1.693125000000009 V-72.15312499999999 Q25.0 -75.50887499999999 27.3605 -77.86949999999999 Q29.721125 -80.22999999999999 33.076875 -80.22999999999999 H86.923125 Q90.278875 -80.22999999999999 92.6395 -77.86949999999999 Q95.0 -75.50887499999999 95.0 -72.15312499999999 V1.693125000000009 Q95.0 5.0488750000000095 92.6395 7.409500000000008 Q90.278875 9.77000000000001 86.923125 9.77000000000001 H33.076875 Z M33.076875 4.77000000000001 H86.923125 Q88.26925 4.77000000000001 89.134625 3.90462500000001 Q90.0 3.0392500000000098 90.0 1.693125000000009 V-72.15312499999999 Q90.0 -73.49924999999999 89.134625 -74.36462499999999 Q88.26925 -75.22999999999999 86.923125 -75.22999999999999 H33.076875 Q31.73075 -75.22999999999999 30.865375 -74.36462499999999 Q30.0 -73.49924999999999 30.0 -72.15312499999999 V1.693125000000009 Q30.0 3.0392500000000098 30.865375 3.90462500000001 Q31.73075 4.77000000000001 33.076875 4.77000000000001 Z"/></g><g id="Ultralight-M" transform="matrix(1 0 0 1 506.415 1126)"><path d="M40.0 -61.72999999999999 Q41.375 -61.72999999999999 42.4375 -62.79249999999999 Q43.5 -63.85499999999999 43.5 -65.22999999999999 Q43.5 -66.60499999999999 42.4375 -67.66749999999999 Q41.375 -68.72999999999999 40.0 -68.72999999999999 Q38.625 -68.72999999999999 37.5625 -67.66749999999999 Q36.5 -66.60499999999999 36.5 -65.22999999999999 Q36.5 -63.85499999999999 37.5625 -62.79249999999999 Q38.625 -61.72999999999999 40.0 -61.72999999999999 Z M55.0 -61.72999999999999 Q56.375 -61.72999999999999 57.4375 -62.79249999999999 Q58.5 -63.85499999999999 58.5 -65.22999999999999 Q58.5 -66.60499999999999 57.4375 -67.66749999999999 Q56.375 -68.72999999999999 55.0 -68.72999999999999 Q53.625 -68.72999999999999 52.5625 -67.66749999999999 Q51.5 -66.60499999999999 51.5 -65.22999999999999 Q51.5 -63.85499999999999 52.5625 -62.79249999999999 Q53.625 -61.72999999999999 55.0 -61.72999999999999 Z M60.0 -8.47999999999999 Q66.5 -8.47999999999999 71.125 -12.91749999999999 Q75.75 -17.35499999999999 75.75 -23.72999999999999 Q75.75 -26.72999999999999 74.75 -29.54249999999999 Q73.75 -32.35499999999999 71.625 -34.47999999999999 L60.0 -46.10499999999999 L48.75 -34.85499999999999 Q46.5 -32.60499999999999 45.3125 -29.72999999999999 Q44.125 -26.85499999999999 44.25 -23.72999999999999 Q44.5 -17.35499999999999 49.0625 -12.91749999999999 Q53.625 -8.47999999999999 60.0 -8.47999999999999 Z M60.0 -11.60499999999999 Q54.875 -11.60499999999999 51.3125 -15.10499999999999 Q47.75 -18.60499999999999 47.75 -23.72999999999999 Q47.75 -26.10499999999999 48.5 -28.22999999999999 Q49.25 -30.35499999999999 51.0 -32.10499999999999 L60.0 -41.10499999999999 L69.5 -31.60499999999999 Q71.0 -30.10499999999999 71.625 -27.97999999999999 Q72.25 -25.85499999999999 72.25 -23.72999999999999 Q72.25 -18.60499999999999 68.6875 -15.10499999999999 Q65.125 -11.60499999999999 60.0 -11.60499999999999 Z M34.0 8.27000000000001 Q30.875 8.27000000000001 28.6875 6.08250000000001 Q26.5 3.8950000000000102 26.5 0.7700000000000102 V-71.22999999999999 Q26.5 -74.35499999999999 28.6875 -76.54249999999999 Q30.875 -78.72999999999999 34.0 -78.72999999999999 H86.0 Q89.125 -78.72999999999999 91.3125 -76.54249999999999 Q93.5 -74.35499999999999 93.5 -71.22999999999999 V0.7700000000000102 Q93.5 3.8950000000000102 91.3125 6.08250000000001 Q89.125 8.27000000000001 86.0 8.27000000000001 H34.0 Z M34.0 4.77000000000001 H86.0 Q87.75 4.77000000000001 88.875 3.6450000000000102 Q90.0 2.5200000000000102 90.0 0.7700000000000102 V-71.22999999999999 Q90.0 -72.97999999999999 88.875 -74.10499999999999 Q87.75 -75.22999999999999 86.0 -75.22999999999999 H34.0 Q32.25 -75.22999999999999 31.125 -74.10499999999999 Q30.0 -72.97999999999999 30.0 -71.22999999999999 V0.7700000000000102 Q30.0 2.5200000000000102 31.125 3.6450000000000102 Q32.25 4.77000000000001 34.0 4.77000000000001 Z"/></g><g id="Bold-S" transform="matrix(1 0 0 1 2294.23 696)"><path d="M35.780065125 -50.714124999999996 Q37.872 -50.714124999999996 39.400687500000004 -52.15424724999999 Q40.929375 -53.5943695 40.929375 -55.723190124999995 Q40.929375 -57.852109375 39.421497375 -59.3130415 Q37.913521125 -60.773875 35.821684875 -60.773875 Q33.72975 -60.773875 32.250375 -59.333752749999995 Q30.771 -57.89363049999999 30.771 -55.764809875 Q30.771 -53.635890624999995 32.21112225 -52.174958499999995 Q33.651244500000004 -50.714124999999996 35.780065125 -50.714124999999996 Z M49.193065125000004 -50.714124999999996 Q51.285000000000004 -50.714124999999996 52.764375 -52.15424724999999 Q54.243750000000006 -53.5943695 54.243750000000006 -55.723190124999995 Q54.243750000000006 -57.852109375 52.803627750000004 -59.3130415 Q51.36350550000001 -60.773875 49.234684875000006 -60.773875 Q47.14275 -60.773875 45.6140625 -59.333752749999995 Q44.085375 -57.89363049999999 44.085375 -55.764809875 Q44.085375 -53.635890624999995 45.593252625 -52.174958499999995 Q47.101228875000004 -50.714124999999996 49.193065125000004 -50.714124999999996 Z M47.293449 -9.784749999999988 Q53.485915500000004 -9.784749999999988 57.809832750000005 -13.915658124999993 Q62.133750000000006 -18.046566249999998 62.133750000000006 -24.192678999999984 Q62.133750000000006 -27.142749999999992 61.048875 -29.756312499999993 Q59.964000000000006 -32.36987499999999 57.794250000000005 -34.539624999999994 L47.34 -44.402125 L37.032306750000004 -34.478378875 Q34.93258050000001 -32.456862249999986 33.838040250000006 -29.799806124999996 Q32.743500000000004 -27.142749999999992 32.677717125 -24.216151749999995 Q32.54625 -18.167874999999995 36.850245 -13.976312499999992 Q41.15424 -9.784749999999988 47.293449 -9.784749999999988 Z M47.35163775 -19.844499999999996 Q45.424998375 -19.844499999999996 44.064861 -21.0567985 Q42.704625 -22.268998374999995 42.704625 -24.151157874999996 Q42.704625 -25.062354249999984 43.0498125 -25.744346124999993 Q43.395 -26.426337999999987 43.98675 -27.044124999999994 L47.290194375000006 -30.29874999999999 L50.496 -26.945499999999996 Q51.190615875000006 -26.323373499999988 51.583044750000006 -25.697499249999993 Q51.975375 -25.071624999999997 51.975375 -24.151157874999996 Q51.975375 -22.310125 50.626776750000005 -21.07731249999999 Q49.2781785 -19.844499999999996 47.35163775 -19.844499999999996 Z M27.192589125 5.995250000000013 Q22.289250000000003 5.995250000000013 18.936 2.6272062500000146 Q15.58275 -0.7408374999999836 15.58275 -5.642499999999998 V-64.8175 Q15.58275 -69.7191625 18.951977250000002 -73.08720625 Q22.321204500000004 -76.45524999999999 27.224445000000003 -76.45524999999999 H67.48741087500001 Q72.39075 -76.45524999999999 75.744 -73.08720625 Q79.09725 -69.7191625 79.09725 -64.8175 V-5.642499999999998 Q79.09725 -0.7408374999999836 75.72802275 2.6272062500000146 Q72.35879550000001 5.995250000000013 67.455555 5.995250000000013 H27.192589125 Z M27.2205 -5.642499999999998 H67.4595 Q67.4595 -5.642499999999998 67.4595 -5.642499999999998 Q67.4595 -5.642499999999998 67.4595 -5.642499999999998 V-64.8175 Q67.4595 -64.8175 67.4595 -64.8175 Q67.4595 -64.8175 67.4595 -64.8175 H27.2205 Q27.2205 -64.8175 27.2205 -64.8175 Q27.2205 -64.8175 27.2205 -64.8175 V-5.642499999999998 Q27.2205 -5.642499999999998 27.2205 -5.642499999999998 Q27.2205 -5.642499999999998 27.2205 -5.642499999999998 Z"/></g><g id="Semibold-S" transform="matrix(1 0 0 1 1998.1 696)"><path d="M35.136931499999996 -52.214802999999996 Q36.971553750000005 -52.214802999999996 38.2858305 -53.47000337499999 Q39.60020587500001 -54.72530237499999 39.60020587500001 -56.580833125 Q39.60020587500001 -58.43636387499999 38.306640375 -59.7122755 Q37.013074875 -60.98828574999999 35.178452625000006 -60.98828574999999 Q33.343830375 -60.98828574999999 32.0574645 -59.733085374999995 Q30.771 -58.477885 30.771 -56.622354249999994 Q30.771 -54.766823499999994 32.026200375 -53.490813249999995 Q33.28140075 -52.214802999999996 35.136931499999996 -52.214802999999996 Z M47.863896000000004 -52.214802999999996 Q49.69851825 -52.214802999999996 50.98498275 -53.47000337499999 Q52.271348625 -54.72530237499999 52.271348625 -56.580833125 Q52.271348625 -58.43636387499999 51.01614825 -59.7122755 Q49.76094787500001 -60.98828574999999 47.905417125 -60.98828574999999 Q46.070794875 -60.98828574999999 44.756518125 -59.733085374999995 Q43.442241375 -58.477885 43.442241375 -56.622354249999994 Q43.442241375 -54.766823499999994 44.73570825 -53.490813249999995 Q46.02927375 -52.214802999999996 47.863896000000004 -52.214802999999996 Z M47.293449 -10.556589250000002 Q53.34369825 -10.556589250000002 57.567215250000004 -14.623193874999984 Q61.790732250000005 -18.689798499999995 61.790732250000005 -24.660556 Q61.790732250000005 -27.528669624999992 60.727258875000004 -30.099330249999987 Q59.663884125 -32.669990874999996 57.579839250000006 -34.75403574999999 L47.34 -44.53073199999999 L37.246027125000005 -34.71379674999999 Q35.189893125000005 -32.71407625 34.1167545 -30.121422249999995 Q33.043615875 -27.528669624999992 33.00643425 -24.67199649999999 Q32.932169625 -18.768205374999994 37.122943125 -14.662347999999994 Q41.313716625 -10.556589250000002 47.293449 -10.556589250000002 Z M47.35163775 -19.329973374999994 Q45.014126624999996 -19.329973374999994 43.366300125 -20.82986237499999 Q41.718473625 -22.329751374999987 41.718473625 -24.622782624999985 Q41.718473625 -25.752433374999995 42.14936625 -26.630984874999996 Q42.580357500000005 -27.509536374999996 43.343616375 -28.28758899999999 L47.333096250000004 -32.22824949999999 L51.224937374999996 -28.231865874999997 Q52.04825887500001 -27.481132375 52.504892625000004 -26.61934712499999 Q52.961526375000005 -25.7576605 52.961526375000005 -24.622782624999985 Q52.961526375000005 -22.353026874999983 51.325337625 -20.841500124999996 Q49.68905025 -19.329973374999994 47.35163775 -19.329973374999994 Z M26.678062500000003 4.537375249999997 Q22.63226775 4.537375249999997 19.83644625 1.726760000000013 Q17.040624750000003 -1.0838552499999992 17.040624750000003 -5.127973374999996 V-65.332026625 Q17.040624750000003 -69.37614475 19.8524235 -72.18675999999999 Q22.66422225 -74.99737524999999 26.709918375 -74.99737524999999 H68.0019375 Q72.04773225000001 -74.99737524999999 74.84355375 -72.18675999999999 Q77.63937525 -69.37614475 77.63937525 -65.332026625 V-5.127973374999996 Q77.63937525 -1.0838552499999992 74.8275765 1.726760000000013 Q72.01577775 4.537375249999997 67.970081625 4.537375249999997 H26.678062500000003 Z M26.705973375000003 -5.127973374999996 H67.97402662500001 Q67.97402662500001 -5.127973374999996 67.97402662500001 -5.127973374999996 Q67.97402662500001 -5.127973374999996 67.97402662500001 -5.127973374999996 V-65.332026625 Q67.97402662500001 -65.332026625 67.97402662500001 -65.332026625 Q67.97402662500001 -65.332026625 67.97402662500001 -65.332026625 H26.705973375000003 Q26.705973375000003 -65.332026625 26.705973375000003 -65.332026625 Q26.705973375000003 -65.332026625 26.705973375000003 -65.332026625 V-5.127973374999996 Q26.705973375000003 -5.127973374999996 26.705973375000003 -5.127973374999996 Q26.705973375000003 -5.127973374999996 26.705973375000003 -5.127973374999996 Z"/></g><g id="Medium-S" transform="matrix(1 0 0 1 1701.85 696)"><path d="M34.654556625000005 -53.34050875 Q36.296169750000004 -53.34050875 37.44968775 -54.457042375 Q38.603107125 -55.573575999999996 38.603107125 -57.224065374999995 Q38.603107125 -58.874554749999994 37.470399 -60.011799624999995 Q36.337690875 -61.14904449999999 34.69607775 -61.14904449999999 Q33.054366 -61.14904449999999 31.912683000000005 -60.03260949999999 Q30.771 -58.916075875 30.771 -57.2655865 Q30.771 -55.61509712499999 31.887533625000003 -54.477753625 Q33.003968625000006 -53.34050875 34.654556625000005 -53.34050875 Z M46.866895875 -53.34050875 Q48.508509000000004 -53.34050875 49.650192 -54.457042375 Q50.791875000000005 -55.573575999999996 50.791875000000005 -57.224065374999995 Q50.791875000000005 -58.874554749999994 49.67544 -60.011799624999995 Q48.558906375 -61.14904449999999 46.90841700000001 -61.14904449999999 Q45.26670525 -61.14904449999999 44.113285875 -60.03260949999999 Q42.959767875000004 -58.916075875 42.959767875000004 -57.2655865 Q42.959767875000004 -55.61509712499999 44.092476000000005 -54.477753625 Q45.225184125000006 -53.34050875 46.866895875 -53.34050875 Z M47.293449 -11.13551799999999 Q53.237084625 -11.13551799999999 57.385252125 -15.153796374999985 Q61.533419625 -19.172173375 61.533419625 -25.011562374999997 Q61.533419625 -27.818133999999986 60.48612075 -30.35664287499999 Q59.43872325 -32.89515175 57.41908050000001 -34.91479449999999 L47.34 -44.627285875 L37.406391375 -34.89053274999999 Q35.382803625 -32.907085374999994 34.3258395 -30.362560375 Q33.26877675 -27.818133999999986 33.253095375 -25.013830749999997 Q33.221634 -19.2184285 37.327491375 -15.176973249999989 Q41.43334875 -11.13551799999999 47.293449 -11.13551799999999 Z M47.35163775 -18.944053749999995 Q44.7059235 -18.944053749999995 42.8423055 -20.659635624999993 Q40.9786875 -22.375316124999983 40.9786875 -24.976550499999988 Q40.9786875 -26.270017374999995 41.47398225 -27.296111874999994 Q41.969277 -28.322107749999994 42.861142875 -29.220285625000002 L47.365248 -33.675571375 L51.771714374999995 -29.19671425 Q52.691491125 -28.34952549999999 53.1963525 -27.310905625000004 Q53.7013125 -26.272285749999995 53.7013125 -24.976550499999988 Q53.7013125 -22.385178624999995 51.84933225 -20.664566875000006 Q49.99735200000001 -18.944053749999995 47.35163775 -18.944053749999995 Z M26.292044250000004 3.443919875000006 Q22.889580375 3.443919875000006 20.511830250000003 1.0513760000000048 Q18.134080125 -1.3411678749999822 18.134080125 -4.742053749999997 V-65.71794625 Q18.134080125 -69.118832125 20.527807499999998 -71.511376 Q22.921534875000003 -73.903919875 26.323998750000005 -73.903919875 H68.38795575 Q71.790419625 -73.903919875 74.16816975 -71.511376 Q76.545919875 -69.118832125 76.545919875 -65.71794625 V-4.742053749999997 Q76.545919875 -1.3411678749999822 74.1521925 1.0513760000000048 Q71.75846512500001 3.443919875000006 68.35600125 3.443919875000006 H26.292044250000004 Z M26.320053750000003 -4.742053749999997 H68.35994625000001 Q68.35994625000001 -4.742053749999997 68.35994625000001 -4.742053749999997 Q68.35994625000001 -4.742053749999997 68.35994625000001 -4.742053749999997 V-65.71794625 Q68.35994625000001 -65.71794625 68.35994625000001 -65.71794625 Q68.35994625000001 -65.71794625 68.35994625000001 -65.71794625 H26.320053750000003 Q26.320053750000003 -65.71794625 26.320053750000003 -65.71794625 Q26.320053750000003 -65.71794625 26.320053750000003 -65.71794625 V-4.742053749999997 Q26.320053750000003 -4.742053749999997 26.320053750000003 -4.742053749999997 Q26.320053750000003 -4.742053749999997 26.320053750000003 -4.742053749999997 Z"/></g><g id="Regular-S" transform="matrix(1 0 0 1 1405.73 696)"><path d="M34.300690125 -54.166 Q35.800875000000005 -54.166 36.8364375 -55.180752625 Q37.872 -56.195603874999996 37.872 -57.69569012499999 Q37.872 -59.195874999999994 36.857247375 -60.2314375 Q35.842396125 -61.266999999999996 34.342309875000005 -61.266999999999996 Q32.842125 -61.266999999999996 31.806562500000002 -60.252247374999996 Q30.771 -59.237396125 30.771 -57.737309874999994 Q30.771 -56.23712499999999 31.785752625 -55.201562499999994 Q32.800603875 -54.166 34.300690125 -54.166 Z M46.135690125 -54.166 Q47.635875 -54.166 48.6714375 -55.180752625 Q49.707 -56.195603874999996 49.707 -57.69569012499999 Q49.707 -59.195874999999994 48.692247375 -60.2314375 Q47.677396125 -61.266999999999996 46.177309875000006 -61.266999999999996 Q44.677125000000004 -61.266999999999996 43.6415625 -60.252247374999996 Q42.606 -59.237396125 42.606 -57.737309874999994 Q42.606 -56.23712499999999 43.620752625 -55.201562499999994 Q44.635603875 -54.166 46.135690125 -54.166 Z M47.293449 -11.559999999999988 Q53.158875 -11.559999999999988 57.2518125 -15.542970624999995 Q61.344750000000005 -19.52594124999999 61.344750000000005 -25.268874999999994 Q61.344750000000005 -28.030374999999992 60.3091875 -30.545312499999994 Q59.273625 -33.060249999999996 57.301125 -35.03274999999999 L47.34 -44.69799999999999 L37.523952375 -35.02002737499999 Q35.524330500000005 -33.04861224999999 34.47910275 -30.539493625 Q33.433875 -28.030374999999992 33.433875 -25.264634124999986 Q33.433875 -19.548624999999987 37.4775 -15.554312499999995 Q41.521125000000005 -11.559999999999988 47.293449 -11.559999999999988 Z M47.35163775 -18.660999999999987 Q44.479875 -18.660999999999987 42.458062500000004 -20.534875 Q40.43625 -22.408749999999998 40.43625 -25.236032874999992 Q40.43625 -26.649625 40.9786875 -27.783812499999996 Q41.521125000000005 -28.917999999999992 42.507375 -29.90424999999999 L47.388819375000004 -34.736875 L52.172625000000004 -29.90424999999999 Q53.163115875 -28.986248499999995 53.70348225000001 -27.81793675 Q54.243750000000006 -26.649625 54.243750000000006 -25.236032874999992 Q54.243750000000006 -22.408749999999998 52.23357525000001 -20.534875 Q50.223301875000004 -18.660999999999987 47.35163775 -18.660999999999987 Z M26.009089125 2.64200000000001 Q23.07825 2.64200000000001 21.007125000000002 0.5560812500000054 Q18.936 -1.529837499999985 18.936 -4.458999999999989 V-66.00099999999999 Q18.936 -68.9301625 21.02310225 -71.01608125 Q23.110204500000002 -73.102 26.040945000000004 -73.102 H68.670910875 Q71.60175000000001 -73.102 73.672875 -71.01608125 Q75.744 -68.9301625 75.744 -66.00099999999999 V-4.458999999999989 Q75.744 -1.529837499999985 73.65689775 0.5560812500000054 Q71.56979550000001 2.64200000000001 68.63905500000001 2.64200000000001 H26.009089125 Z M26.037000000000003 -4.458999999999989 H68.643 Q68.643 -4.458999999999989 68.643 -4.458999999999989 Q68.643 -4.458999999999989 68.643 -4.458999999999989 V-66.00099999999999 Q68.643 -66.00099999999999 68.643 -66.00099999999999 Q68.643 -66.00099999999999 68.643 -66.00099999999999 H26.037000000000003 Q26.037000000000003 -66.00099999999999 26.037000000000003 -66.00099999999999 Q26.037000000000003 -66.00099999999999 26.037000000000003 -66.00099999999999 V-4.458999999999989 Q26.037000000000003 -4.458999999999989 26.037000000000003 -4.458999999999989 Q26.037000000000003 -4.458999999999989 26.037000000000003 -4.458999999999989 Z"/></g><g id="Light-S" transform="matrix(1 0 0 1 1109.75 696)"><path d="M34.300690125 -54.621252999999996 Q35.573248500000005 -54.621252999999996 36.49499775 -55.522192374999996 Q37.416747 -56.423230374999996 37.416747 -57.69569012499999 Q37.416747 -58.968248499999994 36.515807625 -59.88999775 Q35.614769625 -60.811747 34.342309875000005 -60.811747 Q33.0697515 -60.811747 32.14800225 -59.910807625 Q31.226253 -59.009769625 31.226253 -57.737309874999994 Q31.226253 -56.46475149999999 32.127192375 -55.543002249999994 Q33.028230375 -54.621252999999996 34.300690125 -54.621252999999996 Z M46.135690125 -54.621252999999996 Q47.408248500000006 -54.621252999999996 48.329997750000004 -55.522192374999996 Q49.251747 -56.423230374999996 49.251747 -57.69569012499999 Q49.251747 -58.968248499999994 48.350807625 -59.88999775 Q47.449769625 -60.811747 46.177309875000006 -60.811747 Q44.9047515 -60.811747 43.98300225 -59.910807625 Q43.061253 -59.009769625 43.061253 -57.737309874999994 Q43.061253 -56.46475149999999 43.962192375 -55.543002249999994 Q44.863230375 -54.621252999999996 46.135690125 -54.621252999999996 Z M47.293449 -12.546348624999993 Q52.741592625 -12.546348624999993 56.549997000000005 -16.24478612499999 Q60.35840137500001 -19.943223624999987 60.35840137500001 -25.268874999999994 Q60.35840137500001 -27.840719124999993 59.398780125 -30.166000749999995 Q58.439060250000004 -32.49118375 56.5803735 -34.349870499999994 L47.34 -43.29436899999999 L38.20673325 -34.29927587499999 Q36.35889525 -32.47954599999999 35.389510125 -30.16008325 Q34.420223625 -27.840719124999993 34.420223625 -25.264634124999986 Q34.420223625 -19.965907374999986 38.1793155 -16.25612799999999 Q41.938407375000004 -12.546348624999993 47.293449 -12.546348624999993 Z M47.35163775 -17.712621999999996 Q44.062592625 -17.712621999999996 41.756247 -19.8519955 Q39.449901375 -21.991467625 39.449901375 -25.236032874999992 Q39.449901375 -26.801408874999993 40.011373500000005 -28.068345624999992 Q40.572747 -29.33528237499999 41.672810250000005 -30.435345624999997 L47.388819375000004 -36.102535374999995 L53.196845625 -30.24568974999999 Q54.225307125 -29.289717624999994 54.727702875000006 -28.007592625 Q55.230098625 -26.725467624999993 55.230098625 -25.236032874999992 Q55.230098625 -21.991467625 52.93539075 -19.8519955 Q50.64058425 -17.712621999999996 47.35163775 -17.712621999999996 Z M27.222965625 0.6694013750000067 Q24.59569425 0.6694013750000067 22.75219575 -1.188989499999991 Q20.908598625 -3.0472817499999962 20.908598625 -5.672975124999994 V-64.78702487499999 Q20.908598625 -67.41271825 22.768074375 -69.27101049999999 Q24.627648750000002 -71.129401375 27.254920125 -71.129401375 H67.457034375 Q70.08430575000001 -71.129401375 71.92780425000001 -69.27101049999999 Q73.77140137500001 -67.41271825 73.77140137500001 -64.78702487499999 V-5.672975124999994 Q73.77140137500001 -3.0472817499999962 71.911925625 -1.188989499999991 Q70.05235125 0.6694013750000067 67.425079875 0.6694013750000067 H27.222965625 Z M27.250975125000004 -4.458999999999989 H67.42902487500001 Q67.9601205 -4.458999999999989 68.30156025000001 -4.800439749999995 Q68.643 -5.1418794999999875 68.643 -5.672975124999994 V-64.78702487499999 Q68.643 -65.31812049999999 68.30156025000001 -65.65956025 Q67.9601205 -66.00099999999999 67.42902487500001 -66.00099999999999 H27.250975125000004 Q26.719879499999998 -66.00099999999999 26.378439750000002 -65.65956025 Q26.037000000000003 -65.31812049999999 26.037000000000003 -64.78702487499999 V-5.672975124999994 Q26.037000000000003 -5.1418794999999875 26.378439750000002 -4.800439749999995 Q26.719879499999998 -4.458999999999989 27.250975125000004 -4.458999999999989 Z"/></g><g id="Thin-S" transform="matrix(1 0 0 1 814.015 696)"><path d="M34.300690125 -55.076407374999995 Q35.345720625 -55.076407374999995 36.153656625 -55.863632124999995 Q36.961592625 -56.650758249999996 36.961592625 -57.69569012499999 Q36.961592625 -58.740720624999994 36.174367875 -59.54865662499999 Q35.38724175 -60.356592625 34.342309875000005 -60.356592625 Q33.297279375 -60.356592625 32.489343375000004 -59.56936787499999 Q31.681407375 -58.78224174999999 31.681407375 -57.737309874999994 Q31.681407375 -56.692279375 32.468632125000006 -55.88434337499999 Q33.25575825000001 -55.076407374999995 34.300690125 -55.076407374999995 Z M46.135690125 -55.076407374999995 Q47.180720625 -55.076407374999995 47.988656625000004 -55.863632124999995 Q48.796592625 -56.650758249999996 48.796592625 -57.69569012499999 Q48.796592625 -58.740720624999994 48.009367875 -59.54865662499999 Q47.22224175 -60.356592625 46.177309875000006 -60.356592625 Q45.132279375 -60.356592625 44.324343375000005 -59.56936787499999 Q43.516407375 -58.78224174999999 43.516407375 -57.737309874999994 Q43.516407375 -56.692279375 44.30363212500001 -55.88434337499999 Q45.09075825 -55.076407374999995 46.135690125 -55.076407374999995 Z M47.293449 -13.532499999999999 Q52.324408875 -13.532499999999999 55.848280125 -16.946502999999993 Q59.37225 -20.360505999999987 59.37225 -25.268874999999994 Q59.37225 -27.651063249999993 58.488471375 -29.786688999999996 Q57.604594125000006 -31.92231474999999 55.859720625 -33.667188249999995 L47.34 -41.89103387499999 L38.889514125000005 -33.57862299999999 Q37.193361375 -31.910578374999993 36.29981887500001 -29.780870124999993 Q35.406375000000004 -27.651063249999993 35.406375000000004 -25.264634124999986 Q35.406375000000004 -20.383091124999993 38.881032375000004 -16.957844874999992 Q42.355591125000004 -13.532499999999999 47.293449 -13.532499999999999 Z M47.35163775 -16.764342624999998 Q43.645408875 -16.764342624999998 41.054530125 -19.169313249999988 Q38.463750000000005 -21.574283874999992 38.463750000000005 -25.236032874999992 Q38.463750000000005 -26.953094124999993 39.044158125 -28.352780124999995 Q39.624467625 -29.752466124999998 40.838344125 -30.966342624999996 L47.388819375000004 -37.46799849999999 L54.220967625 -30.587030874999996 Q55.28739975 -29.593186749999994 55.75182487500001 -28.197248499999993 Q56.21625 -26.80131025 56.21625 -25.236032874999992 Q56.21625 -21.574283874999992 53.637009 -19.169313249999988 Q51.057866625 -16.764342624999998 47.35163775 -16.764342624999998 Z M28.436743500000002 -1.3029999999999973 Q26.112842625000003 -1.3029999999999973 24.496872 -2.9336657499999887 Q22.881 -4.564430124999987 22.881 -6.886654374999992 V-63.573345624999995 Q22.881 -65.89556987499999 24.51284925 -67.52633424999999 Q26.144797125000004 -69.157 28.468698000000003 -69.157 H66.2432565 Q68.56715737500001 -69.157 70.183128 -67.52633424999999 Q71.799 -65.89556987499999 71.799 -63.573345624999995 V-6.886654374999992 Q71.799 -4.564430124999987 70.16715075 -2.9336657499999887 Q68.53520287500001 -1.3029999999999973 66.211302 -1.3029999999999973 H28.436743500000002 Z M28.464654375000002 -4.458999999999989 H66.215345625 Q67.27743825 -4.458999999999989 67.96021912500001 -5.141780874999995 Q68.643 -5.824561749999987 68.643 -6.886654374999992 V-63.573345624999995 Q68.643 -64.63543824999999 67.96021912500001 -65.318219125 Q67.27743825 -66.00099999999999 66.215345625 -66.00099999999999 H28.464654375000002 Q27.40256175 -66.00099999999999 26.719780875 -65.318219125 Q26.037000000000003 -64.63543824999999 26.037000000000003 -63.573345624999995 V-6.886654374999992 Q26.037000000000003 -5.824561749999987 26.719780875 -5.141780874999995 Q27.40256175 -4.458999999999989 28.464654375000002 -4.458999999999989 Z"/></g><g id="Ultralight-S" transform="matrix(1 0 0 1 517.792 696)"><path d="M34.300690125 -55.34949999999999 Q35.209125 -55.34949999999999 35.9488125 -56.068377625 Q36.688500000000005 -56.787353874999994 36.688500000000005 -57.69569012499999 Q36.688500000000005 -58.604124999999996 35.969622375 -59.3438125 Q35.250646125 -60.083499999999994 34.342309875000005 -60.083499999999994 Q33.433875 -60.083499999999994 32.6941875 -59.364622374999996 Q31.954500000000003 -58.64564612499999 31.954500000000003 -57.737309874999994 Q31.954500000000003 -56.828875 32.673377625 -56.089187499999994 Q33.392353875000005 -55.34949999999999 34.300690125 -55.34949999999999 Z M46.135690125 -55.34949999999999 Q47.044125 -55.34949999999999 47.7838125 -56.068377625 Q48.523500000000006 -56.787353874999994 48.523500000000006 -57.69569012499999 Q48.523500000000006 -58.604124999999996 47.804622375 -59.3438125 Q47.085646125000004 -60.083499999999994 46.177309875000006 -60.083499999999994 Q45.268875 -60.083499999999994 44.5291875 -59.364622374999996 Q43.789500000000004 -58.64564612499999 43.789500000000004 -57.737309874999994 Q43.789500000000004 -56.828875 44.508377625 -56.089187499999994 Q45.227353875000006 -55.34949999999999 46.135690125 -55.34949999999999 Z M47.293449 -14.12424999999999 Q52.074000000000005 -14.12424999999999 55.42725 -17.367533124999994 Q58.7805 -20.610816249999985 58.7805 -25.268874999999994 Q58.7805 -27.53725 57.9421875 -29.559062499999996 Q57.103875 -31.580874999999992 55.42725 -33.25749999999999 L47.34 -41.048874999999995 L39.299202375 -33.14615237499999 Q37.694080500000005 -31.569237249999986 36.84610275 -29.553243625 Q35.998125 -27.53725 35.998125 -25.264634124999986 Q35.998125 -20.633499999999998 39.302062500000005 -17.378874999999994 Q42.606 -14.12424999999999 47.293449 -14.12424999999999 Z M47.35163775 -16.195375 Q43.395 -16.195375 40.633500000000005 -18.759625 Q37.872 -21.323874999999987 37.872 -25.236032874999992 Q37.872 -27.044124999999994 38.463750000000005 -28.52349999999999 Q39.0555 -30.002874999999996 40.337625 -31.284999999999997 L47.388819375000004 -38.287375 L54.8355 -30.791874999999997 Q55.924615875 -29.775248499999996 56.36635725000001 -28.311061749999993 Q56.808 -26.846874999999997 56.808 -25.236032874999992 Q56.808 -21.323874999999987 54.05813775000001 -18.759625 Q51.308176875 -16.195375 47.35163775 -16.195375 Z M29.165089125 -2.4864999999999924 Q27.02325 -2.4864999999999924 25.543875 -3.9806687499999924 Q24.064500000000002 -5.4748374999999925 24.064500000000002 -7.614999999999995 V-62.845 Q24.064500000000002 -64.9851625 25.55985225 -66.47933125 Q27.055204500000002 -67.9735 29.196945000000003 -67.9735 H65.514910875 Q67.65675 -67.9735 69.136125 -66.47933125 Q70.6155 -64.9851625 70.6155 -62.845 V-7.614999999999995 Q70.6155 -5.4748374999999925 69.12014775 -3.9806687499999924 Q67.6247955 -2.4864999999999924 65.48305500000001 -2.4864999999999924 H29.165089125 Z M29.193 -4.458999999999989 H65.48700000000001 Q66.86775 -4.458999999999989 67.755375 -5.346624999999989 Q68.643 -6.234249999999989 68.643 -7.614999999999995 V-62.845 Q68.643 -64.22574999999999 67.755375 -65.11337499999999 Q66.86775 -66.00099999999999 65.48700000000001 -66.00099999999999 H29.193 Q27.812250000000002 -66.00099999999999 26.924625000000002 -65.11337499999999 Q26.037000000000003 -64.22574999999999 26.037000000000003 -62.845 V-7.614999999999995 Q26.037000000000003 -6.234249999999989 26.924625000000002 -5.346624999999989 Q27.812250000000002 -4.458999999999989 29.193 -4.458999999999989 Z"/></g></g></svg>