<svg width="21" height="21" viewBox="0 0 21 21" fill="none" xmlns="http://www.w3.org/2000/svg">
<path d="M20.125 3.78H16.625V1.68C16.625 0.753375 15.8402 0 14.875 0H6.125C5.15977 0 4.375 0.753375 4.375 1.68V3.78H0.875C0.391016 3.78 0 4.15538 0 4.62V5.46C0 5.5755 0.0984375 5.67 0.21875 5.67H1.87031L2.5457 19.3988C2.58945 20.2939 3.36055 21 4.29297 21H16.707C17.6422 21 18.4105 20.2965 18.4543 19.3988L19.1297 5.67H20.7812C20.9016 5.67 21 5.5755 21 5.46V4.62C21 4.15538 20.609 3.78 20.125 3.78ZM14.6562 3.78H6.34375V1.89H14.6562V3.78Z" fill="#8091CE"/>
</svg>
