<svg width="19" height="23" viewBox="0 0 19 23" fill="none" xmlns="http://www.w3.org/2000/svg">
<path d="M9.49507 0.859619C7.51013 0.859619 5.6065 1.64813 4.20293 3.05169C2.79937 4.45526 2.01086 6.35889 2.01086 8.34383V14.1815L0.354355 16.6763C0.155805 16.9824 0.0431849 17.3363 0.0282802 17.7008C0.0133755 18.0654 0.096734 18.4273 0.269633 18.7486C0.442531 19.0699 0.698614 19.3389 1.01108 19.5273C1.32355 19.7157 1.68092 19.8167 2.04579 19.8196H16.9444C17.3116 19.8184 17.6716 19.7179 17.9864 19.5287C18.3011 19.3395 18.5588 19.0687 18.7322 18.745C18.9056 18.4213 18.9881 18.0567 18.9712 17.6899C18.9542 17.323 18.8383 16.9676 18.6358 16.6613L16.9793 14.1815V8.34383C16.9793 6.35889 16.1908 4.45526 14.7872 3.05169C13.3836 1.64813 11.48 0.859619 9.49507 0.859619Z" fill="black"/>
<path d="M9.49507 22.8133C10.1136 22.8126 10.7167 22.6203 11.2215 22.263C11.7262 21.9056 12.108 21.4006 12.3141 20.8175H6.67602C6.88218 21.4006 7.2639 21.9056 7.76869 22.263C8.27348 22.6203 8.87658 22.8126 9.49507 22.8133Z" fill="black"/>
</svg>
