<svg width="59" height="58" viewBox="0 0 59 58" fill="none" xmlns="http://www.w3.org/2000/svg">
<rect width="59" height="58" rx="11" fill="url(#paint0_linear_1318_1018)"/>
<path d="M35.6 21L38 23.4L24.4 37L22 34.6L35.6 21ZM14 13H46C48.22 13 50 14.78 50 17V25C47.8 25 46 26.8 46 29C46 31.22 47.8 33 50 33V41C50 43.22 48.22 45 46 45H14C11.8 45 10 43.22 10 41V33C12.22 33 14 31.22 14 29C14 26.8 12.22 25 10 25V17C10 14.78 11.8 13 14 13ZM14 17V22.08C16.48 23.52 18 26.14 18 29C18 31.86 16.48 34.5 14 35.92V41H46V35.92C43.52 34.5 42 31.86 42 29C42 26.14 43.52 23.52 46 22.08V17H14ZM25 21C26.66 21 28 22.34 28 24C28 25.66 26.66 27 25 27C23.34 27 22 25.66 22 24C22 22.34 23.34 21 25 21ZM35 31C36.66 31 38 32.34 38 34C38 35.66 36.66 37 35 37C33.34 37 32 35.66 32 34C32 32.34 33.34 31 35 31Z" fill="white"/>
<defs>
<linearGradient id="paint0_linear_1318_1018" x1="29.5" y1="1.84662e-08" x2="29" y2="58" gradientUnits="userSpaceOnUse">
<stop stop-color="#6C84DD"/>
<stop offset="1" stop-color="#0329B7"/>
<stop offset="1" stop-color="#89A2FF"/>
</linearGradient>
</defs>
</svg>
