<svg width="21" height="22" viewBox="0 0 21 22" fill="none" xmlns="http://www.w3.org/2000/svg">
<path d="M0.578093 5.48317C0.982815 4.52324 1.58717 3.6604 2.35099 2.95199C3.11482 2.24358 4.02065 1.70581 5.0083 1.37439C5.99595 1.04298 7.04281 0.925519 8.07935 1.02981C9.11588 1.13409 10.1184 1.45774 11.0202 1.97926C11.922 2.50077 12.7026 3.20821 13.31 4.05459C13.9174 4.90096 14.3377 5.86689 14.5431 6.88821C14.7485 7.90954 14.7342 8.96287 14.5012 9.97825C14.2682 10.9936 13.8218 11.9478 13.1917 12.7774L19.7073 19.293C19.8007 19.3857 19.8748 19.496 19.9255 19.6174C19.9762 19.7388 20.0024 19.8691 20.0027 20.0007C20.0029 20.1323 19.9772 20.2626 19.927 20.3842C19.8767 20.5058 19.803 20.6164 19.71 20.7094C19.6169 20.8025 19.5064 20.8763 19.3848 20.9265C19.2632 20.9768 19.1329 21.0026 19.0013 21.0024C18.8697 21.0022 18.7395 20.976 18.618 20.9254C18.4966 20.8747 18.3863 20.8006 18.2936 20.7072L11.7779 14.1916C10.4891 15.1674 8.9143 15.6907 7.29777 15.6803C5.68124 15.6699 4.11331 15.1264 2.83713 14.1341C1.56096 13.1418 0.647844 11.7561 0.239401 10.192C-0.169041 8.62791 -0.0499897 6.97273 0.578093 5.48317ZM7.34122 13.6825C8.39811 13.6825 9.43127 13.3691 10.31 12.782C11.1888 12.1948 11.8737 11.3602 12.2782 10.3838C12.6827 9.40732 12.7885 8.33287 12.5823 7.29629C12.3761 6.2597 11.8672 5.30753 11.1198 4.5602C10.3725 3.81286 9.42032 3.30392 8.38373 3.09773C7.34714 2.89154 6.27269 2.99736 5.29625 3.40182C4.31981 3.80627 3.48523 4.4912 2.89805 5.36997C2.31087 6.24875 1.99747 7.28191 1.99747 8.3388C1.99834 9.75578 2.56162 11.1145 3.56358 12.1164C4.56553 13.1184 5.92423 13.6817 7.34122 13.6825Z" fill="#354B9C"/>
</svg>
