<svg width="59" height="58" viewBox="0 0 59 58" fill="none" xmlns="http://www.w3.org/2000/svg">
<rect width="59" height="58" rx="11" fill="url(#paint0_linear_179_115)"/>
<path d="M41.4002 32.1949C42.3549 32.1949 43.2705 32.5742 43.9456 33.2495C44.6207 33.9247 45 34.8405 45 35.7954V37.2436C45 38.1084 44.8131 38.9629 44.4522 39.7487C44.0913 40.5345 43.5648 41.233 42.9089 41.7963C40.4035 43.9486 36.8196 45 32.1959 45H31.9095C32.1505 44.514 32.2454 43.9686 32.1826 43.4297C32.1199 42.8909 31.9022 42.3819 31.5559 41.9643L31.3783 41.7707L27.8105 38.2118C28.8664 36.3954 29.2354 34.2604 28.8505 32.1949H41.4002ZM20.1966 26.594C21.5643 26.5941 22.9036 26.9838 24.058 27.7176C25.2123 28.4513 26.1337 29.4987 26.7145 30.7373C27.2953 31.9758 27.5114 33.3541 27.3374 34.711C27.1634 36.0679 26.6067 37.3471 25.7323 38.399L30.2488 42.9021C30.4621 43.1163 30.5867 43.403 30.5977 43.7051C30.6088 44.0071 30.5055 44.3023 30.3084 44.5314C30.1114 44.7606 29.8352 44.907 29.535 44.9414C29.2347 44.9758 28.9326 44.8955 28.6889 44.7168L28.5529 44.6015L23.9084 39.9672C22.9574 40.5389 21.8871 40.883 20.7812 40.9727C19.6753 41.0623 18.5636 40.8951 17.533 40.4841C16.5024 40.073 15.5807 39.4293 14.8399 38.6031C14.099 37.7769 13.5592 36.7907 13.2624 35.7214C12.9656 34.652 12.9199 33.5286 13.1289 32.4387C13.3379 31.3488 13.7959 30.3219 14.4672 29.4383C15.1385 28.5547 16.0049 27.8382 16.9987 27.3449C17.9926 26.8515 19.087 26.5945 20.1966 26.594ZM20.1966 28.9944C18.9236 28.9944 17.7028 29.5002 16.8026 30.4005C15.9025 31.3008 15.3968 32.5219 15.3968 33.7951C15.3968 35.0683 15.9025 36.2894 16.8026 37.1897C17.7028 38.09 18.9236 38.5958 20.1966 38.5958C21.4695 38.5958 22.6904 38.09 23.5905 37.1897C24.4906 36.2894 24.9963 35.0683 24.9963 33.7951C24.9963 32.5219 24.4906 31.3008 23.5905 30.4005C22.6904 29.5002 21.4695 28.9944 20.1966 28.9944ZM32.1959 13C33.2464 13 34.2866 13.207 35.2572 13.6091C36.2278 14.0112 37.1096 14.6005 37.8524 15.3435C38.5953 16.0865 39.1845 16.9685 39.5865 17.9393C39.9885 18.91 40.1955 19.9505 40.1955 21.0012C40.1955 22.0519 39.9885 23.0924 39.5865 24.0631C39.1845 25.0339 38.5953 25.9159 37.8524 26.6589C37.1096 27.4019 36.2278 27.9912 35.2572 28.3933C34.2866 28.7954 33.2464 29.0024 32.1959 29.0024C30.0743 29.0024 28.0396 28.1594 26.5394 26.6589C25.0391 25.1584 24.1963 23.1232 24.1963 21.0012C24.1963 18.8791 25.0391 16.844 26.5394 15.3435C28.0396 13.843 30.0743 13 32.1959 13Z" fill="white"/>
<defs>
<linearGradient id="paint0_linear_179_115" x1="29.5" y1="1.84662e-08" x2="29" y2="58" gradientUnits="userSpaceOnUse">
<stop stop-color="#6C84DD"/>
<stop offset="1" stop-color="#0329B7"/>
<stop offset="1" stop-color="#89A2FF"/>
</linearGradient>
</defs>
</svg>
