<svg width="30" height="30" viewBox="0 0 30 30" fill="none" xmlns="http://www.w3.org/2000/svg">
<rect width="30" height="30" rx="5" fill="#35373F"/>
<path d="M24 8.8125C24 9.44531 23.4973 10.0289 22.65 10.5C21.627 11.066 20.1012 11.4668 18.3504 11.5863C18.2203 11.523 18.0902 11.4633 17.9531 11.4105C16.568 10.8305 14.7258 10.5 12.75 10.5C12.4582 10.5 12.1734 10.507 11.8887 10.5211L11.85 10.5C11.0027 10.0289 10.5 9.44531 10.5 8.8125C10.5 7.25859 13.5234 6 17.25 6C20.9766 6 24 7.25859 24 8.8125ZM11.6496 11.6637C12.0082 11.6391 12.3773 11.625 12.75 11.625C14.9367 11.625 16.8773 12.0574 18.1113 12.7289C18.9832 13.2035 19.5 13.7941 19.5 14.4375C19.5 14.5781 19.4754 14.7152 19.4262 14.8488C19.2645 15.3129 18.8285 15.7383 18.1957 16.0969C18.1922 16.1004 18.1852 16.1004 18.1816 16.1039C18.1711 16.1109 18.1605 16.1145 18.15 16.1215C16.9195 16.8035 14.9578 17.2465 12.75 17.2465C10.6547 17.2465 8.78086 16.8492 7.53984 16.2234C7.47305 16.1918 7.40977 16.1566 7.34648 16.1215C6.50273 15.6539 6 15.0703 6 14.4375C6 13.2141 7.87734 12.1699 10.5 11.7867C10.8691 11.734 11.2523 11.6918 11.6496 11.6637ZM20.625 14.4375C20.625 13.6676 20.2523 13.0348 19.7777 12.5602C20.7727 12.4055 21.6832 12.1594 22.4566 11.8395C23.0297 11.6004 23.5641 11.3051 24 10.943V12.1875C24 12.866 23.4199 13.4918 22.4602 13.977C21.9469 14.2371 21.3211 14.4586 20.618 14.6273C20.6215 14.5641 20.625 14.5043 20.625 14.441V14.4375ZM19.5 17.8125C19.5 18.4453 18.9973 19.0289 18.15 19.5C18.0867 19.5352 18.0234 19.5668 17.9566 19.602C16.7191 20.2277 14.8453 20.625 12.75 20.625C10.5422 20.625 8.58047 20.182 7.35 19.5C6.50273 19.0289 6 18.4453 6 17.8125V16.568C6.43945 16.9301 6.97031 17.2254 7.54336 17.4645C8.93203 18.0445 10.7742 18.375 12.75 18.375C14.7258 18.375 16.568 18.0445 17.9566 17.4645C18.2309 17.352 18.4945 17.2219 18.7441 17.0813C18.9586 16.9617 19.159 16.8281 19.3488 16.6875C19.4016 16.6488 19.4508 16.6066 19.5 16.568V16.6875V16.8879V17.8125ZM20.625 17.8125V16.6875V15.777C21.293 15.6293 21.9082 15.443 22.4566 15.2145C23.0297 14.9754 23.5641 14.6801 24 14.318V15.5625C24 15.9316 23.8242 16.3008 23.4762 16.6488C22.9031 17.2219 21.8941 17.693 20.618 17.9988C20.6215 17.9391 20.625 17.8758 20.625 17.8125ZM12.75 21.75C14.7258 21.75 16.568 21.4195 17.9566 20.8395C18.5297 20.6004 19.0641 20.3051 19.5 19.943V21.1875C19.5 22.7414 16.4766 24 12.75 24C9.02344 24 6 22.7414 6 21.1875V19.943C6.43945 20.3051 6.97031 20.6004 7.54336 20.8395C8.93203 21.4195 10.7742 21.75 12.75 21.75Z" fill="white"/>
</svg>
