<svg xmlns="http://www.w3.org/2000/svg" version="1.1" width="3300" height="2000"><g id="Notes"><style>
    text {
      font-family: monospace;
      text-anchor: middle;
    }
    text.emphasis {
      font-weight:bold;
    }
    text.lanchor {
      text-anchor: start;
    }
  </style><rect height="2200" id="artboard" fill="white" width="3300" x="0" y="0"/><line id="" style="fill:none;stroke:black;stroke-width:0.5;" x1="263" x2="3036" y1="292" y2="292"/><text class="lanchor emphasis" transform="matrix(1 0 0 1 263 322)">Weight/Scale Variations</text><text transform="matrix(1 0 0 1 559.711 322)">Ultralight</text><text transform="matrix(1 0 0 1 856.422 322)">Thin</text><text transform="matrix(1 0 0 1 1153.13 322)">Light</text><text transform="matrix(1 0 0 1 1449.84 322)">Regular</text><text transform="matrix(1 0 0 1 1746.56 322)">Medium</text><text transform="matrix(1 0 0 1 2043.27 322)">Semibold</text><text transform="matrix(1 0 0 1 2339.98 322)">Bold</text><text transform="matrix(1 0 0 1 2636.69 322)">Heavy</text><text transform="matrix(1 0 0 1 2933.4 322)">Black</text><text id="template-version" style="text-anchor: end;" transform="matrix(1 0 0 1 3036 1933)">Template v.1.0</text><text class="lanchor" transform="matrix(1 0 0 1 263 726)">Small</text><text class="lanchor" transform="matrix(1 0 0 1 263 1156)">Medium</text><text class="lanchor" transform="matrix(1 0 0 1 263 1586)">Large</text></g><g id="Guides"><g id="H-reference" style="fill:#27AAE1;stroke:none;" transform="matrix(1 0 0 1 339 696)"><path d="M 54.9316 0 L 57.666 0 L 30.5664 -70.459 L 28.0762 -70.459 L 0.976562 0 L 3.66211 0 L 12.9395 -24.4629 L 45.7031 -24.4629 Z M 29.1992 -67.0898 L 29.4434 -67.0898 L 44.8242 -26.709 L 13.8184 -26.709 Z"/></g><line id="Baseline-S" style="fill:none;stroke:#27AAE1;opacity:1;stroke-width:0.577;" x1="263" x2="3036" y1="696" y2="696"/><line id="Capline-S" style="fill:none;stroke:#27AAE1;opacity:1;stroke-width:0.577;" x1="263" x2="3036" y1="625.541" y2="625.541"/><g id="H-reference" style="fill:#27AAE1;stroke:none;" transform="matrix(1 0 0 1 339 1126)"><path d="M 54.9316 0 L 57.666 0 L 30.5664 -70.459 L 28.0762 -70.459 L 0.976562 0 L 3.66211 0 L 12.9395 -24.4629 L 45.7031 -24.4629 Z M 29.1992 -67.0898 L 29.4434 -67.0898 L 44.8242 -26.709 L 13.8184 -26.709 Z"/></g><line id="Baseline-M" style="fill:none;stroke:#27AAE1;opacity:1;stroke-width:0.577;" x1="263" x2="3036" y1="1126" y2="1126"/><line id="Capline-M" style="fill:none;stroke:#27AAE1;opacity:1;stroke-width:0.577;" x1="263" x2="3036" y1="1055.54" y2="1055.54"/><g id="H-reference" style="fill:#27AAE1;stroke:none;" transform="matrix(1 0 0 1 339 1556)"><path d="M 54.9316 0 L 57.666 0 L 30.5664 -70.459 L 28.0762 -70.459 L 0.976562 0 L 3.66211 0 L 12.9395 -24.4629 L 45.7031 -24.4629 Z M 29.1992 -67.0898 L 29.4434 -67.0898 L 44.8242 -26.709 L 13.8184 -26.709 Z"/></g><line id="Baseline-L" style="fill:none;stroke:#27AAE1;opacity:1;stroke-width:0.577;" x1="263" x2="3036" y1="1556" y2="1556"/><line id="Capline-L" style="fill:none;stroke:#27AAE1;opacity:1;stroke-width:0.577;" x1="263" x2="3036" y1="1485.54" y2="1485.54"/><rect height="119.336" id="left-margin" style="fill:darkred;stroke:none;opacity:0.4;" width="12.4512" x="1394.06" y="1030.79"/><rect height="119.336" id="right-margin" style="fill:darkgreen;stroke:none;opacity:0.4;" width="12.4512" x="1502.5112" y="1030.79"/><rect x="1406.5112" y="1045" width="96" height="96" fill="none" stroke="blue" stroke-dasharray="5"/><rect x="1394.06" y="1030.79" width="120.9024" height="119.336" fill="none" stroke="blue"/></g><g id="Symbols"><g id="Bold-L" transform="matrix(1 0 0 1 2266 1556)"><path d="M30.47625 27.335000000000008 Q24.22378125 27.335000000000008 19.771185 22.835157500000037 Q15.31875 18.33531500000001 15.31875 12.016250000000014 V-81.83124999999998 Q15.31875 -88.08371874999999 19.771185 -92.53615374999998 Q24.22378125 -96.98874999999998 30.47625 -96.98874999999998 H59.50125 Q61.275 -102.79374999999999 66.1125 -106.34124999999999 Q70.95 -109.88874999999999 77.4 -109.88874999999999 Q83.85000000000001 -109.88874999999999 88.6875 -106.34124999999999 Q93.525 -102.79374999999999 95.29875 -96.98874999999998 H124.32375 Q130.642815 -96.98874999999998 135.1426575 -92.53615374999998 Q139.6425 -88.08371874999999 139.6425 -81.83124999999998 V12.016250000000014 Q139.6425 18.33531500000001 135.1426575 22.835157500000037 Q130.642815 27.335000000000008 124.32375 27.335000000000008 H30.47625 Z M30.47625 12.016250000000014 H124.32375 Q124.32375 12.016250000000014 124.32375 12.016250000000014 Q124.32375 12.016250000000014 124.32375 12.016250000000014 V-81.83124999999998 Q124.32375 -81.83124999999998 124.32375 -81.83124999999998 Q124.32375 -81.83124999999998 124.32375 -81.83124999999998 H30.47625 Q30.47625 -81.83124999999998 30.47625 -81.83124999999998 Q30.47625 -81.83124999999998 30.47625 -81.83124999999998 V12.016250000000014 Q30.47625 12.016250000000014 30.47625 12.016250000000014 Q30.47625 12.016250000000014 30.47625 12.016250000000014 Z M46.60125 -4.108749999999986 H88.84875 V-13.783749999999984 H46.60125 V-4.108749999999986 Z M46.60125 -30.06999999999998 H108.19875 V-39.744999999999976 H46.60125 V-30.06999999999998 Z M46.60125 -56.031249999999986 H108.19875 V-65.70624999999998 H46.60125 V-56.031249999999986 Z M77.4 -85.05624999999998 Q80.21655375 -85.05624999999998 82.11382125 -86.95367874999998 Q84.01125 -88.85094624999999 84.01125 -91.58687499999999 Q84.01125 -94.32280374999999 82.11382125 -96.30069624999999 Q80.21655375 -98.27874999999999 77.4 -98.27874999999999 Q74.58344625000001 -98.27874999999999 72.68617875 -96.31149999999998 Q70.78875000000001 -94.34424999999999 70.78875000000001 -91.66749999999999 Q70.78875000000001 -88.85094624999999 72.68617875 -86.95367874999998 Q74.58344625000001 -85.05624999999998 77.4 -85.05624999999998 Z"/></g><g id="Semibold-L" transform="matrix(1 0 0 1 1970.27 1556)"><path d="M29.84527875 25.372103750000008 Q24.5761125 25.372103750000008 20.82366375 21.592887500000018 Q17.07137625 17.813832500000018 17.07137625 12.50693375000003 V-82.60234749999998 Q17.07137625 -87.87167499999998 20.82366375 -91.62396249999998 Q24.5761125 -95.37641124999999 29.84527875 -95.37641124999999 H60.622905 Q61.97611500000001 -101.11126749999998 66.60318375 -104.69375874999999 Q71.23041375 -108.27641124999998 77.4 -108.27641124999998 Q83.56958625 -108.27641124999998 88.19681625 -104.69375874999999 Q92.823885 -101.11126749999998 94.177095 -95.37641124999999 H124.95472125 Q130.26145875 -95.37641124999999 134.040675 -91.62396249999998 Q137.81973000000002 -87.87167499999998 137.81973000000002 -82.60234749999998 V12.50693375000003 Q137.81973000000002 17.813832500000018 134.040675 21.592887500000018 Q130.26145875 25.372103750000008 124.95472125 25.372103750000008 H29.84527875 Z M29.84527875 12.50693375000003 H124.95472125 Q124.95472125 12.50693375000003 124.95472125 12.50693375000003 Q124.95472125 12.50693375000003 124.95472125 12.50693375000003 V-82.60234749999998 Q124.95472125 -82.60234749999998 124.95472125 -82.60234749999998 Q124.95472125 -82.60234749999998 124.95472125 -82.60234749999998 H29.84527875 Q29.84527875 -82.60234749999998 29.84527875 -82.60234749999998 Q29.84527875 -82.60234749999998 29.84527875 -82.60234749999998 V12.50693375000003 Q29.84527875 12.50693375000003 29.84527875 12.50693375000003 Q29.84527875 12.50693375000003 29.84527875 12.50693375000003 Z M45.97027875 -3.618066249999984 H88.98903750000001 V-13.293066249999981 H45.97027875 V-3.618066249999984 Z M45.97027875 -30.21028749999998 H108.82972125 V-39.88528749999999 H45.97027875 V-30.21028749999998 Z M45.97027875 -56.80234749999998 H108.82972125 V-66.47734749999998 H45.97027875 V-56.80234749999998 Z M77.4 -85.6170775 Q79.97355 -85.6170775 81.78213 -87.42565749999999 Q83.59054875 -89.23423749999998 83.59054875 -91.76215374999998 Q83.59054875 -94.29006999999999 81.78213 -96.14412249999998 Q79.97355 -97.99833624999998 77.4 -97.99833624999998 Q74.82645000000001 -97.99833624999998 73.01787 -96.15024999999999 Q71.20945125 -94.30216374999998 71.20945125 -91.80778749999999 Q71.20945125 -89.23423749999998 73.01787 -87.42565749999999 Q74.82645000000001 -85.6170775 77.4 -85.6170775 Z"/></g><g id="Medium-L" transform="matrix(1 0 0 1 1674.31 1556)"><path d="M29.37201 23.899730000000034 Q24.84024 23.899730000000034 21.61314375 20.661185000000017 Q18.3860475 17.42280125000002 18.3860475 12.875067500000029 V-83.18091249999998 Q18.3860475 -87.71252124999998 21.61314375 -90.93977874999999 Q24.84024 -94.16687499999998 29.37201 -94.16687499999998 H61.4643075 Q62.50195125 -99.84916374999999 66.97131750000001 -103.45809999999999 Q71.44068375 -107.06687499999998 77.4 -107.06687499999998 Q83.35931625 -107.06687499999998 87.8286825 -103.45809999999999 Q92.29804874999999 -99.84916374999999 93.33569250000001 -94.16687499999998 H125.42799 Q129.9755625 -94.16687499999998 133.2141075 -90.93977874999999 Q136.4526525 -87.71252124999998 136.4526525 -83.18091249999998 V12.875067500000029 Q136.4526525 17.42280125000002 133.2141075 20.661185000000017 Q129.9755625 23.899730000000034 125.42799 23.899730000000034 H29.37201 Z M29.37201 12.875067500000029 H125.42799 Q125.42799 12.875067500000029 125.42799 12.875067500000029 Q125.42799 12.875067500000029 125.42799 12.875067500000029 V-83.18091249999998 Q125.42799 -83.18091249999998 125.42799 -83.18091249999998 Q125.42799 -83.18091249999998 125.42799 -83.18091249999998 H29.37201 Q29.37201 -83.18091249999998 29.37201 -83.18091249999998 Q29.37201 -83.18091249999998 29.37201 -83.18091249999998 V12.875067500000029 Q29.37201 12.875067500000029 29.37201 12.875067500000029 Q29.37201 12.875067500000029 29.37201 12.875067500000029 Z M45.497009999999996 -3.2499324999999715 H89.09417250000001 V-12.924932499999983 H45.497009999999996 V-3.2499324999999715 Z M45.497009999999996 -30.315422499999997 H109.30299 V-39.990422499999994 H45.497009999999996 V-30.315422499999997 Z M45.497009999999996 -57.38091249999998 H109.30299 V-67.05591249999998 H45.497009999999996 V-57.38091249999998 Z M77.4 -86.03777874999997 Q79.79117625 -86.03777874999997 81.53316000000001 -87.77976249999998 Q83.27514375 -89.52174624999998 83.27514375 -91.89357249999998 Q83.27514375 -94.26556 81.53316000000001 -96.02673249999998 Q79.79117625 -97.78806624999999 77.4 -97.78806624999999 Q75.00882375 -97.78806624999999 73.26684 -96.02931249999999 Q71.52485625 -94.27055874999999 71.52485625 -91.91292249999998 Q71.52485625 -89.52174624999998 73.26684 -87.77976249999998 Q75.00882375 -86.03777874999997 77.4 -86.03777874999997 Z"/></g><g id="Regular-L" transform="matrix(1 0 0 1 1378.56 1556)"><path d="M29.025000000000002 22.82000000000002 Q25.0340625 22.82000000000002 22.19203125 19.97796875000003 Q19.35 17.13593750000001 19.35 13.14500000000001 V-83.60499999999999 Q19.35 -87.59593749999999 22.19203125 -90.43796874999998 Q25.0340625 -93.27999999999999 29.025000000000002 -93.27999999999999 H62.081250000000004 Q62.8875 -98.92374999999998 67.24125000000001 -102.55187499999998 Q71.595 -106.17999999999998 77.4 -106.17999999999998 Q83.205 -106.17999999999998 87.55875 -102.55187499999998 Q91.91250000000001 -98.92374999999998 92.71875 -93.27999999999999 H125.775 Q129.7659375 -93.27999999999999 132.60796875 -90.43796874999998 Q135.45000000000002 -87.59593749999999 135.45000000000002 -83.60499999999999 V13.14500000000001 Q135.45000000000002 17.13593750000001 132.60796875 19.97796875000003 Q129.7659375 22.82000000000002 125.775 22.82000000000002 H29.025000000000002 Z M29.025000000000002 13.14500000000001 H125.775 Q125.775 13.14500000000001 125.775 13.14500000000001 Q125.775 13.14500000000001 125.775 13.14500000000001 V-83.60499999999999 Q125.775 -83.60499999999999 125.775 -83.60499999999999 Q125.775 -83.60499999999999 125.775 -83.60499999999999 H29.025000000000002 Q29.025000000000002 -83.60499999999999 29.025000000000002 -83.60499999999999 Q29.025000000000002 -83.60499999999999 29.025000000000002 -83.60499999999999 V13.14500000000001 Q29.025000000000002 13.14500000000001 29.025000000000002 13.14500000000001 Q29.025000000000002 13.14500000000001 29.025000000000002 13.14500000000001 Z M45.15 -2.9799999999999756 H89.17125 V-12.654999999999987 H45.15 V-2.9799999999999756 Z M45.15 -30.392499999999984 H109.65 V-40.06749999999998 H45.15 V-30.392499999999984 Z M45.15 -57.80499999999998 H109.65 V-67.47999999999999 H45.15 V-57.80499999999998 Z M77.4 -86.34624999999998 Q79.6575 -86.34624999999998 81.35062500000001 -88.03937499999998 Q83.04375 -89.73249999999999 83.04375 -91.98999999999998 Q83.04375 -94.24749999999997 81.35062500000001 -95.94062499999998 Q79.6575 -97.63374999999999 77.4 -97.63374999999999 Q75.1425 -97.63374999999999 73.449375 -95.94062499999998 Q71.75625000000001 -94.24749999999997 71.75625000000001 -91.98999999999998 Q71.75625000000001 -89.73249999999999 73.449375 -88.03937499999998 Q75.1425 -86.34624999999998 77.4 -86.34624999999998 Z"/></g><g id="Light-L" transform="matrix(1 0 0 1 1082.77 1556)"><path d="M31.8781575 19.594838750000036 Q28.073302500000004 19.594838750000036 25.324151250000003 16.845848750000016 Q22.57516125 14.096697500000033 22.57516125 10.29184250000003 V-80.75184249999998 Q22.57516125 -84.55669749999998 25.324151250000003 -87.30584874999998 Q28.073302500000004 -90.05483874999999 31.8781575 -90.05483874999999 H64.9344075 Q64.6241625 -95.26434249999998 68.29566375 -99.10950999999999 Q71.967165 -102.95483874999998 77.4 -102.95483874999998 Q82.89491625000001 -102.95483874999998 86.5664175 -99.10950999999999 Q90.23791875 -95.26434249999998 89.8655925 -90.05483874999999 H122.92184250000001 Q126.72669750000001 -90.05483874999999 129.47584875 -87.30584874999998 Q132.22483875 -84.55669749999998 132.22483875 -80.75184249999998 V10.29184250000003 Q132.22483875 14.096697500000033 129.47584875 16.845848750000016 Q126.72669750000001 19.594838750000036 122.92184250000001 19.594838750000036 H31.8781575 Z M31.8781575 12.276668750000027 H122.92184250000001 Q123.6661725 12.276668750000027 124.28650125 11.65650125000002 Q124.90666875000001 11.03617250000002 124.90666875000001 10.29184250000003 V-80.75184249999998 Q124.90666875000001 -81.49617249999999 124.28650125 -82.11650124999998 Q123.6661725 -82.73666874999998 122.92184250000001 -82.73666874999998 H31.8781575 Q31.133827500000002 -82.73666874999998 30.51349875 -82.11650124999998 Q29.89333125 -81.49617249999999 29.89333125 -80.75184249999998 V10.29184250000003 Q29.89333125 11.03617250000002 30.51349875 11.65650125000002 Q31.133827500000002 12.276668750000027 31.8781575 12.276668750000027 Z M46.76266125 -5.336829999999978 H87.8686725 V-12.654999999999987 H46.76266125 V-5.336829999999978 Z M46.76266125 -31.570914999999985 H108.03733875 V-38.88908499999998 H46.76266125 V-31.570914999999985 Z M46.76266125 -57.80499999999998 H108.03733875 V-65.12316999999999 H46.76266125 V-57.80499999999998 Z M77.38693875 -85.41583749999998 Q79.5694575 -85.41583749999998 81.2135625 -87.01592124999999 Q82.8576675 -88.61600499999997 82.8576675 -90.84254499999997 Q82.8576675 -93.06908499999999 81.2135625 -94.66916874999998 Q79.5694575 -96.2692525 77.38693875 -96.2692525 Q75.20458125 -96.2692525 73.6044975 -94.66916874999998 Q72.00441375 -93.06908499999999 72.00441375 -90.84254499999997 Q72.00441375 -88.61600499999997 73.6044975 -87.01592124999999 Q75.20458125 -85.41583749999998 77.38693875 -85.41583749999998 Z"/></g><g id="Thin-L" transform="matrix(1 0 0 1 787.282 1556)"><path d="M34.730669999999996 16.370000000000033 Q31.1118975 16.370000000000033 28.45594875 13.714051250000011 Q25.8 11.058102500000018 25.8 7.439330000000012 V-77.89932999999999 Q25.8 -81.51810249999998 28.45594875 -84.17405124999999 Q31.1118975 -86.82999999999998 34.730669999999996 -86.82999999999998 H67.78692000000001 Q66.36050250000001 -91.60557999999999 69.34991625 -95.66778999999998 Q72.33916875 -99.72999999999999 77.4 -99.72999999999999 Q82.5848325 -99.72999999999999 85.574085 -95.66778999999998 Q88.56349875000001 -91.60557999999999 87.01308 -86.82999999999998 H120.06933000000001 Q123.6881025 -86.82999999999998 126.34405125 -84.17405124999999 Q129.0 -81.51810249999998 129.0 -77.89932999999999 V7.439330000000012 Q129.0 11.058102500000018 126.34405125 13.714051250000011 Q123.6881025 16.370000000000033 120.06933000000001 16.370000000000033 H34.730669999999996 Z M34.730669999999996 11.408498750000007 H120.06933000000001 Q121.55766750000001 11.408498750000007 122.79816375 10.16816375000002 Q124.03849875 8.927667500000013 124.03849875 7.439330000000012 V-77.89932999999999 Q124.03849875 -79.38766749999999 122.79816375 -80.62816374999998 Q121.55766750000001 -81.86849874999999 120.06933000000001 -81.86849874999999 H34.730669999999996 Q33.2423325 -81.86849874999999 32.001836250000004 -80.62816374999998 Q30.761501250000002 -79.38766749999999 30.761501250000002 -77.89932999999999 V7.439330000000012 Q30.761501250000002 8.927667500000013 32.001836250000004 10.16816375000002 Q33.2423325 11.408498750000007 34.730669999999996 11.408498750000007 Z M48.375 -7.693498749999975 H86.5664175 V-12.654999999999987 H48.375 V-7.693498749999975 Z M48.375 -32.74916874999998 H106.425 V-37.710831249999984 H48.375 V-32.74916874999998 Z M48.375 -57.80499999999998 H106.425 V-62.76650124999999 H48.375 V-57.80499999999998 Z M77.37403875 -84.48574749999997 Q79.48157625 -84.48574749999997 81.07666125 -85.99278999999999 Q82.67158500000001 -87.49983249999998 82.67158500000001 -89.69525124999998 Q82.67158500000001 -91.89083124999999 81.07666125 -93.39787374999997 Q79.48157625 -94.90491624999999 77.37403875 -94.90491624999999 Q75.26650125 -94.90491624999999 73.75945875000001 -93.39787374999997 Q72.25241625 -91.89083124999999 72.25241625 -89.69525124999998 Q72.25241625 -87.49983249999998 73.75945875000001 -85.99278999999999 Q75.26650125 -84.48574749999997 77.37403875 -84.48574749999997 Z"/></g><g id="Ultralight-L" transform="matrix(1 0 0 1 491.205 1556)"><path d="M36.4425 14.43500000000003 Q32.9353125 14.43500000000003 30.33515625 11.834843750000005 Q27.735 9.234687500000007 27.735 5.7275000000000205 V-76.18749999999999 Q27.735 -79.69468749999999 30.33515625 -82.29484374999998 Q32.9353125 -84.89499999999998 36.4425 -84.89499999999998 H69.49875 Q67.4025 -89.40999999999998 69.9825 -93.60249999999999 Q72.5625 -97.79499999999999 77.4 -97.79499999999999 Q82.39875 -97.79499999999999 84.97875 -93.60249999999999 Q87.55875 -89.40999999999998 85.30125 -84.89499999999998 H118.3575 Q121.8646875 -84.89499999999998 124.46484375 -82.29484374999998 Q127.065 -79.69468749999999 127.065 -76.18749999999999 V5.7275000000000205 Q127.065 9.234687500000007 124.46484375 11.834843750000005 Q121.8646875 14.43500000000003 118.3575 14.43500000000003 H36.4425 Z M36.4425 10.887500000000017 H118.3575 Q120.2925 10.887500000000017 121.905 9.275000000000006 Q123.5175 7.662500000000023 123.5175 5.7275000000000205 V-76.18749999999999 Q123.5175 -78.12249999999997 121.905 -79.73499999999999 Q120.2925 -81.34749999999998 118.3575 -81.34749999999998 H36.4425 Q34.5075 -81.34749999999998 32.895 -79.73499999999999 Q31.282500000000002 -78.12249999999997 31.282500000000002 -76.18749999999999 V5.7275000000000205 Q31.282500000000002 7.662500000000023 32.895 9.275000000000006 Q34.5075 10.887500000000017 36.4425 10.887500000000017 Z M49.3425 -9.107499999999987 H85.785 V-12.654999999999987 H49.3425 V-9.107499999999987 Z M49.3425 -33.45624999999998 H105.4575 V-37.00374999999998 H49.3425 V-33.45624999999998 Z M49.3425 -57.80499999999998 H105.4575 V-61.35249999999998 H49.3425 V-57.80499999999998 Z M77.36629875 -83.92749999999998 Q79.42868625 -83.92749999999998 80.99442375 -85.37874999999998 Q82.56 -86.82999999999998 82.56 -89.00687499999998 Q82.56 -91.18374999999997 80.99442375 -92.63499999999999 Q79.42868625 -94.08624999999998 77.36629875 -94.08624999999998 Q75.30375000000001 -94.08624999999998 73.8525 -92.63499999999999 Q72.40125 -91.18374999999997 72.40125 -89.00687499999998 Q72.40125 -86.82999999999998 73.8525 -85.37874999999998 Q75.30375000000001 -83.92749999999998 77.36629875 -83.92749999999998 Z"/></g><g id="Bold-M" transform="matrix(1 0 0 1 2281.8 1126)"><path d="M26.5 14.39500000000001 Q20.003125 14.39500000000001 15.3765 9.768375000000006 Q10.75 5.141875000000013 10.75 -1.3549999999999898 V-68.35499999999999 Q10.75 -74.85187499999999 15.3765 -79.47837499999999 Q20.003125 -84.10499999999999 26.5 -84.10499999999999 H43.375 Q45.875 -88.85499999999999 50.3125 -91.47999999999999 Q54.75 -94.10499999999999 60.0 -94.10499999999999 Q65.25 -94.10499999999999 69.6875 -91.47999999999999 Q74.125 -88.85499999999999 76.625 -84.10499999999999 H93.5 Q99.996875 -84.10499999999999 104.623375 -79.47837499999999 Q109.25 -74.85187499999999 109.25 -68.35499999999999 V-1.3549999999999898 Q109.25 5.141875000000013 104.623375 9.768375000000006 Q99.996875 14.39500000000001 93.5 14.39500000000001 H26.5 Z M26.5 -1.3549999999999898 H93.5 Q93.5 -1.3549999999999898 93.5 -1.3549999999999898 Q93.5 -1.3549999999999898 93.5 -1.3549999999999898 V-68.35499999999999 Q93.5 -68.35499999999999 93.5 -68.35499999999999 Q93.5 -68.35499999999999 93.5 -68.35499999999999 H26.5 Q26.5 -68.35499999999999 26.5 -68.35499999999999 Q26.5 -68.35499999999999 26.5 -68.35499999999999 V-1.3549999999999898 Q26.5 -1.3549999999999898 26.5 -1.3549999999999898 Q26.5 -1.3549999999999898 26.5 -1.3549999999999898 Z M36.5 -11.35499999999999 H69.625 V-21.35499999999999 H36.5 V-11.35499999999999 Z M36.5 -29.85499999999999 H83.5 V-39.85499999999999 H36.5 V-29.85499999999999 Z M36.5 -48.35499999999999 H83.5 V-58.35499999999999 H36.5 V-48.35499999999999 Z M60.0 -72.60499999999999 Q62.058375 -72.60499999999999 63.404125 -73.950875 Q64.75 -75.29662499999999 64.75 -77.35499999999999 Q64.75 -79.41337499999999 63.404125 -80.75912499999998 Q62.058375 -82.10499999999999 60.0 -82.10499999999999 Q57.941625 -82.10499999999999 56.595875 -80.75912499999998 Q55.25 -79.41337499999999 55.25 -77.35499999999999 Q55.25 -75.29662499999999 56.595875 -73.950875 Q57.941625 -72.60499999999999 60.0 -72.60499999999999 Z"/></g><g id="Semibold-M" transform="matrix(1 0 0 1 1985.97 1126)"><path d="M25.847875 12.384250000000009 Q20.382125 12.384250000000009 16.49 8.492000000000004 Q12.59775 4.599750000000014 12.59775 -0.8658749999999884 V-69.17012499999998 Q12.59775 -74.635875 16.49 -78.52812499999999 Q20.382125 -82.42037499999999 25.847875 -82.42037499999999 H44.51625 Q46.635875 -87.06162499999999 50.801625 -89.74099999999999 Q54.967375 -92.42037499999999 60.0 -92.42037499999999 Q65.032625 -92.42037499999999 69.198375 -89.74099999999999 Q73.364125 -87.06162499999999 75.48375 -82.42037499999999 H94.152125 Q99.617875 -82.42037499999999 103.51 -78.52812499999999 Q107.40225 -74.635875 107.40225 -69.17012499999998 V-0.8658749999999884 Q107.40225 4.599750000000014 103.51 8.492000000000004 Q99.617875 12.384250000000009 94.152125 12.384250000000009 H25.847875 Z M25.847875 -0.8658749999999884 H94.152125 Q94.152125 -0.8658749999999884 94.152125 -0.8658749999999884 Q94.152125 -0.8658749999999884 94.152125 -0.8658749999999884 V-69.17012499999998 Q94.152125 -69.17012499999998 94.152125 -69.17012499999998 Q94.152125 -69.17012499999998 94.152125 -69.17012499999998 H25.847875 Q25.847875 -69.17012499999998 25.847875 -69.17012499999998 Q25.847875 -69.17012499999998 25.847875 -69.17012499999998 V-0.8658749999999884 Q25.847875 -0.8658749999999884 25.847875 -0.8658749999999884 Q25.847875 -0.8658749999999884 25.847875 -0.8658749999999884 Z M35.847875 -10.865874999999988 H69.788 V-20.86587499999999 H35.847875 V-10.865874999999988 Z M35.847875 -30.017999999999986 H84.152125 V-40.01799999999999 H35.847875 V-30.017999999999986 Z M35.847875 -49.17012499999999 H84.152125 V-59.17012499999999 H35.847875 V-49.17012499999999 Z M60.0 -73.20274999999998 Q61.87 -73.20274999999998 63.092625 -74.42537499999999 Q64.31525 -75.648125 64.31525 -77.51799999999999 Q64.31525 -79.38799999999999 63.092625 -80.61062499999998 Q61.87 -81.83324999999999 60.0 -81.83324999999999 Q58.13 -81.83324999999999 56.907375 -80.61062499999998 Q55.68475 -79.38799999999999 55.68475 -77.51799999999999 Q55.68475 -75.648125 56.907375 -74.42537499999999 Q58.13 -73.20274999999998 60.0 -73.20274999999998 Z"/></g><g id="Medium-M" transform="matrix(1 0 0 1 1689.91 1126)"><path d="M25.35875 10.876000000000005 Q20.6665 10.876000000000005 17.325125 7.5346250000000055 Q13.983625 4.193125000000009 13.983625 -0.4989999999999952 V-69.78162499999999 Q13.983625 -74.47387499999999 17.325125 -77.81524999999999 Q20.6665 -81.15662499999999 25.35875 -81.15662499999999 H45.37225 Q47.2065 -85.71637499999999 51.1685 -88.4365 Q55.130375 -91.15662499999999 60.0 -91.15662499999999 Q64.869625 -91.15662499999999 68.8315 -88.4365 Q72.7935 -85.71637499999999 74.62775 -81.15662499999999 H94.64125 Q99.3335 -81.15662499999999 102.674875 -77.81524999999999 Q106.016375 -74.47387499999999 106.016375 -69.78162499999999 V-0.4989999999999952 Q106.016375 4.193125000000009 102.674875 7.5346250000000055 Q99.3335 10.876000000000005 94.64125 10.876000000000005 H25.35875 Z M25.35875 -0.4989999999999952 H94.64125 Q94.64125 -0.4989999999999952 94.64125 -0.4989999999999952 Q94.64125 -0.4989999999999952 94.64125 -0.4989999999999952 V-69.78162499999999 Q94.64125 -69.78162499999999 94.64125 -69.78162499999999 Q94.64125 -69.78162499999999 94.64125 -69.78162499999999 H25.35875 Q25.35875 -69.78162499999999 25.35875 -69.78162499999999 Q25.35875 -69.78162499999999 25.35875 -69.78162499999999 V-0.4989999999999952 Q25.35875 -0.4989999999999952 25.35875 -0.4989999999999952 Q25.35875 -0.4989999999999952 25.35875 -0.4989999999999952 Z M35.35875 -10.498999999999995 H69.910375 V-20.498999999999995 H35.35875 V-10.498999999999995 Z M35.35875 -30.14037499999999 H84.64125 V-40.14037499999999 H35.35875 V-30.14037499999999 Z M35.35875 -49.78162499999999 H84.64125 V-59.78162499999999 H35.35875 V-49.78162499999999 Z M60.0 -73.65124999999999 Q61.728625 -73.65124999999999 62.858875 -74.7815 Q63.989125 -75.91174999999998 63.989125 -77.64037499999999 Q63.989125 -79.36899999999999 62.858875 -80.49924999999999 Q61.728625 -81.6295 60.0 -81.6295 Q58.271375 -81.6295 57.141125 -80.49924999999999 Q56.010875 -79.36899999999999 56.010875 -77.64037499999999 Q56.010875 -75.91174999999998 57.141125 -74.7815 Q58.271375 -73.65124999999999 60.0 -73.65124999999999 Z"/></g><g id="Regular-M" transform="matrix(1 0 0 1 1394.06 1126)"><path d="M25.0 9.77000000000001 Q20.875 9.77000000000001 17.9375 6.83250000000001 Q15.0 3.8950000000000102 15.0 -0.22999999999998977 V-70.22999999999999 Q15.0 -74.35499999999999 17.9375 -77.29249999999999 Q20.875 -80.22999999999999 25.0 -80.22999999999999 H46.0 Q47.625 -84.72999999999999 51.4375 -87.47999999999999 Q55.25 -90.22999999999999 60.0 -90.22999999999999 Q64.75 -90.22999999999999 68.5625 -87.47999999999999 Q72.375 -84.72999999999999 74.0 -80.22999999999999 H95.0 Q99.125 -80.22999999999999 102.0625 -77.29249999999999 Q105.0 -74.35499999999999 105.0 -70.22999999999999 V-0.22999999999998977 Q105.0 3.8950000000000102 102.0625 6.83250000000001 Q99.125 9.77000000000001 95.0 9.77000000000001 H25.0 Z M25.0 -0.22999999999998977 H95.0 Q95.0 -0.22999999999998977 95.0 -0.22999999999998977 Q95.0 -0.22999999999998977 95.0 -0.22999999999998977 V-70.22999999999999 Q95.0 -70.22999999999999 95.0 -70.22999999999999 Q95.0 -70.22999999999999 95.0 -70.22999999999999 H25.0 Q25.0 -70.22999999999999 25.0 -70.22999999999999 Q25.0 -70.22999999999999 25.0 -70.22999999999999 V-0.22999999999998977 Q25.0 -0.22999999999998977 25.0 -0.22999999999998977 Q25.0 -0.22999999999998977 25.0 -0.22999999999998977 Z M35.0 -10.22999999999999 H70.0 V-20.22999999999999 H35.0 V-10.22999999999999 Z M35.0 -30.22999999999999 H85.0 V-40.22999999999999 H35.0 V-30.22999999999999 Z M35.0 -50.22999999999999 H85.0 V-60.22999999999999 H35.0 V-50.22999999999999 Z M60.0 -73.97999999999999 Q61.625 -73.97999999999999 62.6875 -75.04249999999999 Q63.75 -76.10499999999999 63.75 -77.72999999999999 Q63.75 -79.35499999999999 62.6875 -80.41749999999999 Q61.625 -81.47999999999999 60.0 -81.47999999999999 Q58.375 -81.47999999999999 57.3125 -80.41749999999999 Q56.25 -79.35499999999999 56.25 -77.72999999999999 Q56.25 -76.10499999999999 57.3125 -75.04249999999999 Q58.375 -73.97999999999999 60.0 -73.97999999999999 Z"/></g><g id="Light-M" transform="matrix(1 0 0 1 1098.18 1126)"><path d="M26.538625 7.269875000000013 Q22.79825 7.269875000000013 20.14925 4.620750000000015 Q17.500125 1.9717500000000143 17.500125 -1.768624999999986 V-68.691375 Q17.500125 -72.43175 20.14925 -75.08075 Q22.79825 -77.72987499999999 26.538625 -77.72987499999999 H48.788625 Q49.25975 -81.89325 52.423125 -84.8115 Q55.586625 -87.72987499999999 60.0 -87.72987499999999 Q64.4615 -87.72987499999999 67.624875 -84.8115 Q70.788375 -81.89325 71.211375 -77.72987499999999 H93.461375 Q97.20175 -77.72987499999999 99.85075 -75.08075 Q102.499875 -72.43175 102.499875 -68.691375 V-1.768624999999986 Q102.499875 1.9717500000000143 99.85075 4.620750000000015 Q97.20175 7.269875000000013 93.461375 7.269875000000013 H26.538625 Z M26.538625 -0.22999999999998977 H93.461375 Q94.038375 -0.22999999999998977 94.51925 -0.7107499999999902 Q95.0 -1.1916249999999877 95.0 -1.768624999999986 V-68.691375 Q95.0 -69.26837499999999 94.51925 -69.74924999999999 Q94.038375 -70.22999999999999 93.461375 -70.22999999999999 H26.538625 Q25.961625 -70.22999999999999 25.48075 -69.74924999999999 Q25.0 -69.26837499999999 25.0 -68.691375 V-1.768624999999986 Q25.0 -1.1916249999999877 25.48075 -0.7107499999999902 Q25.961625 -0.22999999999998977 26.538625 -0.22999999999998977 Z M36.250125 -12.056999999999988 H68.749875 V-19.55687499999999 H36.250125 V-12.056999999999988 Z M36.250125 -31.480124999999987 H83.749875 V-38.97987499999999 H36.250125 V-31.480124999999987 Z M36.250125 -50.90312499999999 H83.749875 V-58.40299999999999 H36.250125 V-50.90312499999999 Z M60.0 -73.49924999999999 Q61.625 -73.49924999999999 62.6875 -74.56174999999999 Q63.75 -75.62424999999999 63.75 -77.24924999999999 Q63.75 -78.87424999999999 62.6875 -79.93674999999999 Q61.625 -80.99924999999999 60.0 -80.99924999999999 Q58.375 -80.99924999999999 57.3125 -79.93674999999999 Q56.25 -78.87424999999999 56.25 -77.24924999999999 Q56.25 -75.62424999999999 57.3125 -74.56174999999999 Q58.375 -73.49924999999999 60.0 -73.49924999999999 Z"/></g><g id="Thin-M" transform="matrix(1 0 0 1 802.565 1126)"><path d="M28.076875 4.77000000000001 Q24.721125 4.77000000000001 22.3605 2.4095000000000084 Q20.0 0.04887500000000955 20.0 -3.306874999999991 V-67.15312499999999 Q20.0 -70.50887499999999 22.3605 -72.86949999999999 Q24.721125 -75.22999999999999 28.076875 -75.22999999999999 H51.576875 Q50.89425 -79.05699999999999 53.408625 -82.14349999999999 Q55.923125 -85.22999999999999 60.0 -85.22999999999999 Q64.173125 -85.22999999999999 66.6875 -82.14349999999999 Q69.202 -79.05699999999999 68.423125 -75.22999999999999 H91.923125 Q95.278875 -75.22999999999999 97.6395 -72.86949999999999 Q100.0 -70.50887499999999 100.0 -67.15312499999999 V-3.306874999999991 Q100.0 0.04887500000000955 97.6395 2.4095000000000084 Q95.278875 4.77000000000001 91.923125 4.77000000000001 H28.076875 Z M28.076875 -0.22999999999998977 H91.923125 Q93.076875 -0.22999999999998977 94.0385 -1.1914999999999907 Q95.0 -2.1531249999999886 95.0 -3.306874999999991 V-67.15312499999999 Q95.0 -68.30687499999999 94.0385 -69.26849999999999 Q93.076875 -70.22999999999999 91.923125 -70.22999999999999 H28.076875 Q26.923125 -70.22999999999999 25.9615 -69.26849999999999 Q25.0 -68.30687499999999 25.0 -67.15312499999999 V-3.306874999999991 Q25.0 -2.1531249999999886 25.9615 -1.1914999999999907 Q26.923125 -0.22999999999998977 28.076875 -0.22999999999998977 Z M37.5 -13.883874999999989 H67.5 V-18.88387499999999 H37.5 V-13.883874999999989 Z M37.5 -32.72999999999999 H82.5 V-37.72999999999999 H37.5 V-32.72999999999999 Z M37.5 -51.57612499999999 H82.5 V-56.57612499999999 H37.5 V-51.57612499999999 Z M60.0 -73.01849999999999 Q61.625 -73.01849999999999 62.6875 -74.08099999999999 Q63.75 -75.14349999999999 63.75 -76.76849999999999 Q63.75 -78.39349999999999 62.6875 -79.45599999999999 Q61.625 -80.51849999999999 60.0 -80.51849999999999 Q58.375 -80.51849999999999 57.3125 -79.45599999999999 Q56.25 -78.39349999999999 56.25 -76.76849999999999 Q56.25 -75.14349999999999 57.3125 -74.08099999999999 Q58.375 -73.01849999999999 60.0 -73.01849999999999 Z"/></g><g id="Ultralight-M" transform="matrix(1 0 0 1 506.415 1126)"><path d="M29.0 3.2700000000000102 Q25.875 3.2700000000000102 23.6875 1.0825000000000102 Q21.5 -1.1049999999999898 21.5 -4.22999999999999 V-66.22999999999999 Q21.5 -69.35499999999999 23.6875 -71.54249999999999 Q25.875 -73.72999999999999 29.0 -73.72999999999999 H53.25 Q51.875 -77.35499999999999 54.0 -80.54249999999999 Q56.125 -83.72999999999999 60.0 -83.72999999999999 Q64.0 -83.72999999999999 66.125 -80.54249999999999 Q68.25 -77.35499999999999 66.75 -73.72999999999999 H91.0 Q94.125 -73.72999999999999 96.3125 -71.54249999999999 Q98.5 -69.35499999999999 98.5 -66.22999999999999 V-4.22999999999999 Q98.5 -1.1049999999999898 96.3125 1.0825000000000102 Q94.125 3.2700000000000102 91.0 3.2700000000000102 H29.0 Z M29.0 -0.22999999999998977 H91.0 Q92.5 -0.22999999999998977 93.75 -1.4799999999999898 Q95.0 -2.7299999999999898 95.0 -4.22999999999999 V-66.22999999999999 Q95.0 -67.72999999999999 93.75 -68.97999999999999 Q92.5 -70.22999999999999 91.0 -70.22999999999999 H29.0 Q27.5 -70.22999999999999 26.25 -68.97999999999999 Q25.0 -67.72999999999999 25.0 -66.22999999999999 V-4.22999999999999 Q25.0 -2.7299999999999898 26.25 -1.4799999999999898 Q27.5 -0.22999999999998977 29.0 -0.22999999999998977 Z M38.25 -14.97999999999999 H66.75 V-18.47999999999999 H38.25 V-14.97999999999999 Z M38.25 -33.47999999999999 H81.75 V-36.97999999999999 H38.25 V-33.47999999999999 Z M38.25 -51.97999999999999 H81.75 V-55.47999999999999 H38.25 V-51.97999999999999 Z M60.0 -72.72999999999999 Q61.625 -72.72999999999999 62.6875 -73.79249999999999 Q63.75 -74.85499999999999 63.75 -76.47999999999999 Q63.75 -78.10499999999999 62.6875 -79.16749999999999 Q61.625 -80.22999999999999 60.0 -80.22999999999999 Q58.375 -80.22999999999999 57.3125 -79.16749999999999 Q56.25 -78.10499999999999 56.25 -76.47999999999999 Q56.25 -74.85499999999999 57.3125 -73.79249999999999 Q58.375 -72.72999999999999 60.0 -72.72999999999999 Z"/></g><g id="Bold-S" transform="matrix(1 0 0 1 2294.23 696)"><path d="M22.4865 1.5571250000000134 Q17.685928125 1.5571250000000134 14.267388375000001 -1.8614147499999945 Q10.84875 -5.280053124999995 10.84875 -10.080624999999998 V-59.787625 Q10.84875 -64.588196875 14.267388375000001 -68.00683525 Q17.685928125 -71.425375 22.4865 -71.425375 H36.09675 Q37.576125000000005 -74.67999999999999 40.5841875 -76.60318749999999 Q43.59225 -78.526375 47.34 -78.526375 Q51.08775 -78.526375 54.0958125 -76.60318749999999 Q57.103875 -74.67999999999999 58.58325 -71.425375 H72.1935 Q76.994071875 -71.425375 80.41271025 -68.00683525 Q83.83125 -64.588196875 83.83125 -59.787625 V-10.080624999999998 Q83.83125 -5.280053124999995 80.41271025 -1.8614147499999945 Q76.994071875 1.5571250000000134 72.1935 1.5571250000000134 H22.4865 Z M22.4865 -10.080624999999998 H72.1935 Q72.1935 -10.080624999999998 72.1935 -10.080624999999998 Q72.1935 -10.080624999999998 72.1935 -10.080624999999998 V-59.787625 Q72.1935 -59.787625 72.1935 -59.787625 Q72.1935 -59.787625 72.1935 -59.787625 H22.4865 Q22.4865 -59.787625 22.4865 -59.787625 Q22.4865 -59.787625 22.4865 -59.787625 V-10.080624999999998 Q22.4865 -10.080624999999998 22.4865 -10.080624999999998 Q22.4865 -10.080624999999998 22.4865 -10.080624999999998 Z M29.587500000000002 -17.181624999999997 H56.512125000000005 V-24.282624999999996 H29.587500000000002 V-17.181624999999997 Z M29.587500000000002 -31.383624999999995 H65.0925 V-38.484624999999994 H29.587500000000002 V-31.383624999999995 Z M29.587500000000002 -45.58562499999999 H65.0925 V-52.68662499999999 H29.587500000000002 V-45.58562499999999 Z M47.34 -62.549125 Q48.707632875 -62.549125 49.601767125 -63.443357875 Q50.496 -64.337492125 50.496 -65.705125 Q50.496 -67.072757875 49.601767125 -67.96689212499999 Q48.707632875 -68.86112499999999 47.34 -68.86112499999999 Q45.972367125 -68.86112499999999 45.078232875000005 -67.96689212499999 Q44.184000000000005 -67.072757875 44.184000000000005 -65.705125 Q44.184000000000005 -64.337492125 45.078232875000005 -63.443357875 Q45.972367125 -62.549125 47.34 -62.549125 Z"/></g><g id="Semibold-S" transform="matrix(1 0 0 1 1998.1 696)"><path d="M21.971973375 -0.02935674999999094 Q17.984959125 -0.02935674999999094 15.14584125 -2.868573249999997 Q12.306624750000001 -5.707789749999989 12.306624750000001 -9.694705374999998 V-60.430758624999996 Q12.306624750000001 -64.417772875 15.14584125 -67.25698937499999 Q17.984959125 -70.096205875 21.971973375 -70.096205875 H36.99719625 Q38.176455375 -73.26502712499999 40.970107125000006 -75.2311165 Q43.763758875 -77.197205875 47.34 -77.197205875 Q50.916241125 -77.197205875 53.709892875 -75.2311165 Q56.503544625 -73.26502712499999 57.682803750000005 -70.096205875 H72.708026625 Q76.695040875 -70.096205875 79.53415875 -67.25698937499999 Q82.37337525 -64.417772875 82.37337525 -60.430758624999996 V-9.694705374999998 Q82.37337525 -5.707789749999989 79.53415875 -2.868573249999997 Q76.695040875 -0.02935674999999094 72.708026625 -0.02935674999999094 H21.971973375 Z M21.971973375 -9.694705374999998 H72.708026625 Q72.708026625 -9.694705374999998 72.708026625 -9.694705374999998 Q72.708026625 -9.694705374999998 72.708026625 -9.694705374999998 V-60.430758624999996 Q72.708026625 -60.430758624999996 72.708026625 -60.430758624999996 Q72.708026625 -60.430758624999996 72.708026625 -60.430758624999996 H21.971973375 Q21.971973375 -60.430758624999996 21.971973375 -60.430758624999996 Q21.971973375 -60.430758624999996 21.971973375 -60.430758624999996 V-9.694705374999998 Q21.971973375 -9.694705374999998 21.971973375 -9.694705374999998 Q21.971973375 -9.694705374999998 21.971973375 -9.694705374999998 Z M29.072973375000004 -16.795705374999997 H56.640732 V-23.896705374999996 H29.072973375000004 V-16.795705374999997 Z M29.072973375000004 -31.51223199999999 H65.607026625 V-38.61323199999999 H29.072973375000004 V-31.51223199999999 Z M29.072973375000004 -46.228758625 H65.607026625 V-53.329758625 H29.072973375000004 V-46.228758625 Z M47.34 -63.02074974999999 Q48.559005000000006 -63.02074974999999 49.355993624999996 -63.817837 Q50.15298225 -64.614825625 50.15298225 -65.833732 Q50.15298225 -67.052737 49.355993624999996 -67.84972562499999 Q48.559005000000006 -68.64671425 47.34 -68.64671425 Q46.120995 -68.64671425 45.324006375 -67.84972562499999 Q44.527017750000006 -67.052737 44.527017750000006 -65.833732 Q44.527017750000006 -64.614825625 45.324006375 -63.817837 Q46.120995 -63.02074974999999 47.34 -63.02074974999999 Z"/></g><g id="Medium-S" transform="matrix(1 0 0 1 1701.85 696)"><path d="M21.58605375 -1.2193659999999937 Q18.209331000000002 -1.2193659999999937 15.804754875 -3.6239421249999992 Q13.400080125 -6.028616874999983 13.400080125 -9.405241000000004 V-60.91323212499999 Q13.400080125 -64.28995487499999 15.804754875 -66.694531 Q18.209331000000002 -69.09910712499999 21.58605375 -69.09910712499999 H37.67258025 Q38.6266785 -72.203624875 41.2595715 -74.201866 Q43.892365875 -76.200107125 47.34 -76.200107125 Q50.787634125000004 -76.200107125 53.42042850000001 -74.201866 Q56.053321499999996 -72.203624875 57.007419750000004 -69.09910712499999 H73.09394625 Q76.47066900000002 -69.09910712499999 78.875245125 -66.694531 Q81.279919875 -64.28995487499999 81.279919875 -60.91323212499999 V-9.405241000000004 Q81.279919875 -6.028616874999983 78.875245125 -3.6239421249999992 Q76.47066900000002 -1.2193659999999937 73.09394625 -1.2193659999999937 H21.58605375 Z M21.58605375 -9.405241000000004 H73.09394625 Q73.09394625 -9.405241000000004 73.09394625 -9.405241000000004 Q73.09394625 -9.405241000000004 73.09394625 -9.405241000000004 V-60.91323212499999 Q73.09394625 -60.91323212499999 73.09394625 -60.91323212499999 Q73.09394625 -60.91323212499999 73.09394625 -60.91323212499999 H21.58605375 Q21.58605375 -60.91323212499999 21.58605375 -60.91323212499999 Q21.58605375 -60.91323212499999 21.58605375 -60.91323212499999 V-9.405241000000004 Q21.58605375 -9.405241000000004 21.58605375 -9.405241000000004 Q21.58605375 -9.405241000000004 21.58605375 -9.405241000000004 Z M28.68705375 -16.506241000000003 H56.737285875000005 V-23.607241000000002 H28.68705375 V-16.506241000000003 Z M28.68705375 -31.608785874999995 H65.99294625 V-38.709785874999994 H28.68705375 V-31.608785874999995 Z M28.68705375 -46.711232124999995 H65.99294625 V-53.812232124999994 H28.68705375 V-46.711232124999995 Z M47.34 -63.374616249999995 Q48.447460125 -63.374616249999995 49.171564875 -64.098721 Q49.895669625000004 -64.82282574999999 49.895669625000004 -65.930285875 Q49.895669625000004 -67.037746 49.171564875 -67.76185075 Q48.447460125 -68.48595549999999 47.34 -68.48595549999999 Q46.232539875 -68.48595549999999 45.508435125 -67.76185075 Q44.784330375 -67.037746 44.784330375 -65.930285875 Q44.784330375 -64.82282574999999 45.508435125 -64.098721 Q46.232539875 -63.374616249999995 47.34 -63.374616249999995 Z"/></g><g id="Regular-S" transform="matrix(1 0 0 1 1405.73 696)"><path d="M21.303 -2.0919999999999987 Q18.3738375 -2.0919999999999987 16.287918750000003 -4.177918749999989 Q14.202 -6.263837499999994 14.202 -9.192999999999998 V-61.266999999999996 Q14.202 -64.19616249999999 16.287918750000003 -66.28208125 Q18.3738375 -68.368 21.303 -68.368 H38.167875 Q38.956875000000004 -71.425375 41.4718125 -73.4471875 Q43.98675 -75.469 47.34 -75.469 Q50.69325 -75.469 53.2081875 -73.4471875 Q55.723125 -71.425375 56.512125000000005 -68.368 H73.37700000000001 Q76.30616250000001 -68.368 78.39208125 -66.28208125 Q80.47800000000001 -64.19616249999999 80.47800000000001 -61.266999999999996 V-9.192999999999998 Q80.47800000000001 -6.263837499999994 78.39208125 -4.177918749999989 Q76.30616250000001 -2.0919999999999987 73.37700000000001 -2.0919999999999987 H21.303 Z M21.303 -9.192999999999998 H73.37700000000001 Q73.37700000000001 -9.192999999999998 73.37700000000001 -9.192999999999998 Q73.37700000000001 -9.192999999999998 73.37700000000001 -9.192999999999998 V-61.266999999999996 Q73.37700000000001 -61.266999999999996 73.37700000000001 -61.266999999999996 Q73.37700000000001 -61.266999999999996 73.37700000000001 -61.266999999999996 H21.303 Q21.303 -61.266999999999996 21.303 -61.266999999999996 Q21.303 -61.266999999999996 21.303 -61.266999999999996 V-9.192999999999998 Q21.303 -9.192999999999998 21.303 -9.192999999999998 Q21.303 -9.192999999999998 21.303 -9.192999999999998 Z M28.404 -16.293999999999997 H56.808 V-23.394999999999996 H28.404 V-16.293999999999997 Z M28.404 -31.679499999999997 H66.276 V-38.780499999999996 H28.404 V-31.679499999999997 Z M28.404 -47.065 H66.276 V-54.166 H28.404 V-47.065 Z M47.34 -63.634 Q48.3657 -63.634 49.03635 -64.30465 Q49.707 -64.9753 49.707 -66.00099999999999 Q49.707 -67.02669999999999 49.03635 -67.69735 Q48.3657 -68.368 47.34 -68.368 Q46.3143 -68.368 45.64365 -67.69735 Q44.973 -67.02669999999999 44.973 -66.00099999999999 Q44.973 -64.9753 45.64365 -64.30465 Q46.3143 -63.634 47.34 -63.634 Z"/></g><g id="Light-S" transform="matrix(1 0 0 1 1109.75 696)"><path d="M22.516975125000002 -4.064598624999988 Q19.89128175 -4.064598624999988 18.0329895 -5.9229895 Q16.174598625 -7.781281749999991 16.174598625 -10.406975124999988 V-60.05302487499999 Q16.174598625 -62.678718249999996 18.0329895 -64.5370105 Q19.89128175 -66.395401375 22.516975125000002 -66.395401375 H40.368100125000005 Q40.24669275 -69.18717925 42.249470625 -71.341741 Q44.252347125 -73.49640137499999 47.34 -73.49640137499999 Q50.4656235 -73.49640137499999 52.468401375000006 -71.341741 Q54.471277875000006 -69.18717925 54.31189987500001 -66.395401375 H72.163024875 Q74.78871825 -66.395401375 76.6470105 -64.5370105 Q78.505401375 -62.678718249999996 78.505401375 -60.05302487499999 V-10.406975124999988 Q78.505401375 -7.781281749999991 76.6470105 -5.9229895 Q74.78871825 -4.064598624999988 72.163024875 -4.064598624999988 H22.516975125000002 Z M22.516975125000002 -9.192999999999998 H72.163024875 Q72.618277875 -9.192999999999998 72.99768825 -9.572311749999997 Q73.37700000000001 -9.95172212499999 73.37700000000001 -10.406975124999988 V-60.05302487499999 Q73.37700000000001 -60.508277875 72.99768825 -60.88768825 Q72.618277875 -61.266999999999996 72.163024875 -61.266999999999996 H22.516975125000002 Q22.061722125000003 -61.266999999999996 21.68231175 -60.88768825 Q21.303 -60.508277875 21.303 -60.05302487499999 V-10.406975124999988 Q21.303 -9.95172212499999 21.68231175 -9.572311749999997 Q22.061722125000003 -9.192999999999998 22.516975125000002 -9.192999999999998 Z M29.390348624999998 -17.735502999999994 H55.821651375 V-22.86390437499999 H29.390348624999998 V-17.735502999999994 Z M29.390348624999998 -32.665848624999995 H65.289651375 V-37.794151375 H29.390348624999998 V-32.665848624999995 Z M29.390348624999998 -47.596095625 H65.289651375 V-52.724497 H29.390348624999998 V-47.596095625 Z M47.34 -63.254688249999994 Q48.3657 -63.254688249999994 49.03635 -63.925338249999996 Q49.707 -64.59598825 49.707 -65.62168824999999 Q49.707 -66.64738824999999 49.03635 -67.31803825 Q48.3657 -67.98868825 47.34 -67.98868825 Q46.3143 -67.98868825 45.64365 -67.31803825 Q44.973 -66.64738824999999 44.973 -65.62168824999999 Q44.973 -64.59598825 45.64365 -63.925338249999996 Q46.3143 -63.254688249999994 47.34 -63.254688249999994 Z"/></g><g id="Thin-S" transform="matrix(1 0 0 1 814.015 696)"><path d="M23.730654375 -6.036999999999992 Q21.408430125 -6.036999999999992 19.77766575 -7.667665749999998 Q18.147000000000002 -9.298430124999996 18.147000000000002 -11.620654375 V-58.83934562499999 Q18.147000000000002 -61.161569875 19.77766575 -62.792334249999996 Q21.408430125 -64.423 23.730654375 -64.423 H42.568029375 Q41.53631325 -66.949378 43.027030125 -69.236689 Q44.517845625 -71.524 47.34 -71.524 Q50.238095625 -71.524 51.728812500000004 -69.236689 Q53.219628 -66.949378 52.111970625 -64.423 H70.949345625 Q73.27156987500001 -64.423 74.90233425000001 -62.792334249999996 Q76.533 -61.161569875 76.533 -58.83934562499999 V-11.620654375 Q76.533 -9.298430124999996 74.90233425000001 -7.667665749999998 Q73.27156987500001 -6.036999999999992 70.949345625 -6.036999999999992 H23.730654375 Z M23.730654375 -9.192999999999998 H70.949345625 Q71.859654375 -9.192999999999998 72.6183765 -9.951623499999997 Q73.37700000000001 -10.710345624999988 73.37700000000001 -11.620654375 V-58.83934562499999 Q73.37700000000001 -59.749654375 72.6183765 -60.5083765 Q71.859654375 -61.266999999999996 70.949345625 -61.266999999999996 H23.730654375 Q22.820345625 -61.266999999999996 22.061623500000003 -60.5083765 Q21.303 -59.749654375 21.303 -58.83934562499999 V-11.620654375 Q21.303 -10.710345624999988 22.061623500000003 -9.951623499999997 Q22.820345625 -9.192999999999998 23.730654375 -9.192999999999998 Z M30.3765 -19.176907375 H54.8355 V-22.33290737499999 H30.3765 V-19.176907375 Z M30.3765 -33.651999999999994 H64.3035 V-36.80799999999999 H30.3765 V-33.651999999999994 Z M30.3765 -48.127092624999996 H64.3035 V-51.283092624999995 H30.3765 V-48.127092624999996 Z M47.34 -62.875376499999994 Q48.3657 -62.875376499999994 49.03635 -63.546026499999996 Q49.707 -64.2166765 49.707 -65.24237649999999 Q49.707 -66.2680765 49.03635 -66.9387265 Q48.3657 -67.6093765 47.34 -67.6093765 Q46.3143 -67.6093765 45.64365 -66.9387265 Q44.973 -66.2680765 44.973 -65.24237649999999 Q44.973 -64.2166765 45.64365 -63.546026499999996 Q46.3143 -62.875376499999994 47.34 -62.875376499999994 Z"/></g><g id="Ultralight-S" transform="matrix(1 0 0 1 517.792 696)"><path d="M24.459 -7.220499999999987 Q22.3188375 -7.220499999999987 20.82466875 -8.714668749999987 Q19.3305 -10.208837499999987 19.3305 -12.34899999999999 V-58.111 Q19.3305 -60.25116249999999 20.82466875 -61.74533124999999 Q22.3188375 -63.23949999999999 24.459 -63.23949999999999 H43.888125 Q42.310125 -65.6065 43.493625 -67.9735 Q44.677125000000004 -70.34049999999999 47.34 -70.34049999999999 Q50.1015 -70.34049999999999 51.285000000000004 -67.9735 Q52.4685 -65.6065 50.791875000000005 -63.23949999999999 H70.221 Q72.3611625 -63.23949999999999 73.85533125 -61.74533124999999 Q75.3495 -60.25116249999999 75.3495 -58.111 V-12.34899999999999 Q75.3495 -10.208837499999987 73.85533125 -8.714668749999987 Q72.3611625 -7.220499999999987 70.221 -7.220499999999987 H24.459 Z M24.459 -9.192999999999998 H70.221 Q71.4045 -9.192999999999998 72.39075 -10.179249999999996 Q73.37700000000001 -11.165499999999994 73.37700000000001 -12.34899999999999 V-58.111 Q73.37700000000001 -59.29449999999999 72.39075 -60.28075 Q71.4045 -61.266999999999996 70.221 -61.266999999999996 H24.459 Q23.2755 -61.266999999999996 22.289250000000003 -60.28075 Q21.303 -59.29449999999999 21.303 -58.111 V-12.34899999999999 Q21.303 -11.165499999999994 22.289250000000003 -10.179249999999996 Q23.2755 -9.192999999999998 24.459 -9.192999999999998 Z M30.96825 -20.041749999999993 H54.243750000000006 V-22.01424999999999 H30.96825 V-20.041749999999993 Z M30.96825 -34.24374999999999 H63.71175 V-36.216249999999995 H30.96825 V-34.24374999999999 Z M30.96825 -48.44575 H63.71175 V-50.41824999999999 H30.96825 V-48.44575 Z M47.34 -62.647749999999995 Q48.3657 -62.647749999999995 49.03635 -63.3184 Q49.707 -63.98905 49.707 -65.01474999999999 Q49.707 -66.04044999999999 49.03635 -66.71109999999999 Q48.3657 -67.38175 47.34 -67.38175 Q46.3143 -67.38175 45.64365 -66.71109999999999 Q44.973 -66.04044999999999 44.973 -65.01474999999999 Q44.973 -63.98905 45.64365 -63.3184 Q46.3143 -62.647749999999995 47.34 -62.647749999999995 Z"/></g></g></svg>