<svg width="59" height="58" viewBox="0 0 59 58" fill="none" xmlns="http://www.w3.org/2000/svg">
<rect width="59" height="58" rx="11" fill="url(#paint0_linear_179_116)"/>
<path d="M30.4962 12.261L48.9469 22.5725C49.9335 23.1267 50.2923 24.3835 49.7413 25.3759C49.1903 26.3684 47.9411 26.7293 46.9545 26.1751L29.5032 16.4243L12.0455 26.1815C11.0589 26.7358 9.80965 26.3749 9.2587 25.3824C8.70774 24.3899 9.0665 23.1332 10.0531 22.5789L28.5102 12.261C29.1316 11.913 29.8812 11.913 30.5026 12.261H30.4962ZM29.5032 27.4705C28.0874 27.4705 26.9406 26.3169 26.9406 24.8926C26.9406 23.4683 28.0874 22.3147 29.5032 22.3147C30.919 22.3147 32.0658 23.4683 32.0658 24.8926C32.0658 26.3169 30.919 27.4705 29.5032 27.4705ZM18.2278 33.6574C16.8119 33.6574 15.6652 32.5038 15.6652 31.0795C15.6652 29.6552 16.8119 28.5016 18.2278 28.5016C19.6436 28.5016 20.7904 29.6552 20.7904 31.0795C20.7904 32.5038 19.6436 33.6574 18.2278 33.6574ZM43.3412 31.0795C43.3412 32.5038 42.1945 33.6574 40.7786 33.6574C39.3628 33.6574 38.216 32.5038 38.216 31.0795C38.216 29.6552 39.3628 28.5016 40.7786 28.5016C42.1945 28.5016 43.3412 29.6552 43.3412 31.0795ZM23.5388 43.6724L21.8154 40.4565V42.9377C21.8154 44.0784 20.8993 45 19.7653 45H16.6902C15.5563 45 14.6401 44.0784 14.6401 42.9377V40.4565L12.9168 43.6724C12.5132 44.4264 11.5843 44.7035 10.8347 44.304C10.0851 43.9044 9.80965 42.9635 10.2069 42.2095L12.6349 37.6788C13.6151 35.8421 15.5242 34.695 17.5999 34.695H18.8492C19.8935 34.695 20.8929 34.985 21.7578 35.507L23.9103 31.4919C24.8905 29.6552 26.7997 28.5081 28.8754 28.5081H30.1246C32.2003 28.5081 34.1031 29.6552 35.0897 31.4919L37.2422 35.507C38.1071 34.985 39.1065 34.695 40.1508 34.695H41.4001C43.4758 34.695 45.3785 35.8421 46.3651 37.6788L48.7931 42.2095C49.1968 42.9635 48.9149 43.898 48.1653 44.304C47.4157 44.71 46.4868 44.4264 46.0832 43.6724L44.3663 40.4565V42.9377C44.3663 44.0784 43.4501 45 42.3162 45H39.2411C38.1071 45 37.191 44.0784 37.191 42.9377V40.4565L35.4676 43.6724C35.064 44.4264 34.1351 44.7035 33.3855 44.304C32.636 43.9044 32.3605 42.9635 32.7577 42.2095L35.0833 37.8593C34.9743 37.7497 34.8782 37.6273 34.8078 37.4855L33.0908 34.2696V37.782C33.0908 38.9227 32.1747 39.8443 31.0408 39.8443H27.9656C26.8317 39.8443 25.9156 38.9227 25.9156 37.782V34.2696L24.1922 37.4855C24.1153 37.6273 24.0257 37.7497 23.9167 37.8593L26.2423 42.2095C26.6459 42.9635 26.364 43.898 25.6145 44.304C24.8649 44.71 23.936 44.4264 23.5324 43.6724H23.5388Z" fill="white"/>
<defs>
<linearGradient id="paint0_linear_179_116" x1="29.5" y1="1.84662e-08" x2="29" y2="58" gradientUnits="userSpaceOnUse">
<stop stop-color="#6C84DD"/>
<stop offset="1" stop-color="#0329B7"/>
<stop offset="1" stop-color="#89A2FF"/>
</linearGradient>
</defs>
</svg>
