<svg width="20" height="22" viewBox="0 0 20 22" fill="none" xmlns="http://www.w3.org/2000/svg">
<path d="M9.8627 10.4807C11.3025 10.4807 12.5493 9.96426 13.5681 8.94537C14.5868 7.92665 15.1032 6.68019 15.1032 5.24017C15.1032 3.80065 14.5868 2.55402 13.5679 1.53497C12.549 0.516414 11.3024 0 9.8627 0C8.42268 0 7.17621 0.516414 6.15749 1.53513C5.13877 2.55385 4.62219 3.80048 4.62219 5.24017C4.62219 6.68019 5.13877 7.92682 6.15766 8.94554C7.17654 9.96409 8.42318 10.4807 9.8627 10.4807Z" fill="black"/>
<path d="M19.0322 16.7304C19.0028 16.3065 18.9434 15.844 18.8559 15.3556C18.7676 14.8636 18.6539 14.3985 18.5177 13.9734C18.3771 13.534 18.1859 13.1001 17.9495 12.6843C17.7042 12.2527 17.416 11.8769 17.0927 11.5676C16.7545 11.2441 16.3405 10.984 15.8618 10.7942C15.3847 10.6055 14.856 10.5099 14.2905 10.5099C14.0684 10.5099 13.8536 10.601 13.4388 10.8711C13.1834 11.0376 12.8848 11.2301 12.5515 11.4431C12.2665 11.6247 11.8804 11.7949 11.4035 11.9489C10.9382 12.0995 10.4658 12.1758 9.99948 12.1758C9.53319 12.1758 9.06093 12.0995 8.59515 11.9489C8.11874 11.795 7.73263 11.6249 7.44795 11.4433C7.11778 11.2323 6.81899 11.0397 6.55987 10.8709C6.14554 10.6009 5.93058 10.5097 5.70847 10.5097C5.14276 10.5097 4.61423 10.6055 4.13732 10.7944C3.65892 10.9838 3.24476 11.2439 2.90629 11.5678C2.5831 11.8772 2.29476 12.2528 2.04975 12.6843C1.81354 13.1001 1.62231 13.5338 1.48154 13.9736C1.34559 14.3987 1.23189 14.8636 1.14358 15.3556C1.0561 15.8433 0.99667 16.306 0.967289 16.7309C0.938405 17.1472 0.923798 17.5793 0.923798 18.0157C0.923798 19.1515 1.28484 20.0709 1.9968 20.749C2.69996 21.4182 3.63037 21.7576 4.7618 21.7576H15.2382C16.3696 21.7576 17.2997 21.4183 18.003 20.749C18.7151 20.0714 19.0762 19.1518 19.0762 18.0156C19.076 17.5772 19.0612 17.1448 19.0322 16.7304Z" fill="black"/>
</svg>
