<svg width="30" height="30" viewBox="0 0 30 30" fill="none" xmlns="http://www.w3.org/2000/svg">
<rect width="30" height="30" rx="5" fill="#35373F"/>
<g clip-path="url(#clip0_997_1016)">
<path d="M22.548 6.33047C22.6535 6.43945 22.7344 6.5625 22.7906 6.69258C22.8469 6.82266 22.875 6.9668 22.875 7.12148V7.125V10.5C22.875 11.1223 22.3723 11.625 21.75 11.625C21.1277 11.625 20.625 11.1223 20.625 10.5V9.84258L16.9195 13.5445C16.5047 13.9594 15.8367 13.9875 15.3902 13.6043L12.1875 10.8551L8.98125 13.6043C8.51016 14.0086 7.8 13.9523 7.3957 13.4813C6.99141 13.0102 7.04766 12.3 7.51875 11.8957L11.4562 8.5207C11.8781 8.15859 12.5004 8.15859 12.9223 8.5207L16.0687 11.2172L19.0324 8.25H18.375C17.7527 8.25 17.25 7.74727 17.25 7.125C17.25 6.50273 17.7527 6 18.375 6H21.75C22.0594 6 22.3406 6.12656 22.5445 6.32695L22.548 6.33047ZM6 16.6875C6 15.7559 6.75586 15 7.6875 15H22.3125C23.2441 15 24 15.7559 24 16.6875V22.3125C24 23.2441 23.2441 24 22.3125 24H7.6875C6.75586 24 6 23.2441 6 22.3125V16.6875ZM7.6875 20.625V22.3125H9.375C9.375 21.3809 8.61914 20.625 7.6875 20.625ZM9.375 16.6875H7.6875V18.375C8.61914 18.375 9.375 17.6191 9.375 16.6875ZM22.3125 20.625C21.3809 20.625 20.625 21.3809 20.625 22.3125H22.3125V20.625ZM20.625 16.6875C20.625 17.6191 21.3809 18.375 22.3125 18.375V16.6875H20.625ZM17.25 19.5C17.25 18.259 16.241 17.25 15 17.25C13.759 17.25 12.75 18.259 12.75 19.5C12.75 20.741 13.759 21.75 15 21.75C16.241 21.75 17.25 20.741 17.25 19.5Z" fill="white"/>
</g>
<defs>
<clipPath id="clip0_997_1016">
<rect width="18" height="18" fill="white" transform="translate(6 6)"/>
</clipPath>
</defs>
</svg>
