<svg width="108" height="40" viewBox="0 0 108 40" fill="none" xmlns="http://www.w3.org/2000/svg">
<g filter="url(#filter0_d_1_158)">
<path d="M30.1642 11.4798V6.98378H31.1682V8.97533L33.1911 6.98378H34.5367L32.6661 8.73463L34.6337 11.4798H33.3389L31.9749 9.36887L31.1683 10.1203V11.4797H30.1643L30.1642 11.4798ZM35.1506 11.4798V6.98378H36.1546V8.7545H38.1072V6.98378H39.1112V11.4798H38.1072V9.51433H36.1546V11.4798H35.1506V11.4798ZM40.1509 6.98378H41.1549V9.42014C41.1549 9.80735 41.1676 10.0576 41.1918 10.1715C41.2345 10.3558 41.3349 10.5044 41.4941 10.6153C41.6545 10.7272 41.8727 10.7827 42.1495 10.7827C42.43 10.7827 42.6424 10.7304 42.7855 10.6247C42.9286 10.519 43.0139 10.3902 43.0428 10.2364C43.0716 10.0826 43.0867 9.82828 43.0867 9.47247V6.98378H44.0906V9.34794C44.0906 9.88791 44.064 10.2699 44.0099 10.4929C43.9556 10.7158 43.8564 10.9042 43.7109 11.058C43.5667 11.2118 43.3728 11.3332 43.1304 11.4243C42.8869 11.5153 42.5707 11.5614 42.1796 11.5614C41.7075 11.5614 41.3498 11.5121 41.1063 11.4127C40.8628 11.3134 40.6701 11.1846 40.5282 11.0255C40.3862 10.8664 40.294 10.7011 40.2489 10.5263C40.1832 10.2689 40.1509 9.88791 40.1509 9.38452V6.98369V6.98378ZM47.075 11.4798V6.98378H48.0466L50.0868 9.99678V6.98378H51.0147V11.4798H50.0119L48.0027 8.52427V11.4798H47.075V11.4798ZM52.0752 11.4798V6.98378H53.0791V8.7545H55.0317V6.98378H56.0357V11.4798H55.0317V9.51433H53.0791V11.4798H52.0752ZM61.5414 11.4798H60.4601L60.032 10.4562H58.0436L57.6317 11.4798H56.57L58.4949 6.98378H59.5554L61.5414 11.4798V11.4798ZM59.7065 9.69646L59.0176 8.0325L58.3483 9.69646H59.7065ZM59.5542 6.57564H58.9588L58.024 5.65894H59.0834L59.5542 6.57564V6.57564ZM65.1142 11.4798V7.74361H63.6463V6.98378H67.579V7.74361H66.1182V11.4798H65.1142V11.4798ZM68.2288 11.4798V6.98378H70.3371C70.8668 6.98378 71.2522 7.02459 71.4923 7.10524C71.7335 7.18579 71.925 7.32923 72.0693 7.53536C72.2136 7.74255 72.2863 7.97807 72.2863 8.24392C72.2863 8.58197 72.1777 8.86031 71.9597 9.08007C71.7416 9.29984 71.4162 9.438 70.9823 9.49561C71.198 9.60967 71.3758 9.73525 71.5154 9.87235C71.6562 10.0095 71.8454 10.2533 72.0832 10.6028L72.6878 11.4799H71.4911L70.7732 10.4982C70.5159 10.1497 70.3394 9.92996 70.2436 9.83894C70.149 9.74898 70.0486 9.68619 69.9425 9.65268C69.8352 9.61917 69.6666 9.60247 69.4359 9.60247H69.2328V11.48H68.2289L68.2288 11.4798ZM69.2327 8.88642H69.9735C70.4536 8.88642 70.7525 8.8676 70.8725 8.83093C70.9913 8.79435 71.086 8.7305 71.1529 8.64044C71.221 8.55048 71.2544 8.43738 71.2544 8.30239C71.2544 8.1506 71.2094 8.02924 71.1205 7.93506C71.0317 7.84193 70.9059 7.78326 70.7443 7.75926C70.6624 7.74879 70.4189 7.74361 70.0138 7.74361H69.2325V8.88642H69.2327ZM73.0212 9.25904C73.0212 8.80068 73.0975 8.41549 73.2485 8.10365C73.3605 7.87447 73.5151 7.66834 73.7101 7.48621C73.9051 7.30417 74.1186 7.16908 74.3506 7.08018C74.6599 6.96189 75.0164 6.90227 75.4203 6.90227C76.1519 6.90227 76.7358 7.10841 77.1755 7.51971C77.6141 7.93208 77.8333 8.50449 77.8333 9.23811C77.8333 9.96548 77.6152 10.5348 77.1802 10.945C76.7452 11.3563 76.1623 11.5614 75.4342 11.5614C74.6968 11.5614 74.1094 11.3572 73.6743 10.9481C73.2393 10.5399 73.0212 9.97691 73.0212 9.25894V9.25904ZM74.0529 9.2287C74.0529 9.73832 74.1833 10.1246 74.443 10.3883C74.7027 10.651 75.0327 10.7828 75.432 10.7828C75.8324 10.7828 76.1602 10.652 76.4176 10.3914C76.6738 10.1298 76.8019 9.73832 76.8019 9.21612C76.8019 8.70016 76.6772 8.31506 76.4268 8.06179C76.1776 7.80746 75.8463 7.68082 75.432 7.68082C75.0189 7.68082 74.6854 7.80957 74.4326 8.06592C74.1799 8.32332 74.053 8.71063 74.053 9.2286L74.0529 9.2287ZM74.9184 12.7105V11.8503H75.867V12.7105H74.9184Z" fill="#354B9C"/>
<path d="M25.3551 20.8439C25.3551 22.0756 24.9552 23.0894 24.1553 23.8852L26.2692 25.9166H23.2452L22.2301 24.8933C21.933 24.9539 21.6226 24.9842 21.299 24.9842C20.5487 24.9842 19.865 24.8156 19.2499 24.4764C18.6347 24.1372 18.1548 23.6616 17.8121 23.0496C17.4712 22.4375 17.2999 21.744 17.2999 20.9709C17.2999 20.1599 17.4732 19.4322 17.8178 18.7841C18.1645 18.1361 18.65 17.6358 19.2747 17.2834C19.8994 16.929 20.6096 16.7529 21.4056 16.7529C22.1712 16.7529 22.8568 16.9215 23.4604 17.2607C24.066 17.5999 24.5325 18.0831 24.862 18.7103C25.1913 19.3356 25.3552 20.0481 25.3552 20.844L25.3551 20.8439ZM22.7957 20.9121C22.7957 20.2584 22.67 19.7429 22.4167 19.3659C22.1635 18.9887 21.8187 18.7993 21.3807 18.7993C20.9008 18.7993 20.5276 18.9812 20.261 19.3431C19.9924 19.7051 19.8592 20.2167 19.8592 20.88C19.8592 21.5261 19.9924 22.0321 20.2571 22.3939C20.5238 22.7559 20.8836 22.9378 21.3407 22.9378C21.7769 22.9378 22.1272 22.754 22.3938 22.3883C22.6623 22.0226 22.7957 21.5299 22.7957 20.9121V20.9121ZM33.458 21.2116C33.458 22.4869 33.1647 23.4361 32.5801 24.0558C31.9936 24.6754 31.091 24.9843 29.8722 24.9843C28.7334 24.9843 27.8708 24.6754 27.2804 24.0558C26.692 23.4361 26.3969 22.502 26.3969 21.2552V16.8893H28.8192V21.3461C28.8192 21.8558 28.9144 22.248 29.1067 22.5247C29.2991 22.7995 29.5733 22.9378 29.9313 22.9378C30.2912 22.9378 30.5655 22.809 30.7541 22.5494C30.9425 22.2898 31.0359 21.907 31.0359 21.4011V16.8893H33.4582V21.2116H33.458ZM39.9613 24.8479L39.609 23.3812H37.221L36.842 24.8479H34.2369L36.9925 16.8892H39.9842L42.5779 24.8479H39.9613ZM38.4398 18.6174H38.3846C38.3769 18.7065 38.3521 18.8524 38.3064 19.0551C38.2627 19.2597 38.0361 20.1333 37.6304 21.6758H39.1615L38.6036 19.5118C38.5255 19.1934 38.4703 18.8941 38.4398 18.6174V18.6174ZM49.1021 24.8479L46.2779 21.0069C46.0551 20.7038 45.8724 20.4308 45.7314 20.1864H45.7086C45.7314 20.5786 45.7428 21.0182 45.7428 21.5071V24.8479H43.5148V16.8892H45.7923L48.4984 20.5407C48.5308 20.5881 48.5727 20.6448 48.6203 20.7131C48.668 20.7794 48.7175 20.8476 48.765 20.9177C48.8145 20.9878 48.8602 21.056 48.9021 21.1223C48.944 21.1886 48.9784 21.2492 48.9993 21.3005H49.022C48.9993 21.1376 48.9878 20.857 48.9878 20.4572V16.8891H51.2159V24.8478H49.1021V24.8479ZM59.7968 24.323C59.4959 24.4935 59.0465 24.647 58.4466 24.7815C57.8486 24.9161 57.2773 24.9843 56.7346 24.9843C55.3349 24.9843 54.2514 24.6357 53.4896 23.9384C52.7279 23.241 52.3471 22.2633 52.3471 21.0051C52.3471 20.1618 52.5394 19.4115 52.9241 18.7558C53.3088 18.1021 53.8514 17.6037 54.5503 17.2627C55.2492 16.9235 56.0738 16.753 57.0222 16.753C57.7173 16.753 58.46 16.8515 59.2483 17.0466V19.1405C58.8808 18.9738 58.5266 18.8582 58.1876 18.7937C57.8486 18.7293 57.4792 18.6972 57.0774 18.6972C56.4147 18.6972 55.8872 18.8961 55.4949 19.2921C55.1027 19.6882 54.9065 20.232 54.9065 20.9236C54.9065 21.5869 55.0703 22.106 55.3997 22.4794C55.7292 22.8527 56.1881 23.0403 56.7785 23.0403C57.0527 23.0403 57.2565 23.0251 57.386 22.9948V21.8578H55.8549V20.0387H59.7969V24.3231L59.7968 24.323ZM69.4498 24.8479V21.8805H66.6847V24.8479H64.2738V16.8892H66.6847V19.8338H69.4498V16.8892H71.8607V24.8479H69.4498ZM73.4394 24.8479V16.8892H75.8503V24.8479H73.4394ZM77.4232 24.8479V16.8892H82.4031V18.7651H79.8342V19.9248H82.2451V21.8008H79.8342V22.9718H82.5878V24.8478H77.4232V24.8479ZM82.7707 15.3373H81.4223L82.5822 13.7171H84.576L82.7707 15.3373ZM80.6797 16.3207L79.8532 15.4718L79.0344 16.3207H77.5719L79.0002 14.5394H80.7693L82.1976 16.3207H80.6798H80.6797ZM90.6984 21.2115C90.6984 22.4868 90.4051 23.436 89.8204 24.0557C89.2339 24.6753 88.3313 24.9842 87.1125 24.9842C85.9737 24.9842 85.111 24.6753 84.5207 24.0557C83.9323 23.436 83.6372 22.5019 83.6372 21.2551V16.8892H86.0594V21.346C86.0594 21.8557 86.1546 22.2479 86.3469 22.5246C86.5393 22.7994 86.8136 22.9378 87.1715 22.9378C87.5314 22.9378 87.8057 22.8089 87.9943 22.5493C88.1828 22.2897 88.2761 21.9069 88.2761 21.401V16.8892H90.6985V21.2115H90.6984Z" fill="#ED3237"/>
<path fill-rule="evenodd" clip-rule="evenodd" d="M4.34921 17.8117C3.58766 18.6269 4.11854 20.0969 5.48646 20.2009C5.80448 20.2251 6.14169 20.1652 6.40967 20.0283C6.48706 19.9888 6.59752 19.9105 6.65529 19.8921C6.69366 19.8336 6.79236 19.7655 6.85034 19.7126C6.91236 19.6562 6.99451 19.564 7.06225 19.5296C7.11218 19.4488 7.53176 19.0927 7.63766 18.9963C7.77748 18.8693 9.3043 17.4716 9.37988 17.4246L9.38052 31.9882C10.6455 31.9745 11.9166 31.9878 13.1792 31.9878H53.9998V29.0327L13.9034 29.032C13.692 29.032 12.7707 29.0563 12.6394 29.023L12.6406 14.5078C12.6497 14.4669 12.6359 14.4902 12.6606 14.4681L21.048 6.8585C21.0714 6.80589 21.0625 6.82202 21.1081 6.78102L21.3095 6.59947C21.387 6.52909 22.0669 5.89466 22.125 5.87229C22.1645 5.80201 22.4997 5.5181 22.5877 5.43832C22.7532 5.28806 23.9375 4.19863 24.0098 4.16148L27.2262 7.08019L29.408 4.92783H29.4619C27.7414 3.37496 26.3299 2.08237 26.1296 1.90072L24.1583 0.113004C24.1329 0.089962 24.1202 0.0777687 24.095 0.0542461C24.0481 0.0100813 24.0642 0.0120973 23.9935 0C23.9677 0.0438768 22.9155 0.984779 22.7825 1.10546L4.50928 17.6772C4.48119 17.7027 4.45437 17.7232 4.42978 17.7498C4.38621 17.7967 4.41038 17.8113 4.34911 17.8117H4.34921Z" fill="#354B9C"/>
<path fill-rule="evenodd" clip-rule="evenodd" d="M103.651 17.8117C104.412 18.6269 103.881 20.0969 102.513 20.2009C102.195 20.2251 101.858 20.1652 101.59 20.0283C101.513 19.9888 101.402 19.9105 101.345 19.8921C101.306 19.8336 101.208 19.7655 101.15 19.7126C101.088 19.6562 101.005 19.564 100.938 19.5296C100.888 19.4488 100.468 19.0927 100.362 18.9963C100.222 18.8693 98.6956 17.4716 98.62 17.4246L98.6193 31.9882C97.3543 31.9745 96.0832 31.9878 94.8206 31.9878H54.0001V29.0327L94.0965 29.032C94.3079 29.032 95.2292 29.0563 95.3605 29.023L95.3594 14.5078C95.3502 14.4669 95.364 14.4902 95.3393 14.4681L86.952 6.8585C86.9285 6.80589 86.9375 6.82202 86.8919 6.78102L86.6905 6.59947C86.613 6.52909 85.9331 5.89466 85.875 5.87229C85.8355 5.80201 85.5003 5.5181 85.4123 5.43832C85.2468 5.28806 84.0625 4.19863 83.9902 4.16148L80.7738 7.08019L78.592 4.92783H78.5382C80.2586 3.37496 81.6701 2.08237 81.8704 1.90072L83.8417 0.113004C83.8671 0.089962 83.8797 0.0777687 83.9049 0.0542461C83.9518 0.0100813 83.9357 0.0120973 84.0065 0C84.0323 0.0438768 85.0845 0.984779 85.2176 1.10546L103.491 17.6772C103.519 17.7027 103.546 17.7232 103.57 17.7498C103.614 17.7967 103.59 17.8113 103.651 17.8117H103.651Z" fill="#ED3237"/>
</g>
<defs>
<filter id="filter0_d_1_158" x="0" y="0" width="108" height="39.9882" filterUnits="userSpaceOnUse" color-interpolation-filters="sRGB">
<feFlood flood-opacity="0" result="BackgroundImageFix"/>
<feColorMatrix in="SourceAlpha" type="matrix" values="0 0 0 0 0 0 0 0 0 0 0 0 0 0 0 0 0 0 127 0" result="hardAlpha"/>
<feOffset dy="4"/>
<feGaussianBlur stdDeviation="2"/>
<feComposite in2="hardAlpha" operator="out"/>
<feColorMatrix type="matrix" values="0 0 0 0 0 0 0 0 0 0 0 0 0 0 0 0 0 0 0.25 0"/>
<feBlend mode="normal" in2="BackgroundImageFix" result="effect1_dropShadow_1_158"/>
<feBlend mode="normal" in="SourceGraphic" in2="effect1_dropShadow_1_158" result="shape"/>
</filter>
</defs>
</svg>
