<svg width="59" height="58" viewBox="0 0 59 58" fill="none" xmlns="http://www.w3.org/2000/svg">
<rect width="59" height="58" rx="11" fill="url(#paint0_linear_184_121)"/>
<path d="M46 38.125C46 40.3993 44.1493 42.25 41.875 42.25V43.625C41.875 44.384 41.2604 45 40.5 45C39.7396 45 39.125 44.384 39.125 43.625V42.25H38.7565C37.2894 42.25 35.9199 41.4608 35.1843 40.1889C34.8034 39.5316 35.0289 38.6915 35.6847 38.3106C36.3447 37.9298 37.1849 38.1553 37.563 38.8125C37.8091 39.236 38.2656 39.5 38.7551 39.5H41.8736C42.6326 39.5 43.2486 38.8826 43.2486 38.125C43.2486 37.6052 42.876 37.1653 42.3631 37.08L38.1817 36.3829C36.3365 36.0763 34.9986 34.495 34.9986 32.625C34.9986 30.3507 36.8494 28.5 39.1236 28.5V27.125C39.1236 26.366 39.7383 25.75 40.4986 25.75C41.259 25.75 41.8736 26.366 41.8736 27.125V28.5H42.2421C43.7093 28.5 45.0787 29.2906 45.8144 30.5625C46.1952 31.2197 45.9698 32.0599 45.3139 32.4408C44.6525 32.8203 43.8137 32.5947 43.4356 31.9389C43.1895 31.514 42.733 31.2514 42.2435 31.2514H39.125C38.366 31.2514 37.75 31.8688 37.75 32.6264C37.75 33.1461 38.1226 33.5861 38.6355 33.6714L42.8169 34.3685C44.6621 34.6751 46 36.2564 46 38.1264V38.125ZM30.875 23H39.8675C39.3904 21.7446 38.6575 20.5896 37.6799 19.612L32.8894 14.8187C31.9104 13.8411 30.7554 13.1083 29.5 12.6325V21.625C29.5 22.3826 30.116 23 30.875 23ZM36.1949 44.5009C35.4001 44.8226 34.5339 45 33.625 45H19.875C16.0841 45 13 41.9159 13 38.125V18.875C13 15.0841 16.0841 12 19.875 12H26.0831C26.3073 12 26.5286 12.0179 26.75 12.033V21.625C26.75 23.8993 28.6007 25.75 30.875 25.75H36.6115C36.5496 25.9246 36.4988 26.1034 36.4603 26.2876C34.769 27.0013 33.4201 28.3749 32.7368 30.0826C32.3696 29.9493 31.9736 29.875 31.5611 29.875H21.9375C20.0427 29.875 18.5 31.4178 18.5 33.3125V36.0625C18.5 37.9573 20.0427 39.5 21.9375 39.5H31.5625C31.7976 39.5 32.0273 39.4766 32.2486 39.4313C32.2349 40.1738 32.4233 40.908 32.8041 41.5653C33.5824 42.9128 34.7896 43.9358 36.1949 44.5023V44.5009ZM18.5 20.25C18.5 21.009 19.116 21.625 19.875 21.625H22.625C23.384 21.625 24 21.009 24 20.25C24 19.491 23.384 18.875 22.625 18.875H19.875C19.116 18.875 18.5 19.491 18.5 20.25ZM18.5 25.75C18.5 26.509 19.116 27.125 19.875 27.125H22.625C23.384 27.125 24 26.509 24 25.75C24 24.991 23.384 24.375 22.625 24.375H19.875C19.116 24.375 18.5 24.991 18.5 25.75ZM21.9375 32.625C21.558 32.625 21.25 32.933 21.25 33.3125V36.0625C21.25 36.442 21.558 36.75 21.9375 36.75H31.5625C31.942 36.75 32.25 36.442 32.25 36.0625V33.3125C32.25 32.933 31.942 32.625 31.5625 32.625H21.9375Z" fill="white"/>
<defs>
<linearGradient id="paint0_linear_184_121" x1="29.5" y1="1.84662e-08" x2="29" y2="58" gradientUnits="userSpaceOnUse">
<stop stop-color="#6C84DD"/>
<stop offset="1" stop-color="#0329B7"/>
<stop offset="1" stop-color="#89A2FF"/>
</linearGradient>
</defs>
</svg>
