<svg width="19" height="22" viewBox="0 0 19 22" fill="none" xmlns="http://www.w3.org/2000/svg">
<path d="M9.46849 0C7.48355 0 5.57992 0.788513 4.17635 2.19207C2.77279 3.59564 1.98428 5.49927 1.98428 7.48421V13.3219L0.327774 15.8166C0.129224 16.1228 0.0166041 16.4766 0.00169939 16.8412C-0.0132053 17.2058 0.0701532 17.5677 0.243052 17.889C0.41595 18.2103 0.672033 18.4792 0.984501 18.6677C1.29697 18.8561 1.65434 18.957 2.01921 18.96H16.9178C17.285 18.9588 17.645 18.8583 17.9598 18.6691C18.2745 18.4799 18.5322 18.2091 18.7056 17.8854C18.879 17.5617 18.9615 17.1971 18.9446 16.8302C18.9276 16.4634 18.8117 16.108 18.6092 15.8017L16.9527 13.3219V7.48421C16.9527 5.49927 16.1642 3.59564 14.7606 2.19207C13.3571 0.788513 11.4534 0 9.46849 0Z" fill="#62ADF1"/>
<path d="M9.46849 21.9537C10.087 21.953 10.6901 21.7607 11.1949 21.4033C11.6997 21.046 12.0814 20.541 12.2875 19.9579H6.64944C6.8556 20.541 7.23732 21.046 7.74211 21.4033C8.2469 21.7607 8.85 21.953 9.46849 21.9537Z" fill="#62ADF1"/>
</svg>
