<svg width="18" height="21" viewBox="0 0 18 21" fill="none" xmlns="http://www.w3.org/2000/svg">
<path d="M1.5 18.375V2.625C1.5 2.39294 1.57902 2.17038 1.71967 2.00628C1.86032 1.84219 2.05109 1.75 2.25 1.75H6V0H2.25C1.65326 0 1.08097 0.276562 0.65901 0.768845C0.237053 1.26113 0 1.92881 0 2.625V18.375C0 19.0712 0.237053 19.7389 0.65901 20.2312C1.08097 20.7234 1.65326 21 2.25 21H6V19.25H2.25C2.05109 19.25 1.86032 19.1578 1.71967 18.9937C1.57902 18.8296 1.5 18.6071 1.5 18.375Z" fill="white"/>
<path d="M18 11.375V9.625L5.667 9.65213L8.90925 5.86862L7.84725 4.63138L4.40775 8.64412C3.98594 9.13638 3.74898 9.80394 3.74898 10.5C3.74898 11.1961 3.98594 11.8636 4.40775 12.3559L7.84725 16.3686L8.90775 15.1314L5.7105 11.4012L18 11.375Z" fill="white"/>
</svg>
