<svg width="30" height="30" viewBox="0 0 30 30" fill="none" xmlns="http://www.w3.org/2000/svg">
<rect width="30" height="30" rx="5" fill="#35373F"/>
<path d="M18.5669 16.6C18.9606 16.6 19.311 16.4375 19.6181 16.1125C19.9252 15.7875 20.0787 15.4125 20.0787 14.9875C20.0787 14.5625 19.9252 14.1917 19.6181 13.875C19.311 13.5583 18.9606 13.4 18.5669 13.4C18.1732 13.4 17.8228 13.5583 17.5157 13.875C17.2087 14.1917 17.0551 14.5625 17.0551 14.9875C17.0551 15.4125 17.2087 15.7875 17.5157 16.1125C17.8228 16.4375 18.1732 16.6 18.5669 16.6ZM7.41732 21.175V22.5V7.5V21.175ZM7.41732 24C7.05512 24 6.72835 23.85 6.43701 23.55C6.14567 23.25 6 22.9 6 22.5V7.5C6 7.11667 6.14567 6.77083 6.43701 6.4625C6.72835 6.15417 7.05512 6 7.41732 6H21.5906C21.9685 6 22.2992 6.15417 22.5827 6.4625C22.8661 6.77083 23.0079 7.11667 23.0079 7.5V10.85H21.5906V7.5H7.41732V22.5H21.5906V19.175H23.0079V22.5C23.0079 22.9 22.8661 23.25 22.5827 23.55C22.2992 23.85 21.9685 24 21.5906 24H7.41732ZM15.874 19.675C15.3386 19.675 14.9134 19.5083 14.5984 19.175C14.2835 18.8417 14.126 18.4 14.126 17.85V12.175C14.126 11.6083 14.2835 11.1625 14.5984 10.8375C14.9134 10.5125 15.3386 10.35 15.874 10.35H22.252C22.7874 10.35 23.2126 10.5125 23.5276 10.8375C23.8425 11.1625 24 11.6083 24 12.175V17.85C24 18.4 23.8425 18.8417 23.5276 19.175C23.2126 19.5083 22.7874 19.675 22.252 19.675H15.874ZM22.5827 18.175V11.85H15.5433V18.175H22.5827Z" fill="white"/>
</svg>
