<svg width="30" height="30" viewBox="0 0 30 30" fill="none" xmlns="http://www.w3.org/2000/svg">
<rect width="30" height="30" rx="5" fill="#35373F"/>
<path d="M13.7765 15.201L16.4022 15.6458C17.5601 15.8414 18.4011 16.8503 18.4011 18.0434C18.4011 19.4944 17.2389 20.6753 15.8108 20.6753V21.5526H14.0839V20.6753C12.6558 20.6753 11.4936 19.4944 11.4936 18.0434H13.2205C13.2205 18.5268 13.6073 18.9207 14.0839 18.9207H15.8108C16.2874 18.9207 16.6742 18.5268 16.6742 18.0434C16.6742 17.7118 16.4402 17.4311 16.1182 17.3767L13.4925 16.9319C12.3346 16.7363 11.4936 15.7274 11.4936 14.5343C11.4936 13.0832 12.6558 11.9024 14.0839 11.9024V11.0251H15.8108V11.9024C17.2389 11.9024 18.4011 13.0832 18.4011 14.5343H16.6742C16.6742 14.0509 16.2874 13.657 15.8108 13.657H14.0839C13.6073 13.657 13.2205 14.0509 13.2205 14.5343C13.2205 14.8659 13.4545 15.1466 13.7765 15.201Z" fill="white"/>
<path d="M15.0026 26C13.2221 25.9999 11.4815 25.462 10.001 24.4542C8.52056 23.4464 7.36667 22.014 6.68529 20.3382C6.0039 18.6623 5.82562 16.8182 6.17298 15.0391C6.52034 13.26 7.37775 11.6258 8.63678 10.3431L15.0026 4L21.3612 10.3358C23.0496 12.0568 23.9986 14.39 24 16.8232C24.0013 19.2563 23.0549 21.5907 21.3684 23.3136C20.5344 24.1679 19.5423 24.8452 18.4496 25.3063C17.3569 25.7674 16.1853 26.0032 15.0026 26ZM15.0026 6.56622L9.90256 11.6473C8.89709 12.6746 8.2131 13.9825 7.93705 15.4057C7.661 16.8289 7.80526 18.3035 8.35162 19.6432C8.89797 20.9829 9.82189 22.1275 11.0066 22.9324C12.1913 23.7373 13.5837 24.1664 15.0077 24.1654C16.4317 24.1643 17.8234 23.7333 19.0071 22.9267C20.1907 22.1201 21.113 20.9741 21.6575 19.6336C22.202 18.2932 22.3442 16.8183 22.0662 15.3955C21.7881 13.9727 21.1023 12.6658 20.0955 11.64L15.0026 6.56622Z" fill="white"/>
</svg>
