<svg width="19" height="22" viewBox="0 0 19 22" fill="none" xmlns="http://www.w3.org/2000/svg">
<path d="M8.9389 10.4807C10.3787 10.4807 11.6255 9.96426 12.6443 8.94537C13.663 7.92665 14.1794 6.68019 14.1794 5.24017C14.1794 3.80065 13.663 2.55402 12.6441 1.53497C11.6252 0.516414 10.3786 0 8.9389 0C7.49888 0 6.25241 0.516414 5.2337 1.53513C4.21498 2.55385 3.6984 3.80048 3.6984 5.24017C3.6984 6.68019 4.21498 7.92682 5.23386 8.94554C6.25275 9.96409 7.49938 10.4807 8.9389 10.4807Z" fill="#62ADF1"/>
<path d="M18.1084 16.7304C18.079 16.3065 18.0196 15.844 17.9321 15.3556C17.8438 14.8636 17.7301 14.3985 17.5939 13.9734C17.4533 13.534 17.2621 13.1001 17.0257 12.6843C16.7804 12.2527 16.4922 11.8769 16.1689 11.5676C15.8307 11.2441 15.4167 10.984 14.938 10.7942C14.4609 10.6055 13.9322 10.5099 13.3667 10.5099C13.1446 10.5099 12.9298 10.601 12.515 10.8711C12.2597 11.0376 11.961 11.2301 11.6277 11.4431C11.3427 11.6247 10.9566 11.7949 10.4797 11.9489C10.0144 12.0995 9.54196 12.1758 9.07568 12.1758C8.6094 12.1758 8.13714 12.0995 7.67135 11.9489C7.19494 11.795 6.80883 11.6249 6.52415 11.4433C6.19398 11.2323 5.89519 11.0397 5.63607 10.8709C5.22174 10.6009 5.00678 10.5097 4.78468 10.5097C4.21896 10.5097 3.69043 10.6055 3.21352 10.7944C2.73512 10.9838 2.32096 11.2439 1.98249 11.5678C1.6593 11.8772 1.37096 12.2528 1.12595 12.6843C0.88974 13.1001 0.698512 13.5338 0.557747 13.9736C0.421796 14.3987 0.308089 14.8636 0.219779 15.3556C0.132299 15.8433 0.0728724 16.306 0.043491 16.7309C0.0146077 17.1472 0 17.5793 0 18.0157C0 19.1515 0.361042 20.0709 1.073 20.749C1.77616 21.4182 2.70657 21.7576 3.838 21.7576H14.3144C15.4458 21.7576 16.3759 21.4183 17.0792 20.749C17.7913 20.0714 18.1524 19.1518 18.1524 18.0156C18.1522 17.5772 18.1374 17.1448 18.1084 16.7304Z" fill="#62ADF1"/>
</svg>
