<svg xmlns="http://www.w3.org/2000/svg" version="1.1" width="3300" height="2000"><g id="Notes"><style>
    text {
      font-family: monospace;
      text-anchor: middle;
    }
    text.emphasis {
      font-weight:bold;
    }
    text.lanchor {
      text-anchor: start;
    }
  </style><rect height="2200" id="artboard" fill="white" width="3300" x="0" y="0"/><line id="" style="fill:none;stroke:black;stroke-width:0.5;" x1="263" x2="3036" y1="292" y2="292"/><text class="lanchor emphasis" transform="matrix(1 0 0 1 263 322)">Weight/Scale Variations</text><text transform="matrix(1 0 0 1 559.711 322)">Ultralight</text><text transform="matrix(1 0 0 1 856.422 322)">Thin</text><text transform="matrix(1 0 0 1 1153.13 322)">Light</text><text transform="matrix(1 0 0 1 1449.84 322)">Regular</text><text transform="matrix(1 0 0 1 1746.56 322)">Medium</text><text transform="matrix(1 0 0 1 2043.27 322)">Semibold</text><text transform="matrix(1 0 0 1 2339.98 322)">Bold</text><text transform="matrix(1 0 0 1 2636.69 322)">Heavy</text><text transform="matrix(1 0 0 1 2933.4 322)">Black</text><text id="template-version" style="text-anchor: end;" transform="matrix(1 0 0 1 3036 1933)">Template v.1.0</text><text class="lanchor" transform="matrix(1 0 0 1 263 726)">Small</text><text class="lanchor" transform="matrix(1 0 0 1 263 1156)">Medium</text><text class="lanchor" transform="matrix(1 0 0 1 263 1586)">Large</text></g><g id="Guides"><g id="H-reference" style="fill:#27AAE1;stroke:none;" transform="matrix(1 0 0 1 339 696)"><path d="M 54.9316 0 L 57.666 0 L 30.5664 -70.459 L 28.0762 -70.459 L 0.976562 0 L 3.66211 0 L 12.9395 -24.4629 L 45.7031 -24.4629 Z M 29.1992 -67.0898 L 29.4434 -67.0898 L 44.8242 -26.709 L 13.8184 -26.709 Z"/></g><line id="Baseline-S" style="fill:none;stroke:#27AAE1;opacity:1;stroke-width:0.577;" x1="263" x2="3036" y1="696" y2="696"/><line id="Capline-S" style="fill:none;stroke:#27AAE1;opacity:1;stroke-width:0.577;" x1="263" x2="3036" y1="625.541" y2="625.541"/><g id="H-reference" style="fill:#27AAE1;stroke:none;" transform="matrix(1 0 0 1 339 1126)"><path d="M 54.9316 0 L 57.666 0 L 30.5664 -70.459 L 28.0762 -70.459 L 0.976562 0 L 3.66211 0 L 12.9395 -24.4629 L 45.7031 -24.4629 Z M 29.1992 -67.0898 L 29.4434 -67.0898 L 44.8242 -26.709 L 13.8184 -26.709 Z"/></g><line id="Baseline-M" style="fill:none;stroke:#27AAE1;opacity:1;stroke-width:0.577;" x1="263" x2="3036" y1="1126" y2="1126"/><line id="Capline-M" style="fill:none;stroke:#27AAE1;opacity:1;stroke-width:0.577;" x1="263" x2="3036" y1="1055.54" y2="1055.54"/><g id="H-reference" style="fill:#27AAE1;stroke:none;" transform="matrix(1 0 0 1 339 1556)"><path d="M 54.9316 0 L 57.666 0 L 30.5664 -70.459 L 28.0762 -70.459 L 0.976562 0 L 3.66211 0 L 12.9395 -24.4629 L 45.7031 -24.4629 Z M 29.1992 -67.0898 L 29.4434 -67.0898 L 44.8242 -26.709 L 13.8184 -26.709 Z"/></g><line id="Baseline-L" style="fill:none;stroke:#27AAE1;opacity:1;stroke-width:0.577;" x1="263" x2="3036" y1="1556" y2="1556"/><line id="Capline-L" style="fill:none;stroke:#27AAE1;opacity:1;stroke-width:0.577;" x1="263" x2="3036" y1="1485.54" y2="1485.54"/><rect height="119.336" id="left-margin" style="fill:darkred;stroke:none;opacity:0.4;" width="12.4512" x="1394.06" y="1030.79"/><rect height="119.336" id="right-margin" style="fill:darkgreen;stroke:none;opacity:0.4;" width="12.4512" x="1502.5112" y="1030.79"/><rect x="1406.5112" y="1045" width="96" height="96" fill="none" stroke="blue" stroke-dasharray="5"/><rect x="1394.06" y="1030.79" width="120.9024" height="119.336" fill="none" stroke="blue"/></g><g id="Symbols"><g id="Bold-L" transform="matrix(1 0 0 1 2266 1556)"><path d="M77.56125 7.985000000000014 Q80.625 7.985000000000014 82.479375 6.706126250000011 Q84.33375000000001 5.427252500000037 84.33375000000001 3.308750000000032 Q84.33375000000001 1.0512500000000102 82.56 -0.31937499999997954 Q80.78625 -1.6899999999999835 77.44111875 -1.6899999999999835 Q69.82125 -1.6899999999999835 64.419375 -5.801874999999981 Q59.0175 -9.913749999999979 57.24375 -18.782499999999985 Q56.93818125000001 -20.414349999999985 55.55917125 -21.694674999999975 Q54.18 -22.97499999999998 52.245000000000005 -22.97499999999998 Q49.695315 -22.97499999999998 48.4707825 -21.281874999999985 Q47.24625 -19.588749999999976 47.56875 -17.653749999999988 Q50.00668875000001 -3.9474999999999767 59.054265 2.0187500000000114 Q68.10184125 7.985000000000014 77.56125 7.985000000000014 Z M77.38339125 33.30125000000001 Q53.5733775 33.30125000000001 37.67106375 16.98839375000003 Q21.76875 0.6756987500000378 21.76875 -23.619999999999976 Q21.76875 -40.69798749999998 35.555625 -60.94211874999998 Q49.3425 -81.18624999999999 77.4 -105.05124999999998 Q105.4575 -81.18624999999999 119.325 -60.94211874999998 Q133.1925 -40.69798749999998 133.1925 -23.619999999999976 Q133.1925 0.6756987500000378 117.1929525 16.98839375000003 Q101.19340500000001 33.30125000000001 77.38339125 33.30125000000001 Z M77.3887125 18.14375000000001 Q94.815 18.14375000000001 106.344375 6.2206025000000125 Q117.87375 -5.702383749999981 117.87375 -23.619999999999976 Q117.87375 -35.55249999999998 107.55375000000001 -51.032499999999985 Q97.23375 -66.51249999999999 77.4 -84.73374999999999 Q57.566250000000004 -66.51249999999999 47.24625 -51.032499999999985 Q36.92625 -35.55249999999998 36.92625 -23.619999999999976 Q36.92625 -5.702383749999981 48.4443375 6.2206025000000125 Q59.962425 18.14375000000001 77.3887125 18.14375000000001 Z"/></g><g id="Semibold-L" transform="matrix(1 0 0 1 1970.27 1556)"><path d="M77.4209625 8.265413750000022 Q80.2744425 8.265413750000022 81.9185475 7.15698125000003 Q83.5626525 6.048548750000009 83.5626525 4.079847500000028 Q83.5626525 2.0327787500000056 81.96418125000001 0.8372712500000148 Q80.36554875 -0.35807499999998527 77.2829325 -0.35807499999998527 Q70.03152 -0.35807499999998527 63.92869125 -4.539932499999978 Q57.82570125 -8.72195124999999 55.981807499999995 -18.43194249999999 Q55.6689825 -19.985263749999973 54.398655 -21.094663749999995 Q53.12848875 -22.20390249999997 51.4739025 -22.20390249999997 Q49.26139125 -22.20390249999997 48.14876625 -20.650903749999983 Q47.03598 -19.098066249999988 47.35848000000001 -17.37333624999998 Q49.78803375 -3.7372299999999825 58.82803125 2.2641725000000292 Q67.8678675 8.265413750000022 77.4209625 8.265413750000022 Z M77.3906475 31.54862375000002 Q54.32786625 31.54862375000002 38.92462125 15.738061250000015 Q23.52137625 -0.07233999999996854 23.52137625 -23.619999999999976 Q23.52137625 -40.28373624999999 36.88755 -59.96381499999998 Q50.253885 -79.64389374999999 77.4 -102.73779624999999 Q104.546115 -79.64389374999999 117.95792250000001 -59.96381499999998 Q131.36973 -40.28373624999999 131.36973 -23.619999999999976 Q131.36973 -0.07233999999996854 115.91166 15.738061250000015 Q100.45342875 31.54862375000002 77.3906475 31.54862375000002 Z M77.39371125000001 18.774721250000027 Q95.09541375 18.774721250000027 106.80006750000001 6.672263750000013 Q118.50472125 -5.430193749999987 118.50472125 -23.619999999999976 Q118.50472125 -35.903057499999974 108.0094425 -51.69846249999998 Q97.51416375000001 -67.49402874999998 77.4 -85.64513499999998 Q57.28583625 -67.49402874999998 46.7905575 -51.69846249999998 Q36.29527875 -35.903057499999974 36.29527875 -23.619999999999976 Q36.29527875 -5.430193749999987 47.99364375 6.672263750000013 Q59.6918475 18.774721250000027 77.39371125000001 18.774721250000027 Z"/></g><g id="Medium-L" transform="matrix(1 0 0 1 1674.31 1556)"><path d="M77.3158275 8.47568375000003 Q80.011605 8.47568375000003 81.49784625000001 7.495122500000008 Q82.9840875 6.514561250000014 82.9840875 4.658412500000026 Q82.9840875 2.7688850000000116 81.51719625 1.7049575000000061 Q80.05014375 0.6410300000000291 77.16441375 0.6410300000000291 Q70.18938375 0.6410300000000291 63.5605575 -3.5933949999999726 Q56.93173125 -7.8279812499999935 55.03527 -18.169104999999988 Q54.7169625 -19.663569999999993 53.52822750000001 -20.644453749999983 Q52.33965375 -21.625337499999986 50.895337500000004 -21.625337499999986 Q48.936150000000005 -21.625337499999986 47.90721375 -20.177634999999995 Q46.87811625 -18.729932499999975 47.200616249999996 -17.163066249999986 Q49.6240425 -3.5793662499999783 58.658235 2.448158750000033 Q67.69242750000001 8.47568375000003 77.3158275 8.47568375000003 Z M77.39596875000001 30.233952500000015 Q54.8936925 30.233952500000015 39.864869999999996 14.800231250000024 Q24.8360475 -0.6334899999999806 24.8360475 -23.619999999999976 Q24.8360475 -39.97284624999999 37.886655 -59.229966249999976 Q50.93742375000001 -78.48708624999999 77.4 -101.00242374999999 Q103.86257625 -78.48708624999999 116.93253375 -59.229966249999976 Q130.0026525 -39.97284624999999 130.0026525 -23.619999999999976 Q130.0026525 -0.6334899999999806 114.95044875 14.800231250000024 Q99.898245 30.233952500000015 77.39596875000001 30.233952500000015 Z M77.39725875 19.247990000000016 Q95.30568375 19.247990000000016 107.1419175 7.0110500000000116 Q118.97798999999999 -5.226051249999983 118.97798999999999 -23.619999999999976 Q118.97798999999999 -36.16589499999998 108.35129250000001 -52.198014999999984 Q97.72443375 -68.23013499999999 77.4 -86.32867374999998 Q57.07556625 -68.23013499999999 46.4487075 -52.198014999999984 Q35.82201 -36.16589499999998 35.82201 -23.619999999999976 Q35.82201 -5.226051249999983 47.655502500000004 7.0110500000000116 Q59.488833750000005 19.247990000000016 77.39725875 19.247990000000016 Z"/></g><g id="Regular-L" transform="matrix(1 0 0 1 1378.56 1556)"><path d="M77.23875 8.630000000000024 Q79.81875000000001 8.630000000000024 81.189375 7.7431250000000205 Q82.56 6.856250000000017 82.56 5.08250000000001 Q82.56 3.308750000000032 81.189375 2.3412500000000307 Q79.81875000000001 1.3737500000000296 77.0775 1.3737500000000296 Q70.305 1.3737500000000296 63.290625 -2.899374999999978 Q56.276250000000005 -7.172499999999985 54.34125 -17.97624999999998 Q54.018750000000004 -19.42749999999998 52.89 -20.314374999999984 Q51.761250000000004 -21.201249999999987 50.471250000000005 -21.201249999999987 Q48.6975 -21.201249999999987 47.730000000000004 -19.830624999999984 Q46.7625 -18.45999999999998 47.085 -17.008749999999978 Q49.503750000000004 -3.463749999999976 58.533750000000005 2.583125000000024 Q67.56375 8.630000000000024 77.23875 8.630000000000024 Z M77.4 29.27000000000001 Q55.30875 29.27000000000001 40.554375 14.112500000000011 Q25.8 -1.0449999999999875 25.8 -23.619999999999976 Q25.8 -39.744999999999976 38.619375 -58.69187499999998 Q51.43875 -77.63874999999999 77.4 -99.72999999999999 Q103.36125 -77.63874999999999 116.180625 -58.69187499999998 Q129.0 -39.744999999999976 129.0 -23.619999999999976 Q129.0 -1.0449999999999875 114.245625 14.112500000000011 Q99.49125000000001 29.27000000000001 77.4 29.27000000000001 Z M77.4 19.595000000000027 Q95.46000000000001 19.595000000000027 107.3925 7.259375000000006 Q119.325 -5.0762499999999875 119.325 -23.619999999999976 Q119.325 -36.358749999999986 108.601875 -52.564374999999984 Q97.87875 -68.76999999999998 77.4 -86.82999999999998 Q56.92125 -68.76999999999998 46.198125000000005 -52.564374999999984 Q35.475 -36.358749999999986 35.475 -23.619999999999976 Q35.475 -5.0762499999999875 47.4075 7.259375000000006 Q59.34 19.595000000000027 77.4 19.595000000000027 Z"/></g><g id="Light-L" transform="matrix(1 0 0 1 1082.77 1556)"><path d="M77.54883375 8.009832500000016 Q79.69474875 7.94775125000001 80.81721 7.206485000000015 Q81.93983250000001 6.46538000000001 81.93983250000001 4.986556250000007 Q81.93983250000001 3.5569137500000068 80.799795 2.806456250000025 Q79.6597575 2.0559987500000148 77.449665 2.0559987500000148 Q70.73924625 2.180000000000007 63.22854375 -2.279207499999984 Q55.718002500000004 -6.738253749999984 53.7830025 -17.542003749999978 Q53.52258375 -18.99325374999998 52.61603625 -19.75612749999999 Q51.70948875 -20.519001249999988 50.61589125 -20.519001249999988 Q49.19366625 -20.519001249999988 48.381288749999996 -19.42749999999998 Q47.56875 -18.335998749999987 47.82933 -16.884748749999986 Q50.24808 -3.5877512499999824 59.4641625 2.2419200000000217 Q68.680245 8.07175250000003 77.54883375 8.009832500000016 Z M77.38855124999999 26.044838750000025 Q56.6732475 26.044838750000025 42.84928500000001 11.811623750000024 Q29.02516125 -2.4215912499999916 29.02516125 -23.619999999999976 Q29.02516125 -38.62850499999999 41.03828625 -56.52096624999999 Q53.05141125 -74.41358874999999 77.4 -95.51234499999998 Q101.74858875000001 -74.41358874999999 113.76171375000001 -56.52096624999999 Q125.77483875 -38.62850499999999 125.77483875 -23.619999999999976 Q125.77483875 -2.4215912499999916 111.9394275 11.811623750000024 Q98.103855 26.044838750000025 77.38855124999999 26.044838750000025 Z M77.4029025 18.726668750000016 Q95.087835 18.726668750000016 106.7723325 6.636305000000021 Q118.45666875 -5.454219999999992 118.45666875 -23.62580499999997 Q118.45666875 -36.11058624999998 107.9817075 -51.944207499999976 Q97.506585 -67.77766749999998 77.4 -85.713505 Q57.293415 -67.77766749999998 46.818292500000005 -51.944207499999976 Q36.34333125 -36.11058624999998 36.34333125 -23.62580499999997 Q36.34333125 -5.454219999999992 48.03057 6.636305000000021 Q59.71797 18.726668750000016 77.4029025 18.726668750000016 Z"/></g><g id="Thin-L" transform="matrix(1 0 0 1 787.282 1556)"><path d="M77.8589175 7.389665000000008 Q79.5707475 7.265663750000016 80.44520625 6.670006250000029 Q81.319665 6.074510000000032 81.319665 4.890612500000003 Q81.319665 3.8049162500000193 80.41021500000001 3.2715012500000284 Q79.50092625 2.738086250000009 77.82166875 2.738086250000009 Q71.17333125 2.9862500000000125 63.16662375 -1.659039999999976 Q55.15991625 -6.304168749999988 53.22491625 -17.107918749999982 Q53.0264175 -18.559168749999984 52.342233750000005 -19.19804124999999 Q51.65788875 -19.83691374999998 50.76069375 -19.83691374999998 Q49.6898325 -19.83691374999998 49.032416250000004 -19.024374999999978 Q48.375 -18.21199749999998 48.57349875 -16.76074749999998 Q50.99224875 -3.7117524999999887 60.3942525 1.9008762500000103 Q69.7964175 7.513666250000028 77.8589175 7.389665000000008 Z M77.37726375 22.82000000000002 Q58.03758375 22.82000000000002 45.14371125 9.511070000000018 Q32.25 -3.7980212499999766 32.25 -23.619999999999976 Q32.25 -37.512332499999985 43.456875000000004 -54.35054124999998 Q54.66375 -71.18874999999998 77.4 -91.29549624999999 Q100.13625 -71.18874999999998 111.343125 -54.35054124999998 Q122.55 -37.512332499999985 122.55 -23.619999999999976 Q122.55 -3.7980212499999766 109.63339125000002 9.511070000000018 Q96.7167825 22.82000000000002 77.37726375 22.82000000000002 Z M77.405805 17.858498750000024 Q94.71583125000001 17.858498750000024 106.152165 6.013235000000037 Q117.58849875 -5.832028749999978 117.58849875 -23.63160999999998 Q117.58849875 -35.862583749999985 107.36154 -51.32403999999998 Q97.13458125 -66.78533499999998 77.4 -84.5973325 Q57.66541875 -66.78533499999998 47.43846 -51.32403999999998 Q37.211501250000005 -35.862583749999985 37.211501250000005 -23.63160999999998 Q37.211501250000005 -5.832028749999978 48.65364 6.013235000000037 Q60.09577875 17.858498750000024 77.405805 17.858498750000024 Z"/></g><g id="Ultralight-L" transform="matrix(1 0 0 1 491.205 1556)"><path d="M78.045 7.0175000000000125 Q79.49625 6.856250000000017 80.221875 6.348151250000029 Q80.9475 5.840052500000013 80.9475 4.833046250000024 Q80.9475 3.9537500000000136 80.17656375 3.550625000000025 Q79.4056275 3.147500000000008 78.045 3.147500000000008 Q71.43375 3.4700000000000273 63.129375 -1.2868749999999807 Q54.825 -6.043749999999989 52.89 -16.847499999999982 Q52.72875 -18.298749999999984 52.17775875 -18.863124999999982 Q51.62692875 -19.42749999999998 50.847446250000004 -19.42749999999998 Q49.987500000000004 -19.42749999999998 49.423125 -18.782499999999985 Q48.85875 -18.13749999999999 49.02 -16.686249999999987 Q51.43875 -3.7862499999999812 60.9525 1.6962500000000205 Q70.46625 7.178750000000008 78.045 7.0175000000000125 Z M77.37033 20.88500000000002 Q58.85625 20.88500000000002 46.520625 8.130447500000031 Q34.185 -4.623943749999995 34.185 -23.619999999999976 Q34.185 -36.84249999999999 44.908125 -53.048124999999985 Q55.63125 -69.25374999999998 77.4 -88.76499999999999 Q99.16875 -69.25374999999998 109.891875 -53.048124999999985 Q120.61500000000001 -36.84249999999999 120.61500000000001 -23.619999999999976 Q120.61500000000001 -4.623943749999995 108.249705 8.130447500000031 Q95.88440999999999 20.88500000000002 77.37033 20.88500000000002 Z M77.40757875000001 17.337500000000006 Q94.4925 17.337500000000006 105.78 5.639296250000001 Q117.06750000000001 -6.05874624999997 117.06750000000001 -23.634996249999972 Q117.06750000000001 -35.713749999999976 106.98937500000001 -50.95187499999999 Q96.91125000000001 -66.18999999999998 77.4 -83.92749999999998 Q57.88875 -66.18999999999998 47.810625 -50.95187499999999 Q37.7325 -35.713749999999976 37.7325 -23.634996249999972 Q37.7325 -6.05874624999997 49.02757875 5.639296250000001 Q60.32249625000001 17.337500000000006 77.40757875000001 17.337500000000006 Z"/></g><g id="Bold-M" transform="matrix(1 0 0 1 2281.8 1126)"><path d="M61.75 -0.8549999999999898 Q63.875 -0.9799999999999898 65.3125 -2.4088749999999948 Q66.75 -3.8377499999999856 66.75 -5.85499999999999 Q66.75 -7.97999999999999 65.1875 -9.47999999999999 Q63.625 -10.97999999999999 61.375 -10.85499999999999 Q55.5 -10.47999999999999 51.375 -13.54249999999999 Q47.25 -16.60499999999999 45.875 -22.97999999999999 Q45.625 -24.60499999999999 44.3125 -25.85499999999999 Q43.0 -27.10499999999999 40.875 -27.10499999999999 Q38.5235 -27.10499999999999 37.01175 -25.41749999999999 Q35.5 -23.72999999999999 36.0 -21.47999999999999 Q38.125 -9.97999999999999 45.9585 -5.16749999999999 Q53.792125 -0.35499999999998977 61.75 -0.8549999999999898 Z M60.0 19.02000000000001 Q41.0555 19.02000000000001 28.40275 6.052000000000007 Q15.75 -6.915999999999997 15.75 -26.22999999999999 Q15.75 -39.72999999999999 26.6875 -55.72999999999999 Q37.625 -71.72999999999999 60.0 -90.72999999999999 Q82.375 -71.72999999999999 93.3125 -55.72999999999999 Q104.25 -39.72999999999999 104.25 -26.22999999999999 Q104.25 -6.915999999999997 91.59725 6.052000000000007 Q78.9445 19.02000000000001 60.0 19.02000000000001 Z M60.0175 3.2700000000000102 Q72.375 3.2700000000000102 80.4375 -5.116124999999997 Q88.5 -13.502124999999992 88.5 -26.22999999999999 Q88.5 -34.47999999999999 81.4375 -45.29249999999999 Q74.375 -56.10499999999999 60.0 -69.72999999999999 Q45.625 -56.10499999999999 38.5625 -45.29249999999999 Q31.5 -34.47999999999999 31.5 -26.22999999999999 Q31.5 -13.502124999999992 39.58 -5.116124999999997 Q47.659875 3.2700000000000102 60.0175 3.2700000000000102 Z"/></g><g id="Semibold-M" transform="matrix(1 0 0 1 1985.97 1126)"><path d="M61.587 -0.5832499999999925 Q63.44025 -0.7082499999999925 64.71475 -1.9778749999999832 Q65.989125 -3.247499999999988 65.989125 -5.039874999999995 Q65.989125 -7.001749999999987 64.616875 -8.311624999999992 Q63.244625 -9.621374999999986 61.212 -9.496374999999986 Q55.663 -9.121374999999986 50.8315 -12.238249999999994 Q46.000125 -15.355124999999987 44.57075 -22.59962499999999 Q44.32075 -24.11587499999999 43.116875 -25.20287499999999 Q41.913125 -26.289874999999995 40.114125 -26.289874999999995 Q38.024125 -26.289874999999995 36.6805 -24.76537499999999 Q35.337 -23.24087499999999 35.782625 -21.208249999999992 Q37.907625 -9.762624999999986 45.75925 -4.922999999999988 Q53.61075 -0.0832499999999925 61.587 -0.5832499999999925 Z M60.0 17.172250000000005 Q41.8465 17.172250000000005 29.722125 4.733875000000012 Q17.59775 -7.704624999999993 17.59775 -26.22999999999999 Q17.59775 -39.295249999999996 28.1005 -54.72462499999999 Q38.60325 -70.154 60.0 -88.33887499999999 Q81.39675 -70.154 91.8995 -54.72462499999999 Q102.40225 -39.295249999999996 102.40225 -26.22999999999999 Q102.40225 -7.704624999999993 90.277875 4.733875000000012 Q78.1535 17.172250000000005 60.0 17.172250000000005 Z M60.009875 3.9221250000000083 Q72.64675 3.9221250000000083 80.899375 -4.649374999999992 Q89.152125 -13.220874999999992 89.152125 -26.22999999999999 Q89.152125 -34.86037499999999 81.87225 -45.97174999999999 Q74.592375 -57.08324999999999 60.0 -70.70824999999999 Q45.407625 -57.08324999999999 38.12775 -45.97174999999999 Q30.847875 -34.86037499999999 30.847875 -26.22999999999999 Q30.847875 -13.220874999999992 39.110375 -4.649374999999992 Q47.373 3.9221250000000083 60.009875 3.9221250000000083 Z"/></g><g id="Medium-M" transform="matrix(1 0 0 1 1689.91 1126)"><path d="M61.464625 -0.37949999999999307 Q63.114125 -0.5044999999999931 64.26625 -1.6546249999999958 Q65.4185 -2.8047499999999843 65.4185 -4.428374999999988 Q65.4185 -6.2679999999999865 64.188875 -7.435124999999985 Q62.95925 -8.602249999999984 61.089625 -8.477249999999984 Q55.785375 -8.102249999999984 50.423875 -11.259874999999994 Q45.0625 -14.41749999999999 43.592375 -22.314249999999987 Q43.342375 -23.748999999999995 42.220125 -24.71374999999999 Q41.097875 -25.67837499999999 39.5435 -25.67837499999999 Q37.649625 -25.67837499999999 36.432125 -24.27624999999999 Q35.214625 -22.873999999999995 35.619625 -21.004499999999993 Q37.744625 -9.599624999999989 45.609625 -4.7394999999999925 Q53.47475 0.12050000000000693 61.464625 -0.37949999999999307 Z M60.0 15.786375000000007 Q42.439875 15.786375000000007 30.71175 3.745125000000016 Q18.983625 -8.296249999999986 18.983625 -26.22999999999999 Q18.983625 -38.96912499999999 29.16025 -53.97049999999999 Q39.337 -68.97187499999998 60.0 -86.54524999999998 Q80.663 -68.97187499999998 90.83975 -53.97049999999999 Q101.016375 -38.96912499999999 101.016375 -26.22999999999999 Q101.016375 -8.296249999999986 89.28825 3.745125000000016 Q77.560125 15.786375000000007 60.0 15.786375000000007 Z M60.004125 4.41125000000001 Q72.8505 4.41125000000001 81.245875 -4.2992499999999865 Q89.64125 -13.009749999999997 89.64125 -26.22999999999999 Q89.64125 -35.14574999999999 82.198375 -46.48137499999999 Q74.755375 -57.81699999999999 60.0 -71.442 Q45.244625 -57.81699999999999 37.801625 -46.48137499999999 Q30.35875 -35.14574999999999 30.35875 -26.22999999999999 Q30.35875 -13.009749999999997 38.75825 -4.2992499999999865 Q47.15775 4.41125000000001 60.004125 4.41125000000001 Z"/></g><g id="Regular-M" transform="matrix(1 0 0 1 1394.06 1126)"><path d="M61.375 -0.22999999999998977 Q62.875 -0.35499999999998977 63.9375 -1.4174999999999898 Q65.0 -2.4799999999999898 65.0 -3.9799999999999898 Q65.0 -5.72999999999999 63.875 -6.79249999999999 Q62.75 -7.85499999999999 61.0 -7.72999999999999 Q55.875 -7.35499999999999 50.125 -10.54249999999999 Q44.375 -13.72999999999999 42.875 -22.10499999999999 Q42.625 -23.47999999999999 41.5625 -24.35499999999999 Q40.5 -25.22999999999999 39.125 -25.22999999999999 Q37.375 -25.22999999999999 36.25 -23.91749999999999 Q35.125 -22.60499999999999 35.5 -20.85499999999999 Q37.625 -9.47999999999999 45.5 -4.60499999999999 Q53.375 0.27000000000001023 61.375 -0.22999999999998977 Z M60.0 14.77000000000001 Q42.875 14.77000000000001 31.4375 3.0200000000000102 Q20.0 -8.72999999999999 20.0 -26.22999999999999 Q20.0 -38.72999999999999 29.9375 -53.41749999999999 Q39.875 -68.10499999999999 60.0 -85.22999999999999 Q80.125 -68.10499999999999 90.0625 -53.41749999999999 Q100.0 -38.72999999999999 100.0 -26.22999999999999 Q100.0 -8.72999999999999 88.5625 3.0200000000000102 Q77.125 14.77000000000001 60.0 14.77000000000001 Z M60.0 4.77000000000001 Q73.0 4.77000000000001 81.5 -4.04249999999999 Q90.0 -12.85499999999999 90.0 -26.22999999999999 Q90.0 -35.35499999999999 82.4375 -46.85499999999999 Q74.875 -58.35499999999999 60.0 -71.97999999999999 Q45.125 -58.35499999999999 37.5625 -46.85499999999999 Q30.0 -35.35499999999999 30.0 -26.22999999999999 Q30.0 -12.85499999999999 38.5 -4.04249999999999 Q47.0 4.77000000000001 60.0 4.77000000000001 Z"/></g><g id="Light-M" transform="matrix(1 0 0 1 1098.18 1126)"><path d="M61.23075 -0.9992499999999893 Q62.538375 -1.1242499999999893 63.384625 -1.9777499999999861 Q64.23075 -2.831124999999986 64.23075 -4.03587499999999 Q64.23075 -5.441499999999991 63.3085 -6.2636249999999905 Q62.386375 -7.08574999999999 60.951875 -6.96074999999999 Q55.826875 -6.58574999999999 49.788375 -9.965499999999992 Q43.75 -13.34537499999999 42.25 -21.72037499999999 Q42.0 -22.99924999999999 41.177875 -23.72999999999999 Q40.35575 -24.46074999999999 39.221125 -24.46074999999999 Q37.85575 -24.46074999999999 36.947125 -23.43674999999999 Q36.0385 -22.41262499999999 36.3655 -20.80687499999999 Q38.39425 -9.912749999999988 46.173125 -5.22999999999999 Q53.952 -0.5473749999999882 61.23075 -0.9992499999999893 Z M59.991125 12.269875000000013 Q43.93275 12.269875000000013 33.2165 1.2363750000000095 Q22.500125 -9.797124999999994 22.500125 -26.22999999999999 Q22.500125 -37.86449999999999 31.812625 -51.73462499999999 Q41.125125 -65.60487499999999 60.0 -81.9605 Q78.874875 -65.60487499999999 88.187375 -51.73462499999999 Q97.499875 -37.86449999999999 97.499875 -26.22999999999999 Q97.499875 -9.797124999999994 86.77475 1.2363750000000095 Q76.0495 12.269875000000013 59.991125 12.269875000000013 Z M60.0 4.77000000000001 Q73.0 4.77000000000001 81.5 -4.04249999999999 Q90.0 -12.85499999999999 90.0 -26.22999999999999 Q90.0 -35.35499999999999 82.4375 -46.85499999999999 Q74.875 -58.35499999999999 60.0 -71.97999999999999 Q45.125 -58.35499999999999 37.5625 -46.85499999999999 Q30.0 -35.35499999999999 30.0 -26.22999999999999 Q30.0 -12.85499999999999 38.5 -4.04249999999999 Q47.0 4.77000000000001 60.0 4.77000000000001 Z"/></g><g id="Thin-M" transform="matrix(1 0 0 1 802.565 1126)"><path d="M61.0865 -1.7684999999999889 Q62.201875 -1.8934999999999889 62.83175 -2.5377499999999884 Q63.4615 -3.182124999999985 63.4615 -4.0917499999999905 Q63.4615 -5.153124999999989 62.74225 -5.734874999999988 Q62.022875 -6.316499999999991 60.903875 -6.191499999999991 Q55.778875 -5.816499999999991 49.451875 -9.38862499999999 Q43.125 -12.96074999999999 41.625 -21.33574999999999 Q41.375 -22.51849999999999 40.79325 -23.10499999999999 Q40.2115 -23.69149999999999 39.31725 -23.69149999999999 Q38.3365 -23.69149999999999 37.64425 -22.95599999999999 Q36.951875 -22.22037499999999 37.23075 -20.75887499999999 Q39.1635 -10.34537499999999 46.846125 -5.85499999999999 Q54.528875 -1.3646249999999895 61.0865 -1.7684999999999889 Z M59.982375 9.77000000000001 Q44.990375 9.77000000000001 34.995125 -0.5469999999999828 Q25.0 -10.864124999999987 25.0 -26.22999999999999 Q25.0 -36.99924999999999 33.6875 -50.05212499999999 Q42.375 -63.10499999999999 60.0 -78.69162499999999 Q77.625 -63.10499999999999 86.3125 -50.05212499999999 Q95.0 -36.99924999999999 95.0 -26.22999999999999 Q95.0 -10.864124999999987 84.987125 -0.5469999999999828 Q74.97425 9.77000000000001 59.982375 9.77000000000001 Z M60.0 4.77000000000001 Q73.0 4.77000000000001 81.5 -4.04249999999999 Q90.0 -12.85499999999999 90.0 -26.22999999999999 Q90.0 -35.35499999999999 82.4375 -46.85499999999999 Q74.875 -58.35499999999999 60.0 -71.97999999999999 Q45.125 -58.35499999999999 37.5625 -46.85499999999999 Q30.0 -35.35499999999999 30.0 -26.22999999999999 Q30.0 -12.85499999999999 38.5 -4.04249999999999 Q47.0 4.77000000000001 60.0 4.77000000000001 Z"/></g><g id="Ultralight-M" transform="matrix(1 0 0 1 506.415 1126)"><path d="M61.0 -2.2299999999999898 Q62.0 -2.3549999999999898 62.5 -2.873874999999984 Q63.0 -3.3927499999999924 63.0 -4.125374999999991 Q63.0 -4.97999999999999 62.402375 -5.41749999999999 Q61.80475 -5.85499999999999 60.875 -5.72999999999999 Q55.75 -5.35499999999999 49.25 -9.04249999999999 Q42.75 -12.72999999999999 41.25 -21.10499999999999 Q41.0 -22.22999999999999 40.5625 -22.72999999999999 Q40.125 -23.22999999999999 39.375 -23.22999999999999 Q38.625 -23.22999999999999 38.0625 -22.66749999999999 Q37.5 -22.10499999999999 37.75 -20.72999999999999 Q39.625 -10.60499999999999 47.25 -6.22999999999999 Q54.875 -1.8549999999999898 61.0 -2.2299999999999898 Z M59.977 8.27000000000001 Q45.625 8.27000000000001 36.0625 -1.6172499999999843 Q26.5 -11.504374999999996 26.5 -26.22999999999999 Q26.5 -36.47999999999999 34.8125 -49.04249999999999 Q43.125 -61.60499999999999 60.0 -76.72999999999999 Q76.875 -61.60499999999999 85.1875 -49.04249999999999 Q93.5 -36.47999999999999 93.5 -26.22999999999999 Q93.5 -11.504374999999996 83.9145 -1.6172499999999843 Q74.329 8.27000000000001 59.977 8.27000000000001 Z M60.0 4.77000000000001 Q73.0 4.77000000000001 81.5 -4.04249999999999 Q90.0 -12.85499999999999 90.0 -26.22999999999999 Q90.0 -35.35499999999999 82.4375 -46.85499999999999 Q74.875 -58.35499999999999 60.0 -71.97999999999999 Q45.125 -58.35499999999999 37.5625 -46.85499999999999 Q30.0 -35.35499999999999 30.0 -26.22999999999999 Q30.0 -12.85499999999999 38.5 -4.04249999999999 Q47.0 4.77000000000001 60.0 4.77000000000001 Z"/></g><g id="Bold-S" transform="matrix(1 0 0 1 2294.23 696)"><path d="M50.397375000000004 -9.883374999999987 Q51.679500000000004 -9.982 52.567125000000004 -10.912132374999999 Q53.454750000000004 -11.842264749999984 53.454750000000004 -13.23662499999999 Q53.454750000000004 -14.617374999999996 52.3205625 -15.652937499999993 Q51.186375000000005 -16.68849999999999 49.707 -16.491249999999994 Q43.395 -15.702249999999992 39.8938125 -19.055499999999995 Q36.392625 -22.408749999999998 35.603625 -26.74825 Q35.505 -27.833124999999995 34.6666875 -28.720749999999995 Q33.828375 -29.608374999999995 32.349000000000004 -29.608374999999995 Q30.7895415 -29.608374999999995 29.744708250000002 -28.52349999999999 Q28.699875000000002 -27.438624999999988 28.99575 -25.959249999999997 Q30.080625 -18.167874999999995 36.2612565 -13.4831875 Q42.441986625 -8.79849999999999 50.397375000000004 -9.883374999999987 Z M47.34 5.995250000000013 Q33.0831645 5.995250000000013 23.14945725 -3.940626999999992 Q13.21575 -13.876503999999997 13.21575 -28.12899999999999 Q13.21575 -38.484624999999994 21.3523125 -50.1716875 Q29.488875 -61.85875 47.34 -77.44149999999999 Q65.48700000000001 -61.168375 73.47562500000001 -49.57993749999999 Q81.46425 -37.991499999999995 81.46425 -28.12899999999999 Q81.46425 -13.876503999999997 71.53054275000001 -3.940626999999992 Q61.596835500000005 5.995250000000013 47.34 5.995250000000013 Z M47.3538075 -5.642499999999998 Q56.709375 -5.642499999999998 63.2679375 -12.209840125 Q69.82650000000001 -18.777081624999994 69.82650000000001 -28.12899999999999 Q69.82650000000001 -34.14512499999999 64.89525 -41.591312499999994 Q59.964000000000006 -49.037499999999994 47.34 -61.957375 Q34.716 -49.037499999999994 29.784750000000003 -41.591312499999994 Q24.8535 -34.14512499999999 24.8535 -28.12899999999999 Q24.8535 -18.777081624999994 31.42587 -12.209840125 Q37.998141375 -5.642499999999998 47.3538075 -5.642499999999998 Z"/></g><g id="Semibold-S" transform="matrix(1 0 0 1 1998.1 696)"><path d="M50.268768 -9.668964250000002 Q51.33648225000001 -9.76758925 52.09550025 -10.572073374999988 Q52.854419625000006 -11.37655749999999 52.854419625000006 -12.593491375 Q52.854419625000006 -13.845535749999996 51.870339375 -14.731089624999996 Q50.886259125 -15.616544874999988 49.578393000000005 -15.419294874999991 Q43.523607 -14.63029487499999 39.464991 -18.02644674999999 Q35.406473625 -21.422598624999992 34.57457175 -26.448134124999996 Q34.47594675 -27.447205374999996 33.723339375 -28.206223374999993 Q32.970830625000005 -28.965241374999998 31.748669625 -28.965241374999998 Q30.395534625 -28.965241374999998 29.483352000000004 -28.008973374999997 Q28.571268000000003 -27.052705374999988 28.824241125000004 -25.74483925 Q29.909116125000004 -17.996366124999994 36.104048250000005 -13.290276999999989 Q42.29888175000001 -8.584089249999991 50.268768 -9.668964250000002 Z M47.34 4.537375249999997 Q33.7072635 4.537375249999997 24.190444125 -4.980627624999997 Q14.673624750000002 -14.498729124999997 14.673624750000002 -28.12899999999999 Q14.673624750000002 -38.14160725 22.4671695 -49.378446624999995 Q30.260714250000003 -60.615286 47.34 -75.554902375 Q64.71516075 -59.924910999999994 72.36076800000001 -48.786696625 Q80.00637525 -37.64848225 80.00637525 -28.12899999999999 Q80.00637525 -14.498729124999997 70.489555875 -4.980627624999997 Q60.972736499999996 4.537375249999997 47.34 4.537375249999997 Z M47.347791375 -5.127973374999996 Q56.92378575 -5.127973374999996 63.632356875000006 -11.841574374999993 Q70.341026625 -18.55517537499999 70.341026625 -28.12899999999999 Q70.341026625 -34.445240874999996 65.23826774999999 -42.12724075 Q60.135508875000006 -49.809339249999994 47.34 -62.72921425 Q34.544491125 -49.809339249999994 29.44173225 -42.12724075 Q24.338973375 -34.445240874999996 24.338973375 -28.12899999999999 Q24.338973375 -18.55517537499999 31.055335875 -11.841574374999993 Q37.771797 -5.127973374999996 47.347791375 -5.127973374999996 Z"/></g><g id="Medium-S" transform="matrix(1 0 0 1 1701.85 696)"><path d="M50.172214125 -9.508205500000003 Q51.079169625000006 -9.606830500000001 51.74163375 -10.317029125000005 Q52.4041965 -11.027227749999994 52.4041965 -12.111017874999987 Q52.4041965 -13.266606999999993 51.532647374999996 -14.039531124999996 Q50.66109825 -14.812455249999985 49.481839125 -14.615205249999988 Q43.620160875 -13.826205249999987 39.143374875000006 -17.254508875 Q34.6666875 -20.682812499999997 33.802633875 -26.222973249999995 Q33.704008875 -27.157741 33.015803625000004 -27.820303749999994 Q32.327598375 -28.482767874999993 31.298446500000004 -28.482767874999993 Q30.100054125000003 -28.482767874999993 29.287384125 -27.623053749999997 Q28.474714125 -26.763240999999994 28.695634125 -25.5840805 Q29.780509125000002 -17.867759124999992 35.985994125000005 -13.145495499999996 Q42.19157775 -8.423330499999992 50.172214125 -9.508205500000003 Z M47.34 3.443919875000006 Q34.175436375000004 3.443919875000006 24.971258249999998 -5.760751374999984 Q15.767080125000001 -14.965521249999995 15.767080125000001 -28.12899999999999 Q15.767080125000001 -37.884294624999995 23.30331225 -48.783441999999994 Q30.839643000000002 -59.68258937499999 47.34 -74.13973225 Q64.136232 -58.992214374999996 71.52462525 -48.19169199999999 Q78.912919875 -37.391169624999996 78.912919875 -28.12899999999999 Q78.912919875 -14.965521249999995 69.70874175 -5.760751374999984 Q60.504563625 3.443919875000006 47.34 3.443919875000006 Z M47.343254625 -4.742053749999997 Q57.0845445 -4.742053749999997 63.905745375 -11.565325749999985 Q70.72694625 -18.388597750000002 70.72694625 -28.12899999999999 Q70.72694625 -34.670401749999996 65.495580375 -42.529334874999996 Q60.264115875 -50.388268 47.34 -63.308143 Q34.415884125 -50.388268 29.184419625000004 -42.529334874999996 Q23.953053750000002 -34.670401749999996 23.953053750000002 -28.12899999999999 Q23.953053750000002 -18.388597750000002 30.777509249999998 -11.565325749999985 Q37.60196475 -4.742053749999997 47.343254625 -4.742053749999997 Z"/></g><g id="Regular-S" transform="matrix(1 0 0 1 1405.73 696)"><path d="M50.1015 -9.390249999999995 Q50.8905 -9.488874999999993 51.48225 -10.129937499999997 Q52.074000000000005 -10.770999999999987 52.074000000000005 -11.757249999999999 Q52.074000000000005 -12.842124999999996 51.285000000000004 -13.532499999999999 Q50.496 -14.222874999999988 49.411125000000006 -14.025624999999991 Q43.690875000000005 -13.23662499999999 38.907562500000004 -16.68849999999999 Q34.12425 -20.14037499999999 33.236625000000004 -26.057874999999996 Q33.138 -26.945499999999996 32.4969375 -27.53725 Q31.855875 -28.12899999999999 30.96825 -28.12899999999999 Q29.883375 -28.12899999999999 29.143687500000002 -27.33999999999999 Q28.404 -26.550999999999988 28.60125 -25.46612499999999 Q29.686125 -17.773374999999987 35.8995 -13.039374999999993 Q42.112875 -8.305374999999998 50.1015 -9.390249999999995 Z M47.34 2.64200000000001 Q34.518750000000004 2.64200000000001 25.543875 -6.332874999999987 Q16.569 -15.307749999999999 16.569 -28.12899999999999 Q16.569 -37.69562499999999 23.9165625 -48.34712499999999 Q31.264125 -58.998625 47.34 -73.102 Q63.71175 -58.308249999999994 70.911375 -47.755374999999994 Q78.111 -37.20249999999999 78.111 -28.12899999999999 Q78.111 -15.307749999999999 69.136125 -6.332874999999987 Q60.16125 2.64200000000001 47.34 2.64200000000001 Z M47.34 -4.458999999999989 Q57.2025 -4.458999999999989 64.10625 -11.362749999999991 Q71.01 -18.266499999999994 71.01 -28.12899999999999 Q71.01 -34.835499999999996 65.68425 -42.824124999999995 Q60.3585 -50.812749999999994 47.34 -63.732625 Q34.3215 -50.812749999999994 28.99575 -42.824124999999995 Q23.67 -34.835499999999996 23.67 -28.12899999999999 Q23.67 -18.266499999999994 30.57375 -11.362749999999991 Q37.4775 -4.458999999999989 47.34 -4.458999999999989 Z"/></g><g id="Light-S" transform="matrix(1 0 0 1 1109.75 696)"><path d="M49.98768675 -9.997188249999994 Q50.624902875000004 -10.095813249999992 51.046031625000005 -10.571974749999995 Q51.46706175 -11.048037624999992 51.46706175 -11.801335374999994 Q51.46706175 -12.614498499999996 50.8380315 -13.115217625 Q50.209099875 -13.615936749999989 49.373154375000006 -13.418686749999992 Q43.652904375000006 -12.62968674999999 38.641965375000005 -16.23324699999999 Q33.631125000000004 -19.836905875 32.743500000000004 -25.75440587499999 Q32.644875 -26.566188249999996 32.193468375 -27.044124999999994 Q31.74206175 -27.52206174999999 31.044092625 -27.52206174999999 Q30.26268675 -27.52206174999999 29.693719125 -26.96068824999999 Q29.124751500000002 -26.399216124999995 29.2841295 -25.42815437499999 Q30.29306325 -18.114814749999994 36.430595625 -13.532499999999999 Q42.568128 -8.950283874999997 49.98768675 -9.997188249999994 Z M47.332997625 0.6694013750000067 Q35.35331475 0.6694013750000067 26.947506000000004 -7.740155124999987 Q18.541598625000002 -16.149711624999995 18.541598625000002 -28.12899999999999 Q18.541598625000002 -37.012745499999994 25.396036125 -47.019336624999994 Q32.250473625 -57.026026375 47.34 -70.5223645 Q62.725401375000004 -56.335651375 69.43190137500001 -46.42758662499999 Q76.138401375 -36.519620499999995 76.138401375 -28.12899999999999 Q76.138401375 -16.149711624999995 67.72559025 -7.740155124999987 Q59.3126805 0.6694013750000067 47.332997625 0.6694013750000067 Z M47.34 -4.458999999999989 Q57.2025 -4.458999999999989 64.10625 -11.362749999999991 Q71.01 -18.266499999999994 71.01 -28.12899999999999 Q71.01 -34.835499999999996 65.68425 -42.824124999999995 Q60.3585 -50.812749999999994 47.34 -63.732625 Q34.3215 -50.812749999999994 28.99575 -42.824124999999995 Q23.67 -34.835499999999996 23.67 -28.12899999999999 Q23.67 -18.266499999999994 30.57375 -11.362749999999991 Q37.4775 -4.458999999999989 47.34 -4.458999999999989 Z"/></g><g id="Thin-S" transform="matrix(1 0 0 1 814.015 696)"><path d="M49.8738735 -10.604126499999992 Q50.359404375000004 -10.70275149999999 50.60981325 -11.013814749999995 Q50.8601235 -11.32497662499999 50.8601235 -11.845420749999988 Q50.8601235 -12.38697062499999 50.39126025 -12.698033874999993 Q49.922298375000004 -13.00899849999999 49.335282375 -12.811748499999993 Q43.615032375 -12.022748499999992 38.376466875000006 -15.778092625 Q33.138 -19.533436749999993 32.250375 -25.450936749999997 Q32.15175 -26.186876499999997 31.889999250000002 -26.550999999999988 Q31.6282485 -26.915123499999993 31.11993525 -26.915123499999993 Q30.641998500000003 -26.915123499999993 30.24375075 -26.58137649999999 Q29.845404375 -26.247530874999995 29.96681175 -25.390282374999998 Q30.900001500000002 -18.456155874999993 36.961592625 -14.025624999999991 Q43.023282375 -9.595094124999989 49.8738735 -10.604126499999992 Z M47.326093875 -1.3029999999999973 Q36.187780875 -1.3029999999999973 28.350841125000002 -9.147237999999987 Q20.514 -16.991574625 20.514 -28.12899999999999 Q20.514 -36.330063249999995 26.8753125 -45.691844124999996 Q33.236625000000004 -55.053625 47.34 -67.943222125 Q61.739250000000006 -54.363249999999994 67.952625 -45.10009412499999 Q74.166 -35.836938249999996 74.166 -28.12899999999999 Q74.166 -16.991574625 66.315154125 -9.147237999999987 Q58.46430825 -1.3029999999999973 47.326093875 -1.3029999999999973 Z M47.34 -4.458999999999989 Q57.2025 -4.458999999999989 64.10625 -11.362749999999991 Q71.01 -18.266499999999994 71.01 -28.12899999999999 Q71.01 -34.835499999999996 65.68425 -42.824124999999995 Q60.3585 -50.812749999999994 47.34 -63.732625 Q34.3215 -50.812749999999994 28.99575 -42.824124999999995 Q23.67 -34.835499999999996 23.67 -28.12899999999999 Q23.67 -18.266499999999994 30.57375 -11.362749999999991 Q37.4775 -4.458999999999989 47.34 -4.458999999999989 Z"/></g><g id="Ultralight-S" transform="matrix(1 0 0 1 517.792 696)"><path d="M49.805625 -10.968249999999998 Q50.200125 -11.066874999999996 50.348062500000005 -11.279017374999995 Q50.496 -11.491159749999994 50.496 -11.871950874999996 Q50.496 -12.250374999999991 50.123098875000004 -12.447624999999988 Q49.75019775 -12.644874999999999 49.3125 -12.447624999999988 Q43.59225 -11.658624999999986 38.2171875 -15.504999999999995 Q32.842125 -19.35137499999999 31.954500000000003 -25.268874999999994 Q31.855875 -25.959249999999997 31.7079375 -26.255124999999992 Q31.560000000000002 -26.550999999999988 31.1655 -26.550999999999988 Q30.869625000000003 -26.550999999999988 30.57375 -26.35374999999999 Q30.277875 -26.156499999999994 30.3765 -25.367499999999993 Q31.264125 -18.660999999999987 37.28025 -14.3215 Q43.296375000000005 -9.982 49.805625 -10.968249999999998 Z M47.321853 -2.4864999999999924 Q36.688500000000005 -2.4864999999999924 29.193 -9.991665249999983 Q21.6975 -17.496731874999995 21.6975 -28.12899999999999 Q21.6975 -35.92037499999999 27.7629375 -44.89525 Q33.828375 -53.870124999999994 47.34 -66.3955 Q61.1475 -53.17975 67.065 -44.30349999999999 Q72.9825 -35.427249999999994 72.9825 -28.12899999999999 Q72.9825 -17.496731874999995 65.46885300000001 -9.991665249999983 Q57.955206 -2.4864999999999924 47.321853 -2.4864999999999924 Z M47.34 -4.458999999999989 Q57.2025 -4.458999999999989 64.10625 -11.362749999999991 Q71.01 -18.266499999999994 71.01 -28.12899999999999 Q71.01 -34.835499999999996 65.68425 -42.824124999999995 Q60.3585 -50.812749999999994 47.34 -63.732625 Q34.3215 -50.812749999999994 28.99575 -42.824124999999995 Q23.67 -34.835499999999996 23.67 -28.12899999999999 Q23.67 -18.266499999999994 30.57375 -11.362749999999991 Q37.4775 -4.458999999999989 47.34 -4.458999999999989 Z"/></g></g></svg>